<svg width="178" height="178" fill="none" xmlns="http://www.w3.org/2000/svg">
  <path transform="matrix(1 0 0 -1 -13 194)" fill="url(#a)" d="M0 0h1230v199H0z"/>
  <path d="M165.851 102.643c.681.577.865 1.338.761 2.169-.069.646-.15 1.304-.323 1.927-.323 1.211-.669 2.423-1.096 3.6a89.835 89.835 0 0 1-6.196 13.35 23.398 23.398 0 0 1-2.227 3.207c-2.065 2.527-4.2 4.985-6.346 7.431-2.18 2.481-4.361 4.973-6.553 7.454-1.823 2.065-3.681 4.107-5.516 6.161-1.869 2.088-3.738 4.188-5.607 6.277l-4.431 4.915c-1.477 1.638-2.942 3.288-4.419 4.927-1.442 1.604-2.885 3.196-4.327 4.8a1782.751 1782.751 0 0 0-4.615 5.146c-.496.565-.993 1.131-1.5 1.684a15.15 15.15 0 0 1-.969.947c-1.581 1.43-3.45 1.984-5.562 1.776a9.182 9.182 0 0 1-3.565-1.119c-1.996-1.096-3.508-2.654-4.454-4.742-.935-2.054-1.015-4.165-.323-6.311.346-1.05.865-2.02 1.511-2.931.993-1.396 2.089-2.7 3.197-3.992a294.38 294.38 0 0 1 7.811-8.746c2.435-2.596 4.846-5.216 7.281-7.812 2.053-2.192 4.13-4.373 6.207-6.553 1.904-1.997 3.796-4.004 5.712-5.989 2.019-2.088 4.061-4.154 6.092-6.242 1.465-1.512 2.919-3.035 4.396-4.535a379.777 379.777 0 0 1 4.258-4.257 16.362 16.362 0 0 1 1.592-1.373c1.511-1.166 3.034-2.308 4.557-3.45l.347-.277c.207-.173.242-.496.069-.658-.15-.138-.3-.265-.45-.404-1.085-.98-2.089-2.019-2.862-3.276-.738-1.189-1.061-2.481-.934-3.877.161-1.893 1.177-3.15 2.884-3.889.843-.357 1.731-.507 2.631-.565a12.51 12.51 0 0 1 3.877.415c1.5.393 2.988.854 4.454 1.397 1.223.45 2.446.899 3.68 1.326 1.039.358 2.089.704 3.15 1.004 1.558.439 3.139.658 4.754.646.808 0 1.604-.092 2.365-.392.993-.392 1.489-1.165 1.42-2.227-.047-.715-.3-1.373-.704-1.961a17.302 17.302 0 0 0-2.573-2.931c-1.489-1.338-3.058-2.585-4.639-3.83-1.811-1.431-3.6-2.885-5.238-4.512-1.281-1.27-2.458-2.642-3.242-4.304a6.989 6.989 0 0 1-.646-2.146c-.243-1.788.796-3.08 2.215-3.715a2.097 2.097 0 0 1 1.477-.104c.184.057.369.161.542.254.15.08.242.357.208.53-.035.173-.243.404-.393.416-.196.011-.392.011-.6.011-1.223 0-2.192 1.073-2.099 2.262.023.392.092.807.242 1.177.219.553.473 1.119.807 1.603a20.714 20.714 0 0 0 2.908 3.439c1.846 1.777 3.877 3.334 5.885 4.915a57.534 57.534 0 0 1 4.2 3.646 17.77 17.77 0 0 1 2.134 2.527c.658.923.992 1.973.923 3.116-.081 1.303-.681 2.272-1.857 2.896a6.193 6.193 0 0 1-2.147.657c-.853.104-1.696.093-2.55.012-1.453-.139-2.873-.45-4.28-.808a7.721 7.721 0 0 0-1.027-.196c-.069 0-.162.092-.231.138-.138-.311-.415-.438-.692-.542-2.169-.785-4.339-1.592-6.519-2.33-.946-.324-1.927-.555-2.908-.774a10.249 10.249 0 0 0-3.138-.23c-.45.046-.9.092-1.327.23-1.431.427-2.527 1.616-2.55 3.346 0 .612.104 1.212.334 1.766.358.83.773 1.638 1.42 2.296.738.738 1.477 1.5 2.33 2.123.323.231.497.254.82.035.957-.647 1.903-1.293 2.873-1.927 1.673-1.097 3.38-2.158 5.192-3.023a23.93 23.93 0 0 1 1.95-.797c.715-.253 1.454-.369 2.215-.219l-.046.012Zm-46.857 60.633c.427.843 1.004 1.523 1.604 2.193.058.069.346.057.415 0 .15-.127.323-.243.45-.393.981-1.073 1.95-2.157 2.919-3.242l5.723-6.381c1.443-1.603 2.885-3.196 4.327-4.811a2932.96 2932.96 0 0 0 5.608-6.288c1.8-2.02 3.611-4.039 5.4-6.058a701.833 701.833 0 0 0 5.446-6.219c1.731-2.008 3.438-4.05 5.157-6.081.231-.265.427-.554.624-.842.15-.219.15-.519-.012-.692-.485-.508-.969-1.016-1.465-1.512-.139-.138-.416-.138-.543-.011a7.432 7.432 0 0 0-.311.323c-1.073 1.188-2.146 2.388-3.231 3.565a896.26 896.26 0 0 1-4.454 4.892c-1.627 1.777-3.253 3.542-4.88 5.319-1.627 1.777-3.243 3.554-4.87 5.331-.542.588-1.096 1.165-1.649 1.742-.081.081-.312.058-.416-.023-.127-.104-.161-.288-.081-.392.37-.473.739-.946 1.131-1.396.692-.796 1.408-1.558 2.123-2.343 1.512-1.673 3.035-3.346 4.546-5.019 1.454-1.592 2.896-3.196 4.35-4.788 1.581-1.742 3.173-3.485 4.742-5.238.773-.854 1.523-1.731 2.273-2.608.127-.15.127-.415.012-.554-.092-.115-.173-.254-.277-.346-.808-.75-1.627-1.488-2.446-2.227-.115-.104-.242-.173-.369-.254-.173-.115-.416-.104-.554.012-.185.161-.381.323-.554.507-1.165 1.235-2.331 2.493-3.508 3.727-1.419 1.489-2.85 2.966-4.269 4.443-.588.611-1.177 1.234-1.777 1.846-.173.173-.392.3-.6.427-.057.034-.196 0-.265-.047-.069-.046-.115-.15-.138-.242-.035-.208.069-.381.219-.531.761-.807 1.511-1.603 2.261-2.411 1.777-1.904 3.566-3.808 5.331-5.723.785-.842 1.558-1.696 2.331-2.562.253-.288.23-.565-.035-.773a152.757 152.757 0 0 0-2.158-1.638c-.115-.092-.253-.15-.392-.219-.196-.093-.392-.093-.565.046-.266.219-.543.45-.785.704-1.558 1.569-3.092 3.138-4.65 4.707-1.511 1.535-3.046 3.058-4.546 4.604a984.78 984.78 0 0 0-5.942 6.185c-2.146 2.238-4.304 4.488-6.45 6.738-2.285 2.4-4.569 4.788-6.831 7.2-2.4 2.561-4.765 5.157-7.142 7.73-.334.37-.646.762-.969 1.154-.104.127-.035.427.115.531l.381.242c.946.577 1.881 1.143 2.827 1.719.173.104.346.197.531.289.15.081.3.058.427-.023s.242-.173.346-.289a938.707 938.707 0 0 1 3.231-3.565c1.084-1.188 2.169-2.365 3.253-3.542 1.604-1.731 3.208-3.45 4.8-5.192 1.593-1.731 3.173-3.485 4.766-5.227 1.834-1.996 3.68-3.969 5.526-5.942a29.615 29.615 0 0 1 1.616-1.57c.092-.092.277-.092.415.023.104.081.162.289.092.393-.138.207-.242.438-.403.623-.75.877-1.489 1.765-2.262 2.619-2.296 2.515-4.615 5.019-6.923 7.534-2.031 2.216-4.073 4.431-6.104 6.647-2.238 2.434-4.488 4.869-6.726 7.303a11.69 11.69 0 0 0-.497.566c-.3.369-.3.6.047.888 1.027.877 2.019 1.8 2.976 2.758.104.104.22.207.324.311.069.069.15.139.219.208.207.185.484.173.657-.023.577-.692 1.154-1.385 1.743-2.077 2.1-2.423 4.223-4.835 6.323-7.258 1.604-1.857 3.196-3.726 4.811-5.584.266-.3.577-.554.877-.819.058-.046.185-.023.277 0 .104.023.219.288.161.38-.161.254-.299.52-.496.75-1.511 1.812-3.034 3.612-4.546 5.412-2.642 3.15-5.215 6.357-7.926 9.45-.266.3-.474.634-.716.98v-.046Zm-2.411 4.327c-1.65-1.869-3.496-3.715-5.539-5.331-1.454-1.153-2.965-2.226-4.569-3.149-.127-.081-.254-.15-.392-.231-.473-.254-.75-.231-1.062.15-1.119 1.35-2.238 2.7-3.334 4.061-.346.427-.681.866-.969 1.339-.773 1.257-1.27 2.607-1.385 4.096-.115 1.546.185 3.011.981 4.327 1.119 1.857 2.711 3.196 4.765 3.957.9.335 1.835.508 2.792.485 1.35-.035 2.573-.427 3.6-1.304.496-.427.946-.9 1.396-1.362.312-.323.6-.669.9-1.003 1.096-1.235 2.181-2.481 3.3-3.704.669-.739.669-.889.058-1.639-.162-.196-.312-.392-.542-.68v-.012Zm46.476-57.241c-.22-.242-.393-.416-.566-.6-.957-1.05-2.111-1.835-3.311-2.573-.554-.335-1.027-.277-1.535.069-.946.658-1.915 1.281-2.873 1.927-.161.115-.323.242-.484.358a.793.793 0 0 0-.347.634c-.046.796-.08 1.604-.126 2.4a4.174 4.174 0 0 1-.104.739c-.023.08-.15.184-.208.173-.127-.023-.335-.104-.358-.196-.057-.289-.057-.589-.069-.889-.011-.496 0-1.004-.034-1.5 0-.058-.162-.161-.22-.15-.611.196-1.073.519-1.13 1.235-.139 1.696-.277 3.392-.427 5.1v.3a.724.724 0 0 0 .253.519c.15.127.312.254.474.369.034.023.092.035.138.058.115.057.346-.046.358-.173.08-.75.161-1.489.254-2.239.023-.196.08-.392.161-.565.035-.069.15-.115.242-.15.116-.035.208.023.231.138.035.197.092.393.081.589a113.53 113.53 0 0 1-.185 2.85c-.034.381.081.681.346.946 1.143 1.131 2.262 2.273 3.393 3.404.069.069.15.127.23.196.208.173.52.15.658-.058.289-.473.577-.934.842-1.419 1.731-3.115 3.196-6.346 4.512-9.669.092-.231.173-.473.254-.704.092-.265.011-.496-.139-.704-.115-.161-.254-.311-.323-.415h.012Zm-56.607 47.272c.185.162.312.312.473.427.335.219.681.427 1.015.635a39.025 39.025 0 0 1 6.716 5.261c1.107 1.085 2.215 2.169 3.173 3.404.184.231.415.415.646.611.058.047.196.035.265 0 .45-.265.727-.68.958-1.119.058-.104.035-.311-.035-.427a10.414 10.414 0 0 0-.727-1.131 31.228 31.228 0 0 0-3.265-3.715 30.247 30.247 0 0 0-7.154-5.157 2.302 2.302 0 0 0-.553-.231c-.139-.035-.335-.023-.427.057-.45.381-.843.831-1.108 1.408l.023-.023Zm43.557-45.011a1.391 1.391 0 0 0-.612.993c-.092.646-.207 1.28-.311 1.927a.573.573 0 0 0 .196.542c.265.219.554.415.842.623.185.127.416.035.427-.208.127-1.292.254-2.596.369-3.888 0-.046-.034-.092-.046-.139-.023-.115-.254-.219-.357-.15-.173.104-.347.208-.52.3h.012Zm-2.031 1.604s-.069.058-.115.092c-.346.3-.3.566.138.75.162.07.312.024.37-.103.103-.231.161-.462.08-.704-.023-.058-.138-.127-.207-.139-.093 0-.173.058-.266.104Z" fill="#C00"/>
  <path d="M105.895 175.242c-.22-.369.08-.958.45-.981.196-.011.392-.011.588.012 1.096.173 2.065-.139 2.954-.762.242-.173.485-.346.738-.508.208-.127.554-.08.681.093.162.219.15.461.069.704a.292.292 0 0 1-.08.126c-1.327 1.754-3.785 2.089-5.1 1.547-.127-.058-.231-.173-.312-.231h.012Zm8.131-3.808c-.184.046-.369.139-.542.139-.461 0-.761-.577-.519-.958.219-.358.542-.542.958-.577.415-.035.738.415.542.796-.104.208-.277.392-.427.612l-.012-.012Z" fill="#C00"/>
  <path d="M76.874 141.86c.043-.068-.077.093-.179.264a2.706 2.706 0 0 0 .307 3.201c.528.605 1.226.835 2 .877.35.017.699-.042 1.048-.059.213-.009.528.221.562.417.043.196.077.392.094.588.144 2.248.28 4.487.409 6.735.017.247-.035.494-.069.741-.025.153-.306.383-.442.357-.29-.059-.588-.119-.877-.187-1.099-.238-2.223.622-2.478 1.482-.315 1.022-.205 1.975.29 2.895.306.579.748 1.056 1.208 1.516.137.144.273.289.4.442.069.086.018.503-.068.571-.195.153-.374.323-.579.468-1.694 1.192-3.1 2.665-4.308 4.343a5.164 5.164 0 0 1-.486.562c-.102.111-.442.111-.562 0-.144-.136-.306-.264-.425-.417-.247-.315-.452-.656-.699-.971-.34-.443-.783-.766-1.285-1.013-.835-.409-1.882-.051-2.3.792a3.122 3.122 0 0 0-.306 1.898c.094.588.23 1.175.409 1.746.264.843.127 1.209-.733 1.448-1.49.417-2.98.86-4.47 1.285a4.58 4.58 0 0 1-.587.12c-.281.042-.64-.239-.63-.511 0-.247.05-.494.05-.741 0-.92-.391-1.635-1.15-2.146-.63-.426-1.31-.477-1.992-.153-.698.332-1.26.809-1.43 1.626-.051.247-.12.485-.188.724-.034.119-.349.298-.493.289-.102 0-.205.017-.298-.008-1.584-.468-3.16-.945-4.735-1.422-.213-.06-.4-.358-.392-.588 0-.153.026-.298.035-.451.017-.247.042-.502.034-.749-.12-2.359-2.138-3.772-4.403-3.202-.29.068-.553.221-.834.324-.136.051-.281.093-.426.136-.17.051-.443-.077-.51-.222-.086-.178-.18-.357-.24-.544l-1.89-5.85c-.06-.188-.076-.392-.102-.588-.025-.17.145-.434.298-.477.239-.059.486-.11.724-.162.843-.17 1.43-.672 1.83-1.422.401-.757.299-1.754-.289-2.384-.57-.613-1.277-.962-2.137-.894-.298.026-.596.085-.894.119-.204.026-.485-.272-.485-.485 0-.145-.009-.298.017-.443.366-1.762.732-3.525 1.098-5.279.017-.094.06-.187.094-.281.102-.298.357-.511.664-.52.349-.017.707.009 1.047-.042 1.082-.162 1.993-.647 2.64-1.55.98-1.371.937-2.793.187-4.24-.162-.307-.4-.571-.596-.869a.65.65 0 0 1 .12-.817c1.072-.98 2.145-1.942 3.218-2.921.366-.332.715-.69 1.09-1.022.23-.196.622-.162.8.094.384.536.835.996 1.44 1.286.97.459 1.941.476 2.852-.128a3.04 3.04 0 0 0 1.38-2.223c.05-.391.017-.8.034-1.192 0-.196.298-.477.502-.502.145-.017.298-.043.451-.034 1.9.111 3.79.221 5.688.34.145.009.307.043.435.103.178.085.349.23.366.442.025.35 0 .699.05 1.048.111.817.452 1.524 1.074 2.086 1.354 1.235 3.074.954 4.138.179.239-.179.451-.392.69-.579.255-.205.579-.213.826-.017.34.289.69.579 1.013.894 1.252 1.226 2.427 2.512 3.44 3.951.12.162.239.323.34.494.162.272.214.553 0 .834-.093.119-.178.239-.442.579l.017.009Zm-4.734-5.458c-.52.281-.894.527-1.312.706-1.54.647-3.014.545-4.394-.468a4.272 4.272 0 0 1-1.609-2.282c-.085-.29-.128-.588-.196-.877-.093-.392-.23-.545-.579-.571-1.15-.085-2.29-.17-3.44-.221-1.005-.043-1.064-.077-1.243 1.005-.162.979-.698 1.771-1.413 2.418-1.15 1.039-2.972 1.235-4.352.511-.391-.204-.75-.494-1.132-.724-.162-.094-.35-.145-.545-.221-.988.902-1.942 1.779-2.895 2.665-.213.196-.264.443-.162.673.162.366.357.715.494 1.09.434 1.226.451 2.469-.077 3.653-.69 1.558-1.899 2.529-3.568 2.929-.383.093-.834 0-1.15.272-.357.324-.314.818-.416 1.252-.18.775-.333 1.567-.494 2.342-.026.144-.068.306-.043.442.026.128.12.29.23.341.17.085.383.102.579.136.715.111 1.32.46 1.848.937.877.783 1.286 1.771 1.081 2.955-.179 1.038-.724 1.847-1.592 2.435-.332.221-.698.383-1.039.587a.321.321 0 0 0-.12.256c.018.196.052.392.111.579.333 1.047.673 2.095 1.005 3.142.094.281.188.571.29.852.119.34.298.417.707.349.34-.06.69-.145 1.03-.171 1.592-.085 2.955.401 3.968 1.678a4.37 4.37 0 0 1 .98 2.622c.033.98.076 1.073 1.038 1.32.775.196 1.533.443 2.308.656.17.051.417-.068.51-.23.077-.128.137-.264.205-.4.272-.554.707-.979 1.2-1.311 1.124-.758 2.308-.912 3.526-.205a3.646 3.646 0 0 1 1.677 2.035c.11.315.051.707.392.928.102.017.213.06.298.034a177.78 177.78 0 0 0 3.023-.868c.136-.043.255-.136.425-.23-.016-.187-.008-.383-.042-.579-.077-.443-.187-.877-.247-1.328-.11-.809.017-1.593.332-2.342.451-1.056 1.652-2.112 3.295-1.72.332.077.656.238.963.409.621.34 1.115.834 1.566 1.371.128.153.392.136.528-.017 1.167-1.303 2.334-2.606 3.713-3.687.128-.103.136-.392.017-.554-.23-.323-.494-.63-.698-.971-.605-.962-.894-2.001-.758-3.142.213-1.856 1.447-3.014 3.031-3.227.196-.025.4-.034.596-.06.18-.025.35-.238.35-.434 0-.051.008-.102 0-.153-.103-1.643-.205-3.295-.316-4.939-.017-.196-.085-.383-.136-.579-.57-.119-1.107-.204-1.635-.34-2.018-.52-3.406-2.989-2.29-5.305.11-.222.247-.435.366-.656.162-.298.11-.579-.085-.834-.937-1.303-2.01-2.478-3.176-3.585-.137-.137-.324-.222-.537-.366l.009.017Zm-34.045 18.052c.579.391 1.166.775 1.737 1.166.161.111.298.264.442.401.094.085.103.476.017.57-.238.247-.51.477-.732.741-.587.707-.63 1.762-.136 2.52a1.84 1.84 0 0 0 1.056.784c.332.102.681.179 1.03.102 1.056-.247 1.158.094 1.286 1.064.128.937.29 1.874.426 2.819.034.247.034.494.034.741 0 .17-.205.391-.375.417-.145.025-.29.051-.443.068-.196.025-.4.025-.596.068-1.813.417-2.588 2.299-1.567 3.849.213.332.52.596.784.894.093.102.11.451.025.57-.119.162-.23.333-.374.469a26.232 26.232 0 0 1-3.245 2.648c-.119.085-.264.136-.4.204-.127.06-.485 0-.57-.102-.154-.196-.324-.383-.452-.596a2.734 2.734 0 0 0-1.115-.971 2.127 2.127 0 0 0-.707-.204c-.885-.085-1.575.392-1.813 1.226-.077.29-.12.588-.137.886-.017.349 0 .698 0 1.047 0 .477-.247.724-.766.698a81.339 81.339 0 0 1-3.287-.23 38.29 38.29 0 0 1-2.222-.289c-.511-.077-.707-.366-.605-.826.043-.196.102-.383.145-.579.05-.247.119-.485.153-.732a2.898 2.898 0 0 0-.162-1.473 2.12 2.12 0 0 0-.587-.86c-.537-.469-1.15-.673-1.797-.333-.869.452-1.158.247-1.396-.604-.298-1.065-.682-2.086-1.244-3.04-.221-.375-.161-.673.12-.945.178-.17.383-.315.562-.494.715-.69.877-1.737.417-2.614-.17-.324-.4-.571-.698-.767-.298-.187-.605-.34-.912-.519-.272-.162-.374-.443-.264-.775.145-.426.316-.843.477-1.26.273-.698.537-1.397.826-2.086a4.81 4.81 0 0 1 .528-.903c.068-.094.264-.162.392-.153.34.042.681.153 1.022.196.928.102 1.856-.409 2.222-1.209.188-.418.256-.86.188-1.32-.043-.298-.12-.588-.17-.877-.026-.179.119-.426.28-.486.136-.059.273-.127.418-.161 1.362-.316 2.707-.69 3.985-1.278.136-.059.29-.076.434-.102.221-.043.536.179.545.4.017.298-.009.596.008.894.034.511.222.963.562 1.363 1.022 1.2 2.487.775 3.15 0 .197-.222.333-.494.486-.75.102-.17.162-.366.256-.536.11-.204.443-.315.655-.213.18.085.358.17.52.29.528.374 1.047.766 1.575 1.149-.008.017-.017.026-.026.043h.035Zm-7.034 20.768c.077-.494.102-.996.23-1.473.383-1.439 1.422-2.299 2.955-2.231.451.017.894.119 1.277.375.332.221.681.434.97.706.716.673.784.503 1.389.06.562-.417 1.064-.903 1.592-1.362.145-.128.17-.358.068-.554-.187-.349-.417-.69-.562-1.056-.502-1.32-.34-2.546.57-3.653.392-.477.895-.8 1.448-1.039.273-.119.562-.204.835-.332.076-.034.145-.161.145-.247a9.396 9.396 0 0 0-.367-2.367c-.52-.11-1.005-.187-1.481-.332-1.448-.434-2.359-1.865-2.172-3.363.06-.443.17-.886.4-1.286.12-.213.222-.434.316-.613-.035-.111-.035-.17-.069-.205-.621-.664-1.396-1.115-2.154-1.592-.042-.025-.093-.051-.145-.042-.093 0-.221 0-.28.051-.214.204-.4.442-.614.655-1.677 1.652-4.07 1.278-5.202-.698-.17-.298-.281-.639-.418-.962-.076-.17-.298-.273-.502-.213-.673.196-1.345.4-2.01.596-.621.187-.63.204-.69.954-.016.196-.025.4-.05.596-.23 1.541-1.397 2.614-2.913 2.784-.349.043-.698 0-1.047.009-.213 0-.4.076-.485.281-.324.783-.63 1.575-.937 2.367-.077.196-.008.392.153.536.332.298.724.554.997.903.996 1.26.962 2.827 0 4.164-.511.409-.57.877-.239 1.439.196.34.307.732.451 1.107.23.621.299.826 1.065.732.962-.119 1.754.324 2.393 1.005.604.647.868 1.456.902 2.325.017.4-.042.8-.068 1.192-.017.323.094.519.375.545 1.14.119 2.282.23 3.431.332.137.008.281-.077.452-.128l-.009.034Zm21.21.298a5.961 5.961 0 0 1-2.197-2.418c-.085-.179-.127-.375-.187-.562-.051-.179.068-.418.23-.503.187-.093.383-.128.57-.025.128.068.247.17.341.281.196.221.366.468.562.698 1.49 1.763 3.38 2.725 5.705 2.793.247 0 .494 0 .74.025.265.034.452.205.563.443.12.256-.043.681-.298.75-.238.068-.485.136-.724.136-1.899.042-3.627-.486-5.288-1.627l-.017.009Zm-33.488-20.206a8.501 8.501 0 0 0-1.72 3.61c-.069.341-.154.681-.239 1.013-.042.145-.11.273-.179.409-.068.136-.349.273-.502.247-.162-.025-.417-.23-.434-.366-.034-.196-.068-.392-.068-.588.017-1.064.298-2.077.74-3.022.596-1.269 1.337-2.453 2.47-3.33.238-.179.536-.153.817.06.145.11.239.4.17.528-.068.127-.119.272-.212.391-.273.358-.562.699-.843 1.048Zm32.247 23.969a5.526 5.526 0 0 1-1.669-1.72c-.102-.162-.153-.358-.196-.545-.05-.221.12-.494.341-.596.196-.085.392-.085.553.051a3.7 3.7 0 0 1 .528.511c.656.843 1.456 1.465 2.512 1.746.137.034.264.127.392.196.247.136.358.485.255.774a.616.616 0 0 1-.57.392c-.102 0-.204.009-.298-.008-.673-.179-1.32-.409-1.848-.801ZM13.503 154.47c.195-.187.366-.366.57-.519.17-.128.375-.119.562-.026.29.137.451.486.315.741-.247.486-.502.971-.638 1.507a.663.663 0 0 1-.154.256.562.562 0 0 1-.52.23c-.22-.017-.357-.162-.442-.349a1.3 1.3 0 0 1-.068-.877c.094-.332.247-.648.366-.963h.009Z" fill="#002D9A"/>
  <path d="M65.553 154.107c-1.294 2.163-3.84 3.006-6.054 1.933-1.848-.894-3.312-2.92-2.529-5.62.281-.979.852-1.805 1.61-2.478a3.59 3.59 0 0 1 1.575-.817c1.78-.426 3.38-.026 4.717 1.209 1.413 1.303 1.78 3.483.962 5.245a5.354 5.354 0 0 1-.29.537l.01-.009Zm-6.037.639c1.626 1.124 3.883.664 4.973-1.013 1.039-1.61.826-3.866-.911-5.007-1.729-1.133-3.909-.758-5.007.902-1.311 1.993-.622 4.071.945 5.118Z" fill="#002D9A"/>
  <path d="M56.663 147.711c-.52.809-.936 1.652-.97 2.639 0 .196-.06.392-.128.579-.026.068-.154.137-.23.137-.085 0-.213-.043-.256-.111a1.006 1.006 0 0 1-.162-.409c-.093-.664.035-1.303.282-1.907a7.257 7.257 0 0 1 1.737-2.597c.817-.775 1.788-1.286 2.903-1.473 2.725-.46 5.075.298 6.88 2.409 1.687 1.976 2.231 4.309 1.763 6.872a.417.417 0 0 1-.162.238.379.379 0 0 1-.272.06.397.397 0 0 1-.23-.162c-.153-.23-.068-.485-.043-.724.085-.851.026-1.694-.127-2.537-.316-1.703-1.167-3.082-2.53-4.121-1.31-1.005-2.826-1.49-4.495-1.32-1.695.17-3.006 1.005-3.951 2.418l-.009.009Zm.56 10.091a5.872 5.872 0 0 1-2.334-3.466c-.042-.187-.042-.4.017-.579.035-.102.213-.187.341-.229.068-.017.213.051.247.119.136.264.247.536.35.817.23.613.536 1.175.936 1.695 1.856 2.401 5.594 2.725 7.919.868.349-.281.647-.613.97-.928.111-.102.205-.238.341-.281.12-.042.315-.042.409.034.094.068.17.264.136.375-.128.443-.434.783-.766 1.081-2.12 1.925-5.365 2.631-8.575.486l.009.008Zm-28.727 4.709c1.107-1.729 3.38-2.495 5.169-1.167 1.396 1.039 1.899 2.835 1.15 4.402-.886 1.857-3.27 2.674-5.076 1.576-1.473-.895-1.941-2.615-1.626-3.866.102-.426.34-.818.392-.937l-.009-.008Zm1.703 3.738c1.098.783 2.708.485 3.508-.826.724-1.192.154-2.853-1.124-3.423-1.166-.52-2.529 0-3.184 1.183-.477.86-.222 2.418.8 3.057v.009Z" fill="#002D9A"/>
  <path d="M64.25 114.919c-.066.018-.144.039-.208.068-6.686 2.474-13.363 4.933-20.046 7.418a538.138 538.138 0 0 0-5.764 2.203c-1.301.504-2.626.919-4.01 1.158-4.558.766-7.726-1.544-9.357-4.949-.45-.921-.794-1.893-1.094-2.878-.838-2.816-1.632-5.643-2.448-8.464l-.17-.636c-1.15-4.025-2.311-8.046-3.44-12.076-1.052-3.751-2.057-7.503-3.088-11.26l-.17-.636c-1.083-3.815-2.165-7.63-3.224-11.451-.953-3.467-1.873-6.943-2.817-10.424-.153-.57-.305-1.139-.466-1.694-.753-2.766-1.515-5.518-2.257-8.287-.344-1.285-.478-2.589-.534-3.914-.132-3.352 1.33-5.802 4.213-7.412a35.301 35.301 0 0 1 3.781-1.791c3.75-1.508 7.513-2.959 11.271-4.433 3.078-1.195 6.16-2.38 9.238-3.576 4.444-1.73 8.895-3.473 13.339-5.202.067-.018.142-.05.206-.079 5.085-1.925 10.162-3.836 15.247-5.76a11105.9 11105.9 0 0 0 17.701-6.743c.067-.018.143-.05.207-.079 7.54-2.678 14.968-5.686 22.552-8.245 1.252-.419 2.504-.838 3.776-1.227a19.877 19.877 0 0 1 4.992-.799c1.718-.065 3.347.252 4.905 1.02 1.459.71 2.825 1.564 4.141 2.504 1.97 1.411 3.259 3.364 4.254 5.514.428.927.773 1.9 1.151 2.864.425 1.094.73 2.234 1.339 3.255.343.566.486 1.234.438 1.905-.083 1.207.286 2.317.647 3.441 2.163 6.553 4.348 13.1 6.447 19.683a558.62 558.62 0 0 1 4.627 15.168c1.2 4.167 2.263 8.358 3.352 12.554.368 1.421.648 2.866.636 4.341-.024 5.716-2.543 9.981-7.444 12.862-2.544 1.495-5.242 2.637-8.018 3.62-4.296 1.522-8.565 3.097-12.866 4.597-3.056 1.058-6.138 2.016-9.206 3.029-.485.154-.982.311-1.461.487-.36.132-.61.403-.756.753a6.263 6.263 0 0 0-.266.837c-.313 1.377-.923 2.629-1.576 3.857-.991 1.882-2.065 3.725-3.33 5.44-.558.772-1.16 1.52-1.91 2.116-.946.756-2.033.449-2.424-.739a11.202 11.202 0 0 1-.398-1.712c-.26-1.594-.276-3.217-.326-4.832a47.6 47.6 0 0 0-.053-1.314c-.03-.423-.35-.636-.771-.511a5.87 5.87 0 0 0-.63.193 1440.035 1440.035 0 0 0-9.335 3.35 2151.051 2151.051 0 0 0-11.376 4.174c-2.408.884-4.821 1.794-7.23 2.679l.013.044-.003-.011Zm-4.67-91.26c-1.657.648-3.908 1.538-6.176 2.409-5.146 1.965-10.298 3.908-15.447 5.862-.142.05-.27.109-.412.159L24.83 37.075c-3.757 1.474-7.533 2.928-11.27 4.433a30.266 30.266 0 0 0-3.375 1.61c-2.322 1.292-3.503 3.272-3.38 5.968.051 1.171.175 2.347.48 3.486.721 2.69 1.456 5.39 2.189 8.078.17.636.363 1.267.537 1.915.93 3.472 1.86 6.945 2.816 10.423 1.06 3.82 2.153 7.633 3.224 11.45l.17.637c1.031 3.757 2.037 7.51 3.09 11.26 1.127 4.03 2.289 8.051 3.439 12.076l.17.636c.816 2.821 1.598 5.652 2.448 8.464.267.91.616 1.809 1.026 2.669 1.516 3.112 4.146 4.442 7.598 3.924a14.253 14.253 0 0 0 3.176-.875c1.365-.533 2.724-1.089 4.107-1.603 3.912-1.479 7.84-2.939 11.759-4.395 5.236-1.942 10.455-3.903 15.7-5.811 7.796-2.843 15.611-5.655 23.41-8.487.206-.079.412-.158.621-.226.626-.168.986-.563 1.163-1.197.695-2.544 1.423-5.097 2.118-7.64.053-.206.063-.436.028-.654-.019-.115-.173-.29-.268-.288a2.72 2.72 0 0 0-.853.169c-1.44.565-2.854 1.184-4.289 1.724-4.115 1.57-8.234 3.127-12.366 4.678-4.33 1.615-8.675 3.222-13.008 4.826-5.922 2.197-11.844 4.394-17.76 6.613-1.652.622-3.279 1.298-4.91 1.95-1.16.454-2.33.912-3.494 1.343-.48.177-.97.356-1.474.443-1.495.269-2.762-.169-3.71-1.387-.456-.584-.84-1.212-1.053-1.92-.3-.985-.6-1.97-.889-2.958-.527-1.833-1.043-3.67-1.57-5.503-.327-1.133-.674-2.249-.99-3.385-1.078-3.888-2.148-7.79-3.226-11.678-.952-3.467-1.927-6.927-2.883-10.405l-.17-.637c-.813-3.121-1.617-6.257-2.43-9.378-.699-2.697-1.423-5.4-2.11-8.1-.387-1.487-.766-2.99-1.119-4.486-.25-1.07-.49-2.143-.674-3.23-.087-.504-.082-1.02-.051-1.53.062-.843.437-1.542 1.11-2.07a7.275 7.275 0 0 1 1.71-.984c2.866-1.14 5.727-2.3 8.593-3.44.746-.295 1.507-.583 2.254-.879 4.167-1.643 8.325-3.32 12.499-4.94 4.724-1.841 9.464-3.626 14.195-5.444.206-.08.412-.158.616-.249 4.727-1.829 9.435-3.689 14.172-5.485 5.768-2.191 11.544-4.35 17.318-6.519l.618-.237c4.69-1.927 9.503-3.528 14.272-5.249.622-.226 1.258-.396 1.891-.578.801-.227 1.604-.179 2.398.015 1.383.336 2.355 1.153 2.888 2.47.187.476.344.973.51 1.455l2.916 9.008c.154.486.353.96.574 1.427.049.094.24.139.378.161.039.014.133-.083.155-.137.167-.404.334-.807.473-1.228.543-1.677 1.062-3.36 1.617-5.04.611-1.828 1.407-3.549 2.882-4.878.359-.311.433-.75.274-1.21-.567-1.667-1.091-3.358-1.711-5-.302-.816-.728-1.6-1.172-2.366-1.101-1.919-2.796-2.973-4.987-3.2a10.71 10.71 0 0 0-1.531-.044c-1.548.032-3.069.296-4.559.72a63.845 63.845 0 0 0-3.152 1.011 355.973 355.973 0 0 0-13.246 4.83c-4.316 1.671-8.687 3.178-13 4.86-5.82 2.265-11.686 4.4-18.134 6.821l-.017-.019Zm18.226 74.272-.009-.034c3.36-1.26 6.736-2.51 10.101-3.795 2.748-1.048 5.469-2.148 8.202-3.203.596-.232.977-.597 1.146-1.217.524-1.84 1.066-3.66 1.604-5.492 4.73-16.203 9.747-32.316 14.776-48.432.282-.913.553-1.823.849-2.728.192-.578.16-1.144-.021-1.73-.895-2.716-1.771-5.45-2.667-8.166-.068-.209-.169-.41-.248-.615-.112-.282-.534-.384-.715-.168-.325.398-.652.785-.945 1.21-1.646 2.345-3.277 4.697-4.909 7.049a8.538 8.538 0 0 1-3.256 2.81c-.125.07-.267.12-.403.193-2.332 1.08-4.644 2.19-6.995 3.238-2.469 1.105-2.146.659-2.322 3.351-.555 8.203-.677 16.41-.508 24.635.07 3.212.48 2.504-2.122 4.541C80.905 75.953 72.23 82.215 63.45 88.35c-1.563 1.089-3.126 2.178-4.686 3.278-.455.313-.65.748-.617 1.314.182 3.003.328 6.004.51 9.007.195 3.227-.158 3.118 3.047 1.948 3.924-1.435 7.848-2.917 11.766-4.373 1.449-.532 2.901-1.053 4.353-1.574l-.017-.02Zm53.61-46.606.023-.006c-.339-1.13-.663-2.252-1.002-3.382-.945-3.17-1.879-6.342-2.821-9.5-.588-1.973-1.21-3.937-1.818-5.892-.086-.276-.247-.52-.4-.779-.009-.033-.13-.037-.2-.03a.52.52 0 0 0-.184.073c-.087.12-.186.242-.223.371-1.014 3.228-2.017 6.453-3.023 9.666a2.155 2.155 0 0 0-.023 1.3c.68 2.402 1.348 4.808 2.028 7.21.345 1.2.713 2.395 1.059 3.595 1.477 5.157 2.952 10.303 4.407 15.466.534 1.903 1.026 3.83 1.541 5.75.096.358.18.718.217 1.08.259 2.395-.713 4.128-2.902 5.157-.532.25-1.08.481-1.626.675-3.645 1.36-7.307 2.7-10.952 4.06-2.405.896-4.795 1.847-7.217 2.724-.697.258-1.054.713-1.252 1.4-.668 2.333-1.364 4.65-2.045 6.975-.079.284-.111.568-.165.858-.028.163.26.433.427.388.282-.064.573-.094.849-.18 2.446-.787 4.915-1.532 7.335-2.372 4.781-1.676 9.553-3.385 14.316-5.128a73.828 73.828 0 0 0 4.693-1.916c3.515-1.576 5.491-4.296 5.897-8.139a17.943 17.943 0 0 0-.088-4.392c-.365-2.703-1.068-5.327-1.838-7.933-1.461-5.006-2.956-10.003-4.439-15.003-.214-.709-.402-1.412-.594-2.127l.02.03Zm-8.907-17.923c-.145-.14-.264-.36-.45-.43a72.087 72.087 0 0 0-3.315-1.206c-2.011-.67-1.933-.691-2.563 1.333-1.897 6.097-3.805 12.197-5.699 18.306-4.452 14.381-8.836 28.793-12.936 43.283a622.946 622.946 0 0 0-1.888 6.801c-.166.631-.323 1.295-.34 1.946-.073 2.497-.04 4.989.243 7.475.02.21.114.424.168.625.042.156.45.25.571.122.298-.319.624-.622.876-.976 1.132-1.536 2.102-3.185 3.042-4.861.795-1.409 1.468-2.87 1.842-4.467.218-.932.525-1.84.795-2.75 6.052-20.65 12.349-41.235 18.713-61.79.282-.913.564-1.826.835-2.736.063-.209.062-.436.103-.686l.003.011Zm2.614 27.532-.034.009c-.463-1.552-.924-3.092-1.365-4.649-.872-3.033-1.734-6.07-2.618-9.1-.054-.201-.189-.392-.309-.576-.024-.041-.122-.05-.195-.055-.062-.007-.165.008-.178.048-.213.547-.453 1.079-.615 1.637a3479.274 3479.274 0 0 0-4.766 15.578 9649.433 9649.433 0 0 0-6.175 20.456c-.207.702-.363 1.414-.542 2.132-.044.192.218.456.397.408.282-.063.581-.108.843-.202 3.726-1.369 7.444-2.724 11.167-4.105 1.926-.72 3.842-1.472 5.762-2.214a9.998 9.998 0 0 0 1.208-.539c1.139-.616 1.731-1.577 1.659-2.874a9.284 9.284 0 0 0-.33-1.946 5692.47 5692.47 0 0 0-3.884-14.003l-.025-.005Zm-68.58 34.508c.058-1.212-.113-2.387-.113-3.548-.002-.633-.271-1.1-.821-1.455a190.702 190.702 0 0 1-4.39-2.94c-.296-.209-.555-.463-.825-.713-.115-.113-.096-.49.054-.601.108-.089.266-.167.393-.142.675.107 1.198.541 1.748.896 1.358.87 2.71 1.764 4.068 2.632.247.162.499.298.77.416.121.052.307.074.426.03.82-.34 1.554-.811 2.126-1.491.063-.077.037-.31-.043-.384a8.617 8.617 0 0 0-1.023-.827c-2.607-1.778-5.241-3.526-7.84-5.319-7.498-5.16-15-10.33-22.49-15.504a5.983 5.983 0 0 0-.541-.37 1.939 1.939 0 0 1-.895-1.196c-.03-.112-.194-.187-.385-.364-1.266.412-2.6.793-3.878 1.339-.097.038-.204.222-.21.331a.54.54 0 0 0 .172.373c4 2.734 8.007 5.454 12.01 8.2 4.12 2.821 8.23 5.657 12.333 8.507a8.47 8.47 0 0 1 1.183.976c.1.105.097.452-.01.589-.096.133-.425.245-.564.175a17.704 17.704 0 0 1-1.688-1.032c-6.87-4.646-13.742-9.303-20.615-13.96-.482-.325-.968-.662-1.461-.985-.187-.117-.377-.246-.586-.31-.104-.031-.262.047-.38.102-.055.015-.098.123-.091.192.002 1.125.456 2.152.693 3.213.17.769.63 1.28 1.263 1.72 2.599 1.794 5.197 3.587 7.777 5.397 7.107 4.953 14.207 9.92 21.317 14.884.605.425 1.206.838 1.835 1.22.142.082.404-.012.661-.033l.02-.018Zm-9.7 14.005c.518-.211.992-.41 1.465-.608.26-.106.31-.586.077-.739-.731-.498-1.468-.971-2.19-1.472a3.742 3.742 0 0 1-.654-.566c-.068-.078-.077-.291-.023-.401.054-.11.228-.265.315-.252.279.057.575.133.815.272 1.003.617 1.987 1.251 2.974 1.896.524.35 1.067.456 1.666.188l2.404-1.075c.15-.064.169-.488.035-.584a30.541 30.541 0 0 0-1.413-1.033c-3.526-2.395-7.046-4.766-10.56-7.164-3.762-2.558-7.515-5.131-11.265-7.693-.483-.325-.992-.62-1.49-.917-.057-.033-.172-.014-.21.02-.094.097-.23.218-.222.335.029 1.046.44 2 .681 2.99.186.74.538 1.291 1.246 1.7.948.548 1.796 1.254 2.687 1.9 2.734 1.985 5.465 3.958 8.19 5.956.414.296.785.652 1.164.993.125.11.085.54-.046.587-.134.036-.318.109-.417.052-.567-.327-1.144-.651-1.678-1.035-2.682-1.926-5.348-3.88-8.02-5.81a17.96 17.96 0 0 0-1.476-.956c-.1-.057-.272.013-.403.06-.034.009-.06.136-.042.203.297 1.284.605 2.566.898 3.84.178.754.585 1.291 1.24 1.726 3.95 2.544 7.887 5.092 11.82 7.664.55.355 1.072.431 1.654.191.27-.108.561-.186.79-.271l-.012.003Zm-9.103-48.58c-.825.137-1.647.465-2.474.77-.535.192-1.16.228-1.521.755.06.81.793.996 1.295 1.353 6.888 4.892 13.781 9.759 20.677 14.637 2.642 1.865 5.276 3.744 7.915 5.598.415.296.857.56 1.295.814.114.066.319.07.424.018.962-.52 1.897-1.094 2.663-1.898.074-.08.09-.335.013-.398-.43-.4-.869-.785-1.343-1.125-4.17-3.011-8.34-6.023-12.514-9.009-4.831-3.469-9.682-6.92-14.52-10.375-.594-.427-1.138-.94-1.924-1.148l.014.008Zm5.862-2.061c-1.217.326-2.397.702-3.532 1.245-.158.078-.239.447-.114.557.39.339.758.683 1.172.979 8.373 5.966 16.742 11.922 25.115 17.888 1.067.767 2.123 1.538 3.205 2.313 1.61-.731 2.325-1.281 2.867-2.252-.444-.36-.88-.734-1.353-1.074-2.91-2.105-5.822-4.22-8.76-6.294-1.977-1.397-3.876-2.898-5.958-4.148-3.152-2.518-6.535-4.735-9.775-7.134-.88-.65-1.771-1.297-2.844-2.087l-.023.007ZM31.66 62.963c-1.193.236-2.283.636-3.351 1.114-.17.081-.217.44-.067.556.228.178.447.371.685.546 3.26 2.25 6.517 4.49 9.788 6.737 7.01 4.811 14.023 9.634 21.032 14.446.483.326.976.648 1.494.928.167.087.456.094.622.001.64-.339 1.321-.653 1.734-1.302.06-.088.056-.326-.02-.39a13.416 13.416 0 0 0-1.18-.964c-4.26-2.988-8.538-5.958-12.781-8.974-5.509-3.898-10.99-7.827-16.479-11.741-.474-.34-.975-.648-1.457-.974l-.02.017Zm-6.49 14.904c.156.58.217.72.242.857.193.989.734 1.67 1.593 2.241 3.79 2.528 7.534 5.114 11.296 7.673 5.344 3.642 10.674 7.277 16.015 10.908.602.413 1.23.795 1.851 1.191.244.15.653-.067.662-.345.052-1.65-.61-2.963-1.99-3.942-.239-.176-.485-.337-.724-.513l-27.348-19.3a29.65 29.65 0 0 0-.723-.512 7.507 7.507 0 0 0-.366-.25c-.35-.229-.647-.269-.787-.123-.177.19-.165.415-.11.616.147.642.318 1.278.36 1.482l.029.017ZM133.57 44.8c-1.251-3.818-3.13-9.538-5.01-15.257-.322-.98-.644-1.958-.975-2.923a1.443 1.443 0 0 0-.337-.544c-.065-.066-.34-.064-.373-.007-.527.847-.77 1.726-.442 2.727.233.692.414 1.41.627 2.118a10253.64 10253.64 0 0 1 5.403 17.928c.095.358.213.709.306 1.055 1.45 5.01 2.889 10.021 4.372 15.021.77 2.606 1.54 5.212 2.177 7.854.705 2.947 1.083 5.921.66 8.943-.02.149-.017.292-.012.446.015.056.076.147.098.141.126-.022.313-.036.365-.11 1.344-2.31 1.714-4.815 1.443-7.435a16.881 16.881 0 0 0-.481-2.6c-1.136-4.327-2.241-8.675-3.477-12.975-1.189-4.17-2.509-8.292-4.353-14.368l.009-.014ZM27.66 86.762l7.248 4.94 18.722 12.791c.542.369 1.103.721 1.656 1.088.48.314.959.317 1.439.009.358-.227.394-.584.376-.962-.007-.07-.017-.151-.012-.224.09-.958-.164-1.728-1.08-2.2-.459-.237-.851-.586-1.274-.868L28.55 83.471c-.307-.205-.602-.413-.92-.615-.115-.077-.26-.17-.398-.192-.126-.026-.303-.015-.391.057a.541.541 0 0 0-.162.378c.13 1.246.587 2.416.964 3.643l.017.02Zm46.002-7.827c1.04-.626 1.925-1.257 2.745-1.992.127-.106.124-.476-.007-.608-.149-.152-.292-.329-.47-.46a6792.347 6792.347 0 0 0-12.542-9.422c-1.295.347-2.641.684-3.981 1.043-.134.036-.253.128-.39.2-.158.078-.205.438-.052.565.328.283.65.592.993.847 2.138 1.545 4.275 3.09 6.424 4.633 2.384 1.707 4.765 3.403 7.269 5.197l.01-.003Zm-6.308-13.76.015.056c-.55.183-1.11.37-1.656.563-.168.045-.265.442-.14.552.32.298.63.61.974.864 3.448 2.595 6.904 5.176 10.36 7.756.238.176.474.34.728.487.27.155.584.167.836-.008.773-.554 1.515-1.136 2.268-1.72.138-.11.154-.497.032-.596-.27-.25-.53-.504-.817-.727-3.217-2.536-6.442-5.06-9.667-7.582a.933.933 0 0 0-.82-.2c-.706.178-1.407.378-2.121.57l.008-.015Zm56.7-37.261c.108-.09.281-.16.324-.267.696-1.778 1.328-3.575 1.737-5.444.106-.495.123-1.014.128-1.53.003-.527-.169-1.032-.534-1.413-.351-.372-.713-.742-1.136-1.024-.8-.527-1.727-.459-2.465.134-.7.559-1.275 1.227-1.657 2.036-.344.726-.696 1.467-.936 2.225-1.256 3.975-1.723 3.083 2.037 4.565.683.271 1.38.504 2.076.736.13.037.286-.005.429-.007l-.003-.012ZM85.255 70.167c-.217-.229-.39-.47-.613-.637-2.267-1.715-4.556-3.423-6.834-5.135-.585-.441-1.186-.855-1.78-1.282-.249-.172-.525-.266-.824-.174-1.043.303-2.125.51-3.098 1.034-.147.075-.203.449-.074.57.27.25.53.504.817.727 2.767 2.154 5.535 4.309 8.3 6.452.226.179.473.34.72.502.272.166.586.178.833.028.921-.582 1.874-1.137 2.561-2.099l-.008.014Zm-43.553 41.35c.511-.28 1.025-.55 1.537-.83.166-.093.166-.452.026-.57-.167-.134-.33-.294-.517-.412-3.07-1.989-6.132-3.993-9.21-5.969-.177-.12-.388-.195-.589-.273-.053-.022-.135-.012-.202.006-.167.045-.266.167-.224.323.263.983.53 1.977.815 2.953.099.369.37.619.698.819 2.052 1.269 4.114 2.535 6.166 3.805.47.281.953.343 1.489.151l.01-.003Zm36.466-49.576c-.21.152-.332.233-.426.33-.121.128-.058.41.116.567.16.149.32.298.498.43 2.463 1.865 4.91 3.722 7.37 5.576.18.132.372.224.567.327a.328.328 0 0 0 .21.027c.129-.058.282-.11.34-.21.064-.113.098-.302.045-.407a1.625 1.625 0 0 0-.42-.498 1079.78 1079.78 0 0 0-7.016-5.684c-.168-.134-.353-.288-.55-.355-.262-.085-.56-.078-.756-.097l.022-.006Zm-31.3-4.347c-.295.103-.373.124-.437.154-.337.126-.777.184-.88.558-.094.408.296.615.595.834.948.68 1.887 1.373 2.844 2.039a75.32 75.32 0 0 0 2.522 1.73c.073.052.243-.03.363-.074.033-.009.056-.147.022-.185l-3.65-4.91c-.04-.062-.094-.13-.159-.15-.197-.066-.412-.152-.6-.138-.28.027-.564.127-.608.14l-.012.002ZM118.18 27.92c-.111.077-.247.15-.338.258a1.278 1.278 0 0 0-.195.387c-.233.65-.092 1.042.475 1.237 1.514.516 3.04 1.029 4.574 1.527.287.09.554-.076.686-.387.059-.136.107-.268.142-.409.097-.397-.053-.776-.389-.913a484.597 484.597 0 0 0-4.52-1.685c-.133-.048-.289-.006-.432-.004l-.003-.011Zm-79.875 84.856c.259-.106.45-.193.654-.283.267-.12.327-.567.083-.717a257.97 257.97 0 0 0-4.31-2.555c-.1-.057-.275.002-.412.027-.168.045-.23.169-.197.34.155 1.023.527 1.965 1.219 2.761.52.602 1.189.818 1.958.696.355-.059.703-.188.994-.266l.01-.003Zm83.478-99.68.09-.024c.28.822.549 1.648.84 2.467.18.49.599.582 1.053.58.278.009.542-.301.487-.55a12.47 12.47 0 0 0-1.543-3.572c-.352-.552-.6-1.167-1.159-1.556-.091-.071-.262-.038-.393-.038-.023.006-.063.124-.048.18l.67 2.501.003.011Zm36.747 51.477c-.487-1.461-1.013-2.888-1.879-4.2-1.436-2.188-3.444-3.338-6.047-3.406-.808-.023-1.605.083-2.41.119a10.82 10.82 0 0 1-1.088.004c-.412-.021-.653-.699-.413-1.05.088-.12.148-.255.252-.355.329-.291.675-.564.99-.863 3.253-3.002 4.824-6.739 4.804-11.15a16.1 16.1 0 0 1 .047-1.52c.03-.379.797-.644 1.09-.4.219.193.419.403.618.613.592.643 1.131 1.36 1.785 1.927 2.604 2.258 5.645 3.334 9.108 3.172.507-.028 1.022-.118 1.526.022.299.088.563.627.411.908-.104.195-.179.406-.327.566-.342.379-.728.722-1.067 1.111-3.719 4.3-5.46 9.279-5.143 14.974.038.588.073 1.165.1 1.757.014.367-.313.754-.641.781-.353.023-.749-.206-.869-.52a21.02 21.02 0 0 1-.306-.828 91.074 91.074 0 0 1-.566-1.668l.025.006Zm-4.08-19.025c-.086.394-.185.828-.262 1.255-.473 2.568-1.474 4.907-3.032 7-.219.298-.413.601-.618.907a.322.322 0 0 0 .216.493c.427.077.863.14 1.302.214 2.356.398 4.221 1.597 5.645 3.514.301.41.555.868.865 1.264.115.16.337.233.51.342.452-.504.43-1.12.555-1.68a22.701 22.701 0 0 1 3.556-7.99c.252-.355.498-.732.736-1.095.093-.145-.039-.505-.205-.544-.282-.068-.566-.147-.853-.19-2.671-.41-5.08-1.404-7.194-3.087a3.866 3.866 0 0 0-.734-.462c-.111-.054-.269.025-.487.06Z" fill="#E8B225"/>
  <path d="M96.729 48.629c-.039-.146-.097-.274-.114-.425-.253-1.883-.433-3.761-.44-5.662.003-.348.267-.658.637-.793.36-.133.797.025.929.337.079.206.191.404.223.61.228 1.878.341 3.775.323 5.67.002.144-.069.282-.117.415-.069.234-.398.478-.662.477-.275.001-.603-.198-.695-.449-.018-.067-.058-.128-.09-.203l.006.023Zm2.346 5.677c.061.319.175.743.23 1.17.032.208-.015.436-.042.647a.85.85 0 0 1-.703.727c-.367.062-.78-.139-.927-.422a4.118 4.118 0 0 1-.49-2.095.977.977 0 0 1 .784-.916.888.888 0 0 1 1.039.571c.018.067.047.131.117.304l-.008.014Zm25.929 35.586c-.5.098-.998.207-1.496.269-.45.06-.965-.52-.931-1.02.015-.302.159-.569.431-.713a3.6 3.6 0 0 1 .808-.336c1.507-.404 2.826-1.153 4.082-2.052.291-.21.593-.422.927-.56.267-.118.56-.053.807.156.251.22.331.521.235.786-.115.33-.283.687-.528.932-.932.944-2.111 1.547-3.305 2.094-.331.149-.688.244-1.029.36l.021.078-.022.006Zm6.906-5.848c.059.308-.132.622-.412.65-.288.04-.552-.14-.672-.455-.089-.24.092-.503.452-.636.273-.097.554.103.618.433l.014.008Z" fill="#E8B225"/>
  <defs>
    <linearGradient id="a" x1="1090.5" y1="0" x2="64.912" y2="139.573" gradientUnits="userSpaceOnUse">
      <stop stop-color="#F7F7F7"/>
      <stop offset="1" stop-color="#F1F1F1"/>
    </linearGradient>
  </defs>
</svg>
