<svg width="115" height="72" viewBox="0 0 115 72" fill="none" xmlns="http://www.w3.org/2000/svg">
  <path d="M82.4859 51.7401C82.0115 51.6377 81.6442 51.8448 81.2742 51.9742C77.9605 53.1097 74.6498 54.2565 71.3391 55.4034C69.8744 55.9106 68.4056 56.425 66.9378 56.9209C66.7113 56.9997 66.4524 57.0027 66.2108 57.0251C66.0736 57.0317 65.7914 56.7449 65.8021 56.6273C65.8215 56.4288 65.8408 56.2303 65.8785 56.033C66.5995 52.4574 67.3942 48.8862 68.4577 45.3939C69.1432 43.1506 69.8654 40.9095 70.7798 38.7317C70.815 38.6377 70.8574 38.5478 70.8926 38.4538C71.4082 37.1318 71.4123 37.1247 70.2075 36.2576C67.9326 34.6203 65.6412 33.0115 63.3817 31.364C62.2484 30.5382 61.147 29.6737 60.0651 28.7918C59.5644 28.3884 59.1091 27.9064 58.668 27.4326C58.3279 27.0647 58.0658 26.6276 57.9134 26.149C57.5965 25.1467 57.9285 24.3571 58.7874 23.8431C59.2666 23.5576 59.7974 23.3973 60.3442 23.3414C60.9912 23.2767 61.6413 23.2233 62.2892 23.2067C66.7406 23.071 71.1936 23.0315 75.6433 23.0472C87.9566 23.1061 100.243 23.6735 112.501 24.7863C112.897 24.8249 113.295 24.8451 113.695 24.895C114.37 24.9799 114.578 25.3472 114.31 25.9263C114.285 25.9691 114.268 26.0161 114.243 26.059C113.899 26.6705 113.577 27.2944 113.212 27.8935C112.532 29.006 111.834 30.0989 111.147 31.2073C109.12 34.4864 106.952 37.6647 104.719 40.8058C100.236 47.135 95.3887 53.1873 90.3692 59.0925C89.9196 59.6237 89.4516 60.1538 88.9459 60.6336C88.5266 61.0298 87.9898 61.1676 87.4131 61.0443C87.227 61.0035 87.0206 60.932 86.8645 60.8228C86.4575 60.5212 86.1327 60.1431 85.9127 59.6826C85.7191 59.2755 85.5367 58.8653 85.3656 58.4521C84.5503 56.5142 83.7351 54.5764 82.9199 52.6385C82.7873 52.3237 82.6095 52.021 82.4746 51.7431L82.4859 51.7401ZM102.383 29.9678C102.242 30.0296 102.116 30.0996 101.969 30.1389C92.8248 32.7764 83.5998 35.0912 74.2592 36.9296C73.8628 37.0056 73.4766 37.097 73.0802 37.1731C72.7586 37.2351 72.5337 37.4101 72.4085 37.7094C71.975 38.7739 71.5159 39.8331 71.1293 40.9151C70.1944 43.5575 69.3209 46.2257 68.6364 48.9459C68.2541 50.4497 67.9301 51.968 67.5918 53.478C67.5802 53.5476 67.6503 53.6738 67.7146 53.7109C67.7789 53.748 67.9333 53.761 67.9806 53.7121C68.3241 53.3482 68.6604 52.9803 68.9794 52.5928C71.7853 49.2015 74.5912 45.8101 77.4043 42.4229C77.7551 41.9967 78.0928 41.5438 78.519 41.2182C78.9061 40.9273 79.4204 40.7955 79.8727 40.5897C86.885 37.388 93.9044 34.1905 100.917 30.9888C101.278 30.8256 101.637 30.6327 101.984 30.4429C102.168 30.3394 102.274 30.172 102.319 29.9788C102.421 29.9997 102.432 30.0151 102.353 30.0362C102.365 30.0148 102.377 29.9934 102.394 29.9648L102.383 29.9678ZM111.604 28.3847C111.731 28.1151 111.841 27.8925 111.943 27.6657C111.991 27.5503 111.955 27.4632 111.851 27.4126C111.816 27.3919 111.758 27.3589 111.72 27.3751C111.391 27.4995 111.059 27.6127 110.748 27.7566C100.817 32.2839 90.8972 36.8082 80.9664 41.3356C80.6926 41.4633 80.4188 41.591 80.1521 41.7229C79.8321 41.8811 79.7595 42.1059 79.9001 42.4729C80.0437 42.8512 80.1956 43.2152 80.3505 43.5904C82.4276 48.5243 84.5117 53.4623 86.5929 58.389C86.6668 58.5746 86.7407 58.7601 86.8371 58.9396C86.9264 59.115 87.0228 59.2946 87.1387 59.4568C87.4712 59.9536 87.9876 60.0326 88.405 59.6067C88.7905 59.2195 89.1486 58.7975 89.5066 58.3754C93.8922 53.238 98.1187 47.9801 102.106 42.5268C103.64 40.4305 105.111 38.2787 106.585 36.1382C107.488 34.821 108.36 33.476 109.232 32.1311C110.047 30.8677 110.837 29.5991 111.617 28.3633L111.604 28.3847ZM71.8142 36.0325C71.9462 36.0515 72.1894 36.1252 72.4269 36.1099C72.8733 36.0628 73.3189 35.9675 73.7604 35.8794C79.1175 34.8185 84.4384 33.6223 89.7343 32.2878C96.3365 30.6214 102.889 28.745 109.372 26.6575C109.85 26.5051 110.316 26.326 110.778 26.1357C110.827 26.1165 110.854 25.9887 110.866 25.9007C110.872 25.8751 110.808 25.8196 110.768 25.8061C110.369 25.7562 109.98 25.7033 109.579 25.6719C104.243 25.2111 98.9032 24.8721 93.5468 24.6282C85.9455 24.2792 78.3433 24.1297 70.729 24.1828C70.3738 24.1873 70.03 24.1889 69.682 24.1976C68.9818 24.2221 68.8966 24.2872 68.7914 24.9315C68.7809 24.9826 68.7818 25.0307 68.7713 25.0818C68.5021 26.9176 68.23 28.7422 67.9608 30.578C67.8669 31.2192 67.8057 31.8698 67.7444 32.5205C67.7185 32.8294 67.794 33.1112 68.0705 33.3089C69.2854 34.1914 70.5004 35.0738 71.8142 36.0325ZM81.8241 50.5101C81.8168 50.3248 81.8523 50.1643 81.8006 50.0392C80.8569 47.7794 79.9019 45.5227 78.9469 43.2659C78.9114 43.1788 78.8433 43.0823 78.7647 43.0369C78.6932 42.9956 78.5399 42.9642 78.5008 42.9989C78.211 43.2698 77.9212 43.5407 77.666 43.8507C74.8323 47.2737 72.0058 50.7007 69.1792 54.1278C69.0239 54.3144 68.9073 54.5329 68.7835 54.7472C68.767 54.7758 68.7923 54.8476 68.8239 54.8753C68.8513 54.9103 68.9115 54.9545 68.9525 54.9496C69.143 54.9167 69.3448 54.8807 69.5333 54.8181C73.3606 53.5027 77.1848 52.176 81.009 50.8493C81.2919 50.7554 81.5586 50.6235 81.8395 50.4999L81.8241 50.5101ZM67.1468 31.8229C67.1647 31.7094 67.2377 31.418 67.2738 31.1245C67.4562 29.6864 67.6345 28.2554 67.8169 26.8174C67.9029 26.1239 67.9817 25.4263 68.0564 24.7358C68.0884 24.4494 67.9153 24.2542 67.6267 24.259C67.3309 24.2598 67.0269 24.2748 66.7372 24.298C66.5549 24.3167 66.3669 24.4939 66.3404 24.6882C66.2658 25.131 66.2096 25.575 66.1278 26.0136C66.0942 26.2038 66.0196 26.399 65.9319 26.5674C65.8948 26.6318 65.7554 26.6751 65.6746 26.6666C65.5938 26.658 65.4693 26.5766 65.4512 26.509C65.3998 26.3174 65.371 26.1198 65.3791 25.9243C65.3921 25.5222 65.4379 25.1294 65.4581 24.7314C65.4705 24.4623 65.2952 24.3039 64.978 24.2923C64.7784 24.2914 64.5789 24.2905 64.3782 24.308C64.0885 24.3313 63.9117 24.5055 63.9064 24.7787C63.8808 26.3741 63.8185 27.9673 63.5863 29.5576C63.5695 29.6527 63.5741 29.7602 63.6054 29.8545C63.6488 29.9939 63.6982 30.1558 63.8002 30.2432C63.9868 30.3986 64.2165 30.5122 64.4433 30.6145C64.5004 30.6475 64.6604 30.5684 64.6934 30.5112C64.7853 30.3356 64.8486 30.1435 64.8822 29.9533C64.9744 29.4635 65.037 28.9756 65.1179 28.4888C65.1358 28.3753 65.3901 28.2649 65.4932 28.3339C65.5718 28.3793 65.6594 28.4585 65.6734 28.5333C65.7064 28.7238 65.7239 28.9244 65.7046 29.1229C65.6538 29.7224 65.5888 30.3136 65.5196 30.912C65.4779 31.2976 65.623 31.591 65.9198 31.8195C66.0401 31.908 66.1523 32.0109 66.2726 32.0994C66.3542 32.1561 66.4441 32.1984 66.5299 32.2479C66.7799 32.3923 67.0373 32.2932 67.1457 31.8413L67.1468 31.8229ZM62.9285 24.4428C62.6946 24.3363 62.4552 24.322 62.2042 24.3771C62.0096 24.4172 61.8256 24.5873 61.8074 24.7673C61.7197 25.8599 61.6247 26.9484 61.5441 28.0451C61.5353 28.1925 61.5468 28.3706 61.6251 28.4825C61.8875 28.8531 62.2178 29.1391 62.6592 29.2987C62.746 29.3297 62.9495 29.1423 62.9644 29.0176C63.1364 27.6306 63.2234 26.2422 63.1262 24.8428C63.1246 24.7466 63.0749 24.6512 63.0323 24.5599C63.0161 24.522 62.9661 24.4931 62.9315 24.4541L62.9285 24.4428ZM60.8359 27.5886C60.8566 27.5529 60.8854 27.5029 60.8918 27.4589C61.0113 26.5752 61.0869 25.6852 61.0592 24.7927C61.0549 24.6187 60.8243 24.457 60.6277 24.4673C60.2275 24.484 59.8473 24.5979 59.4822 24.7682C59.03 24.974 58.8427 25.447 59.0311 25.8797C59.3481 26.6343 59.8828 27.2098 60.5624 27.6498C60.6196 27.6828 60.7345 27.6158 60.8359 27.5886Z" fill="#002D9A"/>
  <path d="M8.92086 66.9581C9.43835 67.2664 9.96932 67.5348 10.5737 67.6266C10.7681 67.653 10.955 67.7419 11.1388 67.8194C11.334 67.894 11.5076 68.2038 11.5015 68.429C11.4934 68.6244 11.2559 68.8874 11.0161 68.9395C10.8738 68.9716 10.7201 69.0068 10.5769 68.9908C9.35043 68.8543 8.26152 68.3971 7.34728 67.5549C7.1159 67.3451 7.07119 67.043 7.22604 66.7418C7.34377 66.5049 7.62583 66.3628 7.84543 66.461C8.21316 66.6162 8.56852 66.7928 8.928 66.9622L8.92086 66.9581Z" fill="#002D9A"/>
  <path d="M31.7435 62.2018C31.7435 62.2018 31.6527 62.359 31.554 62.4639C30.9029 63.2122 30.2446 63.9564 29.5791 64.6964C29.4804 64.8014 29.3562 64.9011 29.23 64.9711C28.993 65.1011 28.7517 65.057 28.5271 64.9179C28.3271 64.8024 28.2293 64.4601 28.3151 64.2619C28.3751 64.1251 28.4249 63.9728 28.5165 63.8637C29.2386 63.0421 29.9708 62.2358 30.7031 61.4296C30.7627 61.3592 30.8683 61.3249 30.9524 61.2782C31.1248 61.1776 31.4684 61.2426 31.6437 61.401C31.8047 61.5511 31.886 61.922 31.7405 62.1905L31.7435 62.2018Z" fill="#002D9A"/>
  <path d="M2.67366 60.0625C2.76132 60.1417 2.91138 60.2283 2.96301 60.3534C3.37419 61.3244 3.96298 62.1693 4.63589 62.9675C4.72547 63.0763 4.77187 63.227 4.82653 63.3633C4.89025 63.5335 4.82969 63.8034 4.70129 63.9103C4.53797 64.0447 4.34828 64.1257 4.15314 64.0511C3.92529 63.9672 3.68014 63.8638 3.52021 63.6952C2.75411 62.9099 2.16562 61.9985 1.7957 60.9561C1.76439 60.8618 1.75563 60.7615 1.74686 60.6611C1.73376 60.3868 1.85943 60.2021 2.08625 60.0568C2.28228 59.9318 2.46313 59.9981 2.68493 60.0595L2.67366 60.0625Z" fill="#002D9A"/>
  <path d="M19.1111 68.4175C19.3307 68.5157 19.4585 68.7896 19.4474 68.9737C19.4342 69.1947 19.3209 69.358 19.1515 69.4698C19.0324 69.544 18.8807 69.6088 18.7364 69.6112C17.5327 69.6499 16.3373 69.6742 15.1347 69.6944C14.846 69.6993 14.6925 69.4868 14.5922 69.2479C14.4565 68.9218 14.695 68.4593 15.0257 68.4311C16.2676 68.3097 17.5134 68.2477 18.7728 68.327C18.9201 68.3358 19.0559 68.4142 19.11 68.436L19.1111 68.4175Z" fill="#002D9A"/>
  <path d="M40.7402 69.8464C40.6129 69.9349 40.4639 70.0775 40.2926 70.1596C40.1634 70.2184 40.0006 70.2197 39.8533 70.2109C38.91 70.1616 37.9636 70.1011 37.0213 70.0335C36.6459 70.0073 36.4005 69.7227 36.3797 69.3296C36.3685 69.085 36.558 68.8228 36.7864 68.7737C36.8837 68.7536 36.9791 68.7039 37.0712 68.7094C38.1138 68.7683 39.1564 68.8272 40.1979 68.9045C40.4925 68.9222 40.742 69.1996 40.7755 69.5047C40.7884 69.5979 40.7562 69.7032 40.7361 69.8535L40.7402 69.8464Z" fill="#002D9A"/>
  <path d="M25.9585 62.0559C25.7415 62.5308 25.1516 62.6284 24.9002 62.3213C24.1113 61.3609 23.7345 60.2478 23.7053 59.0114C23.7044 58.9633 23.7149 58.9122 23.7254 58.8611C23.7447 58.6626 24.0078 58.4049 24.228 58.37C24.4482 58.3352 24.8058 58.475 24.8879 58.6462C24.9305 58.7375 25.0069 58.8197 25.0085 58.9159C25.1024 59.8753 25.4793 60.7407 25.9238 61.588C26.007 61.7409 25.9528 61.9668 25.9585 62.0559Z" fill="#002D9A"/>
  <path d="M22.8885 68.2465C22.3616 67.9709 22.3566 67.5011 22.6587 67.2088C22.7646 67.1079 22.8889 67.0082 23.0211 66.9607C23.7623 66.6835 24.5106 66.4106 25.2578 66.156C25.3971 66.1126 25.5486 66.1143 25.7012 66.0976C25.9428 66.0751 26.1733 66.2368 26.2612 66.4972C26.3472 66.7278 26.2822 67.0714 26.1313 67.1843C26.0502 67.2423 25.9792 67.3156 25.8849 67.347C25.0495 67.6554 24.217 67.9751 23.3714 68.2681C23.2054 68.3247 22.9877 68.2561 22.8915 68.2578L22.8885 68.2465Z" fill="#002D9A"/>
  <path d="M31.2079 68.4556C30.6637 68.1605 30.2267 67.9273 29.798 67.6798C29.6194 67.5766 29.5301 67.4012 29.4757 67.1983C29.3478 66.7434 29.7709 66.4065 30.1321 66.4245C30.1802 66.4237 30.2313 66.4342 30.2783 66.4518C31.1988 66.8212 32.078 67.2621 32.8653 67.8787C32.9428 67.9424 33.012 68.0205 33.0587 68.1047C33.1439 68.2872 33.1768 68.4777 33.0838 68.6717C33.0239 68.8086 32.7467 68.9916 32.6035 68.9756C32.4603 68.9596 32.3017 68.9538 32.172 68.8979C31.8043 68.7428 31.4561 68.5703 31.2079 68.4556Z" fill="#002D9A"/>
  <path d="M48.0415 67.3948C47.9931 67.4622 47.9218 67.602 47.813 67.6916C47.665 67.8158 47.4916 67.9348 47.306 68.0087C46.4623 68.3314 45.6156 68.6428 44.77 68.9358C44.4942 69.0339 44.1513 68.8359 44.0461 68.556C43.9379 68.2649 44.0509 67.9205 44.3044 67.762C44.3927 67.7081 44.4666 67.646 44.5579 67.6034C45.3494 67.2887 46.1408 66.9739 46.9414 66.693C47.1679 66.6142 47.4299 66.6225 47.6805 66.6339C47.9538 66.6392 48.176 67.0628 48.0456 67.3877L48.0415 67.3948Z" fill="#002D9A"/>
  <path d="M31.5812 44.8073C32.0358 44.9936 32.448 45.2697 32.7368 45.6936C32.8151 45.8055 32.8461 45.9663 32.8598 46.1076C32.8979 46.5202 32.4071 46.8752 32.0518 46.6986C31.919 46.6315 31.7821 46.5715 31.6659 46.4759C31.1814 46.1104 30.6452 45.8675 30.0501 45.7431C29.9039 45.7158 29.7588 45.6701 29.6343 45.5887C29.4669 45.4826 29.3119 45.355 29.3109 45.1257C29.3058 44.9036 29.4933 44.6118 29.7045 44.5431C29.8438 44.4997 29.9904 44.4605 30.1347 44.458C30.6413 44.4552 31.1187 44.5689 31.5812 44.8073Z" fill="#002D9A"/>
  <path d="M35.6369 52.6469C35.5153 52.8244 35.3572 52.9332 35.1393 52.9312C34.9243 52.9405 34.7374 52.8517 34.6256 52.6823C34.5209 52.5171 34.4369 52.3161 34.4295 52.1308C34.3929 51.3856 34.386 50.6385 34.372 49.8873C34.3711 49.8392 34.3888 49.7922 34.3992 49.7411C34.4383 49.4588 34.7086 49.2051 35.0137 49.1717C35.3005 49.1372 35.6115 49.3739 35.6521 49.6832C35.7648 50.5771 35.7997 51.4738 35.7425 52.3649C35.737 52.457 35.6762 52.5457 35.641 52.6397L35.6369 52.6469Z" fill="#002D9A"/>
  <path d="M24.2391 55.1647C24.0738 55.517 23.7436 55.6598 23.529 55.6026C23.2857 55.5289 23.0524 55.2894 23.0462 55.0857C23.0366 54.9372 23.0199 54.7847 23.0359 54.6415C23.1282 53.904 23.2246 53.1594 23.3282 52.4189C23.3831 52.06 23.7669 51.8242 24.1134 51.9005C24.4161 51.9704 24.6584 52.2437 24.6407 52.5384C24.5803 53.2371 24.5127 53.9317 24.4196 54.621C24.3868 54.8593 24.2691 55.0962 24.2463 55.1688L24.2391 55.1647Z" fill="#002D9A"/>
  <path d="M51.3461 65.5726C50.9427 65.3968 50.8054 64.9745 51.0042 64.6797C51.0928 64.5593 51.1711 64.4235 51.2872 64.3381C51.8929 63.9161 52.4985 63.4941 53.1215 63.0916C53.2755 62.9899 53.4927 62.9438 53.6821 62.9293C53.8121 62.9186 53.9632 62.9868 54.0888 63.0498C54.2175 63.1241 54.2754 63.4528 54.2154 63.5897C54.173 63.6796 54.1521 63.7818 54.0853 63.8481C53.4198 64.5881 52.5997 65.134 51.7156 65.5763C51.6048 65.6362 51.4281 65.5627 51.3544 65.5583L51.3461 65.5726Z" fill="#002D9A"/>
  <path d="M24.6974 47.7689C24.9014 47.4485 25.1602 47.0167 25.4405 46.5973C25.5538 46.4341 25.6987 46.2986 25.8405 46.1519C26.0019 45.9878 26.3101 45.9657 26.5387 46.0977C26.7603 46.2256 26.8839 46.5065 26.8184 46.7355C26.8008 46.7825 26.8087 46.8347 26.784 46.8776C26.4057 47.6977 25.9418 48.4683 25.3146 49.1256C25.1686 49.2795 24.8153 49.3137 24.6153 49.1982C24.4081 49.0786 24.2825 48.7679 24.351 48.5503C24.3687 48.5033 24.3791 48.4521 24.3967 48.4051C24.4814 48.2254 24.5662 48.0457 24.6985 47.7505L24.6974 47.7689Z" fill="#002D9A"/>
  <path d="M59.8311 59.3376C59.7723 59.456 59.7442 59.5542 59.6876 59.6358C59.2907 60.2736 58.743 60.7768 58.2054 61.2953C58.1386 61.3615 58.0331 61.3958 57.9459 61.4313C57.7419 61.504 57.5446 61.4663 57.3855 61.3459C57.2264 61.2254 57.1299 61.0459 57.1616 60.826C57.1713 60.7268 57.1922 60.6245 57.2304 60.5418C57.4719 60.0905 58.5097 58.9367 58.9058 58.6795C59.2096 58.4834 59.6675 58.6143 59.7735 58.9423C59.8169 59.0817 59.8081 59.229 59.827 59.3447L59.8311 59.3376Z" fill="#002D9A"/>
  <path d="M34.2978 57.2481C34.107 57.5952 33.9304 57.9506 33.7252 58.2894C33.5932 58.5181 33.163 58.6032 32.9272 58.467C32.72 58.3474 32.5791 58.0469 32.6322 57.8394C32.8342 57.0605 33.1975 56.3651 33.6334 55.6927C33.6788 55.6141 33.7813 55.5685 33.8553 55.5064C33.9796 55.4066 34.2866 55.4029 34.4182 55.4884C34.5999 55.6028 34.6809 55.7925 34.7026 55.986C34.7163 56.1273 34.6808 56.2878 34.6249 56.4175C34.5121 56.6954 34.3779 56.9609 34.2508 57.2305L34.2866 57.2511L34.2978 57.2481Z" fill="#002D9A"/>
  <path d="M102.386 29.9661C102.386 29.9661 102.361 30.0095 102.344 30.0385C102.424 30.0171 102.414 30.0015 102.318 29.9845L102.382 29.9733L102.386 29.9661Z" fill="#002D9A"/>
  <path d="M97.399 44.2702C97.5618 44.0212 97.767 43.6823 98.0079 43.3641C99.1054 41.8922 100.21 40.4245 101.329 38.965C101.534 38.6926 101.799 38.4646 102.054 38.2211C102.16 38.1203 102.446 38.1523 102.613 38.2584C102.774 38.3604 102.891 38.6189 102.853 38.7681C102.825 38.8662 102.808 38.9613 102.765 39.0512C102.698 39.1839 102.631 39.3167 102.543 39.4371C101.307 41.115 100.067 42.8002 98.8176 44.4699C98.6127 44.7423 98.3435 44.9775 98.0928 45.2138C97.9396 45.3635 97.5303 45.3464 97.4061 45.1984C97.2789 45.0393 97.2009 44.8608 97.2653 44.6503C97.2934 44.5522 97.3357 44.4623 97.4062 44.2743L97.399 44.2702Z" fill="#002D9A"/>
  <path d="M95.4631 47.5253C95.6704 47.6449 95.8294 48.013 95.729 48.2695C95.5158 48.8037 95.1212 49.1571 94.6085 49.3851C94.4414 49.4601 94.1714 49.3995 94.0574 49.267C93.8884 49.0646 93.8107 48.8197 93.9029 48.5776C94.0933 48.1158 94.3938 47.7272 94.8554 47.4888C95.0391 47.3852 95.2334 47.4117 95.456 47.5212L95.4631 47.5253Z" fill="#002D9A"/>
</svg>