<svg width="206" height="201" fill="none" xmlns="http://www.w3.org/2000/svg">
  <path d="M82.618 167.548c2.661 2.717 5.45 4.577 10.315 4.971 1.828-.519 2.487 4.22-5.075.586-3.394-1.621-5.02-3.499-6.21-4.736-.116-.119-.156-.336-.14-.495.051-.479.613-.839 1.11-.326Zm-39.598-.385c.501-.226.556.137 1.84 1.994 1.917 2.788 4.041 4.531 6.074 5.774 1.947 1.062 2.862 1.163 2.768 2.061-.25 2.397-5.783-1.148-10.855-9.032-.205-.315-.104-.675.174-.797Zm16.555-60.82c.208-.497-.009-1.389-.198-1.78-.04-.055-.324-.082-.388-.088-.167.009-.29.027-.454-.061-2.64.903.085 3.514 1.043 1.926m-1.632-2.894c.247-.092 1.083-.397 1.336-.309 1.075.064 1.374 1.011 1.55 1.814.614 2.742-1.577 3.658-3.072 3.008-1.233-.541-2.698-3.436.186-4.517m-9.44 9.616s.055-1.233.165-3.264c-.815.363-1.02.446-1.255.65.098.275.583 1.49 1.09 2.614Zm2.246 4.336c.165-.073.394-.192.702-.345-.546-.006-.345-1.395.28-7.392-.86 3.749-1.315 7.206-1.943 5.865-.138-.278-.046-2.882.162-4.656-.828 2.836-.632 2.788-1.002 3.166.287.599 1.37 2.813 1.798 3.362m-.04.018h-.003.003Zm.016.01.012-.022v-.003.003m.052.04h.006-.006Zm2.719-1.356c-.037-1.673.128-5.258.189-6.69v-.003c-.607 2.641-.983 4.388-.98 4.357a.464.464 0 0 1-.012.058v.016l-.293 1.273c.015-.07-.033.162-.024.098-.07.323-.318 1.401-.522 1.655a24.364 24.364 0 0 1 1.645-.767m2.057-.84c-.449-.256-.278-.665-.437-2.207-.42 1.203-.668 2.232-.812 2.726.544-.204.79-.29 1.249-.522m.29-.613s-.016-.016-.025-.022a.194.194 0 0 0 .025.022Zm.225-.022a.347.347 0 0 1 .318.15c.11-.08.332-.247.415-.354-.522-1.564-.873-1.558-2.619-4.794-.055 1.752-.116 2.394-.14 4.949 1.508-5.368 1.712-.201 1.813.071.009 0 .198-.022.21-.025m-2.377-5.231v.016c-.003.015-.006.012 0-.016Zm-1.501 4.26s-.006.018-.006.028c-.007.024.003-.006.006-.028Zm-.01.049s-.003.009-.003.015v-.015m.68-6.266c-.207.128-.197.125-.615.351.155.916-.583 5.048-.596 8.132.125-.428.379-1.576.528-2.193.022-.094.65-2.964.595-2.644.104-.461.25-1.081.25-1.081v.009c.101-.446.318-1.313.428-1.752a6.309 6.309 0 0 0-.586-.822m-2.148 1.209s-.464 3.054-.464 5.295c.674-2.995.83-3.951 1.367-5.814-.305.168-.607.342-.903.519Zm-1.563.935c-.11 2.186-.116 2.381-.128 2.702.134-.498.415-1.612.934-3.172-.266.165-.531.326-.806.47Zm-1.541-.84c1.154-.586 4.416-2.858 5.264-2.849a.405.405 0 0 1 .199-.214c.411-.183.561.321.814.834.507.574.858 1.276 1.172 1.908 1.69 3.356 2.234 3.772 2.762 5.28 1.013 2.202-1.694 2.598-6.158 4.791-1.453.711-1.618.543-3.315-2.706-2.847-5.459-2.82-5.997-.735-7.041m31.011-52.492c1.217-.55 4.281-.736 4.147.534-.125 1.197-1.15-.098-3.677.595.015-.003.006 0-.01.003-.784.208-1.028-.876-.46-1.133ZM17.574 69.25c-.01-.177 0-.358.027-.531a1.442 1.442 0 0 1-.159-.541c-.082.354-.14.702-.21 1.261.08-.08.134-.128.342-.19Zm.772 2.415a5.425 5.425 0 0 1-.424-.91c-.025.324-.025.65.079 1.12a.715.715 0 0 1 .345-.21Zm.567 3.695c.028.287.061.513.12.788.002 0 .009.006.012.009.021-.217.073-.464.174-.65a.695.695 0 0 1-.306-.147Zm-.723-1.402c.028.199.067.397.116.596.028-.165.058-.294.122-.446l-.006-.03a.926.926 0 0 1-.232-.12Zm-1.065-1.847c.104 2.388.784 4.36 1.968 6.217a12.115 12.115 0 0 1-.634-1.896c-.345-.404-.97-2.004-.904-3.261a5.529 5.529 0 0 1-.43-1.06Zm3.51 8.095c.058-.01.122-.07.164-.116a7.94 7.94 0 0 1-.198-.648.726.726 0 0 1-.241.101c.076.23.165.452.275.663Zm.503.665c-.04-.079-.006-.006-.06-.122-.016.01-.028.019-.04.025.03.03.067.067.1.097ZM20.485 77a3.625 3.625 0 0 0-.073-.37 1.55 1.55 0 0 1-.696.333c.061.467.22 1.215.446 1.945.122.021.238-.125.277-.23-.125-.836-.055-1.346.043-1.682m2.545 4.999c-.607-.592-1.272-1.612-1.2-2.464-.057.198-.118.36-.24.586.271.654.964 1.796 1.44 1.875m.696-.342s.012-.015.015-.024c-.335-.529-.686-1.295-.433-1.866-.186-.131-.601-.33-.757-.193-.137.398.446 1.512 1.175 2.08m2.92 2.68c-1.04-.762-1.287-.729-2.056-1.584a2.154 2.154 0 0 1-.757-.183 1.32 1.32 0 0 1-.29.137c.964.602 2.066 1.213 3.103 1.63Zm.19-.876a1.815 1.815 0 0 1-.132-.702c-.15-.299-.479-.57-.762-.727-.065.11-.138.211-.226.3.253.366.717.818.644.742.137.134.308.314.473.385m-2.268-1.94c.034.05.07.098.107.147.015-.26.165-.553.378-.644l-.43-.36a2.15 2.15 0 0 1-.055.858Zm5.826.529c1.361.195 5.39.058 5.725.021.082-.241.061-1.276.018-1.383-1.257-.489-5.17 1.994-10.522-1.951-2.2-1.625-3.195-3.255-3.385-3.484-.22-.092-.558.119-.76.247.382.733.577 1.45 2.21 3.081 2.533 2.293 3.513 3.017 6.71 3.472m-2.913.626s.009-.006.012-.006c-.003 0-.006.006-.012.006Zm.009-.028-.013.013s.007-.01.013-.013Zm.686 1.558c.44.064.76-.052 1.029-.297-.238-.293-.308-.595-.29-.778-.36-.245-1.267-.467-1.425-.44.076.217.116.461.106.702.14.306.354.578.58.816m2.6.696a4.15 4.15 0 0 1-1.004-.492c-.15.168-.366.33-.628.443.555.223 1.15.226 1.632.049Zm-.705-1.154c.461.332.977.51 1.487.61.094-.687-.953-1.093-1.606-1.181.086.177.135.37.12.57Zm2.005 1.42a8.054 8.054 0 0 1-.271-.031c-.012.01-.025.015-.037.024.3.007.14.003.311.003m-.143-1.722a.569.569 0 0 1 .082-.18c-.183 0-.03.003-.25-.003.064.061.122.12.168.183Zm1.09 1.71c-.043-.021-.089-.036-.132-.058a.73.73 0 0 1-.22.067c.117 0 .236-.006.352-.009Zm.14-1.878h-.232c.1.104.14.156.18.208a.718.718 0 0 1 .052-.208Zm.397 1.338a2.629 2.629 0 0 1-.19-.257c-.006.061-.018.12-.03.18.07.03.146.059.22.08m.164-.98-.024.009c.01 0 .015-.006.024-.01Zm1.038.925c.046-.36-.57-.724-.891-.873.146.42.5.702.891.873Zm.665.153c.382.02 1.062-.05 1.361-.294-.497-.216-.937-.653-1.016-1.215-.29.022-.583.046-1.163.061.492.33.937.858.818 1.448Zm.705-2.65.022-.044c-.01.013-.016.03-.022.043Zm4.41 1.92a1.573 1.573 0 0 1-.919-.153c-.235.153-.497.263-.778.241a1.007 1.007 0 0 1-.116.074c-.238.271-.699.433-1.129.436-.043.08-.098.153-.153.226 1.127-.165 2.09-.46 3.092-.821m.11-.895c-.03-.049-.055-.098-.083-.143-.106.107-.079.097-.232.213a.641.641 0 0 0 .315-.067m-1.013-3.017a.457.457 0 0 0-.14.046c.06.006.124.012.185.021l-.045-.067Zm.286-.827c.019 0 .034 0 .05.003.079-.195.191-.367.341-.504-.94-.693-1.736-2.055-2.17-3.136-.323.12-.357.599-.366.98.51.55.836 1.258.748 1.973.543.128 1.007.323 1.397.68m1.294 4.483a.065.065 0 0 1-.015.01c.006 0 .01-.004.015-.007m.006-1.35c.04-.1.04-.335-.009-.47l-.07.037c-.009.061-.024.12-.04.177.037.086.074.171.116.254m1.087.858c.683-.351.738-1.683-.067-2.315-.098.18-.214.348-.354.492a.072.072 0 0 1-.006.027c.256.528.192 1.142-.08 1.65a.671.671 0 0 0 .507.146Zm-1.462-6.23c.192.416.33.877.412 1.323a4.02 4.02 0 0 1 .269-.03 4.724 4.724 0 0 1-.065-.88 4.745 4.745 0 0 1-.619-.413m-.58-3.31c.159.098.33.22.485.34.43.058.788.15.824-.25-.042-.477-.442-.871-.814-1.161-.144.012-.623-.012-.766-.018.055.442.14.742.271 1.093m4.12 8.137a1.447 1.447 0 0 1-.787-.064c.024.144.042.33.021.647.26-.186.513-.381.763-.583m-.028-.876c.632-.272 1.087-1.35-.387-1.673.049.47.168 1.254.387 1.673Zm-1.113-4.648c.052.083.097.175.137.263.015-.07.027-.14.043-.214-.037-.012-.05-.015-.18-.052m-.647.58c.018.013.036.028.055.04.018 0 .033.006.052.01a1.222 1.222 0 0 0-.184-.33c.028.091.052.186.077.278m.476 2.268c-.058.562.094 1.167.485 1.606a8.197 8.197 0 0 1-.278-1.587l-.207-.019Zm.143-4.605c-.152-.283-.583-.784-.818-1.007.104.537-.116 1.127-.702 1.359.296.18.58.388.843.62.363-.037.555.033 1.013.164a2.347 2.347 0 0 1-.336-1.136Zm1.468 2.642a3.322 3.322 0 0 1-.168-.305 1.961 1.961 0 0 0-.247-.168 2.062 2.062 0 0 1-.205.467c.205-.025.416-.022.62 0m.702 1.902c.006-.168.003-.37-.043-.669-.326.132-.534.165-.757.165.29.122.583.263.8.504Zm-1.288-4.568c.028-.049.052-.095.082-.143a.552.552 0 0 0-.167-.061s0 .002-.003.005c.033.065.06.129.088.196m2.557 5.1a.625.625 0 0 1-.048-.211 1.021 1.021 0 0 1-.193-.022c-.018.214-.079.47-.14.675.125-.147.253-.293.378-.443m-1.129-2.598c.025.036.05.076.074.116.024-.04.045-.073.091-.193-.055 0-.107-.006-.162-.009v.086m-.201-1.869a1.542 1.542 0 0 0-.311-.305c-.144.372-.135.75-.058 1.126.207.098.354.135.564.162a2.422 2.422 0 0 1-.192-.983m1.45 3.695c.045-.08.088-.162.134-.241a2.008 2.008 0 0 1-.543-.046c.02.088.036.174.048.265a.615.615 0 0 0 .36.022Zm.732-1.325c-.375 0-.742-.083-1.077-.288a2.271 2.271 0 0 1-.232.474c.384.17.732.201 1.193.024.037-.07.076-.137.116-.21Zm-.147-1.072a2.427 2.427 0 0 1-.271.159c.073.024.247.048.332.055a1.865 1.865 0 0 0-.06-.214Zm-.152-4.153a9.544 9.544 0 0 1 0-.421 1.265 1.265 0 0 1-.403-.568c-.08.433-.204.91-.28 1.142.222-.064.448-.12.68-.153m.62 2.3a.933.933 0 0 0 .253-.101c-.461-.15-.65-.684-.754-1.18a1.1 1.1 0 0 0-.32-.106.258.258 0 0 0-.086.089c-.015.1.012.317.085.5.318.174.647.446.824.797m.757.413c-.174.13-.37.232-.577.28 0 .205-.067.47-.164.648.06.159.112.317.161.543.235-.519.388-.876.58-1.471ZM43.74 60.752c-.119.177-.28.336-.485.41.47.451.739.753 1.093 1.202-.23-.409-.48-1.154-.608-1.612Zm4.026 9.426a1.612 1.612 0 0 0-.309-.208c-.03.013-.033.016-.052.03-.058.144-.091.468-.027.874.088-.256.217-.498.387-.699m.544 2.183c.183-.098.348-.433.424-.641-.22.21-.48.357-.781.379.088.036.225.122.36.262m.332-2.629a2.321 2.321 0 0 0-.235-.763 2.041 2.041 0 0 1-.552.443c.19.112.302.192.491.378a.752.752 0 0 1 .296-.055m-.302-1.997c.138-.36.284-1.072.174-1.435-.464.764-1.367.846-1.968.073.058.217.085.254.214.984.341-.318.836-.434 1.577.378m.742 1.133c-.015-.153-.1-.656-.122-.788-.04.098-.083.196-.135.287.104.168.184.318.257.501Zm-1.673-4.186c-1.257-.703-.57 1.975.364 1.496.244-.186.375-.495.427-.806a3.255 3.255 0 0 0-.79-.69Zm-.256-1.912c-.024-.027-.052-.052-.082-.08a4.4 4.4 0 0 1 .027 1.112c.21.013.476.171.662.281a14.62 14.62 0 0 0-.61-1.313m-.885-.72c-.07-.046-.1-.067-.17-.12-.004.318-.117.804-.434 1.017.088.434.311.907.604 1.261.043-.067.092-.122.144-.183.195-.55.051-1.469-.144-1.975Zm-1.132-1.573-.006-.006.006.006Zm.73 4.22c.143.275.082.159.21.421a1.921 1.921 0 0 1-.006-.262.55.55 0 0 1-.205-.156m-1.565-4.953c-.046.645.537 2.058.702 2.3.036-.26.115-.55.302-.724-.168-.837-.504-1.23-1.004-1.576Zm-.05-.006c-.027 0-.024 0 0 0Zm-.017-.015s.02.006.03.006c0 0-.021-.006-.03-.006Zm3.729 11.677c.131-.025.332-.144.497-.4a4.164 4.164 0 0 0-.201-.297 1.839 1.839 0 0 0-.3.697m.043-3.05c-.13-.16-.485-.517-.677-.541-.263.116-.311.742-.202.995.281.137.669-.183.876-.455m-.848.47a.633.633 0 0 0 .003 0m-.003 0s-.01-.003-.012-.006c.003 0 .009.003.009.006m-3.491-9.954c.064.098.116.201.158.305a.588.588 0 0 1 .107-.07 4.908 4.908 0 0 0-.265-.235Zm1.05 3.96c.317.434.375.528.488.709a4.717 4.717 0 0 1-.135-.48.88.88 0 0 1-.354-.226M43 60.437h.019-.018Zm-.411-1.6c-.058.425-.03 1.014.15 1.38.424.645.945-.644-.15-1.38Zm-1.505.547c.186.113.302.18.79.574a4.233 4.233 0 0 1-.054-1.023c-.19.275-.446.394-.736.449Zm-.628-.828c.228.187.741.199.881-.143-.506-.098-.585-.134-.881.143Zm0-1.184c.024.094.045.213.051.278a1.31 1.31 0 0 1 .403-.058 2.28 2.28 0 0 0-.451-.22m-.016 1.194s.007.009.007.012c0-.003-.007-.006-.007-.012Zm-.738-1.38c-.134-.025-.739-.117-.876-.101.125.26.836.653 1.077.675v-.007c.016-.143-.045-.375-.204-.57m-.888-.135.018-.037-.018.037Zm-1.013.916c.888.247 1.245.412 1.94.724a.673.673 0 0 1-.006-.32c-.335-.09-1.16-.465-1.428-.941-.104.195-.271.39-.506.534m-.696-.708c.043.519.867-.043.671-.574-.406.051-.656.354-.671.574Zm-1.862-1.619c.577.498.995 1.151.751 1.878.19.037.378.08.57.125-.277-.565.165-1.28.773-1.508-.51-.37-1.792-.492-2.094-.498m4.651 2.132h-.027.03m.006 0h-.006.006Zm.034-.028-.025.025c.01-.007.016-.016.025-.025ZM43 60.437h-.015H43Zm3.152 14.352s-.009.006-.012.006c.006 0 .01-.006.012-.006Zm.061-.022h-.018.018Zm-.018-1.413c-.131.064-.174.094-.241.137.113.006.18.015.25.028a1.141 1.141 0 0 1-.012-.165m.33 2.635c.164-.061.353-.153.497-.266-.183-.3-.546-.785-.855-.931a.553.553 0 0 0-.051.146c.155.248.317.553.408 1.05Zm-.977-1.713s.009.009.015.012a.038.038 0 0 1 .015-.015l-.027.006m-3.165-.742c.028.03.034.033 0 0Zm-.73-1.594c.086.055.169.11.251.168-.107-.171-.11-.183-.21-.364a1.01 1.01 0 0 1-.04.196ZM33.08 59.048c-1.669.257-3.634.852-4.544 2.33 5.527-1.655 10.639 2.424 13.263 7.771.87 1.777 1.606 3.982 3.058 3.64 2.045-.764 2.03-10.633-7.217-13.295-1.614-.403-2.793-.72-4.56-.449m1.417-3.047c-.327.516-.15.904.32 1.2.061.033.372.204.44.213.216-.177.189-.809-.757-1.413m-1.06-.425c.108.132.223.357.275.5a2.3 2.3 0 0 1 .153-.368 4.073 4.073 0 0 0-.427-.135m.341 1.518a.881.881 0 0 1-.155.317c.366-.015.226-.009.342-.012a1.361 1.361 0 0 1-.19-.302m-1.217-1.176c-.144.452.164.944.39.977.12-.104.08-.626-.39-.977Zm-1.145 1.9c.336-.095.675-.178 1.017-.25a1.665 1.665 0 0 1-.583-.74c0 .32-.122.666-.434.99Zm-.494-1.946c.333.074.62.214.815.547-.037-.302 0-.5.067-.73-.577.104-.678.135-.882.183Zm-.446.819c-.116.342-.152.537-.229.852.333-.05.773-.36.8-.703-.107-.137-.4-.162-.567-.15m-.974.282.012.024c0-.012.006-.024.01-.04-.01.003-.016.01-.022.013m.037 1.197a3.911 3.911 0 0 1-.113.451 4.32 4.32 0 0 1 .433-.238.58.58 0 0 1-.323-.213m-.858-.07s.01.02.012.03a1.39 1.39 0 0 0 .04-.165 1.765 1.765 0 0 1-.052.134Zm-1.816.427c.067.122.128.253.18.397.196-.3.455-.63.736-.843a4.62 4.62 0 0 1 .268-.708c-.506.192-.903.674-1.184 1.154Zm.348 1.322a7.6 7.6 0 0 1 .272.736c.192-.391.378-.644.68-.971a.633.633 0 0 1-.387-.284 3.29 3.29 0 0 1-.473.266 5.024 5.024 0 0 0-.098.177l.003.073m-1.016-1.994.091.052c.034-.055.074-.11.11-.162l-.201.113m1.724 5.744a1.879 1.879 0 0 1 .858-1.353c-.654.144-.72.26-.94.073h-.03c.008.254.014.425-.016.74.052.18.095.36.128.543m-1.08-2.248c.128.135.192.211.24.275a6.803 6.803 0 0 0-.103-.498c-.04.08-.085.153-.134.223m-.385-1.533s.01.025.012.034v-.034h-.009m1.334 6.355c-.034.113-.08.25-.128.363.21.21.406.434.583.675-.095-.528-.098-1.084.161-1.545a5.356 5.356 0 0 1-.299-.14c-.04.247-.137.491-.317.65m-2.087-7.481a.646.646 0 0 0 .091.293c.012-.046.028-.092.043-.138-.043-.051-.089-.1-.134-.152m-.089-.098s-.01 0-.012.003l.012-.003Zm.77 3.255-.038.132c.043.195.052.403.04.601a.417.417 0 0 1 .41-.195 3.741 3.741 0 0 0-.413-.538Zm-1.68-2.104c-.015.101-.024.202-.033.303a1.8 1.8 0 0 1 .665.708l.064.027a.438.438 0 0 1 .068-.045c.006-.199.106-.773.14-.968-.293-.26-.577-.211-.9-.025m.26-.858c.063-.009.118-.012.18-.012a1.795 1.795 0 0 1-.028-.22c-.058.074-.107.15-.153.232Zm2.169 9.958a2.57 2.57 0 0 1-.955.781c-.226.345-.571.55-.9.614-.01.26-.034.421-.065.574.159.165.309.342.443.531.229-.864.83-1.367 1.648-1.514.076-.208.168-.412.287-.596a3.046 3.046 0 0 1-.452-.393m-4.355-8.8c.043.015.086.027.125.051.269-.37.656-.586.968-.577.048-.052.1-.1.152-.15.03-.149.025-.112.064-.25-.44.3-.875.608-1.306.925m.931 1.582s-.027.022-.04.03c-.003.028-.006.059-.012.09.018-.04.037-.08.052-.12Zm.07 1.625c.086-.05.168-.089.263-.123.277-.277.528-.803.582-1.145-.002 0-.009-.006-.012-.009-.177.464-.457.855-.894 1.081.018.083.025.104.058.196m-.735-.11c-.022-.006-.012 0-.043-.013a2.72 2.72 0 0 0 .03.63c.037-.013.07-.028.104-.04.01-.01.04-.04.073-.07a2.295 2.295 0 0 1-.167-.507m2.172 6.052c.11.009.254-.015.36-.04.214-.354.184-.882.055-1.282a3.37 3.37 0 0 1-.244-.037c-.116.11-.265.314-.341.522.082.308.14.614.17.84m-.082-2.12c.037-.024.073-.045.11-.067a7.622 7.622 0 0 0-1.825-1.96c.345.785.95 1.689 1.715 2.028Zm-.073-3.264a2.637 2.637 0 0 0-.339-.064c-.049.052-.1.101-.152.153.186.034.31 0 .49-.085m.129-.724-.01.015h.016a.043.043 0 0 0-.006-.018m.278 1.3c.064.028.128.059.192.092a2.261 2.261 0 0 1-.046-.195 2.57 2.57 0 0 1-.146.104Zm1.013 4.214a3.03 3.03 0 0 0 .207-.268 4.52 4.52 0 0 1-.256-.376c.04.214.061.43.049.644Zm-.598-2.021a2.696 2.696 0 0 1 .018-1.148 4.433 4.433 0 0 0-1.514-.62c.565.513 1.123 1.142 1.496 1.768Zm-4.56-4.837c.318-.076.626-.08.925.095.055-.32.143-.696.26-.995-.571-.086-.97.348-1.188.9m-.137.608c.195.012.403.061.574.159a1.53 1.53 0 0 1 .311-.23c-.229-.161-.635-.054-.885.07Zm.48 1.289c.121-.281-.013-.584-.492-.623.128.354.26.464.491.623Zm.198 3.068c.192.046.299.14.573.333a4.35 4.35 0 0 1-.146-.907c-.067-.113-.058-.443-.064-.595a6.531 6.531 0 0 0-.44-.296c-.064.43-.064.818.076 1.468m1.026 2.718c.207.073.503.183.705.272a2.699 2.699 0 0 0-.046-.266c-.296-.333-.564-.81-.744-1.227a6.398 6.398 0 0 0-.681-.572c.168.477.488 1.246.766 1.79m-3.19-4.7c.346.123.7.318.999.532a5.17 5.17 0 0 0 .357-.367c0-.006 0-.015.003-.021-.91-.382-1.15-.43-1.358-.143Zm.67-1.45c-.077.199-.132.303.11.568.063.018.106.028.194.052a2.057 2.057 0 0 1-.305-.62Zm-.968.483c-.089.137-.174.277-.263.418.208-.257.428-.345.647-.41a.853.853 0 0 1-.046-.277 3.622 3.622 0 0 0-.338.269Zm.29 2.97c.067.028.155.074.22.105 0-.055-.007-.11-.013-.168-.07.024-.137.045-.207.064Zm-.312-.815c0 .028 0 .052-.003.083.037-.006.074-.016.113-.025a.599.599 0 0 0-.106-.058m-.47-1.37h.003l.012-.028a.124.124 0 0 0-.015.027Zm.68 2.885c.073.204.162.382.201.446a2.27 2.27 0 0 0 .068-.309c-.083-.042-.165-.082-.269-.137Zm2.628 5.49a3.526 3.526 0 0 1-.69-.947 6.28 6.28 0 0 1-.107.196c.201.324.336.669.382 1.21.207-.038.378-.184.418-.459m-1.825-3.658c.036.174.06.348.08.525.188.202.445.428.698.61.018-.164.06-.378.131-.527a4.39 4.39 0 0 0-.146-.822c-.254.193-.534.25-.763.214Zm-.025-.812c.165.076.318.024.424-.122a1.542 1.542 0 0 0-.28-.309 2.62 2.62 0 0 1-.14.43m3.484 6.434c-.463-.314-.817-.83-.964-1.511a1.66 1.66 0 0 1-.125-.07c-.116.299-.229.418-.455.561.876.178.873.602 1.74 1.564a2.623 2.623 0 0 1-.196-.547m-1.928-4.8c0 .153 0 .3-.015.464.363.086.656.205.949.364a12.598 12.598 0 0 1-.547-.944c-.17-.021-.277-.027-.387.116Zm-.064-.739.027-.009a.694.694 0 0 1-.04-.06l.013.07ZM20.7 66.266c-.034.025-.07.046-.107.07.067.279.07.645.052.932.162.116.308.247.451.39.107-.552.116-.851-.396-1.395m2.764 5.973a2.077 2.077 0 0 0-.585-.562 1.952 1.952 0 0 1-.354-.015c.192.293.314.586.345.95.02.015.045.03.067.048.103-.274.317-.409.53-.42m.147.662c-.037-.013-.043-.01-.085 0-.01.015-.013.033-.019.049a.44.44 0 0 0 .067.024c.016-.012.019-.015.04-.07m.916.323c-.107-.042-.21-.082-.318-.122-.104.324-.338.504-.573.526.076.183.122.25.201.354.085-.419.406-.727.693-.755m.348 1.317c.073-.346.198-.486.335-.575-.497-.155-.863-.238-.796.486.183.076.36.1.46.088Zm2.557 3.22c-.632.181-1.2-.21-1.636-.729-.122-.03-.055-.021-.159-.058a12.384 12.384 0 0 0 2.256 1.619c-.18-.278-.354-.562-.461-.831ZM24.349 70.9a6.092 6.092 0 0 0-.245-.177c-.018.045-.036.085-.058.134.101.089.199.17.303.25.012-.027.02-.052.03-.076-.012-.043-.021-.089-.03-.131Zm.409 1.264a4.682 4.682 0 0 1-.318-.177.998.998 0 0 1-.378.012c.079.137.113.214.165.424.268.095.534.196.793.315a9.683 9.683 0 0 1-.26-.571m-1.69-5.906c.067 1.05.348 1.799 1.147 2.486.022-.14.05-.278.074-.376-.306-.998-.608-1.48-1.218-2.11m3.137 8.373c-.06-.021-.122-.046-.186-.067-.14.21-.305.376-.556.495.074.485.352.992.641 1.392.751.104.888-.614.705-1.173a7.182 7.182 0 0 1-.607-.647m1.477 1.71a1.597 1.597 0 0 0-.162-.583l-.036-.019c0 .593-.26 1.121-.809 1.292.232.159.388.174.595.134-.015-.311.098-.687.409-.824m.84.644c-.062-.009-.242-.04-.3-.049a1.32 1.32 0 0 1-.25.477c.052.14.116.275.186.406a1.24 1.24 0 0 1 .363-.83m.458.482s-.012-.016-.018-.019c-.254.217-.226.65-.083.972.135-.245.129-.67.098-.95m.91 1.2a3.442 3.442 0 0 1-.275-.525 1.565 1.565 0 0 1-.281.76c.262.12.44.021.555-.235Zm3.808.68c-.574.49-1.236.257-1.852-.18-.171.398-.776.755-1.536.025a1.017 1.017 0 0 1-.292.278c1.733.464 2.423.382 4.11.165a3.004 3.004 0 0 1-.427-.287m-.714-2.718c-.003.098-.012.193-.021.29.152.477.378.974.683 1.396.195-.568.01-1.387-.665-1.686m1.437.971a4.147 4.147 0 0 0-.119-.116c.08.489.006.947-.192 1.332.363.293.693.442.824-.016a6.142 6.142 0 0 1-.51-1.2m-4.306-11.078c.214.394.357.8.37 1.27.116.245.244.48.378.715a4.3 4.3 0 0 1 .665.324c.11-.901-.723-1.738-1.413-2.312m2.457 6.803a4.575 4.575 0 0 1-.247-.922c-.342-.012-.751-.14-1.154-.421.055.357.205.8.342 1.111.256.238.48.507.671.794.19-.14.3-.339.388-.562Zm-.21-1.777a10.53 10.53 0 0 1-.916-.91c-.034-.003-.064-.003-.095-.009a1.043 1.043 0 0 0-.207.574c.235.275.71.556 1.172.602.009-.08.024-.174.042-.257m.928 3.044c-.265.046-.37.211-.467.489.15-.024.33-.07.647-.247a3.54 3.54 0 0 1-.18-.241Zm-3.189-5.493c-.021.03-.049.061-.073.089.067.073.18.165.26.229.081.018.167.033.25.046a5.568 5.568 0 0 1-.202-.318 2.91 2.91 0 0 0-.235-.046Zm-.339-.827c.01-.028.015-.04.028-.129-.025-.055-.052-.11-.077-.161.013.097.03.195.05.29Zm-.512-1.832a4.346 4.346 0 0 0-.278-.342c-.186.467-.046 1.084.131 1.563a3.49 3.49 0 0 1 .146-1.221Zm2.688 8.58a5.16 5.16 0 0 0-.162-.348 1.844 1.844 0 0 1-.15-.086 1.36 1.36 0 0 1-.051.248c.116.076.238.137.366.183m.14 3.545c.327.26.849.583 1.172.33a5.75 5.75 0 0 1-.595-.959c-.134.235-.348.498-.577.626m-.86-1.32c.217.181.394.383.522.624.342-.266.454-.687.491-1.13a7.825 7.825 0 0 1-.08-.388c-.808-.214-1.003.391-.933.898m-1.325-6.87a5.123 5.123 0 0 1-.167-.346 4.307 4.307 0 0 1-.574-.244c0 .08 0 .159-.006.238.26.089.512.205.75.351m.608 3.329c.085.162.247.385.366.525a1.172 1.172 0 0 0-.366-.525Zm-2.25-3.05a3.33 3.33 0 0 1-.433.833c.006.067.013.131.022.198.177-.305.32-.68.415-1.032m.26 2.617v-.003.003Zm.957-.067c-.256-.058-.8-.153-.96.061.283.315.667.437 1.024.257a2.25 2.25 0 0 1-.064-.318Zm.403 2.706a5.58 5.58 0 0 1-.741.119c.103.168.198.345.271.534.022.01.046.018.067.027.074-.265.208-.494.4-.684m.736 2.675c.256.312.644.59.698.16a2.9 2.9 0 0 1-.698-.16Zm-.147-1.065c.03.067.055.134.077.207.06.028.122.055.183.08-.025-.058-.043-.12-.061-.177-.05-.031-.083-.055-.199-.107m.125-.65a1.52 1.52 0 0 1 .269-.734c-.333.05-.638.257-.754.596.18.04.29.064.485.137Zm-2.05-1.6c.588.066 1.296-.123 1.843-.315a4.162 4.162 0 0 1-.537-.72c-.083.039-.174.063-.263.088.595.592.583.598-.015.003-.412.103-.879.03-1.276-.263-.006.226.086.764.247 1.206Zm-1.462-3.976a3.43 3.43 0 0 1 .018-.523 1.183 1.183 0 0 0-.683.929c.271-.098.46-.223.665-.41m-.727 2.211c0 .022 0 .043-.003.064.177.156.382.36.54.565.59.437.116.095.709.455-.068-.415-.074-.836.055-1.236-.019-.028-.034-.058-.05-.086-.613.476-.94.41-1.244.238m.409-.717c.146-.022.38-.223.49-.324a5.5 5.5 0 0 1-.094-.37 2.307 2.307 0 0 1-.705.306c.064.174.144.32.308.388Zm1.528-.293c.391-.202.91-.138 1.34-.031.134-.195.339-.311.565-.257.015-.482-.135-.964-1.175-1.358a4.805 4.805 0 0 1-.73 1.646Zm-1.956-9.484a2.28 2.28 0 0 1-.116.415c.092.033.177.073.266.113a5.191 5.191 0 0 1-.15-.529Zm.418 2.186c.11.1.223.214.32.336.068.045.135.088.205.13a4.17 4.17 0 0 0 .092-.631c-.357-.083-.519.021-.617.165Zm2.475-2.458c-.805.378-1.043 1.755.098 2.326.192-.009.375.04.558.107a.564.564 0 0 1 .214-.04.832.832 0 0 0 .14-.134c-.573-.61-1.236-1.63-1.01-2.26Zm4.66 11.27c.067.018.23.073.305.1.217-.362.327-.882.208-1.468a2.965 2.965 0 0 1-.894-.296c-.003.3-.028.568-.095.861.125.266.257.5.476.803Zm-.247-7.148c.067.1.12.21.162.324a8.7 8.7 0 0 0 .37.448c.09.05.167.098.25.153a4.215 4.215 0 0 1-.15-.583c-.208-.12-.418-.232-.632-.342Zm-.98-1.68-.018.016c.092.226.202.446.318.66.183.076.17.082.598.176a3.196 3.196 0 0 1-.898-.852Zm-2.56-3.062c.375-.043 1.178.012 1.743.198a.898.898 0 0 1 .183-.049c-.626-.125-1.42-.232-2.048-.201.043.015.082.03.122.049m5.53 14.293c.201.757.64 1.704 1.236 2.196.06-.73-.196-1.576-.61-2.156a2.157 2.157 0 0 1-.626-.04Zm-3.876-12.675c-.165-.287-.195-.403-.253-.727a4.508 4.508 0 0 0-.598-.094c.299.565.308 1.255.14 1.798.14.132.287.254.436.37.12-.05.235-.104.348-.168-.1-.394-.146-.779-.073-1.182m1.38 3.774c-.092-.244-.257-.397-.458-.559.21.226.339.388.454.56h.004Zm2.1 6.08c.075-.101.176-.205.28-.275a5.115 5.115 0 0 1-.263-.434c.019.232.019.477-.018.709Zm-.477-2.022a3.783 3.783 0 0 1-.034-.314c-.256-.138-.518-.26-.784-.376v.012c.379.232.519.306.821.678m1.172.62c.122.263.28.534.528.855.064 0 .131.01.198.018a2.847 2.847 0 0 0-.671-.93c-.019.017-.034.039-.055.057Zm-.418-1.954a5.884 5.884 0 0 1-.15-.425c-.238-.354-.665-.86-1.452-1.386a2.953 2.953 0 0 1-.05.287c.257.37.627.816 1.649 1.527m-2.365.327.055.119c.06-.006.122-.01.183-.006v-.025a8.554 8.554 0 0 0-.238-.085m-.998-1.283c.058.052.119.104.18.162.107.01.21.03.317.058.113-.098.275-.324.394-.617-.125-.226-.229-.488-.217-.745-.44-.72-1.056-1.273-1.773-1.71.775.77 1.44 1.808 1.102 2.855m-2.207-6.284s-.012.015-.02.022c.005-.007.011-.016.02-.022Zm.013-.015-.01.01.01-.007m.003-.01v.004-.003Zm-.003.007s.006 0 .006-.003c0 0-.003 0-.003.003m.015-.03s-.01.012-.01.018c0-.006.007-.013.01-.019Zm-.003.018-.028.04c-.033.317.382.912.605 1.181.058-.583-.122-1.026-.403-1.28a.457.457 0 0 0-.177.059m4.056-.028c-.336-.165-.666-.36-1.511-.565.073.043.366.217.525.324.198.03.778.19.986.241Zm1.443 2.376c0-.107 0-.174.12-.452-.251-.366-.58-.62-.956-.849.354.373.665.806.836 1.304m1.209 3.863a.44.44 0 0 0 .14.003l-.125-.116c0 .036-.006.073-.012.113m-.412-1.634c.064.01.122.024.183.046a13.925 13.925 0 0 1-.559-.999l-.372-.137a.827.827 0 0 1-.107.223c.284.293.568.58.852.87m-.003-2.8c.25.122 1.382 1.41 1.605 1.686-.3-.76-1.001-1.399-1.67-1.836.028.05.046.098.068.15m.405 1.35c-.125-.135-.247-.257-.387-.397.037.094.08.189.119.284.091.036.18.073.268.113Zm.3.962c.183.299.375.592.576.876.129.049.257.097.382.15a1.16 1.16 0 0 0 .076-.27 13.244 13.244 0 0 0-.177-.274 9.743 9.743 0 0 0-.858-.483Zm3.295 4.128c.263.14.309.162.602.308-.028-.207-.156-.394-.281-.559a.627.627 0 0 1-.32.25Zm-.22-.77s.004-.03.004-.046c-.19-.161-.4-.317-.608-.464a.829.829 0 0 1-.015.086c.098.073.504.36.62.424Zm-.912-1.899.083.205c.079.045.161.094.238.146a2.91 2.91 0 0 0-.32-.351Zm.373-.62c-.458-.644-.65-.837-.843-1.066.025.14.046.284.052.428.33.235.565.43.794.638m1.846 11.646c.158.052.342.12.491.186.01-.042.028-.128.034-.17a3.635 3.635 0 0 1-.092-.254 2.112 2.112 0 0 1-.436-.061c.003.098.006.201.003.3Zm-2.948-8.006c.116-.342.348-.516.677-.602.348.013.129-.021.711.18.007 0 .013 0 .022-.006a8.05 8.05 0 0 1-.86-.558c-.465.076-.892-.327-1.53-.828-.4.235-.726.241-1.126.12.147.378.345.775.592 1.163a8.315 8.315 0 0 0 1.514.53Zm-.043.846a8.782 8.782 0 0 1-.387-.098c.042.08.067.134.1.22.107.11.254.247.36.348a6.186 6.186 0 0 1-.076-.47m1.148 3.029a8.824 8.824 0 0 1-.52-.953 16.76 16.76 0 0 0-.366-.131c.028.201.074.43.144.644.241.144.516.29.739.44m1.745 5.3c.037.025.07.05.104.074a1.93 1.93 0 0 0 .195-.29 3.683 3.683 0 0 0-.253-.104 3.604 3.604 0 0 1-.049.318m-.955-3.103a3.084 3.084 0 0 0-.958-1.37c.265.485.567.943.958 1.37Zm-5.054-9.756c.025.052.076.153.104.202a.567.567 0 0 1 .043-.073 2.949 2.949 0 0 0-.15-.126m-.66-2.14a.818.818 0 0 1 .181-.122c-.26-.715-.91-1.295-1.505-1.744a1.37 1.37 0 0 1-.04.446c.41.498.813.928 1.258 1.39.03.009.08.018.11.027m2.771 8.492c-.44.442-.93.158-1.364-.306-.28.138-.443.58-.492.901.281.19.535.415.779.663.03.015.06.033.091.049.537-.117.882-.736.986-1.307Zm1.544 5.297c-.067-.027-.134-.055-.201-.079l.1.162c.031-.028.064-.055.101-.082Zm.183 1.628c.022.47.12 1.032.37 1.423.088-.034.17-.07.253-.116.091-.232.137-.406.186-.742a3.497 3.497 0 0 1-.809-.568m-.784 1.029c.055.034.11.064.165.1a4.207 4.207 0 0 1-.138-.634c-.027.164-.042.35-.027.534Zm.021-1.905a7.708 7.708 0 0 1-.44-.715.882.882 0 0 1-.628.07 1.375 1.375 0 0 1-.244.318c-.021.073-.021.094-.033.174.225.376.2.891.204 1.426.034.08.07.159.11.235.06.015.125.033.189.052.055-.861.46-1.383.842-1.56Zm-2.728-1.582c.229.385.418.672.766.788.037-.098.076-.19.122-.278-.84-.663-1.385-1.912-1.605-2.929-.037.306.033.715.107 1.014.348.376.61.876.607 1.408m-.348.867c.159-.003-.012 0 .165 0-.025-.03-.052-.058-.076-.089-.07.086-.055.059-.092.092m-.903-3.802c-.089-.076-.183-.167-.269-.25-.244.171-.58.342-.894.425 0 0 1.056.674 1.056.678-.012-.336 0-.532.104-.852m-9.449-.547c-.082 0-.167 0-.253-.012.095.201.22.412.455.674a2.964 2.964 0 0 1-.201-.662Zm-4.132-3.765c.092.07.184.143.266.223.049-.1.088-.205.125-.312-.06-.021-.113-.04-.256-.058a.388.388 0 0 0-.138.147m.245 1.267a1.626 1.626 0 0 1-.184.14c.089.172.223.294.345.385a1.778 1.778 0 0 0-.161-.528m-2.49-6.794a.99.99 0 0 0 .134.055c0-.04 0-.08.003-.119a1.17 1.17 0 0 0-.14.064m-.425.641c-.046.413-.076.813.034 1.194.158-.122.338-.198.5-.226.01-.183.049-.332.116-.48a2.542 2.542 0 0 1-.043-.259 1.592 1.592 0 0 1-.61-.229m.891 2.236-.046-.104c-.067.033-.07.03-.128.073a.291.291 0 0 0 .174.03Zm1.657 3.425.012-.012c-.006-.003-.009-.009-.015-.012v.025m-2.38-2.785c.53.342.964.592 1.373 1.45.07.025.144.058.217.086.043-.037.088-.077.134-.11.012-.193.015-.464.006-.663a7.426 7.426 0 0 1-.583-.714c-.515.189-.76.033-1.123-.12-.009.022-.015.046-.027.07m.479 1.705a.999.999 0 0 1 .265-.214 2.275 2.275 0 0 0-.643-.727c.097.324.222.638.378.94Zm.537.39c-.058.028-.134.144-.168.199.1.131.208.25.247.284.006-.052.016-.107.028-.159a5.754 5.754 0 0 0-.107-.324Zm2.13 5.741c-.043-.07-.091-.137-.131-.208-.232.547.018.41-.11 1.356.027.235.07.47.125.7a5.504 5.504 0 0 0 .12-1.848m-.233-3.249s0 .01.01-.043c-.385-.143-.733-.452-.956-.91-.018 0-.033 0-.049.004.016.186.028.338.028.537.168.385.345.608.47.708a1.37 1.37 0 0 1 .5-.299m.77 5.203c.13-.253.396-.39.655-.424a12.678 12.678 0 0 1-.503-.571c-.018.336-.07.668-.15.995m-2.978-5.81c.183-.147.165-.15.204-.2.03-.274-.091-.518-.268-.726-.018.208-.03.358.033.898.01.01.022.018.034.027m.314 1.463a.36.36 0 0 1 .193-.15c.058-.116.079-.25.097-.412-.216-.11-.33-.238-.485-.033.027.13.091.476.195.595Zm.52.934h-.028.027Zm.005.037s.012-.015.022-.021c-.006.009-.016.015-.022.021Zm.052-.028-.015-.003c.006 0 .012.003.015.003Zm-.027.01c-.095.143-.113.336-.122.513.174-.077.283-.104.409-.266a1.86 1.86 0 0 0-.287-.244M34.062 52.94c3.214.174 6.577 1.1 10.69 3.814 1.383.91 4.157 4.049 5.698 8.767.629 1.908 1.022 7.105.406 10.134-1.242 6.122-8.292 12.794-20.929 11.676-10.8-.952-18.597-12.348-13.882-22.7 3.463-7.602 12.399-12.002 18.02-11.694" fill="#4E7DBF"/>
  <path d="M12.177 66.135c-1.77 5.335-1.33 12.248 8.032 20.587 1.349 1.209 2.466 2.015 4.18 2.733 1.82.757 2.421.699 2.342 1.435-.235 2.19-9.146-2.52-13.67-10.446-2.968-5.222-3.118-9.225-1.302-14.48.098-.278.516-.128.415.174" fill="#4E7DBF"/>
  <path d="M21.135 141.361c.162-.437.644-.504.876-.29.64.571.71 4.473 1.895 6.217.757-2.309.409-3.784.284-5.634-.104-1.417.702-1.261.967-1.054.25.193.366.635 1.196 2.428.345.745 1.197 2.379 1.676 3.072.1-3.258-1.828-6.324-.534-6.904 1.349-.608 2.206 2.989 4.397 5.301-.39-2.755-2.84-6.291-2.255-7.139.626-.904 2.89.448 4.099.684-.806-1.084-1.88-1.866-3.016-2.523-.753-.433-1.617-1.212-2.508-1.267-.827-.052-1.56.797-2.34 1.118-.4.165-5.57.98-5.424.36-.354 1.487-1.101 3.044-1.095 6.968.042.883.274 2.681.454 3.246.88-1.582 1.163-4.119 1.331-4.577m12.976-3.283.01-.021c0 .006-.007.015-.01.021Zm-5.484-14.061c.116 3.041.418 5.869 1.065 8.785 2.078.992 2.09.892 3.302 1.695-1.651-3.829-2.817-6.59-4.367-10.48Zm-8.655 8.687c.315.907.52 1.386.52 1.386 2.276.831 5.822.498 7.085-1.218a20.686 20.686 0 0 1-.174-1.145c-1.059.87-2.383 1.912-7.43.974m8.154-14.898c-1.096-.702-1.847-1.627-2.588-2.672-.821-1.145-.86-1.401-.617-1.606.553-.464.562.59 2.2 2.281.498.446 1.468 1.222 1.95 1.289.303-.745-.585-2.064-1.144-4.495-.54-2.321.748-1.85.873-1.426.04.137.262 1.408.516 2.369.406 1.35 1.214 3.143.613 4.123.128.207.26.412.388.614 1.812 5.975 3.65 9.163 7.074 16.177.155-.418.201-.339 3.152-1.127 8.484-2.568 17.767-7.063 20.45-8.589-.104-1.191-.562-3.82-1.328-5.713-3.384 1.7-9.948 6.235-12.823 5.536-3.146-.761-7.785-14.853-7.44-15.68-.196-1.017 1.04-1.496 2.978-2.663 1.563-1.007 11.777-6.885 13.623-6.717 2.332.222 10.672 13.02 8.557 15.792-.345.455-.632.956-1.193 1.475.726 1.56 1.41 3.264 1.752 5.341 5.834-3.906 9.558-6.343 13.156-10.565.17-.205.268-.245.393-.284-2.826-5.356-2.441-4.712-3.866-7.182-1.285-2.116-2.689-4.147-3.989-6.25-.577-.935-1.797-1.845-1.66-3.09.104-.948 1.047-1.51 1.736-1.964 7.721-5.081 10.41-11.655 9.763-10.413 2.386-5.42 3-9.545 1.706-15.911-2.002.555-4.495.363-7.108-.874-.424 2.84-.839 4.003-1.245 5.222.629.846 1.89 1.655 4.123 1.804.77-.02 1.071-.128 1.114.171.046.315-.299.278-.757.309-2.21.162-3.595-.293-4.999-.94-.784 1.868-1.52 2.93-2.111 3.715.824 1.182 1.385 2.41 4.33 3.145.473.117.275.733-.067.657-1.773-.397-3.44-.898-5.212-2.635-1.114 1.264-2.378 2.406-3.455 3.197.177.98 1.376 3.066 2.52 3.975.474.376.828.44.733.694-.25.684-2.911-1.652-4.397-3.878-1.343.84-2.628 1.505-4.181 1.93.006.604-.241 1.187.088 2.503.486 1.631 1.544 3.29 1.297 2.85.586.91.821 1.117.57 1.328a.266.266 0 0 1-.377-.043c-1.874-2.687-2.741-3.817-3.238-6.315a17.58 17.58 0 0 1-2.536.128C55.61 88.957 46.068 99.55 33.888 99.528c-1.132-.003-4.931-.296-5.218-.486-.379-.045-.684-.207-.852-.638.064.156-3.045 3.719-3.378 4.239-1.218 1.905-2.332 3.88-3.534 5.792-.952 1.517-1.477 3.838-1.904 5.618a32.1 32.1 0 0 0-.836 6.135 35.132 35.132 0 0 0 .277 6.018c.08.599.623 5.277 1.17 5.387 1.39.281 3.524.183 4.299.082 2.087-.269 2.344-1.399 3.268-2.037a33.06 33.06 0 0 1-.1-1.89c-1.071.33-2.365.412-3.583.058-1.746-.497-.998-1.258-.561-.986 1.641.824 3.58-.226 4.12-.379 0-1.065.033-2.091.164-3.609-.854.131-2.652-.711-4.321-1.444-.397-.174-.153-.779.226-.617 1.297.556 2.844 1.209 4.205.931.17-1.505.32-2.094.793-3.896m.815 1.893c.08-.088.177-.134.29-.11l-.333-1.23c-.106.87-.112.968-.143 1.301.073-.006.116.012.186.039Zm3.565 9.042c0-.028.012-.052.024-.08-2.759-6.54-1.803-5.111-3.39-8.427-.01.006-.019.006-.028.012l.006.027s2.25 5.875 3.388 8.465m3.32 7.908a.542.542 0 0 1 .098-.119c-.385-.91-.617-1.472-.818-1.918a.33.33 0 0 1-.196.162c.287.602.617 1.292.916 1.878m.879 2.116c.012-.214.119-.711.311-.784a.62.62 0 0 0-.476-.193c-.085.04-.015.006-.18.086.015.387.137.62.345.888m1.129 1.06c.046-.602.131-.77.232-.956a7.623 7.623 0 0 1-.824-.672s-.098.153-.146.348a1.933 1.933 0 0 0-.031.648c.201.21.537.461.772.632m3.928 13.457c1.513 1.007 4.177 1.557 5.67 1.673.714.055.738 1.316-.132 1.249-1.126-.086-4.022-.754-5.703-1.783-.266 1.612-.931 3.951-1.67 5.511 3.858 3.157 5.338 3.203 6.952 3.722 1.108.354 2.887 1.029 5.121.754 6.766-7.887 4.56-12.601 5.106-15.475-.159-1.774-.272-2.488.25-2.861.372-1.127 2.27-.849 7.147-2.412 1.84-.589 3.656-1.203 5.386-2.082 2.564-1.301 3.827 1.151 4.956 3.276.727 1.368 1.435 2.815 1.847 4.324 3.271.696 5.511-2.126 6.164-.577.406.961-.811 1.264-1.382 1.416-.553.168-2.28.831-4.492.489.04.256.076.516.11.775 4.815.568 5.389-.171 5.538.846.193 1.344-2.948.916-5.432.602.07 2.76-.418 5.343-1.199 8.012 5.606.583 8.755.055 11.34-.852.937-3.927 1.792-7.927 1.88-12.006.043-2.003.382-3.97.305-5.997-.076-2.055-.384-4.098-.747-6.122-.684-3.82-2.085-7.13-3.531-10.678-.241-.242-2.9-6.819-3.162-6.987-.012-.024-.021-.049-.033-.073-.019.015-.037.027-.05.055-.057.006-.103.043-.143.085-2.884 3.042-12.54 9.298-16.836 11.872-.433 1.622-1.154 3.124-2.142 5.026-.83 1.588-.968 1.762-2.488 3.42-1.263 1.423-1.66 1.912-2.859 2.748-.418.293-5.618 3.353-7.47 3.423-5.884.205-8.417-1.545-8.997-1.74-.052.03-.077.027-.12.021.736 2.467 1.105 4.648.993 7.903 2.581 1.252 4.531 1.132 6.173 1.468.846.174.79 1.414-.146 1.396-1.615-.04-4.215-.538-6.113-1.39-.027.33-.021.373-.094.969m-2.747 8.439c3.4 3.176 6.137 4.037 10.101 5.539-.024-.61.336-1.123.9-1.27-1.882-.263-5.316-1.637-5.651-1.801-1.563-.77-2.567-1.503-4.795-3.524-.35.684-.451.864-.555 1.056Zm-2.64 3.897c.247 2.507 10.465 18.791 15.656 13.6 1.239-1.521 1.178-4.04.668-5.869-.36-1.301-1.02-2.702-1.978-3.634-.866-.842-1.864-.94-2.93-1.325a26.109 26.109 0 0 1-3.25-1.417c-2.197-1.142-4.296-2.629-5.904-4.598-.99 1.633-2.015 2.528-2.262 3.239m39.075-3.038c2.88 2.01 8.172 1.53 11.395.19-.086-.376.125-1.298.207-1.652-3.506 1.032-7.467.797-11.27.381-.103.349-.22.733-.332 1.084m-.95 1.408a.934.934 0 0 1-.22.089c1.493 6.839 14.28 14.58 18.79 10.036 1.743-2.137-3.564-7.716-4.959-10.07-6.805 2.101-8.365 1.359-13.61-.055Zm-11.999-38.813.018.577c.385.205.745.244 1.23.08.006-.403 0-.339-.006-.526-.503.071-.894.01-1.242-.131Zm-.064-1.157c.015.183.028.366.04.55.363.262.967.149 1.242.094a26.873 26.873 0 0 0-.046-.699c-.427.073-.781.128-1.236.055Zm-.152-1.194c.04.217.07.437.094.653.418.074.787-.012 1.23-.131-.058-.495-.03-.262-.055-.446-.3.101-.583.141-1.27-.073m-.231-1.075c.042.165.082.33.119.498.381.122.98.293 1.284.03a8.642 8.642 0 0 0-.134-.65c-.363.205-.851.192-1.27.119m-.558-1.896c.055.153.229.806.427 1.459.754.141 1.038-.048 1.264-.216-.095-.37-.116-.529-.373-1.246-.372.11-.863.137-1.321 0m-.458-1.722c.095.332.171.671.226 1.013.372.184.794.235 1.31.055a37.985 37.985 0 0 1-.513-1.401 1.494 1.494 0 0 1-1.023.333Zm-.845-2.205c.37.791.53 1.234.647 1.569.354.062.793-.042.958-.445-.097-.275-.293-.846-.616-1.658-.446.36-.733.473-.992.534m-1.09-1.948c.238.4.54.925.766 1.331.379-.042.705-.293.995-.556a13.137 13.137 0 0 0-.72-1.141c-.308.277-.616.363-1.04.366Zm0-2.443-.183-.458c-.204-.186-.512-.458-.766-.553-.021 0-.046.007-.067.01-.561.448-.47.833-.244 1.325.552.113.916.168 1.26-.324Zm-.936.931c.143.26.1.202.616.999.403.04.763-.025 1.01-.348-.14-.199-.085-.101-.39-.843h-.004a5.139 5.139 0 0 1-.045-.116c-.37.314-.766.373-1.19.308m5.505 15.088c.036-.321.076-.645.08-.968a2.043 2.043 0 0 1-1.215-.098 15.88 15.88 0 0 1-.055 1.121c.344.082.72.091 1.19-.058m-.208 1.444c.089-.434.107-.623.156-1.038-.397.091-.781.113-1.184.009-.04.235-.061.324-.19.968.397.143.806.125 1.218.061Zm-1.532 1.343c.342.104.748.153 1.142.092.116-.369.15-.458.293-1.001-.406.021-.803.012-1.194-.129-.051.284-.17.727-.24 1.038Zm.058-.253-.006.028c-.006.021-.006.03.006-.028Zm-22.897 7.994c.629.437.675.464.995.638 4.755-.705 6.705-1.517 12.497-4.073 3.815-1.689 5.27-2.409 7.696-3.683.476-1.368.739-3.023.788-4.39-7.077 3.939-22.067 9.215-23.206 8.852.125.259.467.958 1.233 2.659M41 140.359c-.32-.134-.275-.122-.516-.232-.171.534-.146.886-.125 1.45.311.22.18.129.415.248.012-.486.052-.986.226-1.463m1.196.461a12.048 12.048 0 0 1-.87-.323c-.143.412-.189 1.016-.186 1.465.421.144.381.119.833.284-.006-.464.021-.974.223-1.426Zm1.096.321c-.254-.067-.504-.144-.754-.22-.214.464-.23.937-.199 1.457.52.189.531.18.834.244-.034-.501-.025-.999.119-1.481Zm1.226.311c-.332-.082.21.058-.796-.198-.144.418-.14 1.011-.107 1.459.488.095.586.11.787.162-.04-.491-.033-.94.116-1.42m.342.08c-.159.461-.146.974-.085 1.432.335.085.622.131.982.177-.088-.611-.036-1.047.077-1.426-.275-.04-.458-.067-.974-.183Zm14.609-5.878c-.147.177-.29.354-.434.534.266.251.547.486.852.681.229-.247.244-.259.57-.659a5.22 5.22 0 0 1-.991-.553m.6-1.173c-.036.086-.268.59-.286.678.284.232.76.419 1.135.498.192-.257.202-.253.29-.415a3.269 3.269 0 0 1-1.141-.764m.589-1.062a14.02 14.02 0 0 1-.354.58c.247.33.808.641 1.163.72.082-.186.113-.277.28-.693-.384-.122-.79-.314-1.09-.607Zm1.825-1.182c.08-.223.336-.95.409-1.221-.302-.01-.534-.016-1.09-.19-.165.605-.222.742-.366 1.096.238.153.675.3 1.047.315Zm-1.187.018c-.107.22-.26.489-.376.696.21.214.605.431 1.053.514.134-.342.202-.474.36-.843a3.012 3.012 0 0 1-1.034-.367m-3.174 5.014c.217.318.44.544.714.773.131-.153.235-.272.47-.538-.195-.128-.412-.293-.796-.672-.126.15-.257.294-.388.437Zm-3.452 2.941a9.55 9.55 0 0 1-.598.369c.214.232.568.51.772.647.153-.085.025-.006.516-.305-.375-.29-.537-.482-.69-.711Zm.937-.721c-.29.266-.445.379-.631.51.161.208.271.345.787.678.668-.391.43-.244.662-.406a3.537 3.537 0 0 1-.818-.782Zm2.439-.571c.35-.357.195-.192.415-.443a3.894 3.894 0 0 1-.763-.781c-.21.186-.44.354-.663.525a2.72 2.72 0 0 0 1.01.699Zm-1.456-.339c-.22.189-.311.278-.638.589.26.33.614.605.934.767.449-.342.476-.382.656-.541a3.767 3.767 0 0 1-.952-.815Zm-3.37 2.421c.108.294.218.492.52.84l.61-.339c-.317-.275-.485-.43-.693-.696-.284.147-.274.134-.436.199m-1.462.464c.153.476.36.876.562 1.154.286-.153.573-.309.854-.47a2.872 2.872 0 0 1-.525-.953 30.64 30.64 0 0 1-.894.269m-.339.101a29.03 29.03 0 0 1-.73.213c.193 1.002.398 1.099.65 1.252.385-.082.242-.024.62-.22a4.836 4.836 0 0 1-.54-1.245Zm-1.431.384a5.38 5.38 0 0 1-.702.095c-.033.44.1.885.238 1.288.244-.03.519-.079.879-.134-.223-.372-.339-.818-.415-1.249Zm-2.03 1.405c.257.015.51.03.764.03-.126-.421-.217-.812-.18-1.331a9.453 9.453 0 0 1-.605-.049c-.08.501-.036.831.025 1.347m-1.563-.141c.57.067.565.067.873.092-.049-.479-.067-.91.018-1.38-.119-.019-.238-.034-.357-.052-.189-.098-.268-.04-.473-.07-.168.476-.152.903-.06 1.41Zm1.6-2.806c1.113.079 1.705-.067 3.973-.815 1.748-.583 2.413-1.307 3.216-2.049.855-.788 1.227-.95 1.752-1.49.201-.229 1.977-2.367 2.347-2.974-3.72 1.826-11.5 5.374-17.298 6.427 2.231.761 4.456.797 6.01.901Zm-8.945-.986a20.351 20.351 0 0 1-.693-.379c-.153.26-.177.712-.195 1.02.216.168.433.336.656.495.021-.48.073-.794.229-1.136m.274 1.462c.47.287.363.217.623.397-.006-.738.064-.98.18-1.328-.089-.043-.18-.082-.272-.128 0 0 0-.003-.003 0l-.348-.174c-.146.363-.17.632-.177 1.237m24.234-26.749c.01-.027.015-.058.021-.089-.006.031-.015.062-.02.089Zm-7.99-12.773c-2.343.825-15.078 8.306-15.078 8.306.748 2.898 4.49 11.313 6.348 13.298.372.332 1.19.174 1.654.055.631-.208 4.034-1.823 5.13-2.495 5.096-3.127 2.368-1.631 5.365-3.139-2.347-5.38-2.918-5.716-2.436-6.932.873-2.161 2.863-1.322 3.928.504.268.458 1.385 2.916 1.504 3.182.223.373.44.748.641 1.133.199-.192.843-.974.919-1.09.357-2.211-6.525-13.139-7.974-12.819m23.825 11.277c-3.495 4.412-8.756 7.783-14.045 11.267.205 1.817.293 2.44.083 4.092 4.797-2.98 9.57-6.104 15.606-11.46.04.012.061-.012.092-.03 0 0 .012-.01.018-.013.034-.027.064-.058.058-.103.019-.013.03-.028.05-.043a121.86 121.86 0 0 0-1.86-3.707m2.436-48.777c-.44.15-.733.26-1.306.373-1.45.28-3.54-.348-4.975-1.328-.018.708-.116 1.41-.216 2.11 2.304.983 5.09 1.001 6.802.36a66.57 66.57 0 0 1-.305-1.515Zm.021-1.871c-.082-.56.394-1.503.702-2.223.916-2.132 2.713-7.225 2.23-8.37-1.513.61-1.955 4.21-3.07 4.018-1.48-.247.16-4.006-.747-6.158-.22-.03-.534.507-.647.705-.705 1.505-.55 2.876-1.031 3.285-1.49 1.252-1.218-3.783-2.35-5.407-.842 2.296.5 7.478-1.483 6.125-.39-.342-1.975-4.21-3.629-5.438-.155 2.08 1.465 5.52 1.847 7.398.604 3.002-4.374-.11-6.028.59.113.265 1.694 2.14 6.082 3.004l.562.342.25.156c.034.04.08.095.116.144v.003c.357.473.455.717.607.968h-.02c.094.103.167.226.213.363 1.098.953 2.694 1.405 4.077 1.444.885-.03 1.404-.284 2.118-.531.036-.144.046-.226.207-.424m3.003-10.569-.027-.027h-.003c.009.01.018.018.03.027Zm-.11-.097s-.024-.016-.04-.022c.013.01.028.016.04.025v-.003Zm-12.893-3.042v.004l.046-.05c-.019.016-.03.031-.046.046Zm-4.3 8.282c-.01.02-.022.042-.03.064a.398.398 0 0 1 .033-.065m-7.999 23.958c.025.36-.064.696-.357 1.02.296-.034.592-.073.882-.125-.26-.516-.308-.571-.525-.895Zm-1.843-2.125c.354.311.495.504.59.666.03-.01.057-.022.088-.028-.168-.19-.449-.485-.678-.638Zm-.891 1.496c.092.241.247.605.388.819-.04-.346-.165-.572-.388-.819Zm1.062-.214c-.296-.66-.864-.958-1.431-1.325.015.177.042.351.076.522 1.148.523 1.541 1.515 1.3 2.452a1.29 1.29 0 0 0 .311-.088c.092-.254.037-.7-.04-.962a.854.854 0 0 1-.213-.599m-2.21-2.647c-.036.19-.073.376-.11.562a.585.585 0 0 1 .529-.131.68.68 0 0 1 .293-.321 4.974 4.974 0 0 0-.711-.11Zm.94 3.722c-.051.116-.11.214-.189.318.034.058.07.116.107.17.089.031.196.065.434.102a3.495 3.495 0 0 1-.355-.593m-.668-2.592-.021.012a.172.172 0 0 1 .021-.012Zm-.162.46c.068.022.135.04.202.062a3.782 3.782 0 0 1-.04-.495 1.022 1.022 0 0 0-.162.434Zm-.61.99c-.159.076-.195.538.272.971a4.974 4.974 0 0 1-.272-.97ZM29.353 97.934c.019.037.028.073.04.11 10.635 1.124 19.794-3.032 26.431-14.898a5.596 5.596 0 0 1-1.09-.437c-1.654 4.394-11.044 10.364-20.65 13.24-1.917.577-3.473.526-4.389.611-.162.41-.268.937-.342 1.377m-3.326-1.185c.26-.17.525-.192.827-.128.162-.113.32-.229.485-.345a11.627 11.627 0 0 1-1.398-.11c.031.12.058.247.086.583Zm28.161-27.005a37.582 37.582 0 0 0-2.017-7.441c-1.727-4.538-4.288-8.931-7.889-12.116-1.031-.913-2.1-1.732-3.207-2.54a13.655 13.655 0 0 0-4.18-2.065c-2.525-.757-5.213-.837-7.942-.635-4.687.345-9.35 1.792-13.256 4.507-2.008 1.395-3.873 3.066-5.402 5.02-4.233 5.414-4.876 9.56-5.237 14.638-.396 5.573 1.896 12.81 4.474 15.662 3.641 4.018 7.614 6.62 12.476 8.128 6.189 1.585 7.535.366 7.895 1.914 2.478-.018 4.126-.882 4.83-1.139 1.761-.647.953-.018 3.925-1.465 3.091-1.512 13.174-5.661 14.987-10.074-1.202-.216.345-3.966.537-4.626.748-2.565.433-5.12.006-7.77m-32.354-28.03c-1.51-.293-7.2 2.657-7.51 3.533.036.241.29.544.524.94-.079-.134 2.356-1.361 2.555-1.465 1.486-.76 2.987-1.463 4.608-1.863.189-.045.387-.1.519-.247-.135-.311-.315-.825-.696-.898Zm-7.11-4.336a2.537 2.537 0 0 1-.333.156c.21.553.079.293 1.333 4.904a21.25 21.25 0 0 1 2.335-1.023c-.986-1.28-2.405-3.041-3.336-4.034m-.836-2.925c-1.22-.241-1.321.59-1.55.855.049.696.229 1.182 1.352.913 1.138-.421.79-1.557.195-1.768m-2.301 55.717c-.26-.198-.467-.36-.992-.821.263.385.476.562.992.821ZM8.913 90c-.37-.082-1.084-.79-1.306-1.02a.91.91 0 0 1-.284.312c1.398 1.294 3.683 2.497 4.895 1.374a28.76 28.76 0 0 1-.51-.394c.342.375-.18 1.215-1.48-.129-.403.422-.87.202-1.318-.146m.14-2.067c-.37-.36-.754-.72-1.282-1.313a8.4 8.4 0 0 1 .08.733 4.969 4.969 0 0 0 1.333 1.868c.165-.412.052-.88-.13-1.288Zm-3.903-5.365c-.018.052-.021.052-.03.104.186 1.66 1.074 3.389 1.919 4.607-.214-.662-.15-1.145-.03-1.392l-.068-.266c-.714-.928-1.306-1.988-1.791-3.053Zm-3.84-5.307c.218.043.196.29.346 1.203.433-.706 1.355-.473 1.632.17a.534.534 0 0 1 .443.169 28.022 28.022 0 0 1-.781-2.944c-.556.245-1.429.806-1.64 1.402Zm.758 1.536.015.009h-.003.003m.006.003H2.08h.006Zm.345 1.246c.003-.07.009-.14.015-.21-.052-.224-.226-.85-.357-1.03-.006 0-.01-.006-.015-.01-.147.202-.199.471-.22.697.067.287.162.825.574.55m-1.04.35a4.197 4.197 0 0 1 0-1.053c-.083-.354-.098-.543-.208-1.184-.03.717.067 1.618.207 2.238Zm1.183 2.364s.003 0 .003-.003c0 0-.003 0-.003.003Zm.162-.498a10.581 10.581 0 0 1-.287-1.725c-.192.055-.421-.009-.561-.088.082.665.323 1.511.305 1.444.052.177.229.757.375.861.125-.156.147-.287.168-.492Zm1.514 3.478c.012-.018.024-.033.033-.052-.442-.757-.995-1.831-1.318-2.702-.08.113-.198.223-.333.248.293.772.235.754 1.618 2.51m-1.364-6.96a.537.537 0 0 0-.47-.314c.094.107.216.43.265.565a.734.734 0 0 1 .205-.25Zm1.632 6.123c.208-1.475-.17-4.507-1.141-5.615-.028.341-.153.61-.363.845-.055 1.643.769 3.426 1.504 4.77Zm2.542 3.759c.03-.043.05-.067.089-.193-.803-.943-1.596-2.397-2.03-3.444-.03.226-.073.44-.152.65 1.056 1.74 1.599 2.403 2.093 2.984m12.274 5.939c-.042-.019-.085-.034-.128-.052a4.092 4.092 0 0 0-.143.177c.03.061.06.125.088.19a.844.844 0 0 1 .183-.315Zm.412.607-.024-.015.024.015Zm1.197 5.121c-.12-1.627-.449-3.52-1.136-4.99-.192 1.048.81 4.071 1.136 4.99Zm3.366-.959c-.159.242-.39.43-.684.437-.302 1.795-1.218 1.692-1.596 1.172-.067.272-.137.541-.305.761-.043.601-.165 1.258-.449 1.817.01.152.016.302.022.455a23.93 23.93 0 0 1 3.11-4.452c-.034-.061-.07-.123-.098-.187m.33-1.114c.073.232.146.455.231.656.11-.165.107-.186.437-.595.021-.266.027-.486.027-.748-.5-.275-.693-.947-.546-1.573a34.245 34.245 0 0 1-3.17-.635c.371 1.454.591 2.605.579 4.11.03.092.323 1.026.397 1.087.195-.098.33-.937.35-1.175-.29-.474-.631-1.784-.704-2.327-.238-1.692 1.513-2.486 1.458 1.975.159-.204.217-.482.247-.733-.271-.915-.506-2.13.379-1.896.46.248.378 1.32.32 1.857m-4.241 5.127c.015 0 .024.006.079-.006l.018-.019c-.226-2.91-.952-5.31-1.925-7.908-.147.25-.116.183-.235.488.177 2.3 1.724 7.02 2.06 7.445m-.153.742c.098.195.192.394.293.592.009-.223.015-.357.009-.571a.934.934 0 0 1-.302-.021ZM50.47 53.539c-.027-.51-.024-1.038.37-1.355-.647.048-.626.161-.98.427.436.647.278.39.607.928m1.535 2.501c-.012-.305 0-.708.05-.995-.028-.064-.099-.461-.102-.819-.216-.25-.436-.503-.65-.757.05.745.208 1.496.702 2.571Zm2.484 2.596c.037-.052.061-.132.083-.193-.565-.128-1.029-.534-1.386-1.01.064.25.153.589.23.842.39.422.924.48 1.073.36Zm-.467 1.285c.019-.098.037-.195.061-.293a1.542 1.542 0 0 1-.198-.043l.137.336Zm3.3 7.96c.161-.381.161-.546.225-.94-.223.293-.342.376-.555.504-.01.116-.03.354-.034.461a.393.393 0 0 1 .363-.021m-.195-2.788c-.235.214-.482.26-.781.14.012.205.03.41.052.614.189-.348.372-.55.714-.647.003-.034.009-.067.012-.104m-.415-1.96c-.174.244-.25.54-.3.845.044.05.09.098.135.15.128-.302.162-.66.168-.992m-1.251-3.912c-.708.082-.525 2.024-.41 2.779.205.363.428.72.62 1.004.238-.601.65-.956.928-1.05-.119-.819-.467-2.272-1.138-2.733Zm.455-.892c-.025-.067-.05-.13-.07-.198-.068.073-.172.092-.288-.006 0 .027 0 .055-.006.085.12.016.248.05.364.12Zm-.345-.879c0 .052 0 .107-.01.162l.077.064c.006-.01.006-.021.012-.028-.049-.113-.024-.06-.08-.195m-2.612-2.076a4.235 4.235 0 0 0-.021.28c.296.694.977 1.866 1.678 2.013a4.783 4.783 0 0 0-.097-.547c-.794-.852-.995-1.093-1.56-1.743m.16-.364c.915 1.05.802.92 1.055 1.191-.19-.397-.644-1.117-1.056-1.19Zm-.434-1.346c-.08.125-.101.29-.11.44.159-.083.326-.09.503-.083a14.31 14.31 0 0 0-.39-.357m-.07-.061h-.006.006Zm-1.12-.822c-.168.025-.18.135-.199.303.162-.058.244.116.702.647.04-.174.104-.32.202-.467-.089-.067-.602-.44-.705-.483Zm-32.547 81.999c-3.406-8.33-3.626-19.439.537-27.454-2.753-5.42-4.764-9.97-1.877-13.463a22.82 22.82 0 0 1-4.25-2.373c-.55.477-1.1 1.14-2.925.846-2.386-.375-4.074-2.009-5.752-4.04C2.156 85.265-.368 82.245.044 77.848c.058-.641.202-2.094 2.723-2.888-2.015-10.675 1.7-21.134 10.736-27.82-2.158-2.502.378-3.686 1.342-4.227-.03-.11-1.461-5.084-1.486-5.197-3.363.021-2.67-5.5.693-4.803 1.492.308 2.283 2.11 1.565 3.53.55.446 3.507 4.217 3.69 4.528.836-.284 1.865-.66 2.759-.385.36.113.653.336.888.642.082.11.61 1.282.543 1.285l5.292-.207c1.318-.052 2.64-.101 3.955.055.589.07 1.175.183 1.76.293 1.206.232 2.482.372 3.644.772 2.088.715 4.032 1.57 5.847 2.904a21.67 21.67 0 0 1 2.695 2.357c.238.245 2.616 2.892 2.515 2.987 1.126-1.045 2.273-.925 3.592-.11 2.081 1.28 2.74 2.235 3.997 4.708.635 1.252 1.325 3.032 1.636 4.593.629 3.117 1.901 5.896.232 8.28-2.06 2.944-3.345.48-2.27-.21-.534-.394-.684-1.298-.84-2.198-.04-.08-.082-.162-.119-.248.657 2.883.959 6.428.467 9.347 2.94.3 4.535 2.253 5.64 5.218 6.31-2.28 11.44-8.452 12.06-19.307-.314-.446-.479-.55-1.117-1.026-7.748-1.725-8.297-6.956-2.19-5.337.774.204 1.39.384 2.102.543-.275-1.19-3.11-7.823-1.19-8.687 1.355-.61 3.375 2.69 4.135 4.027-.028-1.581-.055-4.5 1.303-4.848 1.343-.36 2.005 2.238 2.292 3.627.863-2.434 3.714-3.643 3.49 2.223 1.734-3.014 4.14-2.916 3.553 1.115-.256 1.774-1.703 6.897-2.563 8.595.97 1.112 1.565 6.837 1.678 8.452.217 3.133-.35 6.904-2.048 10.742-2.71 6.138-3.247 6.498-6.36 9.762-1.867 1.955-1.693 1.433-4.568 3.634-.165.122-.326.247-.494.373 3.686 5.001 10.449 18.195 11.3 19.911.18.351.47 1.142.626 1.304.046.135.11.306.116.324.073.198.22.504.345.629 1.285 2.769 2.53 5.566 3.628 8.421 1.038 2.697 2.323 5.139 2.94 8.004 1.339 6.201 1.174 12.305.323 18.501-.278 2.015-.51 4.027-.855 6.03-.308 1.768-.543 2.758-.83 3.829 1.126 3.078 8.975 9.707 5.438 13.634-3.259 3.591-9.863 1.841-13.656-.552-2.158-1.362-4.138-3.158-5.796-5.149-1.446-1.74-3.451-4.503-2.728-6.962.266-.9.79-1.688 1.138-2.558.281-.703.443-1.451.587-2.196a52.7 52.7 0 0 0 .515-3.178c.165-1.268.287-2.556.125-3.833-.32-2.525-1.65-5.514-3.058-7.591-.097-.146-.2-.293-.347-.381-.68-.425-1.984.775-2.564 1.068a33.03 33.03 0 0 1-3.119 1.384c-.54.204-6.479 1.92-6.51 1.67 1.072 8.473-.448 14.513-6.643 20.544 5.445 6.708 2.723 18.791-7.107 13.392-4.807-2.644-8.221-8.668-10.394-12.507-2.78-4.913.335-4.214 2.825-10.772 1.578-4.141 2.048-9.872.233-15.585-1.206-.678-2.018-1.75-2.738-2.914-.983 1.02-2.6.168-4.169-.516.968 2.046 3.443 6.987 1.187 7.356-1.132.181-2.569-2.033-3.31-3.154.683 2.986.31 5.735-1.426 4.651-.69-.434-1.87-2.831-2.228-3.567.061 1.918-.485 3.948-.86 4.391-.61.733-2.008.293-2.982-4.434-.992 4.458-2.496 4.019-3.042 1.945-1.203-4.565.299-9.994.348-11.276m93.347-116.989c.062.04.072.046 0 0Zm2.516 4.835-.002-.002.002.002Zm-6.792 6.59.004-.001.04-.039-.044.04Zm12.687-6.383c.094.072.103.077 0 0Zm-3.124 12.361h.001c-.039-.122-.044-.137-.001 0Zm9.353-8.582c-.098.004-.084.003 0 0ZM111.693 16c1.8.72 5.115 3.172 5.857 3.517 1.105-1.516 2.366-3.162 3.699-4.554.409-.424 1.019-1.147 1.567-.822.14.084.298.237.326.414.238 1.48-1.624 6.243-2.185 7.648.036.006.067.02.093.04 2.345 1.746 2.185 1.176 4.354 2.405 1.603.904 3.823 2.5 1.958 2.68-2.97.284-5.316-.07-7.811-.693-.037.174-.19 1.09-.215 1.573-.153 2.91.229-.269-.688 5.585.002-.001.001-.006.002-.01l-.044.282-.001.001c-.061.402-.271 1.41-.386 1.8-.248.835-.966 1.187-1.532-1.288-.045-.192-1.355-5.899-1.45-6.485-5.999 2.354-3.331.538-8.537 2.669-.162.073-.372.161-.572.11a.508.508 0 0 1-.357-.363c-.08-.357.252-.617.686-1.012 6.319-5.737 3.069-2.325 7.168-6.579-.085-.126-2.118-3.991-2.753-5.786-.365-1.011.322-1.33.819-1.132m50.84-5.706c.083.088.069.076.001-.001l-.001.001Zm1.844 7.467.002-.001-.002.001Zm-11.121 6.498h.004l.069-.04c-.025.013-.049.027-.072.038m18.92-4.098c.103.127.112.14 0 0Zm-8.033 15.649.001-.004c-.016-.178-.019-.198-.001.004Zm15.16-8.28-.003-.002c-.112-.024-.133-.03.003.002ZM162.31 7.62c2.177 1.626 5.831 6.145 6.714 6.877 1.947-1.66 4.146-3.44 6.359-4.847.676-.43 1.716-1.19 2.345-.55.16.163.325.429.307.678-.147 2.091-4.12 7.888-5.305 9.59a.352.352 0 0 1 .114.088c2.58 3.213 2.546 2.382 5.057 4.83 1.853 1.803 4.317 4.766 1.773 4.339-4.05-.684-7.068-2.005-10.203-3.751-.101.223-.592 1.412-.779 2.057-1.112 3.895.389-.283-2.661 7.33l.005-.014-.148.368-.001.001c-.208.522-.802 1.82-1.076 2.304-.591 1.046-1.659 1.262-1.643-2.298.002-.277.036-8.49.094-9.321-8.74 1.035-4.614-.47-12.223.55-.237.04-.548.085-.796-.058a.736.736 0 0 1-.362-.618c.005-.514.528-.748 1.232-1.128 10.224-5.514 4.821-2.05 11.62-6.35-.075-.198-1.579-6.179-1.865-8.84-.171-1.504.845-1.688 1.446-1.24m-24.921 147.51c-.016.069-.014.058.001 0h-.001Zm-3.049 3.283h.001-.001Zm-6.717-3.345.001.002.041.021-.041-.023m8.038 7.911c-.03.091-.033.1 0 0Zm-10.191 1.082.002-.001c.082-.064.091-.072-.002.001Zm8.875 4.744v-.002c-.024-.062-.028-.075 0 .002Zm4.277-14.636c-.098 1.58-1.133 4.803-1.208 5.467 1.431.419 3 .922 4.392 1.551.425.192 1.128.456 1.017.968-.028.129-.105.294-.233.365-1.065.596-5.159.511-6.367.477a.197.197 0 0 1-.006.084c-.742 2.282-.348 2-.739 4.006-.287 1.478-.944 3.625-1.548 2.249-.96-2.192-1.28-4.084-1.43-6.169a13.26 13.26 0 0 0-1.251.277c-2.253.701.262.099-4.422 1.043l.009-.002-.227.045h-.001c-.32.066-1.142.191-1.466.212-.698.045-1.145-.406.595-1.535.136-.087 4.149-2.692 4.573-2.93-3.295-3.928-1.244-2.398-4.171-5.78-.095-.103-.216-.24-.226-.407a.43.43 0 0 1 .186-.374c.252-.161.533.019.943.241 5.951 3.221 2.538 1.694 6.804 3.635.073-.1 2.507-2.742 3.713-3.732.678-.563 1.092-.126 1.066.309M100.826 55.19c.294-.402.589-.8.886-1.2a153.896 153.896 0 0 0-2.032-1.633c.431.943.806 1.853 1.146 2.833Zm-.161 4.12c-.094-.256-.14-.373-.22-.589-.116.158-.466.636-.632.86.238-.075.472-.148.852-.27Zm1.38-.454a43.573 43.573 0 0 1 1.487-.485c.105-.88.214-1.761.333-2.64a28.534 28.534 0 0 1-.78-.61c-.432.578-1.201 1.6-1.617 2.176.021.07.547 1.477.578 1.56m1.047 3.294s.113-.996.244-2.128c-.156.057-.629.232-.782.29.203.609.323 1.002.537 1.84m1.775-4.13c.469-.109.807-.176 1.871-.25a106.86 106.86 0 0 1-1.639-1.14c-.082.463-.16.926-.231 1.39m-.707-4.356-.284.386c.065.056.134.11.199.165l.085-.55Zm-6.137-3.222c.668-.815 1.335-.212 4.494 2.454 2.481-3.385 2.323-3.311 3.089-3.379.218-.02.466.132.604.298.485.586.051.687-.851 5.408 2.591 1.942 3.619 2.386 3.042 3.327-.307.505-1.537.362-3.766 1.044-.687 4.717-.827 4.736-1.028 5.059-.16.487-.839.717-1.195.11-.269-.461-.656-2.264-1.223-3.958-.215.075-3.165 1.08-3.386 1.129-.582.127-1.027-.379-.985-.925.03-.424-.031-.12 2.963-4.374-1.03-3.625-2.518-5.264-1.755-6.193m85.38 124.852c1.301.155 2.596.317 3.895.48a397.09 397.09 0 0 0 1.116-6.766c-1.602 2.207-3.204 4.242-5.011 6.286Zm-9.65 4.957c.467-.546.676-.801 1.066-1.266-.512-.061-2.058-.246-2.787-.336.481.449.949.891 1.721 1.602Zm2.825 2.575c.461.408 2.4 2.147 3.034 2.78a453.146 453.146 0 0 1 6.481-2.647c.12-.895.226-1.611.387-2.576-1.882-.243-5.218-.685-7.074-.895-.135.14-2.677 3.164-2.829 3.343m-6.195 6.656s2.43-1.029 5.192-2.191a252.88 252.88 0 0 0-1.674-1.417c-1.133 1.252-1.879 2.035-3.522 3.607m11.755-1.269c.857.933 1.448 1.622 2.992 3.964.127-1.561.375-4.067.497-5.23-1.168.41-2.33.831-3.485 1.267m9.066-7.249-1.25-.153c-.045.223-.081.452-.121.671.457-.172.915-.35 1.371-.518Zm-.547-18.228c2.73.479 2.211 2.787.184 13.47 10.964 1.31 10.59 1.045 11.736 2.712.327.474.299 1.239.096 1.768-.714 1.87-1.506 1.006-13.491 5.04-1.101 8.448-.789 11.377-3.692 11.273-1.553-.052-2.816-3.056-7.259-7.283-11.698 4.523-11.922 4.227-12.921 4.184-1.324.264-2.728-.997-1.799-2.596.712-1.212 4.342-4.431 7.492-7.918-.45-.396-6.566-5.858-6.965-6.3-1.041-1.169-.46-2.843.846-3.453 1.011-.479.236-.226 13.853 1.138 6.974-7.048 8.807-12.576 11.923-12.029" fill="#4E7DBF"/>
</svg>
