<svg width="97" height="39" fill="none" xmlns="http://www.w3.org/2000/svg">
  <path d="M83.361 9.774c.053-.008.062-.01 0 0Zm3.676 1.465h-.002.002Zm-.61 6.844.001-.002.004-.04-.005.042Zm3.95-9.525c.085-.005.093-.006 0 0Zm4.143 8.278v-.001c-.08-.048-.09-.054 0 .001Zm1.073-9.153c-.052.049-.044.041 0 0ZM82.176 9.054c1.332-.457 4.317-.68 4.889-.842-.112-1.358-.198-2.861-.126-4.259.024-.427.017-1.114.472-1.194.117-.02.276-.011.376.073.832.7 2.066 4.203 2.424 5.241a.15.15 0 0 1 .07-.022c2.118-.152 1.759-.39 3.535-.742 1.31-.263 3.287-.439 2.347.545-1.499 1.564-2.956 2.482-4.624 3.322.063.113.413.69.628.967 1.296 1.673-.002-.256 2.27 3.397l-.004-.006c.033.051.09.146.11.176v.001c.156.25.519.904.64 1.173.26.576.032 1.11-1.453.017-.115-.084-3.541-2.6-3.871-2.878-2.183 4.14-1.577 1.875-3.43 5.515-.053.117-.127.265-.261.332a.368.368 0 0 1-.368-.03c-.214-.158-.155-.459-.103-.882.754-6.15.585-2.733.822-7.016-.107-.028-3.057-1.19-4.257-1.876-.68-.383-.453-.884-.087-1.01m-61.113.519c.024.107.028.125 0 0Zm-2.393 7.81v-.005.005Zm-14.156-.109.006.002.083.001c-.029 0-.057-.003-.089-.003Zm20.222 6.532c.025.175.029.19 0 0ZM8.432 33.72h.003c.084-.171.095-.193-.003 0Zm18.976.675c-.11-.098-.093-.084 0 0ZM22.34 7.017c1.162 2.663 2.122 8.767 2.55 9.918 2.77-.457 5.842-.887 8.724-.971.88-.023 2.29-.153 2.532.77.06.237.069.567-.087.785-1.3 1.83-8.284 4.957-10.356 5.867a.308.308 0 0 1 .058.141c.667 4.331 1.094 3.553 2.117 7.148.759 2.653 1.451 6.69-.725 4.921-3.465-2.821-5.594-5.666-7.6-8.958-.22.148-1.346.965-1.88 1.453-3.217 2.948.526-.045-6.594 5.241.003 0 .008-.006.012-.009-.1.076-.284.21-.342.255h-.003c-.487.364-1.77 1.22-2.3 1.516-1.14.631-2.275.25-.28-2.988.153-.252 4.745-7.723 5.26-8.45-8.866-3.797-4.115-2.929-11.9-6.131-.25-.092-.566-.22-.726-.484a.76.76 0 0 1 0-.762c.29-.466.916-.395 1.794-.36 12.756.523 5.711.746 14.544.517.042-.224 1.932-6.49 3.138-9.074.673-1.464 1.74-1.08 2.062-.348m23.343-1.499c-.029-.36-.055-.72-.081-1.08-.599.015-1.498.046-1.892.065.684.314 1.322.637 1.973 1.015Zm1.865 2.342c-.173-.097-.253-.14-.4-.22l.06.773c.095-.155.19-.306.34-.553Zm.544-.904c.085-.147.45-.766.587-.972a127.98 127.98 0 0 1-1.068-1.61c-.248.016-.448.026-.718.035.037.523.098 1.45.142 1.963.045.029 1.002.552 1.058.584m2.137 1.315-.875-1.286c-.059.105-.235.425-.292.53.4.238.653.398 1.167.757m-.981-3.112c.206-.282.36-.48.91-1.025-.43.05-1.121.12-1.442.15.174.294.351.585.532.874m-2.454-2.06.027.347c.062 0 .126-.003.188-.004-.072-.114-.145-.228-.215-.343Zm-4.902 1.138c-.019-.765.634-.75 3.635-.781-.241-3.038-.293-2.922.096-3.323.11-.114.319-.148.473-.122.545.092.354.353 2.096 3.377 2.346-.16 3.122-.404 3.25.387.071.423-.673.928-1.575 2.36 1.858 2.92 1.79 2.996 1.833 3.268.143.344-.121.793-.605.628-.366-.127-1.434-.934-2.549-1.597-.083.143-1.228 2.095-1.326 2.226-.26.346-.745.28-.98-.041-.185-.247-.075-.051-.445-3.81-2.285-1.504-3.88-1.7-3.902-2.573" fill="#4E7DBF"/>
</svg>
