<svg width="151" height="295" fill="none" xmlns="http://www.w3.org/2000/svg">
  <g clip-path="url(#a)" fill-rule="evenodd" clip-rule="evenodd">
    <path d="M94.996 23.873c-7.668 1.617-15.276 1.232-21.931-.782-1.129-1.563-.326-4.232.784-5.266 6.335.186 13.521.102 19.778.782 1.412.811 1.792 3.222 1.37 5.266Zm-20.363-3.319v.584c3.258 1.274 8.99 1.563 13.901 1.364 1.81-.072 3.934-.084 5.093-1.172-5.895-1.305-12.278-.83-18.994-.782v.006ZM61.71 23.482c-4.278-5.855 4.996-8.02 4.9-2.338-.037 1.941-2.215 3.096-4.9 2.338Zm.585-2.146c1.074.343 2.365.114 2.546-.974-.742-.56-1.924.192-2.546-.198v1.172Z" fill="#3669E4"/>
    <path d="M62.297 20.164c.621.39 1.804-.367 2.546.198-.181 1.088-1.472 1.323-2.546.974v-1.172Zm31.329 1.172c-1.158 1.088-3.276 1.094-5.092 1.172-4.911.199-10.643-.09-13.901-1.364v-.583c6.715-.049 13.105-.524 18.993.781v-.006ZM17.653 39.089c-.621 2.02.537 4.665-.392 6.439 3.174.354 7.313.005 9.593-1.173.525.193.115 1.317 1.177.974.766-1.785-.26-6.084-.193-7.803 6.806-.127 14.703-.289 22.124.781 11.651-.192 32.364-.397 46.21-.192.435 2.886-.06 6.697.978 8.976-28.532-.47-57.541.336-82.634.583.79 1.791 3.53 1.443 5.285 1.563 12.966.89 27.7-.77 42.102-.583 20.622.264 39.453.42 59.333 1.364 4.67.223 9.099.283 14.1.782.573.054 3.482 1.088 3.723-.583.29-2.02-7.482-1.81-9.593-1.948-8.731-.577-19.826-.89-30.74-.974-.67-2.687-.99-6.192-.785-9.168 13.629.781 28.273.373 39.947.781 1.117.427.393 1.912.785 2.73.645.836 1.019-.782 1.369-.192-.374 12.678-.82 23.2-.977 35.12-22.143-1.364-46.12-1.196-70.296-.781-8.369.144-16.894-.096-25.262.39-8.339.488-16.828 1.486-24.671.975-1.472-.097-3.276-.902-4.7 0 .869 1.833 4.06 1.911 6.262 1.953 9.443.169 19.452-.883 29.57-1.172 30.198-.853 61.614-.727 88.898.974.121 6.39-.26 12.685-.392 18.342-28.4.018-48.92-2.76-76.366-1.365-.26-1.238-.495-2.5-1.177-3.318-15.005-.445-30.39 3.721-47.58 2.928.55-19.076.423-37.592 1.177-57.75 4.193-.006 8.133-.288 12.725-.39-2.685 1.094-6.975.595-9.594 1.755l-.006-.018Zm60.31 5.465c-.65.414-1.091.853-.783 1.755 1.472.427.995-1.088 1.761-1.365.935.584 1.937-.216 2.74-.39.313.595.603 1.22 1.37 1.364.289-.228.874-.168.784-.781.018-.866-1.02-.68-1.177-1.365.603-.631.621-1.852 1.177-2.537.156.433.392.782.977.782a.968.968 0 0 1 .585-.584c-.084-5.891-10.577-1.857-7.44 3.12h.007Zm15.863-6.247c-.048.277-.428.223-.585.391.603 2.58-.833 7.202 1.568 8.002.622-1.714.362-7.864-.977-8.393h-.006Zm-18.408 3.71c1.538-.355 2.317-1.461 2.546-3.12-1.557-1.203-3.662 1.635-2.546 3.12Zm42.88 2.338c-.489.355-1.539.157-1.37 1.173 1.478.162 2.824.282 4.115.192.193-2.146-1.931-1.984-2.154-3.71 1.062-.829 2.914-.871 3.33-2.338-.362-.03-.12-.661-.392-.781-2.835.492-5.912 2.524-3.523 5.464h-.006Zm11.162-.39c1.152-.902 2.208-3.09.977-4.684-4.139-1.485-3.62 6.697-1.569 7.22.905-.276.169-1.508.586-2.537h.006Zm-21.148-1.756c.109.607.923.511.978 1.172-2.1 4.978 4.881 3.036 2.154-.583.211-.896.959-1.256.977-2.345-1.098-1.683-4.066-.036-4.109 1.756Zm5.678-1.948c-.085.734.416.89.784 1.172.845-.468.048-1.875-.784-1.172Zm22.131-.198c-1.533-.096-1.225 1.641-1.955 2.338-.797-.445-.682-1.791-1.762-1.954-1.641.199-1.653 5.622.199 5.856.525-.517-.151-2.23.392-2.73 0 .716.682.746.978 1.173.772.054.597-.836 1.369-.782-.042 1.54.441 2.556 1.569 2.928.615-1.695-.042-5.218-.784-6.83h-.006Zm-45.233 4.1c.162-1.233-.531-2.104-1.37-1.756-.356.878-.266 2.814 0 3.71.459 0 .58.336 1.177.192.223-.427.042-1.262.585-1.365.175.608.199 1.359.977 1.365.839-.932.012-4.196.193-5.855-2.19.294-.603 2.723-1.562 3.709Zm32.502 3.318c1.219-.938.983-5.482-.193-6.438h-.392c-.055 2.098-1.05 5.464.585 6.438Zm-8.616-2.537c.453.06.754-.03.978-.192v-.583c-.193-.265-.525-.39-.785-.583-.555.222-.38.86-.193 1.364v-.006Zm13.901 8.976c-14.19.325-28.423 0-39.555.192-4.483.078-8.912-.589-13.51-.583-4.416 0-9.635.169-14.292.391-12.188.577-22.68 1.383-34.072.583-2.147-.15-5.188-.787-6.461.583.887.842 1.894 1.179 2.938 1.365 4.374.782 10.118.337 15.47 0 5.183-.33 10.679.192 15.862.192 10.896 0 22.155-1.154 32.701-.781 8.013.282 18.994.288 27.609.583 5.793.198 9.171-.415 13.117-.192-.187 4.16.604 8.362 0 12.294-9.002-.74-17.865-.307-26.632-.583-8.839-.283-17.503.6-26.046.781-17.002.355-34.578-.012-52.087 1.365-1.28.102-3.083.83-3.916.39-.633-.925 1.442-.576 1.177-1.755-.513-1.16-.803-3.45-.785-5.074.018-1.425 1.744-8.801-.784-8.585-1.599.139-.664 4.335-.784 5.856-.26 3.216-1.786 7.34-.393 10.923 1.943.487 4.912.253 7.44-.192 1.17 1.641 4.651.878 7.439.583 2.118-.222 4.35-.493 6.263-.583 29.051-1.443 60.232-1.305 89.488-.39.242-1.347 1.762-.41 2.154-1.365.23-.95-.482-1.22-.392-2.345.06-.74.7-1.317.784-2.146.121-1.233-.392-2.658-.392-4.094 0-2.026.519-4.052.193-5.856-1.098-.27-1.574-1.16-2.546-1.563l.012.006ZM27.246 63.671c-.024-.409 1.105-1.31 1.177-1.954.296-2.663-2.31-4.719-5.092-2.729-.296 2.64-.133 5.459 2.938 5.266.664 1.81 1.949 3 3.33 4.1.338-.252.773-.402.785-.974-.012-1.244-3.071-2.71-3.131-3.703l-.007-.006Zm63.835-4.683c.38 2.988-1.322 8.008 1.96 7.61-.355-2.314 1.213-8.933-1.96-7.61Zm19.971-.192c-.254 2.59.12 6.168.392 8.392.838.228.796-.012 1.568-.192.387-2.61.362-6.463-.784-8.194h-1.176v-.006Zm-6.848.974c-2.691-2.568-2.094 4.178-1.762 6.047.458.06.736.307 1.369.193.658-1.557.302-4.118.393-6.247v.007Zm1.369-.782c-.199 2.128-.452 5.886 1.37 6.631 1.918-.902.259-5.026-.193-6.631h-1.177Zm-17.624.198c-.742 2.417-.362 5.82.193 8.002h1.37c.272-2.988.308-5.447-.392-7.803-.459 0-.58-.337-1.177-.193l.006-.006Zm7.832.584c-.561 2.218-.99 5.29.392 7.021.995.277.839-.595 1.37-.781.392.457.585 1.106 1.568.974.718-2.038.326-6.114-.585-7.804-1.31-.198-1.267.95-2.74.584l-.005.005Zm-48.757 6.047c.603-.048.597-.703.978-.973.09.763.868.955 1.568.583-.138-1.81.073-3.974-.784-5.074-.815-.223-.766.408-1.37.39-1.804-3.86-2.31 4.768-.392 5.074Zm29.57 0c.495-1.286.109-4.508-.392-6.047-2.709-.277-2.063 6.606.392 6.047Zm3.325-4.875c-.453-.367-.833-.806-1.569-.39-.537 1.616-1.038 6.293.784 6.828 1.575-.703.26-4.292.978-5.855.784 1.557-.024 4.707 2.546 4.485.308-2.086-.344-4.846-1.37-6.247-.965-.114-1.508.187-1.37 1.173v.006Zm5.683-1.172c-.754 1.46-2.166 6.859.392 7.412.936-.385.49-1.78.586-2.928.145-1.677 1.044-4.16-.585-4.485h-.393Zm-32.508.589c-.284 1.93-.58 5.506.977 6.24 1.822-.782.628-4.725.2-6.24h-1.177Zm18.408.583c.603 1.978-.808 6.643 1.96 5.855.35-1.93.435-5.23-.584-6.438-.646.006-1.388-.078-1.37.583h-.006Zm-1.569 5.465c1.098-1.173.797-5.453-.784-5.856-1.327.733-1.17 5.88.784 5.856Zm-19.578-5.465c-.236 1.55-.718 4.821.977 5.074.03-.229.308-.21.585-.193.266-1.647.58-5.615-1.568-4.875l.006-.006Zm6.854 5.266c.03-.228.307-.21.585-.192.157-1.419.833-4.972-.784-5.267-1.738.403-1.189 5.128.193 5.465l.006-.006Zm1.176-4.683c.097 2.176-.47 5.02 1.177 5.657 1.4-1.058 1.219-7.623-1.177-5.657Zm8.224-.39c-2.25.3-1.315 6.786.977 5.656-.132-2.08.14-4.557-.977-5.657Zm-4.115 5.662c1.002-1.1.241-3.853-.2-5.266-2.34-1.112-1.863 5.477.2 5.266ZM45.262 80.065c-6.805.968-16.863 2.417-24.085 2.928-1.17.084-2.215-.619-2.939.583-.325.638.417.92.586 1.954.265 1.581-.592 3.8.784 4.293 1.828-.487.748-2.994 1.37-4.876 8.326-1.004 17.243-1.419 25.063-2.928.808 1.467-.314 4.864 1.568 5.267 2.01-.896.266-4.581.194-6.44-.676-.306-2.209-.829-2.547-.78h.006Zm55.026 7.215c-.47-2.736-.151-5.802-1.961-6.631-9.056.553-22.185 1.587-30.94 1.172.157 1.87.079 7.479 1.762 7.412 2.263-.09.018-4.034.585-5.266 9.877-.228 18.638-.523 28.002-1.172.06 2.212.26 4.292.784 6.048-7.21.438-16.363.156-23.301.583-2.577.156-5.28-.535-7.246.781.458 1.467 2.883 1.51 4.108 1.563 2.148.09 4.924-.15 7.639-.192 7.324-.12 14.36-.505 20.755-.782.519-.817.036-2.164-.193-3.51l.006-.006Zm9.786 2.927c.754-2.098 1.255-7.322-.392-8.975-1.623 1.046-1.689 8.025.392 8.975Zm-50.91-8.386c-1.551 2.026-.76 7.394.784 8.975 1.273-.204.615-1.539.585-2.537-.054-2.08-.042-5.061-.784-6.438h-.585Zm66.772.775c-2.962-.036-5.798-.396-9.008 0-.157 1.521-.706 4.491-.193 6.631-.784.067-1.949-.252-1.961.59.555 1.46 2.745 1.052 4.109.974 4.477-.253 9.448-1.089 14.1-.391 1.913-1.13.724-3.974.785-6.439-1.816-2.104-4.918-1.329-7.832-1.365ZM45.262 87.67c-4.573.217-11.536.716-17.424 1.173-2.54.192-5.986.457-7.247 1.953 2.1 1.636 5.328.229 8.031 0 4.368-.366 8.966-.39 12.924-.781 2.154-.21 4.778.102 6.07-1.365-.356-1.394-1.533-1.016-2.354-.974v-.006Z" fill="#fff"/>
    <path d="M85.402 41.434a.983.983 0 0 0-.585.583c-.585 0-.82-.35-.977-.782-.55.685-.574 1.906-1.177 2.537.157.691 1.195.499 1.177 1.365.09.613-.495.547-.785.781-.766-.144-1.056-.77-1.37-1.364-.808.174-1.803.974-2.739.39-.766.277-.295 1.792-1.761 1.365-.314-.902.132-1.34.784-1.755-3.137-4.984 7.355-9.018 7.44-3.12h-.007Zm-6.655-.391c-.138.715-.338 1.485 0 2.146 1.84.715 3.856-.523 2.939-2.537-1.322-.21-1.835.385-2.939.39ZM94.803 46.7c-2.401-.794-.96-5.417-1.569-8.002.157-.168.537-.114.586-.39 1.345.522 1.599 6.678.977 8.392h.006Z" fill="#3669E4"/>
    <path d="M77.965 38.896c-.223 1.66-1.007 2.766-2.546 3.12-1.116-1.484.99-4.322 2.546-3.12Z" fill="#3669E4"/>
    <path d="M26.076 38.897h.585v1.556c-.688-.018-1.05-.997-.585-1.556Z" fill="#fff"/>
    <path d="M121.828 38.897c.271.12.03.751.392.781-.417 1.467-2.269 1.509-3.331 2.339.223 1.725 2.353 1.563 2.154 3.709-1.291.084-2.636-.036-4.115-.193-.169-1.016.881-.811 1.37-1.172-2.389-2.933.688-4.971 3.524-5.464h.006Z" fill="#3669E4"/>
    <path d="M24.307 39.089c-.036 1.202-1.665 2.5-3.131 2.928.657-1.359 1.538-2.495 3.131-2.928Z" fill="#fff"/>
    <path d="M112.429 40.453c-.024 1.083-.766 1.45-.977 2.345 2.727 3.62-4.254 5.561-2.154.583-.061-.655-.869-.565-.978-1.172.049-1.792 3.017-3.439 4.109-1.756Zm-2.154 5.075c.718-.067.893-.668 1.177-1.173-.218-.042-.302-.216-.392-.39-.749.005-1.008 1.196-.785 1.563Zm4.499-4.095c-.368-.282-.869-.432-.784-1.172.833-.71 1.629.697.784 1.172Zm22.134 5.459c-1.129-.373-1.611-1.389-1.569-2.928-.772-.054-.598.836-1.37.782-.295-.42-.977-.457-.977-1.172-.543.499.139 2.218-.392 2.73-1.853-.23-1.835-5.652-.2-5.856 1.08.156.966 1.508 1.762 1.953.73-.703.423-2.434 1.955-2.338.742 1.611 1.4 5.134.784 6.83h.007Zm-44.456-6.438c-.187 1.659.64 4.923-.193 5.855-.779 0-.803-.757-.978-1.365-.549.103-.362.938-.585 1.365-.597.138-.712-.198-1.177-.192-.265-.89-.356-2.832 0-3.71.84-.348 1.533.524 1.37 1.756.965-.986-.627-3.415 1.563-3.71Z" fill="#3669E4"/>
    <path d="M81.687 40.652c.917 2.014-1.098 3.252-2.938 2.537-.338-.661-.14-1.431 0-2.146 1.104 0 1.616-.596 2.938-.391Z" fill="#fff"/>
    <path d="M122.805 41.043h.392c1.182.956 1.412 5.5.193 6.438-1.635-.974-.646-4.34-.585-6.438Z" fill="#3669E4"/>
    <path d="M24.31 43.381v.583h-.978c.181-.342.362-.679.977-.583Zm-1.762.782c-.598-.144-.573.336-1.177.192.024-.583 1.213-1.22 1.177-.192Z" fill="#fff"/>
    <path d="M114.974 43.58c.26.192.591.324.785.583v.583c-.23.162-.525.258-.978.192-.187-.505-.356-1.148.193-1.364v.006Z" fill="#3669E4"/>
    <path d="M111.053 43.965c.091.174.175.348.392.39-.277.505-.458 1.106-1.176 1.173-.223-.367.036-1.551.784-1.563Z" fill="#fff"/>
    <path d="M131.224 55.477c.326 1.798-.193 3.824-.193 5.856 0 1.437.513 2.867.392 4.094-.078.83-.724 1.406-.784 2.146-.091 1.118.621 1.395.392 2.345-.392.955-1.913.018-2.154 1.364-29.25-.914-60.437-1.052-89.489.391-1.912.096-4.15.36-6.262.583-2.788.295-6.27 1.058-7.44-.583-2.534.445-5.496.685-7.439.192-1.394-3.589.133-7.707.392-10.923.12-1.515-.82-5.717.785-5.856 2.522-.216.802 7.16.784 8.585-.024 1.623.272 3.914.784 5.074.266 1.184-1.81.83-1.176 1.756.832.438 2.636-.289 3.916-.391 17.509-1.377 35.084-1.01 52.087-1.365 8.537-.18 17.201-1.064 26.046-.781 8.767.282 17.63-.157 26.632.583.603-3.926-.187-8.128 0-12.294-3.946-.223-7.325.396-13.117.192-8.616-.295-19.597-.307-27.61-.583-10.546-.373-21.798.781-32.7.781-5.183 0-10.68-.523-15.863-.192-5.351.337-11.095.782-15.47 0-1.037-.186-2.05-.523-2.938-1.365 1.267-1.376 4.314-.733 6.462-.583 11.391.794 21.884-.006 34.071-.583 4.664-.222 9.877-.385 14.294-.39 4.597 0 9.026.667 13.508.582 11.132-.198 25.365.127 39.556-.192.971.397 1.448 1.293 2.546 1.563l-.012-.006Z" fill="#3669E4"/>
    <path d="M30.38 67.38c-.012.572-.446.728-.784.974-1.382-1.094-2.667-2.284-3.33-4.1-3.072.187-3.228-2.633-2.939-5.266 2.782-1.984 5.382.066 5.092 2.73-.072.637-1.2 1.544-1.176 1.953.066.998 3.12 2.465 3.131 3.703l.006.007Zm-4.302-4.875c.537-.349.459-1.54.194-2.146-.471.078-.429-.355-.978-.193-.416.764-.169 2.315.784 2.339Zm66.966 4.094c-3.283.397-1.581-4.623-1.961-7.611 3.167-1.329 1.605 5.296 1.96 7.611Zm19.186-7.803c1.14 1.731 1.17 5.584.784 8.194-.766.18-.73.427-1.569.192-.271-2.218-.645-5.795-.392-8.392h1.177v.006Zm-8.417 7.22c-.634.114-.911-.132-1.37-.193-.332-1.87-.929-8.614 1.762-6.047-.091 2.122.265 4.689-.392 6.246v-.006Zm2.937-7.028c.452 1.611 2.112 5.73.193 6.631-1.828-.751-1.569-4.503-1.37-6.631h1.177Zm-17.624.391c.7 2.356.664 4.815.393 7.803h-1.37c-.561-2.176-.941-5.579-.193-8.002.597-.138.712.199 1.176.193l-.006.006Zm9.402-.193c.91 1.69 1.303 5.766.585 7.804-.977.132-1.177-.523-1.569-.974-.53.186-.374 1.058-1.37.781-1.381-1.731-.953-4.803-.392-7.021 1.479.366 1.43-.788 2.74-.584l.006-.006ZM47.416 60.75c.609.017.56-.614 1.37-.391.85 1.1.645 3.258.783 5.074-.7.366-1.478.18-1.568-.584-.38.271-.374.926-.978.974-1.924-.3-1.412-8.933.392-5.074Zm28.785-.98c.501 1.539.887 4.761.393 6.047-2.456.56-3.102-6.324-.393-6.047Zm5.089 0c1.031 1.394 1.683 4.16 1.37 6.246-2.571.216-1.763-2.934-2.547-4.485-.718 1.563.597 5.146-.977 5.855-1.822-.534-1.322-5.212-.785-6.829.73-.415 1.116.024 1.569.39-.139-.979.404-1.286 1.37-1.171v-.006Zm4.7 0c1.635.324.736 2.813.585 4.484-.103 1.149.35 2.543-.585 2.928-2.559-.559-1.147-5.952-.393-7.413h.393Z" fill="#3669E4"/>
    <path d="M25.292 60.16c.555-.162.507.277.978.193.265.607.344 1.797-.193 2.146-.954-.03-1.201-1.575-.785-2.339Z" fill="#fff"/>
    <path d="M54.27 60.359c.429 1.52 1.63 5.458-.199 6.24-1.556-.74-1.26-4.317-.977-6.24h1.176Zm18.602 0c1.02 1.208.935 4.509.585 6.438-2.763.788-1.357-3.877-1.96-5.855-.013-.667.723-.577 1.369-.583h.006Zm-3.722.192c1.58.397 1.882 4.677.783 5.855-1.954.025-2.111-5.122-.784-5.855Zm-17.23 5.266c-.278-.018-.555-.03-.585.193-1.696-.253-1.213-3.523-.978-5.074 2.142-.74 1.834 3.234 1.569 4.875l-.006.006Zm5.092-5.067c1.617.294.94 3.847.784 5.266-.277-.018-.555-.03-.585.192-1.382-.337-1.937-5.062-.193-5.465l-.006.006Zm2.545 6.432c-1.647-.637-1.074-3.48-1.177-5.657 2.396-1.966 2.577 4.599 1.177 5.657Zm8.029-.385c-2.293 1.13-3.228-5.356-.977-5.657 1.116 1.1.845 3.577.977 5.657Z" fill="#3669E4"/>
    <path d="M62.296 61.525c.44 1.413 1.2 4.166.2 5.266-2.064.21-2.54-6.378-.2-5.266ZM47.81 80.84c.072 1.865 1.816 5.544-.193 6.44-1.877-.403-.754-3.8-1.569-5.267-7.82 1.51-16.737 1.924-25.063 2.928-.627 1.888.459 4.395-1.37 4.876-1.375-.493-.518-2.712-.784-4.293-.169-1.028-.911-1.31-.585-1.954.718-1.208 1.762-.505 2.938-.583 7.216-.505 17.28-1.96 24.086-2.928.338-.048 1.87.47 2.546.782h-.006Zm52.672 9.956c-6.395.271-13.43.662-20.755.782-2.715.048-5.49.283-7.638.192-1.225-.048-3.65-.096-4.11-1.563 1.968-1.31 4.67-.619 7.247-.781 6.939-.427 16.091-.145 23.301-.583-.519-1.756-.718-3.836-.784-6.048-9.364.65-18.125.938-28.001 1.172-.574 1.233 1.677 5.176-.586 5.266-1.683.067-1.605-5.549-1.762-7.412 8.755.42 21.884-.62 30.94-1.172 1.804.83 1.484 3.895 1.961 6.63.229 1.347.712 2.694.193 3.511l-.006.006Zm9.202-9.564c1.647 1.653 1.146 6.877.392 8.975-2.081-.944-2.015-7.923-.392-8.975Zm-49.929.588c.742 1.378.73 4.36.785 6.44.024.991.688 2.326-.586 2.536-1.544-1.58-2.328-6.95-.784-8.975h.585Zm74.012 2.147c-.054 2.459 1.134 5.308-.785 6.439-4.651-.698-9.623.138-14.1.39-1.369.079-3.553.487-4.109-.973.006-.836 1.177-.523 1.961-.59-.513-2.146.043-5.11.193-6.63 3.21-.397 6.046-.037 9.008 0 2.915.035 6.016-.74 7.832 1.364Zm-15.078.39c-.338 1.137.024 3.337-.392 4.876 4.085-.222 9.292-.312 13.901-.583-.35-1.34-.223-3.162-.585-4.49-3.56.817-8.272.252-12.924.198Z" fill="#3669E4"/>
    <path d="M131.613 84.16c.368 1.328.235 3.15.585 4.49-4.616.27-9.816.361-13.901.583.416-1.539.054-3.739.392-4.875 4.652.054 9.364.619 12.924-.199Z" fill="#fff"/>
    <path d="M47.61 88.65c-1.291 1.473-3.916 1.155-6.07 1.365-3.958.39-8.555.415-12.924.781-2.703.229-5.93 1.636-8.03 0 1.26-1.496 4.706-1.755 7.246-1.953 5.889-.451 12.851-.956 17.425-1.173.82-.042 1.997-.42 2.353.974v.006Zm21.349 23.218c1.87-1.587 2.504-5.429 5.285-5.465.422 2.633-2.848 5.236-3.916 7.804 3.862.06 7.838-1.071 12.339-1.365 3.97 3.457-7.572 2.669-10.185 3.709.827 1.245 2.528 1.413 3.916 2.345 1.008.673 1.63 1.797 2.546 2.338 1.002.596 3.524.656 2.546 2.73-5.128-.614-7.167-4.305-11.355-5.856-1.031 3.577 2.293 8.555 0 10.924-.76.048-1.013-.421-1.568-.583-.513-2.808-.664-5.97-1.177-8.778-2.842 1.136-2.655 6.98-6.66 7.611-.2-.258-.327-.589-.586-.781 1.291-3.595 3.861-5.91 5.677-8.976-2.25.048-5.84.337-9.008.583-2.347.187-5.979 1.617-6.461-.974 4.048-1.749 10.015-1.413 15.47-2.146-1.087-1.112-2.643-1.773-3.916-2.729-1.22-.914-2.975-1.611-3.33-3.319 3.366-.896 5.23 2.946 8.03 3.902.651-1.72-2.209-7.184 1.176-6.439.718 1.491 1.28 3.15 1.177 5.465Z" fill="#3669E4"/>
    <path d="M105.769 134.106c-.362 6.595 2.449 11.464 1.761 17.169-10.787.133-23.108.048-36.424.974-3.988.277-7.873-.348-11.554-.198-7.958.337-15.862 1.809-24.085 1.948-1.714-4.732-.652-12.228-1.955-17.362 7.312.871 18.535-.56 27.609-.584 9.907-.03 19.494.409 28.979-.192 1.61-.102 3.258-.283 4.893-.391 1.58-.102 3.445.108 4.507-.192.658-.192.899-.938 1.569-1.172 1.526-.529 3.228.198 4.7 0Zm-61.68 7.611c8.072.168 15.638.126 23.494.192 7.39.066 15.415-.974 23.693-.974 2.565 0 6.933.433 7.246-.391.857-2.248-3.065-1.755-4.5-1.755-5.877 0-10.595.012-16.647.391-3.053.186-6.01.679-9.008.781-10.22.355-20.568-.824-30.547-.192.694 2.386 3.988 1.905 6.262 1.954l.006-.006Zm55.61 2.344c-17.419.547-37.878.415-54.434.589-2.196.024-5.032-.511-6.655 1.173 1.255 1.136 4.435.98 6.269.974 16.272-.055 35.983-.584 51.695-.584 2.395 0 4.935.487 7.047-.589.054-2.248-2.601-1.599-3.916-1.563H99.7Z" fill="#002D9A"/>
    <path d="M37.824 139.769c9.98-.631 20.327.547 30.548.192 2.998-.102 5.955-.589 9.008-.781 6.051-.373 10.77-.391 16.646-.391 1.442 0 5.364-.493 4.501 1.755-.314.824-4.682.391-7.246.391-8.278 0-16.303 1.04-23.694.974-7.861-.072-15.427-.024-23.494-.192-2.28-.048-5.569.439-6.263-1.954l-.006.006Zm65.788 5.849c-2.111 1.07-4.651.589-7.047.589-15.71 0-35.422.529-51.695.584-1.834.006-5.007.162-6.268-.974 1.623-1.684 4.458-1.149 6.655-1.173 16.561-.174 37.015-.042 54.434-.589 1.315-.042 3.976-.691 3.915 1.563h.006Zm-31.914 24.39c-2.257 2.237-7.771 3.265-11.747 5.074-1.708.776-4.694 3.577-6.462 3.319-.85-.127-1.683-1.539-2.347-2.339-.688-.823-1.98-1.725-1.37-2.928 2.558-.637 2.215 2.159 4.308 2.339 1.66.144 4.537-2.188 7.246-3.902 3.047-1.929 5.756-3.21 7.639-3.709 1.707-.451 2.027 1.058 2.739 2.146h-.006Zm14.491 4.293c.555-.421.392-1.557 1.176-1.756 1.943-.18 1.315 2.201 1.961 3.319 1.569-.259 1.14-2.507 1.96-3.511 2.07-.373 1.232 2.158 2.155 2.928.549-.752.392-2.213 1.37-2.537 1.55.078 1.309 1.947 2.153 2.729.682-.427.543-1.671 1.177-2.146h1.176c.682.619.61 1.99.586 3.318-1.617 1.149-4.326 1.708-5.093-.974-.368.481-.301 1.389-.784 1.756-1.75.691-2.365-.884-2.546-2.339-1.219.692-.827 2.742-2.347 2.73-1.026 0-1.358-1.077-1.762-2.345-.58.138-.308 1.124-.977 1.172-1.732.295-1.376-1.491-2.353-1.954-.688.878-.809 2.315-1.57 3.121-.633-.115-.91.132-1.369.192-.494-.421-.615-1.208-1.176-1.563-.368.739-.875 1.334-2.154 1.172-.718-1.365-1.358-2.807-1.569-4.683.41-.114.555-.481 1.177-.391.573.529.953 1.257.977 2.339.93-.181.326-1.882.978-2.339 2.117-.847 1.876 1.918 2.353 3.319 1.4-.619.953-3.084 2.347-3.71 1.381.061 1.418 1.455 2.154 2.147v.006Zm4.499 12.679c-.224 3.21-.133 6.288 1.176 9.168-.145.444.35 1.521-.392 1.364.368.74 1.321.896.977 2.339-2.401.511-5.834.066-8.809.192-15.825.692-29.304 2.267-44.84 2.928-.592-1.9-2.722-9.992-.785-11.513 1.653.565.923 3.499 1.569 5.074 1.303-1.563 1.798-3.931 3.131-5.464-1.074-.535-3.916.679-4.7-.199.845-1.262 2.944-1.677 4.501-1.948 4.797-.841 11.355-.998 16.447-1.364 11-.8 22.07-1.034 31.724-.583v.006Zm-12.924 1.761c-.097.613.603.439.392 1.172-1.243 1.726-2.003 4.587-3.131 6.439-.362.589-1.696 1.413-1.177 1.954 3.047-.054 5.273-.223 8.809-.193.808-4.009 3.735-5.903 5.092-9.366-2.654-.078-6.709.054-9.985 0v-.006Zm-33.872 1.755c.211 3.109-2.444 6.289-4.115 8.778.392.457.072 1.617.585 1.954 7.084-.554 14.203-1.065 21.148-1.756-.175-.571-.175-.601 0-1.172 2.353-2.663 3.336-6.691 6.461-8.585.815 1.238-.603 2.711-1.37 3.902-.85 1.322-1.49 2.747-2.153 3.901-.26.451-1.557 1.149-.784 1.756 2.817-.445 5.882-.644 9.007-.782 0-.583-.506-.661-.585-1.172 1.98-2.645 3.771-5.477 5.286-8.585-11.615.583-20.75.788-33.486 1.755l.006.006Zm40.334 7.413c2.117.12 4.398.216 6.268-.198-1.96-1.173-1.146-5.104-2.347-7.022a84.409 84.409 0 0 1-3.915 7.22h-.006Z" fill="#3669E4"/>
    <path d="M87.75 188.741c-1.358 3.463-4.284 5.357-5.092 9.367-3.536-.025-5.768.138-8.81.192-.518-.541.815-1.359 1.177-1.954 1.129-1.852 1.895-4.713 3.132-6.439.21-.727-.483-.559-.392-1.172 3.276.054 7.33-.078 9.985 0v.006Zm-10.378 0c-1.52 3.108-3.306 5.94-5.285 8.585.078.505.585.589.585 1.172-3.126.139-6.19.337-9.008.782-.772-.607.525-1.305.784-1.756.664-1.154 1.303-2.579 2.154-3.901.766-1.191 2.184-2.664 1.37-3.902-3.125 1.894-4.109 5.922-6.462 8.585-.175.571-.175.601 0 1.172-6.945.692-14.064 1.203-21.147 1.756-.513-.331-.2-1.497-.586-1.954 1.666-2.495 4.32-5.669 4.115-8.777 12.737-.968 21.872-1.173 33.486-1.756l-.006-.006Zm-18.987 1.166c-1.231 2.964-4.785 5.597-4.115 9.168 1.84-.913 2.72-3.228 3.722-5.074.61-1.124 1.068-2.537 1.177-3.901-.368.042-.428-.223-.784-.193Zm-8.423.59c-1.919 2.837-3.771 5.741-5.286 8.975 1.762 1.185 2.903-1.701 3.723-3.12 1.032-1.797 2.172-3.793 2.74-5.465-.35-.174-.501-.547-1.177-.39Z" fill="#fff"/>
    <path d="M123.781 189.132c-.066 2.14 1.002 4.503.393 7.022-5.455.889-13.871.078-20.17.39-1.925.097-3.753.692-5.093-.39.145-2.032-.446-3.331-.392-5.267 1.454-.962 3.457-1.028 5.285-1.172 6.667-.511 13.588-.379 19.971-.583h.006Zm-23.301 2.729c.193.98.416 1.93.392 3.12 6.679-.535 13.672-.27 21.54-.39.084-1.383-.151-2.453-.392-3.511-6.619.084-14.535.439-21.54.781Zm-41.314-1.755c-.102 1.364-.567 2.777-1.176 3.901-1.002 1.846-1.877 4.161-3.723 5.074-.67-3.571 2.878-6.204 4.115-9.168.35-.024.41.241.784.193Zm-8.024.781c-.568 1.672-1.708 3.668-2.74 5.465-.814 1.419-1.96 4.311-3.722 3.12 1.52-3.234 3.366-6.138 5.285-8.975.676-.157.827.216 1.176.39Zm-30.357 0c1.883-.102 9.08 2.94 10.185 5.267 1.346 2.855-.47 8.314-2.353 9.757-2.8 2.146-8.188 3.234-11.355 1.365-2.431-1.431-4.682-5.183-4.115-8.976.537-3.583 3.198-7.166 7.638-7.413Zm-4.108 2.922c-.55 2.272-2.13 3.234-2.154 5.657-.06 6.709 8.41 8.904 13.316 4.683 1.031-2.831 2.89-5.344 1.176-7.803-.657-.944-2.884-1.563-4.115-2.146-2.16-1.028-3.897-2.633-6.07-1.954-.802.433-1.345 1.124-2.153 1.563Z" fill="#3669E4"/>
    <path d="M88.144 190.689c1.207 1.924.393 5.855 2.347 7.022-1.864.409-4.145.318-6.268.198a84.258 84.258 0 0 0 3.915-7.22h.006Zm33.876.391c.241 1.064.477 2.128.392 3.511-7.867.12-14.86-.145-21.539.39.024-1.19-.199-2.14-.393-3.12 7.005-.336 14.927-.697 21.54-.781Zm-103.192 1.172c2.172-.685 3.91.926 6.07 1.954 1.23.583 3.457 1.202 4.114 2.146 1.714 2.459-.145 4.972-1.176 7.803-4.905 4.221-13.376 2.026-13.316-4.683.024-2.423 1.605-3.384 2.154-5.657.802-.433 1.351-1.13 2.154-1.563Zm3.324 1.557c-.38 1.707-1.11 10.978 1.569 10.148.108-2.369.308-8.008-.585-10.148h-.984Zm-2.347.98c-.03.361-.663.12-.784.391-.356 2.05.169 5.098.193 7.22.012 1.142-.646 3.024 1.37 2.729.56-2.759 1.001-8.633-.785-10.34h.006Z" fill="#fff"/>
    <path d="M23.14 193.809c.893 2.14.694 7.779.585 10.148-2.679.83-1.943-8.441-1.568-10.148h.983Zm-2.548 11.32c-2.015.295-1.357-1.593-1.37-2.729-.023-2.122-.548-5.164-.192-7.22.12-.271.754-.03.784-.391 1.786 1.707 1.346 7.581.784 10.34h-.006Zm75.583 2.339c.646 3.763.242 9.956.785 13.851-2.649 1.359-5.744.848-8.616.974-14.83.673-31.603 1.136-45.426 2.339-.754-.481-1.394-1.082-2.353-1.365-.507-3.595-.767-7.431-1.569-10.731a19.09 19.09 0 0 1 4.7-1.365c16.037-2.423 35.797-2.501 52.48-3.709v.006Zm-6.854 2.345c.682 2.374 1.744 4.376 3.132 6.047-.133-2.278.187-4.112.199-6.24a15.76 15.76 0 0 0-3.33.193Zm-8.615.39c1.568 3.571 4 6.289 5.285 10.148 2.347-.138 5.334.373 6.854-.583-2.347-2.669-4.043-5.988-5.285-9.757-2.842.078-3.898.042-6.854.198v-.006Zm-5.093.193c1.002 3.426 4.055 6.492 5.286 10.34 1.37.126 2.304-.174 3.523-.198-1.599-3.481-3.553-6.601-5.092-10.148-1.436-.205-2.106.03-3.717 0v.006Zm-8.615.781c1.972 3.168 4.621 5.669 5.677 9.757 1.623.367 3.952-.18 6.462 0-1.683-3.589-3.813-6.733-5.485-10.34-2.153.265-4.754.078-6.654.583Zm-8.81.391c1.424 3.066 4.664 6.024 6.07 9.757 2.89-.048 5.43.162 7.44-.391-2.752-2.849-4.357-6.847-6.854-9.949-2.106.343-4.99.385-6.661.583h.006Zm-7.638.782c1.388 3.625 4.121 5.909 5.678 9.366 1.942-.204 4.042-.265 6.07-.391-1.406-3.475-4.646-5.128-5.093-9.559-2.437-.024-4.175.65-6.655.584Zm-1.955.192c-1.743.343-3.843.331-5.484.781 1.985 2.772 3.783 5.724 5.484 8.778 1.708-.361 4.332.168 6.07-.583-2.365-2.652-4.392-5.64-6.07-8.976ZM42.72 222.69c1.544.042 2.6-.397 4.115-.391-1.557-3.192-3.639-5.867-5.485-8.777.254 3.258 1.098 5.927 1.37 9.168Zm80.869-13.268c1.491.998 2.36 3.613 1.961 5.855-4.133-.517-8.658-.222-13.515.583-3.843.638-7.228 1.852-10.377.584-.145-2.038-.887-3.349-.392-5.459 6.648-.818 15.192-.89 22.323-1.563Zm-20.562 3.12c.133.974.61 1.605.586 2.729 6.311-1.419 13.34-1.142 19.777-2.146-.06-.457-.307-.733-.193-1.365-6.226-.276-14.619.656-20.17.782Z" fill="#3669E4"/>
    <path d="M92.65 209.614c-.011 2.134-.325 3.968-.198 6.24-1.388-1.671-2.45-3.673-3.132-6.047a15.734 15.734 0 0 1 3.33-.193Zm-5.093.391c1.243 3.769 2.939 7.088 5.285 9.757-1.52.962-4.507.451-6.853.583-1.286-3.859-3.717-6.571-5.286-10.148 2.956-.156 4.006-.12 6.854-.198v.006Zm-8.223.391c1.532 3.547 3.493 6.667 5.092 10.148-1.219.024-2.154.324-3.523.198-1.231-3.848-4.284-6.914-5.286-10.34 1.611.03 2.281-.205 3.717 0v-.006Zm-5.679.198c1.671 3.607 3.801 6.751 5.484 10.34-2.51-.18-4.838.367-6.462 0-1.055-4.082-3.704-6.583-5.677-9.757 1.907-.505 4.507-.324 6.655-.583Zm-8.812.385c2.497 3.102 4.096 7.1 6.854 9.949-2.01.553-4.55.337-7.44.391-1.406-3.733-4.646-6.685-6.07-9.757 1.672-.198 4.55-.247 6.662-.583h-.006Zm58.354.781c-.115.632.133.908.193 1.365-6.432 1.004-13.467.727-19.778 2.146.024-1.13-.452-1.755-.585-2.729 5.551-.126 13.943-1.058 20.17-.782Z" fill="#fff"/>
    <path d="M22.548 211.76c4.368-.709 9.732 3.036 10.963 6.637 1.659 4.84-.911 9.138-4.894 10.533-2.527.884-6.594 1.046-9.008.198-2.69-.949-6.045-5.182-5.092-9.168.453-1.893 2.124-2.855 2.939-3.901 1.532-1.972 2.298-3.842 5.092-4.293v-.006Zm-6.462 8.784c-.332 2.488 1.52 5.356 3.131 6.24 3.838 2.104 11.235.403 12.532-2.537 2.938-6.661-6.094-12.745-10.963-10.148-.217 3.036-4.29 3.367-4.7 6.439v.006Z" fill="#3669E4"/>
    <path d="M57.21 211.76c.446 4.437 3.68 6.084 5.092 9.559-2.027.126-4.127.181-6.07.391-1.556-3.457-4.29-5.741-5.677-9.366 2.48.066 4.217-.608 6.655-.584Zm-2.547 9.758c-1.737.751-4.362.228-6.07.583-1.7-3.054-3.499-6.012-5.484-8.778 1.641-.45 3.735-.438 5.485-.781 1.677 3.336 3.704 6.324 6.07 8.976Zm-33.88-7.413c4.87-2.597 13.901 3.487 10.963 10.148-1.297 2.94-8.694 4.641-12.531 2.537-1.611-.884-3.47-3.752-3.132-6.24.41-3.073 4.483-3.403 4.7-6.439v-.006Zm2.353 4.683c-1.701.355-4.036.301-4.7 1.756 1.104 1.304 3.614.12 5.485-.193 1.858-.312 5.044-.126 4.5-2.146-1.562-.379-3.56.228-5.285.583Zm5.286 2.531c-1.412.054-3.38.349-5.093.583-1.677.235-3.891.199-4.114 1.563 1.23 1.215 3.698.229 5.677 0 2.082-.24 4.73.012 5.678-1.364.048-1.491-1.304-.812-2.154-.782h.006Zm12.926-7.803c1.84 2.91 3.922 5.585 5.484 8.777-1.508-.006-2.564.433-4.115.391-.271-3.24-1.116-5.91-1.37-9.168Z" fill="#fff"/>
    <path d="M28.423 218.199c.537 2.02-2.649 1.834-4.501 2.146-1.864.313-4.38 1.503-5.485.193.664-1.455 3-1.401 4.7-1.756 1.726-.36 3.73-.962 5.286-.583Zm2.155 3.902c-.948 1.376-3.596 1.13-5.678 1.364-1.979.229-4.447 1.215-5.677 0 .223-1.364 2.437-1.328 4.114-1.563 1.708-.24 3.68-.535 5.093-.583.85-.03 2.208-.709 2.154.782h-.006Zm-18.992 10.538c.826-1.653 3.192-.871 4.7-.973 9.859-.686 20.954-1.624 31.525-2.537 17.756-1.54 36.478-2.321 55.804-2.928 4.82-.151 9.714-.102 14.492-.391 4.779-.289 9.497.018 14.1-.391 1.014-.09 2.637-.379 2.347 1.365-.229 1.407-4.947.944-6.661.974-19.53.373-41.082.661-60.896 1.755-4.814.265-9.448.98-13.708 1.173-11.693.523-25.256 2.609-38.964 2.537-.796 0-2.202.3-2.74-.584Zm112.397-1.755c2.98-.229 5.454 1.106 6.462 2.537 3.203 4.551-.827 10.256-6.854 9.949-2.553-.126-6.179-3.228-4.894-7.803.224-.787.815-1.136 1.37-1.954 1.086-1.605 1.128-2.519 3.916-2.729Zm-1.177 1.948c-.03 1.388-1.719 1.587-2.154 3.12-.694 2.465.537 5.904 3.916 5.465-.549-1.527-1.183-5.525-.392-8.585h-1.37Zm2.739 5.465c-.036.613-1.055.246-.977.973.736-.084.893.415 1.177.782.078.445-1.02 1.214-.193 1.172 5.84.066 4.464-9.601-.978-8.194 1.527.974.434 3.343.978 5.267h-.007Zm-15.471 5.266c-1.285.307-1.165-.788-1.961-.974-2.926-.138-5.635 1.737-8.616 1.365-4.634-.577-4.543-6.589-4.7-11.315 1.985-.967 5.406-2.182 8.03-1.563 1.467.349 3.723 3.439 5.485 3.71.917 2.38 2.305 6.228 1.762 8.777Zm-12.14-10.34c.664 1.935 1.889 3.234 4.7 2.537v-2.73c-1.164-.114-3.3-.048-4.7.199v-.006Zm6.462 2.146c.35-.108.815-.102.978-.391-.411-.114-.634-.409-.978-.583-.368.373-.024.487 0 .974Zm-7.44 3.901c.435.247 1.606-.132 2.354-.192.12-2.531-2.01-2.813-2.74-4.485.121 1.197.182 3.054.393 4.683l-.006-.006Zm7.44-2.338c0 1.04-.121 2.206.392 2.729 1.279-.102 2.227.12 3.132.391-.043-1.256-.332-2.272-.586-3.319-1.176-.126-1.912.175-2.938.199Zm-3.523 1.755c.506.367 1.906.313 1.96-.39-.44-.085 0-1.034-.392-1.173-1.056-.012-1.315.77-1.568 1.563Zm.199 3.511c1.9-.385 3.801-.156 4.893-.974-1.098-.09-1.261-.12-2.154.199-.465-.319-.79-.776-1.177-1.173-1.249-.114-2.16.289-1.562 1.954v-.006Zm-3.53-1.563c.163.944.881 1.335 1.762 1.563-.042-.613.133-1.431-.2-1.755-.633-.042-.826.342-1.568.192h.006Zm-16.638-7.803c.742 3.925-3.318 8.735-4.893 12.685-4.247-1.623-5.653-6.072-7.831-9.757.422-.98.482-1.275.784-2.147 3.325-.192 8.32-.932 11.946-.781h-.006Zm-10.77 2.344c.881 2.646 2.522 6.199 5.286 7.611 1.647-2.645 2.642-5.951 4.7-8.194-3.457.072-6.715.331-9.986.583Z" fill="#3669E4"/>
    <path d="M102.634 233.03v2.73c-2.806.697-4.037-.602-4.7-2.537 1.4-.247 3.529-.313 4.7-.199v.006Zm21.543-.198c-.79 3.06-.157 7.064.392 8.585-3.379.439-4.616-3-3.916-5.465.435-1.533 2.124-1.737 2.154-3.12h1.37Zm.392.198c5.448-1.407 6.818 8.26.977 8.194-.826.048.278-.727.193-1.172-.283-.367-.44-.866-1.176-.782-.079-.727.941-.36.977-.973-.543-1.924.549-4.299-.977-5.267h.006Z" fill="#fff"/>
    <path d="M49.763 234.004c1.653 2.044 3.246 4.124 2.938 6.631-.47 3.769-6.009 7.01-9.792 6.048-4.079-1.034-4.724-6.493-2.74-9.757 1.793-2.952 4.393-4.605 9.594-2.928v.006Zm-5.87 4.876c-.46-2.213 3.8-1.413 4.7-2.928-1.883-.878-5.099-.475-6.462.781-.284 1.401-2.136 3.127-.785 4.876.453-1.244 1.11-3.084 2.546-2.729Zm1.369 0c.15.697.453 1.238 1.177 1.364.748-.817 1.695-1.43 2.353-2.338-1.418.078-2.13.871-3.524.974h-.006Zm2.154 2.927c-.163.115-.422-.438-.585-.39-.332.096-1.05.895-1.762 1.172-.947.367-1.774.234-2.546.781 2.938 2.958 10.058-1.382 7.44-5.074-1.352 1.059-1.377 2.67-2.547 3.511Zm-4.308.391c.453-.463 1.2-.625 1.762-.974-.073-.908-.67-1.286-1.37-1.563.157 1.004-.929 1.798-.392 2.537Z" fill="#3669E4"/>
    <path d="M104.396 234.395c.344.174.573.469.977.583-.163.288-.627.282-.977.391-.025-.487-.368-.601 0-.974Zm-24.278.192c-2.057 2.243-3.053 5.549-4.7 8.194-2.77-1.413-4.41-4.965-5.285-7.611 3.27-.252 6.534-.517 9.985-.583Zm16.447 0c.736 1.677 2.865 1.96 2.739 4.485-.748.066-1.913.439-2.353.192-.211-1.629-.272-3.486-.392-4.683l.006.006Z" fill="#fff"/>
    <path d="M22.157 244.152c1.563 1.635 3.481 3.932 4.308 5.657-1.086 1.942-2.564-.282-3.33-1.172-.936-1.082-1.974-2.489-2.547-3.319-3.511 1.804-7.614-2.958-6.07-6.637.483-1.148 2.01-1.058 1.955-2.537 5.256-3.481 9.696 4.443 5.678 8.002l.006.006Zm-.392-3.319c.452-2.903-2.19-4.184-5.286-2.536-2.678 5.086 4.592 6.985 5.286 2.536Z" fill="#3669E4"/>
    <path d="M107.335 236.734c.253 1.046.543 2.062.585 3.318-.905-.27-1.858-.493-3.131-.391-.513-.529-.387-1.695-.393-2.729 1.026-.018 1.762-.325 2.939-.198Zm-4.891.39c.386.138-.049 1.088.392 1.172-.048.704-1.448.758-1.961.391.253-.787.507-1.575 1.569-1.563Zm-85.967 1.173c3.101-1.648 5.744-.373 5.285 2.537-.7 4.448-7.964 2.555-5.285-2.537Zm32.31-.391c-.651.908-1.605 1.521-2.353 2.338-.724-.126-1.025-.667-1.176-1.364 1.393-.109 2.105-.896 3.523-.974h.006Zm1.176.391c2.618 3.691-4.501 8.031-7.44 5.073.773-.547 1.6-.414 2.547-.781.712-.277 1.43-1.076 1.761-1.172.17-.048.429.505.586.39 1.17-.841 1.194-2.452 2.546-3.51Zm-6.459 1.364c.705.277 1.303.656 1.37 1.563-.562.349-1.31.517-1.763.974-.537-.739.55-1.527.393-2.537Zm59.131.589c.386.397.712.854 1.176 1.173.893-.319 1.056-.289 2.154-.199-1.092.818-2.998.589-4.893.974-.591-1.665.314-2.062 1.563-1.954v.006Zm-3.521.193c.325.324.156 1.148.199 1.755-.881-.228-1.6-.619-1.762-1.563.736.15.935-.234 1.569-.192h-.007Z" fill="#fff"/>
    <path d="M74.049 262.488c-.513.499-1.636-.048-1.961-.391-2.003 1.323-4.712.824-6.462 2.147-2.945 2.236-5.105 8.59-3.723 12.877.748 2.314 4.17 3.847 7.047 3.902 5.847.114 10.957-3.433 13.316-6.83.748-6.577-1.888-13.647-8.417-13.851-1.985-.06-3.427 1.389-4.114-.193-.586-1.346 2.534-2.518 4.308-2.338 7.246.727 12.32 9.937 10.184 17.753-1.195 4.358-7.421 7.725-12.924 8.392-4.947.595-9.967-1.815-11.355-5.657-2.202-6.096 1.46-16.484 7.247-17.368 3.065-.463 4.464.559 6.854 1.563v-.006Z" fill="#3669E4"/>
    <path d="M72.285 266.197c-1.08 1.419-1.979.499-3.523 1.173-2.13.925-2.414 3.072-2.347 4.484.223 4.69 13.864 3.505 9.007-4.484-.808-1.335-2.841-1.251-3.722-3.71 4.597-2.489 8.591 7.359 5.876 11.315-1.001 1.46-3.577 2.266-4.899 2.537-4.47.913-8.797-2.429-8.223-7.413.253-2.182 1.285-3.144 2.938-4.876 2.033-.589 3.964-.709 4.893.974Zm37.597-121.553c-.362 1.978.12 6.373-.193 8.585-18.282.944-41.052.619-59.527 2.146-4.301.355-8.477 1.377-12.139 1.173-.628-.036-.995-.499-1.569-.583-1.146-.169-2.486.745-3.523-.199.308-3.535-1.207-7.683-1.177-11.903.018-2.164.531-4.269 0-6.631.628-.547 1.243-1.1 1.569-1.954 11.102-.271 22.74-1.792 34.463-2.345 13.256-.619 27.308-.493 40.141-1.172.893 3.258.41 10.13 1.762 12.877h.193v.006Zm-8.809-10.538c-.67.234-.911.98-1.569 1.172-1.056.307-2.92.096-4.507.192-1.64.102-3.288.289-4.893.391-9.485.601-19.078.162-28.979.192-9.074.03-20.296 1.455-27.609.584 1.303 5.14.247 12.63 1.955 17.362 8.224-.145 16.127-1.617 24.086-1.948 3.68-.156 7.566.475 11.554.198 13.31-.932 25.636-.841 36.424-.974.688-5.699-2.124-10.574-1.762-17.169-1.472.198-3.168-.529-4.7 0Z" fill="#3669E4"/>
    <path d="M41.346 241.615c-1.357-1.755.501-3.475.785-4.876 1.363-1.256 4.58-1.659 6.462-.781-.9 1.515-5.159.709-4.7 2.928-1.43-.355-2.094 1.485-2.547 2.729Z" fill="#fff"/>
    <path d="M128.874 46.501c-2.051-.523-2.57-8.705 1.569-7.22 1.225 1.593.175 3.776-.977 4.683-.423 1.028.319 2.255-.586 2.537h-.006Z" fill="#3669E4"/>
    <path d="M138.666 247.074c-2.497-.511-1.556-3.74-1.568-5.267-.145-18.107-.284-39.792 0-58.531-10.36-.246-20.406.391-30.156.199-18.366-.373-42.113.451-63.249.781-8.591.133-17.358.565-27.609.974-1.098.042-2.806.469-3.723-.583.966-2.038 4.345-1.088 6.462-1.172 17.28-.662 35.049-1.756 53.264-1.756 14.691 0 28.218-.192 45.034-.192 6.745 0 13.605-.818 19.971-.583.15-27.931.555-54.01 1.176-80.973-4.676-1.089-9.448-.253-14.293-.584-14.843-1.016-30.155-1.755-45.625-1.755-10.16 0-20.436-.09-30.349.781-9.919.872-19.747 2.063-29.178 2.147-1.629.012-3.674-.722-5.285-.193-.55 10.238-.694 22.833-.784 32.584-.097 10.437-.52 23.507-.586 34.923 21.226-.427 40.877-1.389 61.88-2.339 10.16-.456 20.749-.444 31.332-.781 2.558-.084 11.638-.078 14.492 0 4.103.114 8.254.072 12.731 0 .374-.006 2.841-.625 2.938.781.133 1.972-5.43 1.173-6.655 1.173-8.724 0-17.117-.024-23.693.192-9.497.319-21.057.132-31.133.583-21.431.968-40.925 2.032-61.88 1.756-.929 28.977-1.08 56.12-2.153 83.312 9.876 1.022 19.645-1.564 29.57-1.564s20.507 0 30.547-.973c14.27-1.383 29.787-1.63 45.034-1.173 2.558.078 4.996-.222 7.439-.391 4.308-.294 8.248-.595 12.339 0 .597-1.34-.748-3.09.392-4.1 1.647.812 1.804 4.732 1.762 6.637-6.848-.973-13.817.517-22.324.391-14.613-.222-29.1-.18-43.272.974-13.95 1.136-28.062.884-42.687 1.954-6.963.505-13.455 1.407-20.363.974-1.17-1.575-.272-2.784-.193-4.876.603-17.194.899-34.736 1.176-52.681.272-17.675 1.37-35.723 1.37-53.848 0-18.126.23-36.396.977-54.239.76-18.023-.283-36.179 1.177-54.046 2.606-.938 6.142-.643 9.008-.782 10.408-.486 19.452.5 28.786.782 19.047.577 40.617-.409 59.134.781 9.75.626 19.584-1.016 29.178.391.965.535 1.321 1.678 1.176 3.319.513.18 1.086-.217 1.569.974.658 1.64.145 6.57 0 9.757-.447 9.86-.646 19.057-.784 27.9-.175 11.483-.905 24.535-.978 35.903-.078 11.91-.434 24.204-.585 35.512-.157 11.525-.018 22.755-.193 34.538-.067 4.533 0 9.517 0 14.633 0 12.823-.061 24.474-.193 39.804-.024 2.723.808 5.555-.392 8.002l-.031-.03ZM27.246 37.334c-4.598.102-8.537.384-12.725.39-.748 20.164-.627 38.674-1.176 57.75 17.195.793 32.575-3.367 47.58-2.928.682.817.917 2.08 1.177 3.319 27.446-1.395 47.972 1.382 76.365 1.364.133-5.657.513-11.951.392-18.342-27.289-1.707-58.7-1.828-88.897-.974-10.118.289-20.128 1.34-29.57 1.172-2.202-.042-5.4-.114-6.263-1.953 1.424-.902 3.228-.097 4.7 0 7.85.51 16.333-.487 24.671-.974 8.363-.487 16.894-.247 25.262-.391 24.177-.415 48.154-.583 70.297.782.156-11.922.603-22.443.977-35.122-.35-.589-.724 1.029-1.37.193-.392-.818.332-2.309-.784-2.73-11.669-.408-26.318 0-39.948-.781-.205 2.982.115 6.487.785 9.168 10.92.084 22.016.403 30.74.974 2.118.138 9.883-.072 9.594 1.948-.242 1.677-3.15.643-3.723.583-4.996-.5-9.43-.56-14.1-.782-19.881-.944-38.711-1.106-59.334-1.364-14.396-.18-29.135 1.472-42.101.583-1.756-.12-4.495.228-5.286-1.563 25.088-.247 54.103-1.052 82.635-.584-1.044-2.278-.55-6.09-.978-8.975-13.852-.205-34.56 0-46.21.192-7.427-1.07-15.325-.907-22.125-.781-.066 1.725.966 6.018.193 7.803-1.056.337-.651-.782-1.176-.974-2.287 1.178-6.426 1.527-9.593 1.172.929-1.773-.23-4.418.392-6.438 2.618-1.166 6.908-.661 9.593-1.756l.006.018Zm-.585 3.12v-1.557h-.585c-.465.559-.103 1.544.585 1.556Zm-5.485 1.563c1.466-.427 3.096-1.726 3.132-2.928-1.593.427-2.474 1.569-3.132 2.928Zm2.154 1.947h.978v-.583c-.616-.09-.803.247-.978.583Zm-1.954.391c.597.145.573-.336 1.176-.192.036-1.022-1.146-.385-1.177.192Z" fill="#3669E4"/>
    <path d="M150.998 21.92c-1.153 3.161-.513 7.628-.785 11.903-.513 8.025-1.399 15.943-1.369 23.608.066 18.126-1.563 35.41-1.762 54.239-.169 15.991-.127 31.568.193 47.018.163 7.581-.537 15.06-.392 22.436.157 7.936 0 15.92-.199 23.801-.368 15.228-.284 30.402.585 45.071.193 3.276.199 6.835.199 10.34 0 3.95.863 7.924.585 11.513-.108 1.376-.742 3.06-.977 4.683-.326 2.212-.616 4.07-1.37 5.855-.881 2.08-2.317 3.812-3.33 5.465-.646 1.052-.875 1.683-.585 2.928-2.468-.054-2.492 2.326-4.701 2.537-1.242.517-2.509.048-3.915.198-1.213.126-2.42.77-3.723.782-2.25.012-4.181-.259-6.462 0-9.448 1.064-21.37.583-31.917.583-4.41 0-9.098.282-13.509 0-.923-.06-1.846-.511-2.74-.583-11.819-.986-26.371-1.13-40.339-.782-2.347.06-4.7-.475-7.047-.391-2.516.091-5.044.421-7.44.199-2.08-.199-5.647-1.341-7.439-2.146-4.513-2.032-6.998-6.523-10.184-9.95.205-2.158-.58-4.334-1.569-5.465.17-4.953-1.013-9.673-.784-14.632.23-4.9.295-9.848.585-14.832.55-9.294 1.738-18.666 1.96-28.093.236-10.244.194-20.278.194-30.63 0-18.733-.977-39.528-.977-60.094 0-20.567.15-39.997 1.954-59.896.435-4.803.49-9.721.785-14.633.283-4.761 1.134-9.697.977-14.242-.072-2.056-.91-4.028-.977-6.048-.067-2.05.525-4.9.977-7.22C6.864 18.42 9.144 11.717 13.332 7.69c1.496-1.437 5.671-4.142 7.831-5.074 1.58-.679 3.723-1.58 5.092-1.755 2.498-.325 5.406.054 8.025 0C42.45.692 50.269.463 58.366.078c5.755-.27 11.427.355 17.032.391 9.298.054 17.54-.39 27.217-.39 3.801 0 7.681.54 11.554.39 7.488-.3 14.987-.643 20.949 1.365 3.185 1.076 6.437 3.42 8.615 5.855 3.699 4.124 6.118 7.828 7.247 14.242l.018-.012ZM4.921 202.008c.084 11.531-1.038 22.635-1.569 33.757-.26 5.507-.199 11.23-.392 16.779-.193 5.693-.917 11.548-.585 16.977.386 6.294 2.42 11.921 5.876 15.607 1.901 2.032 5.672 4.701 8.031 4.875.754.06.453-.168 1.177-.39.64-.199.862 0 1.568 0 4.019-.025 7.168.529 10.577.583 24.846.415 47.683 2.861 73.627 2.537 4.736-.06 9.732-.638 14.685-.782 4.628-.132 10.764.451 14.885-.391 4.965-1.016 8.151-5.092 10.178-8.975-.187-4.575 2.395-8.026 2.739-12.288.187-2.309-.271-4.882-.392-7.413-.314-6.793-.784-14.476-.784-21.853 0-10.04 0-20.23-.193-29.855-.199-10.063.573-20.151.193-30.239-.187-4.99.67-10.058.784-15.024.332-14.236-.977-30.299-.977-45.461 0-9.523.694-18.883.977-28.292.296-9.727 1.213-19.292.978-29.073-.242-9.925 1.677-19.755 2.154-29.656.193-3.968-.459-7.743.392-11.513-.857-5.483-3.114-9.096-6.462-12.685-2.082-2.23-4.996-4.382-7.639-5.266-5.743-1.93-11.487-1.202-18.015-1.365-4.876-.12-11.838-.45-17.817-.583-6.354-.144-13.171.193-19.778.193-7.03 0-13.787-.848-19.386-.584-5.152.247-10.975.301-16.254.584-2.498.138-4.953.577-7.44.583-2.672.006-5.478-.656-7.83-.391-.67.078-1.75.697-2.74.974-5.327 1.49-8.417 4.406-11.554 8.194-2.425 2.934-4.634 6.072-5.285 9.95a18.651 18.651 0 0 1 0 5.855c-.284 1.864-1.213 3.487-1.37 5.074-.175 1.78.314 3.631.392 5.465.085 1.966-.066 3.931-.199 5.855-.483 7.04-1.086 14.116-1.37 21.655-.144 3.883.127 7.96-.193 11.903-.108 1.34-.959 2.688-1.176 4.094-.374 2.441-.266 5.297-.392 8.002-.954 20.11-.561 40.105.199 59.12.283-4.653-.09-9.817.392-15.216.296 23.35-.169 45.756 0 68.679h-.012Z" fill="#3669E4"/>
    <path d="M4.925 133.33c-.476 5.399-.108 10.563-.392 15.216-.754-19.015-1.152-39.005-.199-59.12.127-2.705.018-5.561.392-8.002.217-1.413 1.068-2.76 1.177-4.094.32-3.944.048-8.014.193-11.903.283-7.54.887-14.621 1.37-21.655.132-1.924.277-3.89.198-5.855-.078-1.834-.567-3.68-.392-5.465.157-1.587 1.086-3.21 1.37-5.074a18.642 18.642 0 0 0 0-5.856c.658-3.877 2.86-7.015 5.285-9.95 3.132-3.787 6.22-6.708 11.554-8.193.99-.277 2.076-.902 2.74-.974 2.353-.265 5.158.397 7.831.39 2.486-.005 4.941-.45 7.44-.583 5.279-.288 11.1-.342 16.254-.583 5.599-.264 12.356.583 19.385.583 6.607 0 13.425-.342 19.778-.192 5.979.138 12.942.463 17.817.583 6.522.162 12.272-.565 18.016 1.365 2.642.89 5.551 3.036 7.638 5.266 3.349 3.59 5.605 7.202 6.462 12.685-.851 3.77-.199 7.545-.392 11.513-.477 9.901-2.395 19.737-2.154 29.656.235 9.781-.682 19.34-.978 29.073-.283 9.409-.977 18.769-.977 28.292 0 15.162 1.309 31.225.977 45.461-.114 4.966-.971 10.034-.784 15.024.38 10.094-.398 20.181-.193 30.239.193 9.619.193 19.809.193 29.855 0 7.376.465 15.06.784 21.853.121 2.537.58 5.104.393 7.412-.35 4.263-2.933 7.714-2.74 12.289-2.033 3.883-5.213 7.959-10.178 8.975-4.121.842-10.257.259-14.885.391-4.953.144-9.949.721-14.685.782-25.938.324-48.78-2.123-73.627-2.537-3.409-.055-6.558-.608-10.576-.584-.7 0-.93-.198-1.57 0-.723.223-.422.451-1.176.391-2.353-.18-6.13-2.843-8.03-4.875-3.451-3.692-5.49-9.313-5.877-15.607-.332-5.429.392-11.278.585-16.977.193-5.549.133-11.273.393-16.779.524-11.122 1.653-22.226 1.568-33.757-.169-22.923.296-45.329 0-68.679h.012ZM93.63 18.6c-6.257-.679-13.437-.595-19.778-.78-1.11 1.033-1.913 3.708-.785 5.265 6.65 2.014 14.264 2.4 21.932.782.422-2.044.042-4.455-1.37-5.266Zm-27.018 2.538c.096-5.682-9.171-3.511-4.9 2.338 2.685.758 4.863-.397 4.9-2.338Zm72.45 217.94c.132-15.324.193-26.975.193-39.804 0-5.116-.067-10.1 0-14.633.175-11.777.042-23.013.193-34.538.151-11.302.513-23.596.585-35.512.072-11.362.803-24.414.978-35.902.132-8.844.331-18.042.784-27.901.145-3.186.657-8.116 0-9.757-.477-1.19-1.056-.794-1.569-.974.145-1.641-.211-2.784-1.176-3.319-9.594-1.407-19.428.235-29.178-.39-18.517-1.19-40.087-.199-59.135-.782-9.333-.283-18.371-1.269-28.785-.782-2.866.133-6.402-.156-9.008.782-1.46 17.861-.417 36.023-1.177 54.046-.754 17.849-.977 36.149-.977 54.239 0 18.089-1.104 36.173-1.37 53.848-.271 17.945-.573 35.481-1.176 52.681-.073 2.098-.972 3.301.193 4.876 6.908.433 13.406-.469 20.363-.974 14.631-1.07 28.737-.818 42.687-1.954 14.178-1.154 28.659-1.196 43.272-.974 8.507.126 15.47-1.364 22.324-.391.042-1.899-.121-5.825-1.762-6.637-1.134 1.004.211 2.76-.392 4.1-4.091-.595-8.031-.294-12.339 0-2.449.169-4.887.469-7.439.391-15.247-.457-30.765-.216-45.034 1.173-10.04.973-20.309.973-30.548.973-10.238 0-19.693 2.586-29.57 1.564 1.074-27.192 1.225-54.335 2.154-83.312 20.955.276 40.449-.788 61.88-1.756 10.082-.457 21.636-.27 31.133-.583 6.576-.216 14.969-.192 23.693-.192 1.225 0 6.794.799 6.655-1.173-.097-1.406-2.564-.787-2.938-.781-4.471.072-8.628.114-12.731 0-2.854-.078-11.928-.084-14.492 0-10.583.337-21.172.319-31.332.781-21.003.95-40.648 1.918-61.88 2.339.067-11.416.489-24.492.586-34.923.09-9.751.229-22.346.784-32.584 1.61-.523 3.656.211 5.285.193 9.43-.084 19.253-1.275 29.178-2.147 9.92-.871 20.188-.781 30.349-.781 15.47 0 30.782.74 45.625 1.755 4.845.331 9.617-.505 14.293.584-.621 26.963-1.026 53.036-1.176 80.973-6.366-.229-13.226.583-19.971.583-16.816 0-30.349.192-45.034.192-18.21 0-35.978 1.094-53.264 1.756-2.117.078-5.49-.872-6.462 1.172.918 1.052 2.619.631 3.723.583 10.25-.409 19.018-.841 27.61-.974 21.135-.33 44.882-1.154 63.248-.781 9.75.198 19.796-.445 30.156-.199-.284 18.739-.145 40.424 0 58.531.012 1.527-.93 4.762 1.568 5.267 1.201-2.447.368-5.279.393-8.002l.03.03Zm-71.28-132.675c-3.385-.745-.525 4.72-1.176 6.439-2.8-.956-4.664-4.798-8.031-3.902.356 1.708 2.112 2.405 3.33 3.319 1.274.956 2.83 1.623 3.916 2.729-5.454.734-11.421.397-15.47 2.146.483 2.591 4.115 1.161 6.462.974 3.168-.252 6.758-.541 9.008-.583-1.816 3.066-4.386 5.381-5.677 8.976.265.192.392.523.585.781 4-.631 3.813-6.474 6.66-7.611.508 2.808.659 5.976 1.178 8.778.549.168.802.631 1.568.583 2.293-2.369-1.032-7.353 0-10.924 4.187 1.551 6.227 5.243 11.355 5.856.978-2.074-1.544-2.14-2.546-2.73-.917-.547-1.538-1.665-2.546-2.338-1.388-.932-3.09-1.1-3.916-2.345 2.613-1.04 14.155-.252 10.185-3.709-4.501.294-8.477 1.425-12.339 1.365 1.068-2.567 4.338-5.171 3.916-7.804-2.781.036-3.415 3.872-5.285 5.465.102-2.315-.453-3.968-1.177-5.465Zm41.903 38.241c-1.352-2.747-.869-9.618-1.762-12.877-12.833.679-26.885.553-40.14 1.172-11.724.548-23.363 2.068-34.464 2.345-.32.848-.941 1.401-1.569 1.954.531 2.369.018 4.473 0 6.631-.03 4.22 1.478 8.362 1.177 11.903 1.037.944 2.377.03 3.523.199.573.084.935.547 1.569.583 3.662.21 7.837-.812 12.14-1.172 18.474-1.533 41.244-1.203 59.526-2.147.313-2.206-.169-6.607.193-8.585h-.193v-.006Zm-40.726 23.218c-1.883.499-4.592 1.78-7.639 3.709-2.709 1.714-5.587 4.046-7.246 3.902-2.094-.18-1.75-2.976-4.308-2.339-.61 1.203.688 2.105 1.37 2.928.67.806 1.496 2.219 2.347 2.339 1.768.258 4.754-2.537 6.462-3.319 3.982-1.809 9.496-2.837 11.747-5.074-.712-1.088-1.032-2.597-2.74-2.146h.007Zm15.077 4.293c-1.4.625-.947 3.09-2.347 3.709-.476-1.395-.229-4.166-2.353-3.319-.651.457-.048 2.159-.977 2.339-.024-1.082-.404-1.81-.978-2.339-.615-.096-.766.277-1.176.391.211 1.876.85 3.319 1.569 4.683 1.279.169 1.785-.433 2.153-1.172.556.355.682 1.136 1.177 1.563.459-.06.736-.307 1.37-.192.754-.812.88-2.249 1.568-3.12.978.456.616 2.248 2.353 1.953.67-.048.399-1.034.978-1.172.404 1.269.736 2.339 1.762 2.345 1.526.006 1.128-2.038 2.347-2.73.18 1.461.796 3.036 2.546 2.339.476-.367.416-1.275.784-1.756.76 2.688 3.47 2.123 5.092.974.025-1.328.097-2.699-.585-3.318h-1.176c-.634.475-.495 1.719-1.177 2.146-.845-.787-.597-2.651-2.154-2.729-.977.324-.82 1.785-1.37 2.537-.923-.77-.078-3.301-2.153-2.928-.815 1.01-.393 3.252-1.961 3.511-.64-1.118-.012-3.499-1.961-3.319-.785.199-.622 1.335-1.177 1.756-.736-.692-.772-2.086-2.154-2.146v-.006Zm-25.063 15.414c-5.098.367-11.657.523-16.447 1.365-1.557.276-3.656.691-4.501 1.947.784.878 3.626-.342 4.7.199-1.333 1.533-1.834 3.895-3.131 5.464-.64-1.575.084-4.508-1.569-5.074-1.937 1.521.193 9.607.784 11.513 15.537-.661 29.015-2.236 44.841-2.928 2.98-.132 6.414.319 8.81-.192.343-1.443-.61-1.605-.978-2.339.742.157.247-.919.392-1.364-1.31-2.886-1.4-5.958-1.177-9.168-9.647-.445-20.725-.211-31.724.583v-.006Zm44.841 2.146c-1.828.144-3.831.21-5.285 1.172-.055 1.942.537 3.235.392 5.267 1.333 1.082 3.168.487 5.092.39 6.299-.312 14.716.499 20.17-.39.61-2.525-.452-4.882-.392-7.022-6.383.204-13.304.072-19.971.583h-.006ZM13.149 198.3c-.573 3.793 1.683 7.545 4.115 8.976 3.173 1.869 8.555.781 11.355-1.365 1.882-1.443 3.698-6.896 2.353-9.757-1.098-2.333-8.296-5.375-10.185-5.267-4.44.247-7.095 3.83-7.638 7.413Zm30.547 12.877c-1.623.247-3.24.734-4.7 1.365.797 3.3 1.062 7.136 1.57 10.731.952.283 1.592.884 2.352 1.365 13.829-1.203 30.596-1.672 45.426-2.339 2.872-.132 5.961.379 8.616-.974-.543-3.895-.139-10.088-.784-13.851-16.683 1.208-36.443 1.286-52.48 3.709v-.006Zm57.572-.198c-.495 2.116.247 3.421.392 5.459 3.15 1.268 6.54.054 10.378-.584 4.851-.805 9.376-1.1 13.515-.583.398-2.236-.465-4.851-1.961-5.855-7.132.673-15.675.745-22.324 1.563Zm-83.811 5.074c-.815 1.046-2.486 2.008-2.939 3.901-.953 3.986 2.402 8.225 5.093 9.169 2.413.847 6.48.691 9.008-.199 3.982-1.395 6.552-5.693 4.893-10.533-1.23-3.595-6.595-7.346-10.963-6.637-2.787.451-3.56 2.321-5.092 4.293v.006Zm-3.132 17.17c13.709.072 27.272-2.014 38.965-2.537 4.26-.193 8.893-.908 13.708-1.173 19.814-1.094 41.365-1.388 60.896-1.755 1.713-.03 6.425.427 6.661-.974.289-1.744-1.34-1.455-2.347-1.365-4.604.409-9.322.102-14.101.391-4.778.289-9.665.24-14.492.391-19.325.601-38.047 1.389-55.804 2.928-10.57.913-21.666 1.845-31.525 2.537-1.508.108-3.873-.68-4.7.973.537.89 1.95.584 2.74.584Zm105.737.39c-.555.818-1.152 1.167-1.369 1.954-1.285 4.575 2.341 7.677 4.893 7.804 6.027.306 10.058-5.399 6.854-9.95-1.008-1.431-3.481-2.765-6.462-2.537-2.787.216-2.83 1.13-3.916 2.729Zm-11.747 1.173c-1.762-.271-4.012-3.355-5.484-3.71-2.619-.625-6.04.596-8.031 1.563.15 4.726.066 10.744 4.7 11.315 2.981.372 5.69-1.503 8.616-1.365.79.186.67 1.281 1.961.974.543-2.549-.845-6.397-1.762-8.777Zm-39.356-1.173c-.302.872-.362 1.167-.785 2.147 2.178 3.685 3.59 8.134 7.832 9.757 1.58-3.95 5.635-8.753 4.893-12.685-3.62-.15-8.616.589-11.946.781h.006Zm-28.786 3.319c-1.98 3.264-1.334 8.723 2.74 9.757 3.782.962 9.32-2.278 9.791-6.048.314-2.507-1.279-4.587-2.938-6.631-5.2-1.677-7.807-.024-9.593 2.928v-.006Zm-23.694-.782c.055 1.479-1.478 1.383-1.954 2.537-1.539 3.674 2.558 8.441 6.07 6.637.572.83 1.61 2.237 2.545 3.319.767.884 2.245 3.108 3.33 1.172-.826-1.725-2.744-4.022-4.307-5.657 4.018-3.559-.422-11.482-5.678-8.002l-.006-.006Zm50.718 24.781c-5.786.884-9.449 11.272-7.246 17.368 1.387 3.842 6.413 6.258 11.355 5.657 5.502-.667 11.729-4.028 12.923-8.392 2.142-7.822-2.932-17.026-10.184-17.753-1.774-.18-4.893.998-4.308 2.339.688 1.581 2.13.132 4.115.192 6.528.204 9.165 7.28 8.416 13.851-2.359 3.397-7.469 6.944-13.315 6.83-2.884-.055-6.305-1.588-7.047-3.902-1.382-4.281.772-10.641 3.722-12.877 1.75-1.329 4.459-.83 6.462-2.147.32.337 1.448.89 1.96.391-2.388-1.004-3.788-2.026-6.853-1.563v.006Zm.193 4.293c-1.653 1.731-2.685 2.699-2.938 4.875-.574 4.984 3.752 8.326 8.223 7.413 1.316-.271 3.892-1.076 4.9-2.537 2.715-3.956-1.28-13.803-5.877-11.315.875 2.453 2.914 2.375 3.723 3.71 4.856 7.995-8.785 9.174-9.009 4.485-.066-1.419.218-3.565 2.347-4.485 1.551-.674 2.444.246 3.524-1.173-.935-1.683-2.86-1.569-4.893-.973Z" fill="#fff"/>
  </g>
  <defs>
    <clipPath id="a">
      <path fill="#fff" d="M0 0h151v295H0z"/>
    </clipPath>
  </defs>
</svg>
