<svg width="143" height="299" fill="none" xmlns="http://www.w3.org/2000/svg">
  <g clip-path="url(#a)" fill-rule="evenodd" clip-rule="evenodd">
    <path d="M126.88 295.155c-9.606 4.173-22.362 2.383-35.166 2.201-2.924-.042-5.946.031-9.022 0-2.773-.03-5.722.571-8.47.364-1.01-.072-1.921-.491-2.943-.552-6.511-.382-12.372.431-18.592.364-3.131-.03-6.512.182-9.758.182-3.387 0-6.646-.17-9.759-.182-3.988-.018-7.07 1.056-10.129-.922-1.556.716-3.556.983-4.42 2.39-2.73-1.316-4.317-3.772-6.81-5.325-1.531-2.681-4.31-3.894-5.89-6.247-5.26-7.824-4.84-19.753-4.232-31.774.28-5.525.133-10.844.188-15.975.073-7.041.146-15.271-.182-21.306-.274-5.064-.055-11.244-.183-17.079-.56-26.036.499-54.784.012-83.744-.024-1.565-.45-3.069-.553-4.591-.395-5.901-.474-11.699-.182-17.26C1.172 88.292.49 80.753.606 71.82c.037-2.996.11-6.035 0-9-.103-2.79-.675-5.635-.553-8.267.06-1.31.395-2.602.37-3.857C.309 45.614.218 39.082.06 33.066c-.115-4.428-.194-9.431.924-13.592 1.338-4.96 5.217-10.128 9.759-12.67 2.085-1.164 4.62-1.934 7.18-2.383-.438-1.267-3.058.862-2.578-.552-.152-1.77 2.262-1.103 3.131-1.103 3.642.018 8.804.26 12.701.37 13.552.382 26.734-.837 40.687-1.462 6.396-.285 13.042-.449 19.7-.734 6.63-.285 13.696-.685 20.432-.916 12.008-.412 21.067 4.464 25.408 13.78 2.614 5.622 2.638 13.124 2.572 20.384-.086 9.607-.554 19.887.182 30.3.736 10.444-.188 20.912-.188 30.67 0 11.481-.207 24.545.182 36.918.663 21.269.261 43.194.912 64.645.632 20.912.954 38.816 1.648 59.139.322 9.443.984 20.748-2.214 27.365-.486 1.007-1.477 2.038-2.395 3.306-1.775 2.456-3.344 4.688-5.709 6.792-1.471 1.31-4.353 4.07-5.521 1.838l.006-.006Zm10.865-11.014c.693-1.28 1.374-2.444 1.842-3.675 2.366-6.199 1.831-16.127 1.478-25.164-.377-9.655-.335-19.153-.736-27.916-1.246-27.468-.845-57.259-1.459-84.479-.444-19.607-.505-32.689-.359-51.788.037-4.53.408-9.152.554-13.773.146-4.725-.11-9.346-.365-13.956-.718-12.936.419-26.412-.365-38.748-.784-12.367-7.515-20.997-18.775-22.962-2.523-.443-6.712-.085-8.652 0-25.852 1.104-56.032 2.468-83.216 3.481-4.189.158-8.512.304-11.783 1.286-8.34 2.499-14.172 10.51-14.372 20.742-.092 4.634.109 9.643.364 14.877.268 5.55-1.04 10.135-.37 15.975.097.825.431 1.316.553 2.39.596 5.361-.177 11.596 0 18 .176 6.296.395 12.78.182 18.001-.304 7.533.742 16.363.736 24.611-.012 8.279.194 16.697.182 24.06-.036 22.489-.839 43.243.176 70.341.663 17.74.9 30.094.365 48.119-.249 8.375.432 17.103 3.861 22.404 1.301 2.013 3.307 3.499 5.338 5.694 1.496 1.614 4.554 4.792 6.074 4.774 1.477-.019 2.39-1.42 3.867-1.468 1.277-.043 2.766 1.085 4.05 1.286 2.097.327 4.906-.091 7.733 0 4.81.157 9.68 0 14.725 0 2.7 0 5.618.018 8.099-.182 1.1-.091 2.225-.485 3.313-.552 4.737-.285 9.595.103 14.361.37 2.797.157 5.752-.243 8.652-.182 2.864.06 5.654-.249 8.47-.182 7.63.17 15.126.879 21.352.552.918-.049 1.854-.498 2.76-.552.949-.055 1.794.467 2.578.37 3.229-.4 6.421-2.099 9.205-3.306.809-.012.104 1.486 1.289 1.104 4.122-2.383 6.098-5.501 8.287-9.546l.006-.006Z" fill="#002D9A"/>
    <path d="M48.489 23.156c6.25-1.559 5.003 7.096.553 6.428-2.323-.351-3.192-5.391-.553-6.428Zm0 4.59c1.653-.187 2.815-.86 2.76-2.753-1.52-1.122-3.958 1.183-2.76 2.754Zm42.338-2.934c.14.903.742 1.346.553 2.571-.37 1.037-1.994.825-2.76 1.468-8.621.6-16.185.995-24.672.364-2.396-.619-3.892-3.087-4.05-5.325 10.628.382 20.55-1.05 30.93.922Zm-28.533 1.285c2.803 2.19 9.175.959 12.336 1.838 4.955-1.158 10.427.06 15.097-1.65-9.485-1.025-18.088-.703-27.433-.188Z" fill="#002D9A"/>
    <path d="M51.249 24.994c.054 1.892-1.113 2.565-2.76 2.753-1.198-1.57 1.24-3.875 2.76-2.753Zm38.481 1.291c-4.67 1.71-10.142.498-15.097 1.65-3.161-.88-9.533.352-12.336-1.838 9.345-.515 17.948-.837 27.433.188Z" fill="#fff"/>
    <path d="M96.717 48.689c.84.722 1.253 3.19 1.472 5.507.121 1.268.34 2.347-.919 2.754-.912-2.378-.614-4.846-1.47-7.163-.183-.855 1.1-.249.917-1.104v.006Zm-14.541.552c.955.334 1.733.843 1.843 2.02-.913-.195-1.144-1.068-2.025-1.286-.025-.328.225-.388.182-.734ZM80.7 50.709c2.663-.261 3.156 2.632 2.578 4.039-1.435.825-2.663 1.832-4.05 1.468-1.714-.45-2.71-3.59-2.206-5.325.395-1.371 3.55-2.347 3.684-.182H80.7Zm-1.654 1.65c-.249.557-.297 1.516.183 1.837 1.173.006 1.94-.394 2.207-1.286-.93-.34-1.338-.14-1.842-.734-.03.213-.292.2-.554.182h.006Zm37.745-2.748c-.48.995-2.006.94-2.76 1.65 1.684 1.989 1.429 5.494-1.842 4.96-.353-.327-.438-.909-.736-1.285.547-.491 1.374-.71 2.025-1.104.054-1.583-1.198-1.868-.918-3.675 1.258-1.316 3.082.188 4.231-.552v.006Zm-9.758.182c.395 2.395-1.174 4.312-1.472 6.61-1.641-.612-.924-2.959-.735-4.59-.493-.37-1.423-.298-1.654-.916.529-1.553 2.395-1.262 3.867-1.104h-.006Zm14.905-.183c2.231-.023 3.271 1.141 4.42 2.203 1.477-.25 1.568 1.261 2.024 2.39-.681-.486-.76-1.572-1.471-2.02-.973 1.188-.268 3.093-.553 3.857-.663.176-.256-.722-.365-1.104h-1.472c-.231.321.189 1.11-.182 1.65-2.219-.831-2.243-4.689-2.389-6.981l-.012.006Zm-27.978.735c1.995.37 2.439 5.483.736 6.247-.973-1.577-1.143-3.833-.736-6.247Zm14.907.182c.772.236 1.149 1.892.553 2.39-1.344-.086-1.253-1.675-.553-2.39Zm-76.952 1.279c.638.037 1.197.152 1.106.916-.529-.333-.578-.297-1.289-.182-.024-.327.225-.388.183-.734Zm60.758 5.514c-1.964-.461-1.259-4.003-.918-5.325 2.37.266 1.428 4.403.918 5.325Zm-72.177-5.15c1.545 1.65.584 4.786.918 6.981-2.182.285-4.371.946-6.256.552-1.113-1.722-2.049-5.15-.736-7.163 2.469.122 4.11-.43 6.074-.364v-.006Z" fill="#002D9A"/>
    <path d="M79.6 52.176c.504.595.911.4 1.841.734-.273.892-1.033 1.292-2.207 1.286-.48-.321-.431-1.28-.182-1.838.261.019.523.03.553-.182H79.6Z" fill="#fff"/>
    <path d="M107.95 53.098c.948.012 1.331 1.001.918 1.838-.991.121-1.35-1.128-.918-1.838Zm1.652.552c.31.23.942.534.553.916-.577.085-.59-.394-.553-.916Zm-75.846 2.196c-.565-.134-.669.188-1.106.182-.043-.383 1.112-.995 1.106-.182Zm-1.107.734c.054-.25.462-.152.735-.182.207.576.085.485-.182.915-.377-.048-.043-.812-.553-.733Zm48.972 1.655c-.115.394-1.13.17-1.289 0 .146-.685.894-.115 1.289 0Zm-9.393.735c-.82.145-1.107-.243-1.842-.183-.17-.224 1.757-.643 1.842.182Zm-14.73 10.285c.67-.176.152.825.736.734.03.4-.65.085-.918.182-.06-.425.03-.704.182-.916Zm-33.504 3.118c.243.066.291.321.553.37-.225.406-1.958.91-1.842 0 .583.03 1.112.006 1.289-.37Zm-2.947.551c.438 1.092 2.712.358 3.314 1.286-1.58 2.73-6.104.413-9.758 1.098-.31-.673-1.058-.904-1.107-1.838 2.225-.97 6.943.71 7.551-.552v.006Zm5.159 2.936h-1.471c-.025-.782 1.647-1.08 1.471 0Zm.914.734c0 .612-.602.624-.553 1.285-3.15.2-6.208.777-10.123.916-.347-.618-1.247-1.091-.736-2.02 3.757-.242 7.6-1.073 11.412-.181Zm94.264 7.914c-.231.862-1.642.383-2.025.37.353-.51 1.581-.345 2.025-.37Zm1.655.182c-.164.631-.742-.048-1.289.37.164-.582.742-.624 1.289-.37Zm1.481-.182c1.039.098 1.1.03 2.207 0v.734c-.542-.491-1.697-.273-2.207 0v-.734Zm4.045 0c.024.328-.225.389-.182.734-.529-.279-.578 0-1.289-.182.127-.546.735-.618 1.471-.552ZM71.49 97.354c.243.067.292.321.553.37-.182.418-.924.455-.918-.182.213.03.328-.042.37-.182l-.005-.006Zm-4.424.552c.937.115-.097.843-.182 1.104-.535-.255.328-.631.182-1.104ZM56.58 99.004c-.644-.589-1.003.218-1.47.37.023-.328-.226-.389-.183-.734.632.618 1.684-1.626 1.66.37l-.007-.006Zm1.47-.916c.334.315-.055.722-.554.734.08-.352.067-.789.553-.734Zm4.604.734c-.127-.364-1.094.115-.918-.552.353-.358 1.125-.194.918.552Zm39.58 6.798c-9.801 2.214-21.347 1.65-31.664 1.832-10.665.188-20.855 1.389-30.376 1.832-1.568-1.329-1.052-3.876-.735-6.059 1.288-.37 1.507.079 2.76.182 3.776.309 8.153-.2 12.518-.552 4.098-.328 8.27-.51 12.337-.734 5.55-.303 11.162-.788 16.385-.916 5.241-.127 11.29.4 15.832-.916 1.526-.442 2.833 3.536 2.943 5.325v.006Zm-4.967-2.753c-11.771.625-24.126.552-36.267 1.462-6.834.515-13.704 1.813-20.435.733-.024.759.322 1.153.183 2.02 4.018.146 7.423-.649 11.418-.916 15.491-1.031 33.111-.103 48.049-2.565-.4-1.456-2.28-.77-2.942-.734h-.006Zm-74.935.728c.383-.843 1.094-1.359 1.66-2.02h.37c-.407.94-1.258 1.437-2.024 2.02h-.006Zm-.001.182c.53.921.706 2.438 1.107 3.487-.888-.552-1.447-2.311-1.107-3.487Zm2.578 3.123c-.274.212-.45.528-.918.552.03-.212-.043-.327-.183-.37.347-.364.645-.315 1.107-.182h-.006Z" fill="#002D9A"/>
    <path d="M28.595 109.284c.328-.025.389.224.735.182-.17.321-.34.636-.924.552.323-.377-.133-.358.183-.734h.006Z" fill="#fff"/>
    <path d="M28.777 111.121c.316-.285.67.067 1.29-.182-.098.146-.195.297-.183.552-.237-.255-.87-.109-1.107-.37Zm78.796.382c.644.146.212.643 0 .916-.432-.048-.104-.807 0-.916Zm-8.1 8.079c-.669.376-.784 1.298-1.471 1.656-.164-.546.37-1.777 1.471-1.656Zm-8.287 7.163c.535.157.206.272.182.733-.328.025-.389-.224-.736-.182-.054-.424.535-.206.554-.551Zm-1.469 1.285c.383.164-.06 1.025-.553.916.14-.164.2-.412.183-.734.212.031.328-.042.37-.182Z" fill="#002D9A"/>
    <path d="M82.157 152.636c-3.168-.067-7.606-.474-10.676-.182 1.678-1.571 3.392-3.106 4.784-4.955 2.128 1.552 3.727 3.626 5.892 5.143v-.006Zm18.417.551c.821-.709 2.517.286 0 0Z" fill="#fff"/>
    <path d="M92.288 157.961c.766.024.529 1.043.37 1.649-.243-.067-.291-.321-.552-.37.334-.564-.165-.825.182-1.286v.007Zm-11.049 1.103c.644.346.26 1.225.182 1.656-.584-.036-.426-1.358-.183-1.656Zm-28.721.364c.68.285.395 2.196-.183 2.39 0-1.092-.225-1.535.183-2.39Zm2.76 0c.274.097.462.273.736.37-.7.843.51 1.401-.554 1.656.067-.91-.699-1.177-.182-2.02v-.006Zm-5.518.182c.297-.054.315.176.553.182-.14.995-.408.722-.371 1.838-.614-.097-.42-1.656-.183-2.02Zm-3.315.552c.383-.079.487.127.736.182-.11.443-.267.837-.182 1.468-.42-.316-.438-1.037-.554-1.656v.006Z" fill="#002D9A"/>
    <path d="M56.567 164.571c-.912-.072-1.544-.418-1.842-1.104-.584.886-1.642 1.99-2.943 1.104-1.076 1.268-2.493.516-3.496-.552-.614 0-.626.595-1.289.552-.267-.406-.985-.364-1.106-.916-.48.377-.62 1.098-.919 1.656-.674-.248-.997-.843-1.288-1.468 1.112-.297 1.319-1.498 1.66-2.571.924-.067 1.015.704 1.288 1.286.833-.213 1.034-1.05 1.66-1.468.724.315.864 1.219 1.107 2.02.577.085.59-.395.553-.916.578.521.778-.449 1.471-.37.694-.14.402.703.918.734.438-.601 1.1-.983 1.472-1.65 1.1.94 3.32 1.686 2.76 3.675l-.006-.012Zm-33.69-3.493c.68.406-.542 1.613.553 1.468-.566.752-.177 1.479-.183 2.571-1.052-.849-.358-3.008-.364-4.039h-.006Zm8.653 1.468c.177 0 .147.224.183.37.03.339.626.115.736.37.669-.128.255-1.341.37-2.02.426-.061.706.03.919.182-.122.188-.426.188-.371.552.14.17 1.185.752 1.106 0 .687.576.444 1.364 1.472 1.837-.189.243-.183.68-.371.916-.936-.473-1.91.025-2.578.37-1.088-.461-1.915-1.031-1.471-2.571l.006-.006Zm37.743.922c.073.442-.335.4-.183.915h-.736c-.109-.721.414-.812.919-.915Zm5.339.369c.352.346.462.019.918 0 .316.88-1.174.668-.918 0Zm-40.876 1.65c-.159.267-.274.582-.736.552-.08-.164-.164-.328-.371-.37.304-.776.492.291 1.107-.182Zm-8.466 3.851c.535.261.912.68 1.106 1.286-.359-.443-1.1-.491-1.107-1.286Zm104.203 35.28c-.596.103-.858-.127-1.289-.182.139-.425 1.434-.643 1.289.182Zm-3.131 0c.255-.34 1.562-.691 1.66.182-1.593-.055-2.815-.097-4.05 0-.462-.479 2.189-.934 2.396-.182h-.006Zm-6.627-.006c.997-.382 3.131-.176 3.684 0-.65.631-2.632-.006-3.684 0Zm5.519 3.675c.712-.158.657.449 1.107.552.097.406-.93 1.013 0 1.104-.559.582-.474.782-.553 1.656-1.016-.783.176-1.953-.554-3.306v-.006Zm-7.179.37c.674-.061.553.667.735 1.104.736.182.554-.552 1.289-.37.268.649.815 1.019.736 2.02.827.928 2.45.194 3.313-.37 1.302.121 1.028 1.449 1.107 2.389-1.721.722-5.186 1.347-5.709-.922-.912.352-2.584.589-2.396 1.468-.608-.194-.802-.788-1.106-1.286-.772.152-.949.892-1.289 1.468-.334.309-.93-.152-1.471-.182-.499-.982-1.362-2.329-.736-3.857.602.194 1.131.467 1.289 1.104 1.252-.225 1.331-1.614 2.76-1.65.061.431.292.691.183 1.286.936.072 1.282-.437 1.842-.734-.389-.285-.669-.679-.553-1.468h.006Zm-48.605 1.092c.299-.049.317.176.554.182.03.643-.049 1.176-.37 1.467-.9-.109.017-1.073-.183-1.655v.006Zm-4.42.182c.523.091.529.697.736 1.103-.177 0-.14.225-.183.37-.176-.309-.608-.576-.735 0-.493-.588.291-.515.182-1.467v-.006Z" fill="#002D9A"/>
    <path d="M73.864 210.301c.991.018.262.794.371 1.467 2.81-.345 3.478 3.403 2.025 5.143-7.667.025-15.358.019-23.195 0-1.344-.867-.632-3.778-1.471-5.143 1.289-1.061 2.711.146 4.785-.182.553-.121-.177-.394 0-.733.51 1.455 3.32.539 4.602.733.42-.182-.316-.921.553-.915.456.321.268.303 0 .733 3.91.692 7.722.377 12.154.552.274-.509-.103-.934.183-1.655h-.007Zm-19.699 3.487c-.145.042-.212.152-.182.37 0 .182-.146.218-.182.37 3.563.242 12.153.218 17.303.188 1.617-.012 3.338.249 4.232-.552-7.424.073-15.699-.249-21.17-.37v-.006Zm52.108-3.481c.298-.055.316.176.553.182-.419.994.402 1.134.554 2.019-.213-.03-.329.043-.371.182-.651-.206-.274-1.443-1.107-1.467.189-.243.183-.68.371-.916Zm-65.545 1.461c.146.097.298.194.553.182-.127.564-.127.352 0 .916-.444-.073-.4.334-.918.182.134-.418.164-.94.371-1.286l-.006.006Zm7.549 0c1.24.219.134 1.492 0 2.02-.553-.503.25-1.213 0-2.02Zm77.51.013c.62.521.444 1.364.918 1.655-.754.619-1.009-.819-.918-1.655Zm-79.166.903c1.076.874.499 2.299 1.289 3.488-.991-.552-1.24-2.584-1.289-3.488Zm60.204.194c.529.231.261.868.735 1.468-1.124-.079-.857-.849-.735-1.468Zm-4.973 1.098c-.098.146-.195.297-.183.552-.468-.024-.711-.267-.735-.734.328-.34.535.079.918.182Zm-52.84-.188c.626.54.808 1.522 1.66 1.838-.815.376-1.496-.952-1.66-1.838Z" fill="#002D9A"/>
    <path d="M75.344 214.158c-.894.795-2.615.54-4.232.552-5.15.03-13.747.054-17.303-.188.036-.152.182-.182.182-.37-.03-.212.043-.328.182-.37 5.478.121 13.747.449 21.17.37v.006Z" fill="#fff"/>
    <path d="M18.635 217.457c0-1.492-.772-1.631-.183-2.935.408.145-.036 1.134.736.916-.474.746.517 1.777-.553 2.019Zm5.709-.915c.492.309.602.994 1.289 1.103-.718.643-1.198-.509-1.29-1.103Z" fill="#002D9A"/>
    <path d="M128.367 218.021c1.161.201 3.32-.254 4.049.552-.34.243-3.885.443-4.049-.552Z" fill="#fff"/>
    <path d="M97.984 222.612c.146.698-.87.231-1.289.364.28-.273.809-.297 1.29-.364Zm-74.194 1.826c.382-.079.486.127.735.182-.067.242-.322.291-.365.552-.25-.122-.34-.394-.37-.734Zm-6.996 1.286c-.741.127-1.052-.176-1.653-.182.018-.54 1.568-.334 1.653.182Zm-3.499-.37c.188.121.188.424.553.37-.048.376-.815.042-.735.552-.56-.225.127-.704.182-.916v-.006Z" fill="#002D9A"/>
    <path d="M71.47 231.237c2.316 4.476-1.867 7.059-6.816 5.877-1.374-1.11-.633-3.748.735-4.222.049-.764-.243-.715 0-1.285 1.557-1.644 3.679-1.462 6.074-.364l.006-.006Zm42.163 5.149c-.444-.431.286-.491.371-.916-.748-.236-1.739-.224-2.207-.734.735-1.298.498-2.274 1.289-3.123 2.328-2.499 7.119-.128 6.256 3.305-.474 1.886-3.314 2.214-5.709 1.468Z" fill="#fff"/>
    <path d="M100.744 230.691c.268.158.584.273.554.734-.219-.213-.651-.206-1.107-.182.055-.728.639.206.553-.552Zm-2.024.364c.456-.024.887-.031 1.106.182 0 .279-1.362.4-1.106-.182Z" fill="#002D9A"/>
    <path d="M109.767 233.444c.219.486-.352 1.08 0 1.104-2.249.328-4.925.752-6.445.734-8.779-.103-19.322-.176-29.274-.188.09-.582-.335-.649-.183-1.286.304-.485.785.425 1.472.552 1.732.322 4-.279 6.073-.182 9.613.437 19.803-.339 28.351-.734h.006Zm-76.404.358c.474.14.639.589.554 1.286-.584-.03-.499-.728-.554-1.286Z" fill="#fff"/>
    <path d="M46.617 235.828c-.018.467-.614.364-1.106.364-.176-.661.723-.255 1.106-.364Zm-12.703 2.753c.554.431.231 1.68.183 2.202-.712-.049-.353-1.856-.183-2.202Zm88.555 9.377c.425-.055.206.533.553.552-.286.582-1.107-.231-.553-.552Zm-52.289 9.176c.942-.158 3.106-.164 4.231.182 6.87 2.117 11.126 11.62 10.123 20.202-.413 3.542-2.505 6.841-5.156 8.261-7.454 3.996-18.337 1.564-21.723-5.513-1.842-3.852-1.648-10.171.553-14.69 1.174-2.407 7.156-7.629 11.965-8.448l.007.006Zm-11.236 11.384c-1.107 4.67-.985 7.763.365 11.572 2.292 2.171 3.97 4.366 6.81 5.325 3.86 1.31 9.338.206 11.964-1.098 6.342-3.16 5.551-14.198 2.213-20.202-.984-1.771-4.298-5.137-6.991-5.325-1.387-.097-2.511 1.043-3.496 0-.11.012-.22.024-.183.182-4.238.928-9.716 5.488-10.682 9.552v-.006Z" fill="#002D9A"/>
    <path d="M69.63 258.972c-.037-.158.072-.17.182-.182.985 1.043 2.11-.097 3.496 0 2.693.188 6.013 3.56 6.992 5.325 3.344 6.004 4.128 17.042-2.213 20.202-2.627 1.31-8.105 2.408-11.966 1.098-2.839-.965-4.517-3.154-6.81-5.325-1.349-3.809-1.47-6.902-.364-11.572.96-4.064 6.445-8.619 10.682-9.553v.007Zm4.049 2.571c-.65-.321-1.29-.716-2.025-.734-2.335-.06-7.436 2.669-8.652 4.221-1.8 2.305-1.866 5.61-2.213 8.631 1.076 3.948 2.864 6.083 6.627 7.896 3.648 1.765 7.54.631 10.865-.364 4.153-4.057 4.657-12.293.924-16.896-1.495-1.844-3.556-4.319-6.256-4.41-.353 1.037 1.344.971.736 1.656h-.006Z" fill="#9B9B9B"/>
    <path d="M72.941 259.887c2.7.085 4.76 2.566 6.256 4.41 3.733 4.603 3.235 12.839-.924 16.896-3.32.995-7.21 2.129-10.865.364-3.763-1.819-5.55-3.954-6.627-7.896.347-3.02.414-6.326 2.213-8.631 1.216-1.558 6.317-4.281 8.652-4.221.736.019 1.374.419 2.025.734.614-.679-1.089-.618-.736-1.656h.006Zm-1.289 2.942c-1.283.097-2.633 1.061-3.496 1.468-.68.315-1.44.327-1.842.552-2.396 1.346-3.751 5.143-3.685 7.532.104 3.633 1.928 5.507 4.232 6.793.772.43 1.63 1.128 2.207 1.286 2.827.77 7.6-.073 9.023-1.65.936-1.043 1.75-5.095 2.024-6.981.59-4.039-3.258-7.229-5.155-9.552-.432 1.692-2.201.467-3.314.552h.006Z" fill="#002D9A"/>
    <path d="M74.965 262.277c1.897 2.323 5.746 5.507 5.156 9.552-.273 1.886-1.088 5.938-2.024 6.981-1.423 1.577-6.196 2.42-9.023 1.65-.578-.158-1.441-.856-2.207-1.286-2.31-1.286-4.129-3.16-4.232-6.793-.067-2.383 1.283-6.186 3.685-7.533.4-.224 1.16-.23 1.842-.551.87-.407 2.213-1.371 3.496-1.468 1.112-.085 2.882 1.14 3.313-.552h-.006Z" fill="#fff"/>
    <path d="M129.462 293.687c-1.185.388-.48-1.116-1.289-1.104-2.784 1.207-5.976 2.905-9.205 3.306-.784.097-1.629-.425-2.578-.37-.912.054-1.842.503-2.76.552-6.226.321-13.728-.388-21.353-.552-2.815-.061-5.605.242-8.469.182-2.9-.061-5.855.339-8.652.182-4.766-.267-9.624-.655-14.36-.37-1.089.066-2.214.461-3.314.552-2.48.2-5.4.182-8.099.182-5.052 0-9.922.157-14.725 0-2.821-.091-5.636.327-7.734 0-1.289-.201-2.772-1.329-4.05-1.286-1.476.048-2.389 1.455-3.866 1.467-1.52.019-4.578-3.159-6.074-4.773-2.03-2.195-4.037-3.681-5.338-5.695-3.435-5.306-4.11-14.028-3.86-22.403.534-18.019.303-30.379-.365-48.119-1.016-27.098-.213-47.852-.177-70.341.012-7.363-.188-15.781-.182-24.06.012-8.242-1.04-17.078-.736-24.611.213-5.222 0-11.7-.182-18-.177-6.405.596-12.64 0-18.001-.122-1.068-.456-1.565-.554-2.39-.668-5.846.639-10.431.371-15.975-.255-5.234-.456-10.244-.364-14.877.2-10.238 6.03-18.243 14.36-20.748 3.271-.983 7.594-1.128 11.783-1.286 27.184-1.013 57.364-2.371 83.216-3.481 1.94-.085 6.135-.437 8.652 0 11.26 1.965 17.991 10.595 18.775 22.962.778 12.336-.353 25.812.365 38.748.255 4.61.51 9.237.364 13.956-.145 4.621-.516 9.243-.553 13.773-.146 19.105-.085 32.187.359 51.788.62 27.226.213 57.017 1.459 84.478.395 8.764.359 18.262.736 27.917.352 9.037.893 18.959-1.478 25.164-.468 1.231-1.149 2.395-1.842 3.675-2.189 4.045-4.165 7.163-8.287 9.546l.006.012ZM49.037 29.585c4.45.667 5.697-7.988-.553-6.43-2.64 1.038-1.77 6.078.553 6.43Zm10.865-5.695c.158 2.238 1.654 4.706 4.049 5.325 8.488.63 16.051.236 24.672-.364.766-.643 2.39-.43 2.76-1.468.19-1.225-.413-1.668-.553-2.572-10.378-1.97-20.307-.54-30.928-.921Zm64.988 21.312c-5.01.054-11.667.157-16.756 0-2.207-.073-4.359.618-5.709-.182.067.97-1.119.503-1.472.552-2.06.29-4.043.358-6.073.364-8.227.03-16.459.133-24.484.364-7.977.23-16.082 1.303-22.83 1.467-2.657.067-5.333-.176-7.916 0-6.92.467-13.376 1.765-20.07 1.832-3.083.03-6.05-.825-9.205.182-.146-.467-.53-.698-1.29-.552.384 52.898 1.43 109.544 2.007 162.163-1.015 3.191-.65 7.327-.736 11.02-.036 1.468-.176 2.984-.182 4.41 0 1.485.413 2.85.365 4.221-.037 1.073-.444 2.086-.371 3.123.055.807.45 1.656.553 2.572.408 3.778-.346 8.375 0 11.753 13.808-.072 26.308.231 36.455-.363 3.338-.195 6.603.661 9.941.37 2.81-.249 5.655-.607 8.287-.552 2.304.048 4.341-.546 6.627-.734 4.33-.352 8.767-.006 13.072 0 13.631.024 25.013 1.134 37.009-.546 4.681 1.031 8.451-.473 12.153-.734.931-3.869.602-7.963.371-12.306-1.368-25.569-1.556-55.421-2.201-83.932-.425-18.844-.504-37.281-.912-56.38-.164-7.793 1.04-18.491.189-26.26-.529-4.834-.359-10.73-.553-15.793-.049-1.292-.092-3.44-2.025-3.306-.736.995.395 2.948-.553 4.221.754 1.031.328 3.554.553 5.143-5.016.613-9.929 1.286-15.279.364-1.24 1.122-3.216 1.135-4.785 1.286-7.284.698-13.558 1.134-20.434 1.286-14.69.321-32.692-.14-47.314.546-8.902-1.456-20.472 1.54-30.747-.37-.06-3.045-.346-6.66-.182-9.552 5.593-.237 9.308.406 15.279.188 4.681-.176 9.302-1.395 13.807-1.65 11.248-.637 18.89-.807 26.326-1.28 7.169-.46 17.115-.588 23.937-.546 4.639.03 9.04-.024 13.808-.364 3.891-.278 7.715.158 11.782.189 2.159.012 4.378-.346 6.628-.364 2.304-.025 4.785.351 6.998-.552.2-2.784-2.749-1.298-4.05-1.286l-.018-.012Zm-29.092 4.59c.857 2.318.565 4.786 1.471 7.164 1.265-.407 1.04-1.486.918-2.754-.219-2.323-.632-4.785-1.471-5.507.182.855-1.1.249-.918 1.104v-.006Zm-13.808.183c.882.218 1.113 1.091 2.025 1.286-.11-1.177-.888-1.686-1.843-2.02.043.346-.206.406-.182.734Zm-4.967.916c-.505 1.734.492 4.876 2.207 5.325 1.392.364 2.614-.643 4.05-1.468.577-1.407.084-4.3-2.579-4.04-.127-2.164-3.29-1.182-3.684.183h.006Zm35.531-.728c-.28 1.807.973 2.086.918 3.675-.651.388-1.477.607-2.025 1.104.298.376.383.958.736 1.286 3.265.54 3.526-2.966 1.842-4.961.76-.716 2.286-.661 2.761-1.65-1.156.74-2.974-.764-4.232.552v-.006Zm-9.387.734c.237.624 1.167.552 1.653.916-.188 1.631-.906 3.978.736 4.59.304-2.298 1.873-4.215 1.471-6.61-1.471-.158-3.338-.449-3.867 1.104h.007Zm21.17 5.695c.371-.546-.049-1.329.182-1.65h1.472c.109.376-.298 1.274.364 1.104.286-.764-.419-2.669.554-3.858.717.45.796 1.535 1.471 2.02-.456-1.122-.547-2.638-2.025-2.39-1.143-1.06-2.188-2.225-4.42-2.201.152 2.293.177 6.15 2.39 6.98l.012-.005Zm-8.469-2.76c.656.328 1.884.079 2.207.734.243 1.164.668 2.147 1.842 2.39.626-1.668-1.423-4.094 0-6.247-.657-.285-.11.624-.554.552-.079-.352-.528-.334-.37-.916.352-.085.79.564.735-.182-2.134-.795-4.402.673-3.867 3.675l.007-.006Zm-21.17 2.754c1.702-.765 1.258-5.871-.736-6.247-.408 2.414-.238 4.664.735 6.247Zm14.725-3.67c.602-.497.219-2.153-.554-2.39-.699.716-.79 2.305.554 2.39Zm-77.69-.376c.712-.115.76-.151 1.29.182.09-.764-.469-.88-1.107-.916.042.346-.207.407-.183.734Zm1.472.916c-1.976-1.795-5.4-.418-7.545-.734.054-.376.498-.358.553-.734-.523-.151-.474.261-.918.182-.177.34.553.613 0 .734-.566.14-.353-.503-.918-.37-.256 1.025 1.064 2.954.735 4.04 0-.188-.322-.231-.37 0 .51.285-.572.515-.183 1.285.322.012.572-.042.736-.182.103 1.795 2.596 1.207 3.867 1.838.407-.267-.231-.449.182-.552.76.51.42-.164.924-.182.286.049.128.4 0 .552.82-.212.93-1.031 1.471-.734 0 .267-.778.582 0 .552.298-.94 1.168-.297 1.654 0 .006-.934-.352-1.073-.182-1.656-.924-.133.243.68-.371.734-.663-.576-.9-2.838 0-3.305-.134-.249-.87-1.389 0-1.468 0 .188.322.23.37 0h-.005Zm55.6-1.462c-1.489 1.226-1.015 4.361.365 5.507.821-.024 1.423-2.062 1.107-2.02-1.246.34.523-3.347-1.471-3.486Zm2.943 0c-.334 1.323-1.045 4.864.918 5.325.505-.928 1.454-5.058-.918-5.325Zm-77.324.54c-1.313 2.014-.377 5.434.736 7.163 1.884.4 4.073-.267 6.256-.552-.34-2.196.626-5.331-.918-6.98-1.964-.067-3.606.485-6.074.363v.006Zm94.445 2.402c.414-.83.031-1.82-.918-1.838-.431.704-.066 1.96.918 1.838Zm1.289-.37c.39-.382-.243-.691-.553-.916-.036.528-.024 1 .553.916Zm-77.507 1.462c.432 0 .542-.316 1.107-.182 0-.807-1.143-.2-1.107.182Zm.554 1.285c.267-.43.389-.34.182-.915-.273.03-.68-.067-.736.181.511-.078.177.686.554.734Zm47.131.922c.159.17 1.174.395 1.29 0-.396-.115-1.144-.685-1.29 0Zm-9.946.552c.735-.06 1.021.328 1.842.182-.085-.83-2.013-.406-1.842-.182Zm52.634 189.723c-.347-.019-.128-.607-.554-.552-.553.321.262 1.134.554.552Zm-64.813 17.072c-2.206 4.519-2.401 10.838-.553 14.69 3.387 7.071 14.27 9.509 21.724 5.513 2.65-1.42 4.742-4.719 5.156-8.261 1.003-8.582-3.253-18.085-10.123-20.202-1.131-.346-3.296-.346-4.232-.182-4.815.819-10.792 6.035-11.965 8.448l-.007-.006Z" fill="#fff"/>
    <path d="M32.832 53.456c-.87.085-.133 1.22 0 1.468-.9.467-.663 2.729 0 3.305.614-.06-.553-.873.371-.734-.164.583.195.722.182 1.656-.486-.297-1.355-.94-1.653 0-.779.03 0-.285 0-.552-.541-.297-.657.528-1.472.734.128-.146.286-.503 0-.552-.504.018-.158.691-.924.182-.413.103.225.285-.182.552-1.27-.63-3.764-.043-3.867-1.838-.164.14-.413.2-.736.182-.383-.77.694-1 .183-1.285.048-.231.365-.188.37 0 .329-1.086-.99-3.02-.735-4.04.565-.14.353.504.918.37.553-.121-.176-.394 0-.734.444.073.401-.333.918-.182-.055.376-.498.358-.553.734 2.152.316 5.575-1.061 7.545.734-.049.23-.365.188-.37 0h.005Zm57.442 2.026c.317-.043-.28 1.995-1.106 2.02-1.38-1.153-1.855-4.282-.365-5.508 1.994.146.231 3.828 1.471 3.488ZM71.312 68.521c.748-.109.79 1.723.183 1.838.504.17.54.807.735 1.286.219-.455.669-.68 1.471-.552.754.746.785 1.643.183 2.571-2.444.116-4.317-.345-5.52-1.467-.42 1.213-4.032 2.492-5.157.552-.839 1.091-2.82 2.59-4.42 1.285-1.246 2.711-3.648.134-4.785-1.104-.255.546-.687.904-.918 1.468-.936-.133-1.07-.752-1.842-.182-.06-.37.037-.576.371-.552-.596-.176-1.429-2.074-1.289-2.941.803.424.778 1.674 1.107 2.571 1.125-.958.298-3.863 2.213-4.039 1.41.983 1.307 3.47 3.131 4.04.803-.425-.043-2.487.918-2.754 1.18.11.949 1.625 1.842 2.02 1.672-.11 1.836-1.717 2.76-2.572 1.55-.079 1.344 1.595 2.578 1.838.955-.455 1.837-.989 2.578-1.65-.012-.788-.936-.782-.553-1.468.602-.03.882.752.553 1.104 1.612.352 2.384 1.54 4.05 1.838.395-.977-.566-2.038-.183-3.124l-.006-.006Z" fill="#002D9A"/>
    <path d="M130.038 80.833c-9.692.607-20.952 1.48-31.482 1.832-13.102.436-24.885 1.4-37.374 1.65-16.701.327-33.33 2.225-50.262 3.117.079-8.752-.28-17.546-.365-24.976 8.858 1.207 20.696.158 30.564 0 16.774-.26 34.15.14 50.445-.175 6.214-.122 12.622-.728 17.857-1.286 1.933-.206 3.842-.837 5.709-.916 1.927-.085 4.237.279 6.444.182 2.262-.097 4.354-.4 6.263-.182.395-.4.571-1.019 1.106-1.286.943 7.157 1.204 13.35 1.101 22.04h-.006Zm-58.544-9.188c-1.666-.297-2.438-1.486-4.05-1.838.329-.352.05-1.128-.553-1.104-.383.686.542.68.554 1.468-.742.667-1.624 1.195-2.578 1.65-1.234-.237-1.022-1.917-2.578-1.838-.924.85-1.094 2.462-2.76 2.572-.888-.4-.663-1.911-1.843-2.02-.96.267-.121 2.329-.918 2.753-1.824-.57-1.72-3.062-3.13-4.039-1.91.176-1.083 3.081-2.214 4.04-.328-.898-.304-2.148-1.106-2.572-.14.867.693 2.76 1.288 2.941-.328-.024-.431.182-.37.552.772-.564.9.055 1.842.182.23-.564.669-.922.918-1.468 1.137 1.238 3.538 3.815 4.785 1.104 1.599 1.304 3.575-.194 4.42-1.285 1.125 1.946 4.736.667 5.156-.552 1.204 1.122 3.076 1.582 5.52 1.467.602-.928.572-1.825-.182-2.571-.809-.128-1.253.097-1.471.552-.195-.48-.231-1.116-.736-1.286.608-.115.565-1.947-.183-1.838-.377 1.086.584 2.147.183 3.124l.006.006ZM57.316 70.17c.267-.103.954.212.918-.182-.584.091-.067-.91-.736-.734-.152.213-.243.491-.182.916Zm-42.712-.558c-.7 3.597 4.736 1.492 8.47 2.208.729.14 1.507.515 2.206.37.286-1.323-.468-1.614-1.106-2.02.164-.322.815-.303.37-.734-3.343.776-6.158-.382-9.94.182v-.006Zm8.099 3.123c-.116.91 1.617.407 1.842 0-.262-.042-.31-.303-.554-.37-.176.377-.705.395-1.288.37Zm-9.205.734c.048.934.796 1.165 1.106 1.838 3.654-.691 8.178 1.631 9.758-1.098-.602-.928-2.875-.194-3.313-1.286-.602 1.262-5.32-.424-7.551.552v-.006Zm11.23 2.39h1.47c.17-1.08-1.501-.782-1.47 0Zm-9.017.916c-.505.928.389 1.407.735 2.02 3.916-.14 6.974-.722 10.123-.917-.048-.66.554-.673.554-1.285-3.819-.892-7.655-.06-11.412.182Z" fill="#DDD"/>
    <path d="M128.934 46.487c-2.213.904-4.687.528-6.998.552-2.249.025-4.468.383-6.627.364-4.067-.024-7.891-.46-11.783-.188-4.766.34-9.168.394-13.807.364-6.822-.042-16.769.091-23.937.546-7.442.48-15.078.649-26.326 1.28-4.505.255-9.126 1.474-13.807 1.65-5.977.224-9.686-.425-15.28-.189-.163 2.893.122 6.508.183 9.553 10.275 1.91 21.845-1.08 30.746.37 14.622-.686 32.631-.225 47.314-.546 6.877-.152 13.151-.589 20.435-1.286 1.569-.152 3.545-.164 4.785-1.286 5.35.922 10.263.249 15.279-.364-.225-1.583.206-4.112-.554-5.143.949-1.28-.182-3.232.554-4.22 1.933-.134 1.976 2.013 2.024 3.304.189 5.065.019 10.96.554 15.794.851 7.769-.353 18.467-.189 26.26.408 19.105.487 37.536.912 56.38.639 28.505.833 58.363 2.201 83.932.231 4.343.566 8.437-.371 12.306-3.702.261-7.466 1.759-12.154.734-11.989 1.68-23.37.57-37.008.546-4.305-.006-8.743-.352-13.072 0-2.286.188-4.323.782-6.627.733-2.633-.054-5.478.304-8.287.552-3.338.291-6.603-.564-9.94-.37-10.142.595-22.642.292-36.456.364-.347-3.378.407-7.975 0-11.753-.097-.916-.499-1.765-.553-2.572-.073-1.037.328-2.05.37-3.123.05-1.377-.37-2.742-.364-4.222 0-1.419.152-2.941.182-4.409.091-3.693-.28-7.83.736-11.02-.572-52.619-1.617-109.271-2.007-162.163.76-.146 1.144.079 1.29.552 3.155-1.007 6.122-.152 9.204-.182 6.694-.073 13.151-1.365 20.07-1.832 2.59-.176 5.26.067 7.916 0 6.75-.164 14.854-1.231 22.83-1.468 8.032-.236 16.258-.333 24.484-.364 2.031-.006 4.02-.072 6.074-.363.353-.049 1.538.418 1.472-.552 1.349.8 3.496.115 5.709.182 5.083.163 11.746.06 16.756 0 1.301-.012 4.25-1.498 4.049 1.285l.018.012Zm-15.473 59.321c2.529-1.765 3.235-5.349 6.262-6.61 1.903-4.04 4.895-6.993 6.998-10.832.487-.455-.389-1.329.554-1.468 4.705 1.11-2.426 7.357-3.132 8.448-1.623 5.234-7.004 8.321-9.575 13.222-.195.521.304 1.261 0 1.286-.919-.14-1.478 1.552-2.578 1.837-6.627 8.139-14.489 15.06-22.466 21.852-3.258 4.585-7.995 7.697-11.418 12.118 2.432 2.347 5.04 4.524 7.545 6.799 3.66 0 8.093-.14 11.23.37 1.283-.868 6.402-.928 7.545.37-.954.843-1.593-1.135-2.024.182 1.027.345 1.805.497 2.578 0 .972 1.413 2.772 2.298 3.495 4.221.773 2.044.152 4.518.365 6.247-1.185.758-2.486 1.795-4.231 2.571-1.739.77-3.8 1.031-5.71 1.65 5.12 5.664 10.938 10.638 15.097 17.267 5.819 4.603 10.968 9.867 16.385 14.877-.152 1.013 1.758 2.032.554 3.487-4.828-.255-10.61.249-14.726.182-.243.461.857.449.183.734-8.056-.685-20.526.061-32.036.364 2.767 1.589 7.971 2.972 5.521 7.532.59-.066 2.14.534 1.471 1.656-.474-.946-1.252-.455-1.66-1.468-.966 1.802-1.228 3.439-2.76 4.41.523.497.42 1.813-.37 2.019-.682-.655.887-.728 0-1.104-.42-.157-1.57.51-1.107 1.656 5.441-.406 9.843.073 14.725-.182 1.642-.085 3.32-.024 4.974-.182 1.179-.115 2.195-.637 3.313-.734 1.186-.103 2.42.249 3.685.182 1.708-.085 3.38-.546 5.156-.552 4.249-.018 6.9.019 10.311.37.681-1.589 3.125-.661 4.785-1.103-.492-9.747-.468-19.202-.918-29.015-.395-8.746-.833-17.825-.736-26.631.201-18.134-.729-36.753-.729-53.444 0-8.509-.833-16.812 0-25.163-6.202-.249-13.917 1.049-20.988 1.467-4.682.28-8.956-.212-12.701.552-11.899.128-22.843.631-33.878 1.098-6.128.26-12.105.831-18.045 1.098-11.375.515-22.368.91-32.588 2.383 2.675 2.475 6.517 3.779 7.18 8.267 18.07.151 35.464-3.372 53.206-3.851 13.351-.358 27.542-.758 41.422-1.098.152 2.292-.176 3.615-.924 5.325.316.073.474-.273.553 0-1.052 2.341.937 5.016.183 7.344l.024-.006Zm15.473-47.015c-.535.267-.711.886-1.106 1.286-1.909-.218-4.001.09-6.262.182-2.207.09-4.518-.267-6.445-.182-1.861.079-3.77.716-5.709.916-5.241.552-11.65 1.164-17.857 1.286-16.294.321-33.67-.085-50.445.175-9.868.152-21.706 1.201-30.564 0 .085 7.43.444 16.224.365 24.976 16.932-.892 33.561-2.79 50.263-3.118 12.488-.242 24.27-1.207 37.373-1.65 10.53-.351 21.79-1.224 31.482-1.83.103-8.692-.158-14.884-1.101-22.04h.006ZM20.657 198.171c4.973-3.803 9.527-8.212 14.732-12.306 2.541-2.001 5.174-3.991 7.733-6.059 1.052-.855 1.727-2.074 2.76-2.935 1.891-1.583 4.451-2.553 5.71-4.955-2.159-.085-3.38.364-5.527.552-5.587.491-12.5-.243-15.467 0 .462-.789-1.356-.667-2.025-.916-3.271-1.983-5.058-7.405-4.967-11.02 1.1-.612 1.878-1.553 2.578-2.571 1.398-1.104 3.447-1.511 3.496-2.572.425.049.425.491.182.734 8.47-3.372 21.833-2.675 31.3-3.117 2.456-.116 5.41.078 6.809-.364 2.687-.856 4.475-5.174 6.627-6.429-6.214-5.883-13.358-10.62-19.881-16.163-6.518-5.537-13.613-10.426-20.252-15.799-4.105.806-9.862-.043-13.255 1.467-1.143-.776-.577-1.952-.918-3.305-.2-.794-.906-1.456-1.106-2.39-.736-3.469-.17-7.672-.919-11.201-2.06-2.657-4.006-5.428-7.362-6.8.687 33.995 1.544 77.413 1.641 112.214 3.052-1.583 5.466-4.045 8.105-6.059l.006-.006ZM86.582 95.886c-10.804-.455-21.505.758-32.035 1.65-11.23.952-22.71 3.014-34.243 2.565-.073 4.124.231 9.455 2.025 12.858 6.627-1.074 12.993-.54 18.963-.916 3.095-.194 6.117-.891 9.205-1.098 5.588-.382 11.248-.576 16.939-.915 7.624-.455 13.93-.995 20.988-1.098 3.119-.049 6.147.085 9.205-.182 4.25-.37 9.326-.382 12.889-1.098.949.37.219 1.437 1.107 1.656-.201-.94.286-1.862.371-3.124.219-3.42-1.192-7.963-.365-11.02-7.88.498-17.073 1.068-25.037.734l-.012-.012Zm17.674 14.877c-17.382.74-33.58.94-50.998 2.566-4.816.449-9.795.74-14.915.916 12.38 10.243 25.36 19.88 38.11 29.754 2.425-2.796 5.107-5.094 7.733-7.714 1.934-1.929 3.563-4.119 5.527-5.877 4.055-3.639 8.165-7.133 12.154-10.832 2.438-3.445 6.08-5.689 8.469-9.183-2.11.073-4.426.298-6.074.364l-.006.006Zm-27.986 36.73c-1.398 1.849-3.113 3.384-4.785 4.955 3.07-.286 7.515.115 10.677.181-2.165-1.516-3.764-3.59-5.892-5.143v.007Zm24.302 5.694c.82-.709 2.517.286 0 0Zm-75.118 9.541c-.407 2.08 1.52 5.682 3.314 6.61 1.094.57 4.012.843 6.256.922 10.536.364 16.823-1.182 27.986-1.831 10.463-.613 19.73-1.286 29.275-2.02 3.952-.303 9.071-1.098 12.153-2.384 1.028-.43 2.445-1.71 2.578-2.201.529-1.971-.881-4.446-2.024-5.143-.961-.588-2.967-.964-4.232-1.104-6.566-.71-13.358-.619-18.41-.552-5.624.073-12.251-.807-17.674-.37-12.294.983-24.472-.097-36.085 4.221-.857 1.353-2.772 2.044-3.13 3.858l-.007-.006Zm98.306 34.727c-4.134-4.069-8.949-7.441-12.518-11.942-4.84-6.095-10.135-11.814-15.644-17.084-.42-.091-1.246.303-2.024.37-8.798.697-21.384 1.413-32.036 2.201-2.048.152-4.377-.03-5.709.364-2.122.631-3.41 3.354-4.602 4.591-1.399.619-2.511 1.638-3.685 2.572-1.185.946-2.018 2.225-3.13 3.123-1.186.958-2.518 1.729-3.685 2.754-3.49 3.081-7.04 5.907-10.494 8.812-4.128 3.469-8.44 6.962-12.336 10.28-.42.358-1.514.443-1.29 1.286 36.657-1.122 73.975-2.699 110.832-3.294-.851-1.595-2.402-2.783-3.685-4.039l.006.006Zm-98.312 9.716c-.687.194-.292-.691-.918-.552-2.092.655-3.496-.552-5.156.552-2.256-.564-4.596-.443-6.998-.188.2 2.584.517 5.537-.553 7.163.486 2.311.158 4.282-.183 6.611 4.238 1.334 9.929.521 13.808.188 7.618-.661 15.796-.783 23.748-.916 11.041-.188 21.499.03 32.035-.364 2-3.269 5.673-4.87 6.816-9-1.289-3.057-5.466-3.245-7.18-5.877-3.94.43-7.424.612-10.677.364-1.75 1.103-5.222-.522-6.445.915-.456-.946-2.328-.321-3.866-.552-.03.273.067.68-.183.734-.219-.273-.158-.818-.735-.734-3.776.031-7.065.934-10.13.182a4.693 4.693 0 0 0-.735.734c-.468-.794-1.1-.376-2.025-.552-.529.176-.122.607-.37.734-.402.031-.086-.655-.183-.916-2.019.892-5.07-.533-6.998.916.03-.4-.152-.582-.553-.552-3.922.116-7.448.789-10.677.364-.492 0-.401.582-.918.552.024-.218.328-.418 0-.552-.31.601-1.362.231-.918.734l-.006.012Zm106.964 11.402c-.729-.806-2.888-.352-4.049-.552.164.995 3.709.789 4.049.552Zm-50.08 4.215c0-.364-.505-.23-.371-.733-12.67.473-23.937.636-34.796.363-10.196-.254-20.227 1.874-31.3 1.098-.589-.164-.382.479-.735.552-.377-.752-2.2-.443-3.13-1.104-.226 2.778.2 8.819-.183 12.124 1.44 3.487.194 7.217.553 11.936 3.265.436 4.323-.37 7.551-.364-2.353-1.977-5.648-4.076-5.891-7.897-.152-2.353 1.167-4.342 1.289-6.98 2.158-2.542 5.004-5.131 9.387-4.41 3.897-3.147 8.184 4.47 10.494 5.877 10.689-.442 17.565-2.001 27.433-1.467 1.386-3.961 10.196-5.016 10.865.37 6.754-.558 14.141.382 21.54 0 .104-.328.098-.765.372-.916-.14.752.596.631 1.106.734.292-.722-.796-.067-.735-.552 2.377-.037 4.085.176 6.809.552.748-.334.122-.953.736-1.286.644.17 1.149 1.201 1.842.734.286-.558-1.125-.31-.371-.734.918-.679.608.631 1.107.552 1.653-.225 3.824-.146 4.973-.364 3.539-5.665 11.88-1.48 10.312 5.877-1.818 3.42-8.026 2.808-10.312.364-6.293.721-10.628-.352-16.568-.37-1.307 0-2.736.485-4.049.552-4.73.242-9.655.06-15.279-.188-.134-.292-.9.042-.735-.552-1.417.976-2.505 2.765-4.603 3.123-1.398.237-4.408.218-5.71-.552-.796-.473-1.027-1.753-1.841-2.019-1.307-.437-3.977.63-5.156.733-.766.067-1.465-.242-2.025-.181-5.697.588-12.312 1.655-18.592.545 1.842 6.435-5.132 5.95-7.916 8.631 4.104.206 6.785-.352 10.311-.364 1.417 0 2.87.206 4.232.182 3.259-.049 6.469-.625 9.576-.364 7.32.612 15.017-1.061 21.906-1.098 11.649-.061 24.307.764 35.902.37 7.867-.267 15.467-.879 23.383-1.286-1.149-7.751-.559-16.072-1.283-22.955-12.792-1.413-25.134.709-37.373.545-.377.049-.17.686-.553.734-.474-.018-.195-.788-.918-.552-3.606-.188-6.901.031-11.047.364-.578-.054.468.534-.183.552v-.182l-.024.006Zm-49.71 10.098c-.273-.03-.68.067-.735-.182-.596-1.425-1.672-2.371-3.314-2.753.42.055.693-.042.736-.37-.76-.946-2.846-2.559-4.05-.916.718.504 1.83.625 2.943.734v.734c3.301 2.026 5.38 8.624 2.39 11.572-1.715 1.692-6.36 2.826-9.023 2.019-3.12-.952-5.059-4.281-4.967-7.714 1.1-3.494 3.702-5.489 7.18-6.611-.073.443.334.4.182.916-.741-.067-1.35 0-1.47.552 1.555-.158 2.845-.588 3.683-1.468-.966-.412-1.854.752-2.206-.552-.767.279-.9.479-1.843.182.177.728-.535.57-.918.734.262-.267.14-.582-.37-.552-.019.503.303.37 0 .734-3.047-.898-4.822 4.379-5.156 7.715-.487 4.815 3.726 6.07 6.073 8.266 1.143.188 1.52.024 2.76 0-.054-.655-.358-.958.554-.916-.103.376-.553.358-.182.734.644.03.608-.619 1.106-.734-.055.752.255-.03.736.182 2.413-2.602 9.053-1.243 7.916-6.793-.705-.151-.225-.048-.736-.551.864-1.062-1.55-3.033-1.289-4.962Zm32.771-1.279c-.243.57.049.521 0 1.285-1.368.48-2.11 3.118-.736 4.222 4.943 1.182 9.133-1.401 6.816-5.877-2.395-1.098-4.517-1.274-6.074.364l-.006.006Zm53.941 3.311c.864-3.433-3.927-5.804-6.256-3.305-.79.849-.553 1.825-1.289 3.123.468.51 1.465.498 2.207.734-.079.425-.815.491-.371.916 2.396.746 5.235.418 5.709-1.468Zm-101.255 2.923c.188 1.013 1.429 3.16 2.207 3.676 2.645 1.728 7.053.024 9.387-1.286 1.296-3.148.53-8.4-2.942-8.63-1.915-.128-3.338 1.443-5.338.182-2.013.976-3.794 3.475-3.314 6.058Zm63.329-3.663c-2.074-.097-4.341.504-6.074.182-.687-.127-1.168-1.037-1.472-.552-.145.637.274.704.183 1.286 9.953.012 20.495.085 29.275.188 1.52.018 4.195-.406 6.444-.734-.352-.018.219-.612 0-1.104-8.548.395-18.738 1.165-28.35.734h-.006Zm-45.843.728c-.11.716.158 1.067.37 1.468 3.91.097 6.762.279 9.206.552 3.77-.856 10.378-.746 14.543-2.02-.012.237-.237.255-.182.552.954-.273 2.182-.273 2.578-1.104v-.734c-3.265-.054-7.138.085-9.759.364.104 0 .207-.151 0-.182-4.487.946-11.345 1.031-16.756 1.098v.006Zm-1.654.182c.085-.697-.079-1.146-.553-1.286.055.558-.03 1.256.553 1.286Z" fill="#002D9A"/>
    <path d="M12.563 204.236c-.097-34.801-.954-78.219-1.641-112.213 3.356 1.364 5.302 4.142 7.363 6.799.747 3.529.188 7.732.918 11.201.194.928.9 1.596 1.106 2.39.347 1.353-.225 2.529.918 3.305 3.393-1.51 9.157-.661 13.255-1.467 6.639 5.367 13.728 10.262 20.252 15.799 6.524 5.543 13.668 10.286 19.881 16.163-2.152 1.249-3.94 5.573-6.627 6.429-1.398.442-4.36.248-6.81.363-9.466.449-22.83-.254-31.299 3.118.237-.243.243-.685-.182-.734-.049 1.061-2.104 1.468-3.496 2.572-.7 1.018-1.478 1.958-2.578 2.571-.085 3.615 1.696 9.037 4.967 11.02.669.249 2.487.127 2.025.916 2.967-.243 9.88.491 15.467 0 2.146-.188 3.368-.637 5.527-.552-1.259 2.408-3.818 3.372-5.71 4.955-1.033.867-1.708 2.086-2.76 2.935-2.56 2.068-5.192 4.064-7.733 6.059-5.205 4.088-9.758 8.503-14.732 12.306-2.639 2.013-5.046 4.476-8.104 6.059l-.007.006Zm10.683-39.119c.006-1.092-.377-1.819.182-2.571-1.094.145.128-1.062-.553-1.468.012 1.031-.68 3.19.365 4.039h.006Zm3.131 5.507a2.076 2.076 0 0 0-1.107-1.286c0 .795.748.843 1.107 1.286Z" fill="#fff"/>
    <path d="M27.488 101.205c.048.243.085.819.37 1.286.177-.776.165-1.328.736-2.02 1.946.752 2.42 2.972 2.943 5.143-.632.655-1.003 1.571-2.207 1.65.541 1.177 1.532 1.898 1.842 3.305-.146.158-.505.11-.553.37-.426-.188-.845-.382-1.107-.734-.632-.139-.23.746-.918.552.037-.588-.656-.448-.918-.733-.079-.383.128-.486.183-.734-.256-.455-.633-.322-1.107-.182-.213-.764.39-.716.37-1.286-1.756-.516-4.097-4.064-2.577-6.247.213-.303 1.648-.255 1.842-.916.347.097.851.965 1.107.552l-.006-.006Zm-1.107 2.202c-.012.6-.523.703-.37 1.467 1.933 2.026 5.228-1.206 2.206-2.201.116 1.377-1.252.23-1.842.734h.006Zm2.025 6.617c.577.084.754-.231.924-.552-.347.042-.407-.207-.736-.182-.322.376.134.358-.182.734h-.006Z" fill="#002D9A"/>
    <path d="M111.629 95.158c-.826 3.057.59 7.6.365 11.02-.079 1.262-.565 2.178-.371 3.124-.887-.219-.152-1.286-1.106-1.656-3.557.722-8.634.734-12.89 1.098-3.058.267-6.086.133-9.205.182-7.058.109-13.37.643-20.988 1.097-5.69.34-11.35.534-16.938.916-3.089.213-6.11.904-9.205 1.098-5.97.376-12.336-.158-18.964.916-1.793-3.403-2.097-8.728-2.024-12.858 11.54.443 23.012-1.62 34.242-2.565 10.536-.892 21.231-2.099 32.035-1.65 7.965.334 17.158-.236 25.037-.734l.012.012Zm-40.504 2.378c0 .637.742.6.918.182-.262-.043-.31-.303-.553-.37-.043.145-.152.212-.371.182l.006.006Zm-4.238 1.474c.085-.261 1.119-.983.183-1.104.14.467-.724.843-.183 1.104Zm-11.965-.37c-.043.345.207.406.182.734.468-.146.827-.959 1.472-.37.024-1.996-1.028.248-1.66-.37l.006.006Zm2.578.182c.498-.013.887-.419.553-.734-.486-.055-.474.382-.553.734Zm4.231-.552c-.176.667.797.188.918.552.207-.74-.565-.91-.918-.552Zm37.562 2.025c-4.548 1.316-10.591.789-15.832.916-5.223.128-10.834.613-16.385.916-4.068.224-8.239.4-12.336.734-4.366.352-8.744.861-12.52.552-1.258-.103-1.47-.552-2.76-.182-.316 2.183-.832 4.736.736 6.059 9.521-.443 19.711-1.644 30.376-1.832 10.317-.182 21.863.382 31.664-1.832-.116-1.789-1.423-5.767-2.943-5.325v-.006Zm-72.91.358c-.195.667-1.63.613-1.843.916-1.52 2.183.821 5.731 2.578 6.247.019.57-.577.521-.37 1.286.468-.14.845-.273 1.106.182-.06.248-.261.351-.182.733.261.292.96.146.918.734.687.194.291-.691.918-.552.255.358.68.546 1.106.734.049-.261.402-.206.554-.37-.31-1.407-1.302-2.129-1.843-3.305 1.204-.085 1.581-.995 2.207-1.65-.529-2.171-.997-4.391-2.942-5.143-.572.692-.566 1.243-.736 2.02-.28-.467-.322-1.043-.37-1.286-.25.418-.76-.455-1.107-.552l.006.006Zm-2.025.922h-.37c-.566.661-1.271 1.183-1.66 2.02.765-.583 1.617-1.08 2.024-2.02h.006Zm-.918 5.689c-.401-1.049-.578-2.566-1.107-3.487-.346 1.176.22 2.935 1.107 3.487Zm.365-.182c.146.042.213.152.182.37.468-.018.645-.34.918-.552-.462-.127-.754-.182-1.106.182h.006Zm6.074 4.409c-.007-.255.085-.4.182-.552-.62.249-.973-.097-1.289.182.237.255.87.115 1.107.37Zm80.454-1.091c-2.39 3.493-6.032 5.737-8.47 9.182-3.982 3.699-8.092 7.193-12.154 10.832-1.957 1.759-3.593 3.948-5.526 5.877-2.627 2.62-5.308 4.918-7.734 7.714-12.743-9.873-25.73-19.517-38.109-29.754 5.12-.176 10.099-.467 14.914-.916 17.42-1.625 33.616-1.826 50.999-2.566 1.647-.072 3.97-.297 6.073-.363l.007-.006Zm-2.761 2.019c.213-.279.645-.77 0-.916-.103.11-.431.874 0 .916Zm-6.444 5.877c-.238-.012-.256-.236-.554-.182.432 1.14.791-.576 1.66-.182-.122-1.28-1.398-.03-1.106.37v-.006Zm-1.29.364c.371.588-.729.576-.182.734.322-.376.572-.158.736-.37-.687-.255.541-.03.371-.37-.353-.346-.462-.018-.918 0l-.006.006Zm-1.842 2.571c.687-.351.809-1.279 1.472-1.655-1.1-.128-1.636 1.104-1.472 1.655Zm-6.256 5.513c.517-.054 1.356-1.473.918-1.285-.273.345-1.356.843-.918 1.285Zm-1.106.546c.346-.042.407.207.735.182.025-.461.353-.576-.182-.734-.018.346-.608.128-.553.552Zm-1.29.922c.013.322-.042.57-.182.734.493.109.936-.758.553-.916-.042.146-.151.212-.37.182Z" fill="#fff"/>
    <path d="M102.234 117.926c-.869-.394-1.228 1.322-1.66.182.298-.049.316.176.553.182-.297-.4.985-1.65 1.107-.37v.006Zm-1.472.734c.176.34-1.052.115-.371.37-.164.206-.414-.012-.736.37-.547-.158.559-.146.183-.734.455-.018.571-.346.918 0l.006-.006Zm-8.102 6.799c.437-.188-.402 1.225-.919 1.285-.431-.442.65-.933.918-1.285Zm-3.323 32.872c.085 1.152-.736 1.425-.554 2.201 1.265.097.681-1.65 2.207-1.286.298.437.408 1.062.554 1.656.632-.139 1.033-.509.735-1.104.718.916 1.393-.776 2.578-.552.025 2.062 2.39 1.432 3.496.734-.468-.491.11-.97 0-1.656.693-.157.65.819.371 1.104 2.724 1.674-.693 3.991-3.131 3.124-.401.333-.705.764-1.289.916-.718.042-.955-.395-1.471-.552.431-.031 1.69.26 2.395-.37-.073-.534-.632-.595-.918-.916-1.003.412-2.797 2.038-3.684.37-.687.412-1.259.952-1.843 1.468-.59-.146-.802-.668-1.288-.916-.475.139-.639.588-.554 1.286-1.757.345-1.666-1.153-2.76-1.468-.377.109-.7.285-.553.916-.712-.158-.797.309-1.107.552-1.034-.067-1.757-.449-2.207-1.104-1.787.746-4.615 1.825-5.709-.182-.578.988-1.751 2.529-4.05 1.649-.407-1.783-.93-2.941-1.106-4.591 1.301-.224-.042 1.11 1.29.916-.068 1.171.236 1.965.917 2.39 1.52-.813 1.374-3.288 3.131-3.858-.316 1.45 1.016 3.445 2.76 2.202-.182-.51-.595-2.614.372-2.572.456 1.189-.122 1.68-.183 2.572 1.35-.061 1.283-1.535 2.578-1.65.37.546.65 1.189.918 1.838 1.903.224 2.128-2.135 3.867-1.468.334-.218.146-.958.37-1.286 1.326.504-.43 1.45 0 2.754.767-.309 1.472-.691 1.107-1.656 1.052-.546 1.527.546 1.66 1.468 1.29-.067-.644-3.008 1.107-2.936l-.006.007Zm-60.937 5.13c1.235-3.499 5.564-7.114 9.206-3.305-.134 1.832 1.01 2.657.918 4.039-.164 2.566-5.241 7.211-8.287 4.961-1.344-.994-1.453-3.014-1.842-4.779-.553-2.505-1.046-4.342 2.207-5.325.626.213-1.089 1.062-1.654 1.286-.17 1.11-1.021 1.619-.553 3.123h.006Zm1.843 3.676c.37.182.748.358 1.107.552-.225.018-.438.054-.371.37 4.019-.152 7.496-4.282 4.42-7.715-3.904-.964-6.463 2.681-5.156 6.793Zm13.804-4.403c0-.176-.225-.14-.371-.182.11-.437.267-.837.182-1.468.924.146.48 1.352 0 1.838-.206.533-.2-.279.183-.182l.006-.006Z" fill="#002D9A"/>
    <path d="M35.395 160.344c3.076 3.427-.401 7.563-4.42 7.715-.067-.316.146-.346.37-.37-.358-.194-.735-.37-1.106-.552-1.307-4.118 1.253-7.763 5.156-6.793ZM33 165.117c.668-.34 1.647-.837 2.578-.37.188-.242.182-.679.37-.916-1.027-.467-.784-1.255-1.471-1.837.079.752-.96.169-1.107 0-.054-.358.25-.364.371-.552-.212-.152-.492-.243-.918-.182-.115.679.298 1.892-.37 2.019-.116-.254-.712-.03-.736-.37-.043-.145 0-.363-.183-.37-.444 1.541.39 2.111 1.472 2.572l-.006.006Zm-.371.552c.206.036.285.206.37.37.463.03.578-.285.736-.552-.608.473-.796-.594-1.106.182Z" fill="#fff"/>
    <path d="M98.915 162.74h.553c-.11.479.073.661.553.552-.036.145-.182.182-.182.364h-.371c.14-.631-.748-.231-.553-.916Zm8.469 2.941c.225.352-.237 1.595-1.107 1.468.237-.625.857-.855 1.107-1.468Z" fill="#002D9A"/>
    <path d="M26.368 206.437c.329.134.025.334 0 .552.523.031.426-.552.919-.552 3.234.425 6.754-.248 10.676-.364.401-.03.584.152.553.552 1.921-1.449 4.974-.024 6.998-.915.097.266-.213.952.182.915.25-.127-.158-.558.371-.734.925.17 1.557-.242 2.025.552a4.65 4.65 0 0 1 .736-.733c3.064.752 6.347-.152 10.129-.182.577-.085.517.461.736.733.249-.054.151-.46.182-.733 1.538.23 3.41-.395 3.867.552 1.216-1.438 4.693.188 6.444-.916 3.253.248 6.737.066 10.677-.364 1.714 2.632 5.891 2.82 7.18 5.877-1.143 4.124-4.809 5.731-6.815 9-10.537.394-20.988.176-32.035.364-7.953.133-16.137.255-23.749.916-3.879.339-9.57 1.146-13.807-.188.346-2.329.675-4.3.182-6.611 1.07-1.625.754-4.579.553-7.163 2.396-.26 4.743-.382 6.998.188 1.66-1.104 3.065.103 5.156-.552.626-.139.231.746.918.552-.438-.503.614-.133.918-.734l.006-.012Zm43.265 4.967c.322-.291.401-.824.371-1.467-.237-.012-.255-.237-.553-.182.2.582-.712 1.54.182 1.656v-.007Zm-4.785 0c.128-.576.56-.309.736 0 .042-.139 0-.363.182-.369-.206-.407-.212-1.013-.735-1.104.103.958-.675.879-.183 1.467v.006Zm8.834.552c-4.432-.175-8.244.134-12.153-.552.267-.43.456-.412 0-.733-.87 0-.134.74-.554.915-1.282-.194-4.091.722-4.602-.733-.176.339.553.612 0 .733-2.073.334-3.502-.873-4.785.182.839 1.365.134 4.276 1.471 5.143 7.837.019 15.528.025 23.195 0 1.453-1.74.784-5.488-2.024-5.143-.11-.673.62-1.449-.371-1.467-.286.721.09 1.146-.183 1.655h.006Zm-43.447 5.683c.073-.746-1.222-.133-.918-1.104 1.788.194 1.751-1.437 2.943-1.837.833 2.341 3.095 1.783 4.785.37.9.509 1.61 1.207 2.395 1.837.14-.564-.504-.351-.37-.915 1.106 0 1.532-.674 1.842-1.468-.08-.352-.53-.334-.371-.916-.62-.115-1.709.237-2.025-.182.06-.431.292-.691.183-1.286-.426-.066-.177-.806-.736-.734 0 .989.717 1.674 0 2.02-.748-.17-.76-1.079-1.654-1.104-.578.71-1.167 1.407-2.024 1.838-1.375-.2-1.198-1.462-1.843-2.02-2.067-.23-1.769 1.905-3.496 2.02-.06-1.286-.486-2.208-1.289-2.754-1.447.273-.237 3.197-1.842 3.306-.857-.491-.784-1.911-2.024-2.02-.821.407-.59 1.862-1.66 2.02-.84-1.001-.602-3.069-2.025-3.487-1.246 1.946.967 4.051 1.654 6.058 1.386-.024 1.872-.946 2.76-1.467 1.125 1.637 2.858 1.298 3.867-.182.614.673.614 1.959 1.842 2.019l.006-.012Zm10.123-4.585c.523.152.475-.261.918-.182-.127-.564-.127-.352 0-.916-.255.006-.407-.085-.553-.182-.207.346-.237.868-.37 1.286l.005-.006Zm7.916.734c.134-.528 1.24-1.801 0-2.02.25.807-.553 1.517 0 2.02Zm-.364 2.39c-.79-1.195-.213-2.614-1.29-3.488.05.91.299 2.942 1.29 3.488Zm2.76-.552c-.851-.316-1.034-1.298-1.66-1.838.164.885.84 2.214 1.66 1.838Zm-31.482-.188c-.772.218-.328-.777-.736-.916-.59 1.31.183 1.443.183 2.935 1.07-.242.079-1.273.553-2.019Zm6.445 2.201c-.687-.109-.797-.794-1.29-1.104.092.589.572 1.747 1.29 1.104Z" fill="#fff"/>
    <path d="M122.104 208.839c1.082.176.681 1.601.735 2.02 0 .176.225.139.365.182-.821.448-.851-1.474-1.106-2.202h.006Z" fill="#002D9A"/>
    <path d="M113.281 98.464c-.079-.273-.237.073-.553 0 .748-1.71 1.076-3.033.924-5.325-13.886.34-28.07.734-41.422 1.098-17.742.479-35.136 3.996-53.206 3.85-.663-4.481-4.505-5.791-7.18-8.266 10.22-1.473 21.207-1.868 32.588-2.383 5.94-.267 11.91-.843 18.045-1.098 11.036-.467 21.973-.97 33.878-1.098 3.751-.758 8.025-.273 12.701-.552 7.071-.418 14.786-1.71 20.988-1.467-.839 8.345 0 16.648 0 25.163 0 16.691.93 35.31.729 53.444-.097 8.806.335 17.885.736 26.631.444 9.819.419 19.268.918 29.015-1.66.442-4.104-.486-4.785 1.103-3.411-.351-6.062-.388-10.311-.37-1.776.006-3.448.467-5.156.552-1.265.061-2.499-.285-3.685-.182-1.124.097-2.134.619-3.313.734-1.654.158-3.332.097-4.974.182-4.882.255-9.29-.224-14.725.182-.462-1.146.687-1.807 1.106-1.656.882.376-.68.449 0 1.104.79-.206.894-1.522.371-2.019 1.532-.971 1.794-2.608 2.76-4.41.408 1.013 1.186.528 1.66 1.468.67-1.116-.881-1.716-1.471-1.656 2.45-4.56-2.76-5.937-5.52-7.532 11.509-.303 23.979-1.049 32.035-.364.674-.291-.426-.273-.183-.734 4.116.067 9.904-.437 14.726-.182 1.204-1.462-.705-2.474-.553-3.487-5.412-5.01-10.567-10.274-16.386-14.877-4.159-6.623-9.977-11.597-15.096-17.267 1.903-.619 3.97-.886 5.709-1.65 1.751-.776 3.052-1.813 4.231-2.571-.212-1.723.402-4.203-.364-6.247-.724-1.929-2.53-2.808-3.496-4.221-.773.491-1.551.345-2.578 0 .431-1.317 1.07.661 2.024-.182-1.143-1.298-6.262-1.232-7.545-.37-3.137-.51-7.57-.37-11.23-.37-2.504-2.275-5.113-4.446-7.545-6.799 3.423-4.421 8.153-7.539 11.418-12.118 7.977-6.793 15.833-13.713 22.466-21.852 1.1-.279 1.66-1.971 2.578-1.837.304-.025-.195-.765 0-1.286 2.571-4.907 7.952-7.988 9.576-13.222.705-1.085 7.837-7.338 3.131-8.448-.943.145-.067 1.013-.554 1.468-2.103 3.839-5.095 6.792-6.998 10.832-3.027 1.261-3.733 4.845-6.262 6.61.754-2.335-1.234-5.003-.182-7.344l-.025.006Zm6.08-13.592c.389.013 1.794.492 2.025-.37-.444.019-1.672-.145-2.025.37Zm2.39.182c.547-.412 1.124.267 1.289-.37-.548-.254-1.125-.218-1.289.37Zm2.766.188c.511-.273 1.672-.49 2.207 0v-.734c-1.106.03-1.167.098-2.207 0v.734Zm2.572-.182c.711.188.76-.097 1.289.182-.043-.345.207-.406.182-.734-.742-.066-1.343 0-1.471.552Zm-20.812 82.089c.87.127 1.326-1.116 1.107-1.468-.243.613-.87.843-1.107 1.468Zm21.906 37.281c.432.061.693.291 1.289.182.146-.825-1.149-.607-1.289-.182Zm-4.237.37c1.234-.097 2.462-.055 4.049 0-.091-.873-1.405-.528-1.66-.182-.207-.752-2.858-.297-2.396.182h.007Zm-.554-.188c-.547-.176-2.687-.382-3.684 0 1.052 0 3.034.631 3.684 0Zm2.396 6.981c.079-.868 0-1.074.553-1.656-.93-.091.097-.698 0-1.104-.45-.103-.389-.71-1.107-.552.73 1.353-.462 2.529.554 3.306v.006Zm-7.181-1.468c-.559.297-.906.807-1.842.734.11-.595-.128-.855-.182-1.286-1.435.036-1.514 1.431-2.761 1.65-.158-.637-.687-.91-1.288-1.104-.627 1.528.237 2.869.735 3.857.541.03 1.137.491 1.472.182.34-.576.516-1.322 1.288-1.468.298.498.499 1.092 1.107 1.286-.188-.879 1.477-1.122 2.396-1.468.522 2.269 3.982 1.638 5.709.922-.079-.934.194-2.268-1.107-2.389-.863.558-2.487 1.298-3.314.37.079-1.001-.468-1.371-.735-2.02-.736-.182-.553.552-1.289.37-.183-.431-.061-1.164-.736-1.104-.115.789.164 1.183.553 1.468h-.006Zm4.603.916c-.14-.043-.365 0-.365-.182-.055-.419.347-1.844-.736-2.02.256.734.28 2.65 1.107 2.202h-.006Zm-27.062 3.123c-.626-.194.51-.054.183-.552-.347-.042-.408.206-.736.182.024-.242.03-1.328-.183-.734-.115.619.335 1.607.736 1.104Zm8.652-.188c-.207-.036-.286-.206-.371-.37 1.076.134 1.143.073 1.842-.37.012-1.795-1.654-2.796-3.131-2.019-.103-.692-.626-.971-1.107-1.286-.358.376-.626.843-1.288.916.012-.237.237-.255.182-.552-.742-.128-.31.915-.736 1.103-.632-.473-.115-2.086-1.289-2.019-.857.121-.741 1.213-1.66 1.286.037-.71-.291-1.056-.918-1.104-2.036 2.771.833 5.865 2.76 2.941.061.492.463.643.554 1.104 1.082.158 1.654-.188 2.207-.552.249.425.523.825.918 1.104.766-.394 1.678-.182 2.025-.182h.012Zm-3.867-.182c.024.467.268.71.736.734-.006-.255.085-.4.182-.552-.383-.103-.596-.521-.918-.182Zm4.967-2.571c.833.024.45 1.261 1.107 1.467.042-.145.152-.212.371-.182-.152-.885-.973-1.025-.554-2.019-.237-.012-.255-.237-.553-.182-.188.242-.182.679-.371.916Zm20.806 2.207c-.48-.291-.298-1.128-.918-1.655-.091.83.164 2.274.918 1.655Zm-19.146.916c-.474-.6-.207-1.237-.736-1.468-.121.619-.389 1.389.736 1.468Z" fill="#fff"/>
    <path d="M95.405 213.06c.213-.594.207.492.183.734.328.024.389-.224.735-.182.329.491-.808.352-.182.552-.401.51-.851-.485-.736-1.104Z" fill="#002D9A"/>
    <path d="M102.775 214.164c-.395-.279-.675-.679-.918-1.104-.553.364-1.131.71-2.207.552-.091-.455-.487-.612-.553-1.104-1.928 2.924-4.797-.163-2.76-2.941.626.048.954.394.917 1.104.912-.067.797-1.165 1.66-1.286 1.174-.067.657 1.547 1.289 2.02.426-.188 0-1.232.736-1.104.055.297-.177.315-.183.552.663-.073.931-.54 1.289-.916.481.315.997.594 1.107 1.286 1.477-.777 3.143.224 3.131 2.019-.699.443-.76.498-1.842.37.079.164.164.328.371.37-.353 0-1.259-.212-2.025.182h-.012Zm-74.383 1.456c-1.01 1.479-2.742 1.819-3.867.182-.887.521-1.374 1.443-2.76 1.467-.693-2.007-2.906-4.118-1.654-6.059 1.423.419 1.186 2.493 2.025 3.488 1.07-.158.833-1.613 1.66-2.02 1.24.109 1.167 1.529 2.024 2.02 1.605-.109.395-3.033 1.843-3.306.796.552 1.221 1.474 1.288 2.754 1.727-.115 1.43-2.25 3.496-2.02.645.558.462 1.82 1.843 2.02.857-.431 1.447-1.128 2.024-1.838.9.024.906.934 1.654 1.104.717-.346 0-1.031 0-2.02.56-.066.31.668.736.734.103.595-.128.855-.183 1.286.316.418 1.405.067 2.025.182-.158.588.292.57.37.916-.31.794-.735 1.467-1.841 1.467-.14.564.504.352.37.916-.784-.624-1.495-1.328-2.395-1.837-1.69 1.419-3.958 1.971-4.785-.37-1.198.4-1.155 2.025-2.943 1.837-.298.971.991.358.918 1.104-1.222-.067-1.228-1.346-1.842-2.019l-.006.012Zm73.831 6.992c7.052.043 13.059-.952 20.434.37 2.639-.588 6.986.316 8.834-.552-.133.565.505.352.371.916-3.435 0-8.104.473-10.865-.37-4.42.249-9.253-.382-15.278.182-1.119-.703-2.505.68-3.496-.552v.006Z" fill="#002D9A"/>
    <path d="M82.336 222.976c.65-.018-.389-.606.183-.552 4.146-.333 7.441-.551 11.047-.363.73-.237.444.533.918.551.377-.048.176-.685.553-.733 12.239.163 24.587-1.953 37.374-.546.723 6.883.139 15.204 1.282 22.955-7.916.407-15.516 1.013-23.383 1.286-11.594.394-24.253-.437-35.902-.37-6.889.037-14.592 1.71-21.906 1.098-3.107-.261-6.317.321-9.576.364-1.368.018-2.815-.188-4.232-.182-3.526.012-6.207.576-10.311.364 2.79-2.681 9.758-2.196 7.916-8.631 6.28 1.11 12.895.037 18.592-.545.56-.061 1.259.248 2.025.182 1.18-.104 3.849-1.171 5.156-.734.814.273 1.046 1.546 1.842 2.019 1.295.771 4.31.789 5.71.552 2.097-.352 3.185-2.141 4.602-3.123-.165.594.602.261.735.552 5.624.248 10.555.43 15.28.188 1.312-.067 2.741-.552 4.048-.552 5.94.018 10.275 1.091 16.568.37 2.286 2.444 8.494 3.056 10.312-.364 1.574-7.357-6.773-11.548-10.312-5.877-1.149.218-3.313.146-4.973.364-.493.079-.183-1.231-1.107-.552-.754.424.657.176.371.734-.693.461-1.198-.564-1.842-.734-.614.334.012.952-.736 1.286-2.73-.376-4.432-.589-6.81-.552-.06.485 1.034-.17.736.552-.51-.103-1.246.018-1.106-.734-.274.158-.268.588-.371.916-7.4.376-14.786-.564-21.541 0-.663-5.386-9.473-4.331-10.865-.37-9.868-.54-16.744 1.025-27.433 1.467-2.31-1.407-6.596-9.024-10.494-5.876-4.383-.728-7.229 1.867-9.387 4.409-.122 2.638-1.441 4.621-1.289 6.98.243 3.821 3.539 5.92 5.891 7.897-3.222 0-4.28.8-7.55.364-.36-4.719.887-8.455-.554-11.936.389-3.305-.037-9.346.182-12.124.93.661 2.755.346 3.131 1.104.353-.073.146-.709.736-.552 11.072.777 21.104-1.352 31.3-1.098 10.858.273 22.124.11 34.795-.363-.134.503.365.37.37.733v.182l.025-.006Zm23.384.182c6.025-.564 10.858.067 15.279-.182 2.76.843 7.429.37 10.864.37.134-.564-.504-.351-.37-.916-1.855.868-6.196-.042-8.835.552-7.375-1.322-13.382-.327-20.434-.37.991 1.232 2.383-.151 3.496.552v-.006Zm-9.023-.182c.42-.133 1.435.334 1.289-.364-.48.073-1.01.091-1.289.364Zm-72.54 2.196c.043-.261.304-.31.365-.552-.25-.061-.352-.261-.735-.182.024.34.121.613.37.734Zm-9.022.364c.608.006.918.309 1.653.182-.085-.516-1.635-.722-1.653-.182Zm-2.025.734c-.079-.51.687-.17.736-.552-.359.054-.365-.249-.553-.37-.055.218-.742.691-.183.915v.007Zm87.083 4.973c.456-.024.888-.031 1.107.182.03-.461-.28-.576-.554-.734.085.758-.498-.176-.553.552Zm-.365 0c-.219-.212-.65-.206-1.106-.182-.262.588 1.1.467 1.106.182Zm22.642 3.123c-.365.055-.365-.248-.553-.37.334.886.231 2.111.553.37Z" fill="#DDD"/>
    <path d="M33.915 237.841c.517.498.03.401.736.552 1.136 5.55-5.503 4.191-7.917 6.793-.48-.212-.79.564-.735-.182-.499.115-.456.764-1.107.734-.37-.376.08-.358.183-.734-.912-.042-.608.267-.554.916-1.246.024-1.623.188-2.76 0-2.353-2.196-6.56-3.451-6.074-8.267.335-3.335 2.11-8.612 5.156-7.714.304-.364-.018-.237 0-.734.51-.03.632.285.37.552.39-.164 1.101 0 .919-.734.936.297 1.076.097 1.842-.182.353 1.304 1.24.14 2.207.552-.833.879-2.128 1.31-3.684 1.468.127-.546.735-.613 1.471-.552.152-.522-.261-.473-.182-.916-3.478 1.122-6.08 3.111-7.18 6.611-.092 3.432 1.848 6.762 4.967 7.714 2.657.813 7.302-.327 9.022-2.019 2.992-2.948.906-9.546-2.39-11.572v-.734c-1.112-.115-2.224-.23-2.942-.734 1.204-1.643 3.29-.024 4.05.916-.043.321-.317.418-.736.37 1.641.382 2.717 1.328 3.313 2.753.055.249.462.152.736.182-.261 1.929 2.152 3.9 1.289 4.961Zm.182 2.942c.049-.522.365-1.771-.182-2.202-.17.352-.53 2.159.182 2.202Z" fill="#fff"/>
    <path d="M21.395 231.783c2 1.255 3.423-.316 5.338-.182 3.478.236 4.238 5.482 2.943 8.63-2.34 1.31-6.743 3.014-9.388 1.286-.784-.51-2.024-2.663-2.207-3.676-.474-2.583 1.302-5.082 3.314-6.058Zm-.553 8.63c.444-.249.115-.37.37-.552.76.036.578 1.019 1.472.916 1.167.121.875-1.207 1.471-1.65h.736c.237 1.565 1.599 2.499 2.943 1.468 0-.485-.104-1.08.37-1.104.767-.048.718.243 1.29 0 .133-.922-.681.243-.736-.37.68-.934.504-1.983-.183-2.753-.693-.14-.881.224-1.471.182-.298-.649.08-1.147-.182-2.02-3.004-.297-5.21.564-7.18.364.2.467-.791.643-.183.916.115-.152.857-.576.918-.182-.462 1.013-2.037.903-2.025 2.389.414 1.122 1.569 1.498 2.396 2.202-.104 0-.207.152 0 .182l-.006.012Z" fill="#fff"/>
    <path d="M20.84 240.231c-.826-.71-1.981-1.086-2.395-2.202-.012-1.479 1.563-1.376 2.025-2.389-.06-.394-.803.03-.918.182-.608-.279.383-.449.182-.916 1.97.2 4.177-.661 7.18-.364.262.874-.109 1.371.183 2.02.596.042.778-.328 1.471-.182.694.77.864 1.819.183 2.753.055.613.87-.552.735.37-.571.243-.522-.048-1.288 0-.469.018-.365.613-.371 1.104-1.35 1.031-2.706.097-2.943-1.468h-.736c-.596.449-.31 1.771-1.471 1.65-.9.103-.711-.879-1.471-.916-.256.182.079.303-.371.552-.207-.036-.104-.182 0-.182l.006-.012Z" fill="#002D9A"/>
    <path d="M52.326 233.808c.207.037.103.182 0 .182 2.62-.279 6.493-.418 9.758-.364v.734c-.395.831-1.623.831-2.578 1.104-.048-.297.177-.315.183-.552-4.165 1.274-10.774 1.165-14.543 2.02-2.444-.273-5.296-.455-9.205-.552-.207-.4-.474-.752-.371-1.468 5.405-.067 12.263-.158 16.756-1.098v-.006Zm-.918 1.65c.632.321 1.49-.224 1.289-.552-.225.388-1.107.121-1.289.552Zm-5.891.734c.486 0 1.082.103 1.106-.364-.377.109-1.277-.297-1.106.364Z" fill="#fff"/>
    <path d="M121.914 233.996c.189.122.189.425.553.37-.316 1.747-.219.522-.553-.37Zm-69.219.91c.2.328-.656.873-1.289.552.183-.431 1.064-.164 1.29-.552Zm67.038-184.743c.055.752-.383.097-.736.182-.158.588.292.57.371.916.444.072-.103-.837.554-.552-1.423 2.147.626 4.573 0 6.246-1.174-.242-1.599-1.218-1.843-2.39-.328-.654-1.55-.411-2.207-.733-.535-3.002 1.733-4.464 3.867-3.675l-.006.006ZM24.545 69.431c.45.43-.207.413-.37.734.637.406 1.385.697 1.106 2.02-.7.151-1.484-.23-2.207-.37-3.734-.716-9.169 1.389-8.47-2.208 3.782-.564 6.597.594 9.941-.182v.006Z" fill="#002D9A"/>
    <path d="M100.21 103.601c-14.938 2.462-32.558 1.528-48.05 2.565-3.988.267-7.393 1.062-11.418.916.134-.873-.206-1.261-.182-2.02 6.73 1.08 13.607-.218 20.434-.733 12.142-.916 24.496-.843 36.267-1.462.663-.036 2.542-.722 2.943.734h.006Zm-71.986-.928c3.015 1.001-.274 4.227-2.207 2.201-.152-.77.358-.867.37-1.467.59-.51 1.952.643 1.843-.734h-.006Zm.359 56.197c11.613-4.318 23.79-3.232 36.084-4.221 5.424-.431 12.057.449 17.675.37 5.052-.067 11.843-.152 18.41.552 1.27.133 3.277.515 4.231 1.104 1.143.697 2.554 3.172 2.025 5.143-.134.497-1.55 1.771-2.578 2.201-3.082 1.286-8.202 2.081-12.154 2.384-9.54.734-18.811 1.407-29.275 2.02-11.162.655-17.449 2.195-27.985 1.831-2.244-.079-5.162-.352-6.257-.922-1.793-.928-3.72-4.53-3.313-6.611.358-1.813 2.274-2.504 3.13-3.857l.007.006Zm63.517.376c.261.043.31.304.553.37.164-.606.395-1.631-.37-1.649-.353.461.151.721-.183 1.285v-.006Zm-3.86 2.02c-.134-.922-.603-2.02-1.66-1.468.37.965-.341 1.341-1.107 1.656-.432-1.304 1.325-2.256 0-2.754-.225.328-.037 1.068-.371 1.286-1.739-.667-1.964 1.692-3.867 1.468-.267-.649-.547-1.286-.918-1.838-1.295.115-1.228 1.595-2.578 1.65.061-.892.639-1.383.183-2.572-.961-.042-.548 2.062-.371 2.572-1.745 1.243-3.077-.752-2.76-2.202-1.758.57-1.612 3.045-3.132 3.858-.68-.419-.985-1.219-.918-2.39-1.331.194.012-1.14-1.289-.916.177 1.65.7 2.808 1.107 4.591 2.298.88 3.471-.661 4.049-1.649 1.088 2.007 3.922.934 5.71.182.449.655 1.172 1.031 2.206 1.103.31-.242.395-.709 1.107-.551-.146-.637.17-.807.553-.916 1.094.315 1.003 1.813 2.76 1.467-.085-.697.08-1.146.553-1.285.487.248.7.776 1.29.916.583-.522 1.155-1.056 1.842-1.468.887 1.668 2.675.042 3.684-.37.292.321.845.382.918.916-.705.624-1.964.333-2.395.37.517.157.754.594 1.471.552.584-.152.882-.589 1.289-.916 2.438.867 5.849-1.444 3.131-3.124.286-.279.328-1.261-.37-1.104.109.686-.469 1.165 0 1.656-1.107.698-3.472 1.322-3.497-.734-1.185-.224-1.86 1.468-2.578.552.298.595-.103.959-.735 1.104-.146-.588-.256-1.219-.554-1.656-1.526-.364-.942 1.383-2.207 1.286-.182-.776.639-1.049.554-2.201-1.751-.073.182 2.874-1.107 2.935l.006-.006Zm-59.286-.922c.571-.224 2.28-1.073 1.654-1.286-3.26.983-2.76 2.82-2.207 5.325.389 1.759.498 3.779 1.842 4.779 3.04 2.251 8.123-2.395 8.287-4.961.09-1.382-1.052-2.207-.918-4.039-3.642-3.809-7.977-.2-9.205 3.305-.468-1.504.383-2.013.553-3.123h-.006Zm52.47.37c.079-.431.462-1.31-.183-1.656-.243.297-.395 1.62.183 1.656Zm-29.087 1.098c.578-.194.864-2.099.183-2.39-.408.855-.183 1.298-.183 2.39Zm3.131-.364c1.064-.255-.146-.807.554-1.656-.274-.097-.462-.273-.736-.37-.517.843.255 1.116.182 2.02v.006Zm-5.526.182c-.043-1.116.225-.843.37-1.838-.236-.012-.255-.236-.553-.182-.23.37-.431 1.923.183 2.02Zm-2.943.182c-.079-.631.073-1.031.182-1.468-.249-.061-.352-.261-.735-.182.115.619.128 1.34.553 1.656v-.006Zm6.81-.916c-.371.667-1.034 1.049-1.472 1.65-.517-.031-.23-.874-.918-.734-.699-.079-.894.891-1.471.37.036.527.024 1-.553.916-.238-.801-.377-1.705-1.107-2.02-.626.418-.827 1.255-1.66 1.468-.273-.589-.365-1.353-1.289-1.286-.34 1.073-.54 2.274-1.66 2.571.292.625.614 1.225 1.29 1.468.303-.558.437-1.274.917-1.656.122.552.833.516 1.107.916.663.049.675-.552 1.289-.552 1.003 1.062 2.42 1.82 3.496.552 1.307.886 2.359-.218 2.943-1.104.298.68.93 1.031 1.842 1.104.56-1.983-1.66-2.735-2.76-3.675l.006.012Zm-9.941 2.02c.48-.486.924-1.693 0-1.838.079.631-.073 1.031-.183 1.468.14.042.365 0 .371.182-.383-.097-.389.715-.182.181l-.006.007Zm55.6.739h.372c0-.181.152-.218.182-.363-.48.109-.663-.073-.553-.552h-.553c-.195.685.687.291.553.915Zm-31.116.734h.735c-.151-.521.262-.473.183-.915-.51.103-1.034.194-.918.915Zm7.18-.552c-.456.019-.571.346-.918 0-.25.668 1.24.88.918 0Zm51.907 37.657c-36.862.595-74.175 2.166-110.83 3.294-.226-.843.869-.928 1.288-1.286 3.897-3.324 8.208-6.811 12.336-10.28 3.454-2.905 7.004-5.737 10.494-8.812 1.162-1.025 2.5-1.796 3.685-2.754 1.106-.897 1.945-2.177 3.131-3.123 1.173-.934 2.28-1.953 3.684-2.572 1.198-1.237 2.481-3.96 4.603-4.591 1.331-.394 3.66-.218 5.709-.364 10.652-.782 23.237-1.498 32.035-2.201.778-.061 1.605-.461 2.025-.37 5.508 5.27 10.81 10.983 15.643 17.085 3.569 4.5 8.379 7.872 12.519 11.941 1.283 1.262 2.827 2.444 3.684 4.04l-.006-.007Z" fill="#fff"/>
  </g>
  <defs>
    <clipPath id="a">
      <path fill="#fff" d="M0 0h143v299H0z"/>
    </clipPath>
  </defs>
</svg>
