<svg width="608" height="512" fill="none" xmlns="http://www.w3.org/2000/svg"><path d="M64.883 269.403c-3.317 2.412-11.467 1.511-15.294.907-9.817-1.55-16.832-12.017-22.55-19.164-13.574-16.967-31.718-49.251-21.823-71.516 6.502-14.628 26.756-31.548 43.587-25.088 11.719 4.499 18.407 16.686 21.34 28.232 2.029 7.99 3.115 20.046-1.995 27.143-3.037 4.218-10.63 5.211-15.235 3.265-10.614-4.485-11.014-23.607-10.881-33.008.165-11.641 5.536-21.077 17.652-23.697 7.44-1.609 8.097 7.297 8.403 12.816.872 15.701-3.118 27.656-9.25 42.196-4.676 11.09-5.227 26.072 9.855 27.748 21.668 2.407 34.973-34.047 24.604-49.753-3.247-4.917-20.111-21.193-21.884-7.012-1.481 11.851.744 24.635-14.146 26.841-15.358 2.275-27.134-20.145-28.836-32.403-2.624-18.89 25.215-40.027 42.62-39.778 9.431.135-2.832 39.595-18.741 32.463-9.686-4.342-8.528-22.964-7.617-31.375.885-8.178 4.363-19.031 10.156-25.269 7.174-7.726 11.123.663 11.123 8.342 0 3.617-1.904 3.08-.604-.362 3.403-9.02 14.255-13.626 23.274-13.361 22.937.675 11.555 42.944 14.569 56.887 1.391 6.43 7.672-5.361 8.464-6.771 6.837-12.178 14.028-30.202 6.226-43.466-14.605-24.829-35.717 14.76-18.8 20.01 11.79 3.659 21.746-5.903 25.934-16.141 1.47-3.594 7.754-29.624-2.116-26.901-3.701 1.02-11.079 5.924-5.562 9.309 6.82 4.185 14.432 6.171 17.773 14.388 4.021 9.888 4.005 24.401-1.813 33.491-7.238 11.309-19.874 7.997-25.814-2.66-5.901-10.588-6.568-25.486 1.391-35.183 7.364-8.972 20.474-14.882 31.919-10.398 11.487 4.5 12.461 21.363 15.778 31.314 2.635 7.904 6.761 18.193 15.295 21.28 7.083 2.562 14.706 2.109 19.647-3.93 4.73-5.78 7.379-13.21 8.584-20.493 2.533-15.304 3.845-35.395-3.446-49.693-6.212-12.184-23.266-23.485-36.876-16.322-6.93 3.648-15.809 13.088-16.383 21.4-.595 8.635 16.63 6.167 21.522 6.167 20.552 0 21.589-17.072 21.823-33.733.071-5.025 1.025-9.668 3.265-14.146 3.948-7.897 13.536-7.196 20.795-3.567 19.931 9.966 41.926 54.803 9.068 62.085-9.14 2.027-25.207 3.58-27.022-9.128-1.918-13.422 18.091-25.075 27.99-30.105 2.456-1.249 14.3-7.222 16.806-2.963 1.938 3.296.277 11.905.241 15.476-.22 21.811-4.164 50.259-29.138 56.342-7.063 1.721-26.536 6.877-24-6.649 2.047-10.918 19.549-17.339 29.199-18.136 13.195-1.09 23.317 5.886 32.403 14.75 4.202 4.1 8.834 10.315 14.992 11.547 4.074.815 6.519-2.586 8.343-5.743 5.781-10.009 10.062-21.297 14.085-32.1 2.934-7.881 8.241-21.544 4.05-29.925-5.032-10.064-20.739-11.306-29.017-4.474-2.424 2.001-9.395 9.265-5.985 12.937 5.661 6.097 20.165-2.542 24.605-6.347 9.544-8.181-4.077-20.943-12.333-24.846-8.829-4.174-20.728 1.891-28.836-4.595-4.303-3.442 24.348-23.78 32.342-20.191 17.236 7.738 24.403 30.635 11.547 45.098-6.87 7.729-16.556 15.881-26.902 18.136-10.27 2.238.811-19.287 2.298-21.884 4.035-7.05 12.202-17.435 21.521-16.141 12.725 1.767 17.04 18.54 18.317 29.138.39 3.234-1.059 23.825 2.6 25.45 9.413 4.185 14.245-11.518 15.838-17.168 2.055-7.284 6.942-22.739-1.451-28.11-3.601-2.305-9.687-2.467-1.451-.665 5.906 1.292 12.043 1.873 14.026 8.342 3.003 9.801 2.607 20.422 1.088 30.468-.563 3.724-5.057 12.333-8.645 5.38-6.577-12.742-2.632-31.546-.181-44.674.202-1.087 2.335-7.071-.121-7.617-2.795-.621-6.236.139-8.706 1.45-6.008 3.193-14.458 8.484-17.591 14.751-4.187 8.374 21.791 10.792 16.02-5.078-3.702-10.18-17.693-9.063-26.418-11.244-12.589-3.147-24.528-6.09-37.602-4.836-8.763.84-22.718 3.265-25.934 13.3-5.241 16.352 59.711 14.32 67.707 14.63 13.94.539 29.066.7 38.629 12.332 7.613 9.257 7.69 19.555-.483 28.896-14.492 16.562-38.544 25.134-59.667 28.776-9.038 1.558-15.618 1.157-19.768-8.101-4.334-9.668-.632-18.427 6.226-25.753 11.046-11.798 29.428-17.368 43.829-8.222 12.895 8.191 30.531 34.472 18.74 49.632-5.671 7.292-17.982 10.087-26.357 12.272-12.275 3.202-25.428 5.264-38.146 5.199-10.03-.051-15.1-2.742-9.975-13.3 5.816-11.981 16.335-18.535 29.803-17.531 14.252 1.062 27.732 7.428 33.733 21.038 13.132 29.784-.934 64.896-13.42 92.069-20.229 44.021-48.353 76.684-94.428 93.763-29.286 10.856-71.781 18.563-99.929.242-25.97-16.904-39.533-51.727-36.634-81.914 3.11-32.38 28.628-62.373 58.216-74.417 36.245-14.755 70.667-4.536 100.291 18.921 21.906 17.345 39.604 39.091 42.499 67.647 2.977 29.37-17.915 59.83-45.279 70.065-15.2 5.685-30.53-.581-39.839-13.723-8.708-12.293-5.541-28.452-1.451-41.773.257-.836 12.789-32.6 18.378-25.209 4.416 5.84-3.831 22.638-7.013 27.386-3.418 5.101-14.547 15.726-21.763 11.183-4.88-3.072-1.498-12.534-.241-16.322 4.206-12.679 11.023-24.965 19.768-35.063 14.39-16.617 31.63-20.49 50.78-8.705 2.53 1.557 5.39 4.173 8.403 4.776 5.238 1.048 6.287-10.678 6.65-13.36 2.925-21.643 3.576-45.463 1.209-67.163-.975-8.936-4.314-19.014-13.421-22.67-22.353-8.974-44.519 12.309-55.798 28.715-7.943 11.554-17.822 32.05 3.869 32.645 15.926.436 24.936-8.728 27.99-24 2.477-12.384-17.528 3.966-19.103 5.078-20.129 14.215-36.489 31.823-52.473 50.417-4.751 5.527-9.703 11.041-14.025 16.927-.153.208-3.642 4.934-.967 3.023 10.926-7.804 15.147-26.99 14.992-39.415-.052-4.179-1.226-10.791-6.287-11.97-9.883-2.303-20.147 15.019-23.577 21.763-7.477 14.7-13.066 39.334 4.836 48.725 3.866 2.028 8.962 3.226 13.119 1.27 2.854-1.344 3.195-5.106 5.017-7.436 2.753-3.521 10.398-9.969 10.398-14.992 0-2.574-9.895.913-10.035.967-13.013 4.964-24.016 15.575-32.282 26.478-9.87 13.019-24.808 33.481-21.884 51.022 2.16 12.958 11.569 21.664 23.758 24.907 8.325 2.215 17.347 3.115 25.934 2.237 8.219-.841 10.117-4.856 9.915-12.756-.77-30.018-42.331-34.136-64.564-26.841-17.332 5.687-32.82 19.871-33.733 38.811-1.202 24.95 22.548 36.272 44.01 36.272 10.266 0 21.536-2.364 22.972-14.509 1.601-13.538-4.833-27.289-11.728-38.448-5.883-9.522-12.46-19.969-19.707-28.534-3.91-4.62-8.906-8.03-15.053-8.645-15.375-1.537-27.67 14.201-36.514 24.967-4.024 4.899-8.008 9.728-10.337 15.718-6.404 16.468-3.468 37.413-3.265 54.771.205 17.498 6.566 31.248 19.708 42.982 20.822 18.59 53.996 6.916 69.34-13.542 11.134-14.845 19.883-38.251 16.261-57.007-3.644-18.871-24.515-31.01-41.954-35.063-7.663-1.78-21.7-3.8-28.292 1.693-10.099 8.415-5.87 31.476-.725 41.229 6.444 12.218 20.142 27.456 35.546 21.4 9.867-3.879 14.824-13.968 18.559-23.214 5.943-14.71 7.985-30.337 9.007-46.065 1.097-16.88 4.185-44.521-7.254-58.821-9.021-11.276-22.906 3.668-18.62 14.207 7.785 19.136 46.072 18.153 62.388 15.959 18.017-2.422 33.3-13.318 32.282-32.402-.278-5.201-1.551-12.048-7.194-14.086-13.263-4.789-26.385 7.618-32.342 17.955-8.607 14.932-13.232 33.743-13.542 50.901-.395 21.852 12.598 39.193 28.655 52.957 17.095 14.652 46.726 21.183 58.518-2.962 11.578-23.708 17.025-52.392 19.224-78.529.948-11.256 4.646-35.502-7.677-42.559-15.467-8.857-38.482.741-51.687 9.31-24.12 15.651-43.086 44.529-52.474 71.335-6.56 18.732 1.034 35.538 19.708 42.8 17.676 6.874 35.9.199 50.176-10.76 14.028-10.77 25.501-24.266 37.36-37.239 4.292-4.696 10.27-11.304 16.927-12.514 5.602-1.019.005 9.021-.726 10.096-8.284 12.177-21.787 18.919-35.486 23.153-5.66 1.75-18.891 6.854-22.73-.967-3.805-7.751 1.163-18.004 6.71-23.516 10.466-10.401 28.096-15.713 42.317-17.834 6.845-1.021 14.562.043 19.104 5.864 4.837 6.2 2.896 13.56-.121 20.191-9.184 20.179-24.481 37.299-40.504 52.292-9.489 8.879-20.969 20.16-33.853 24-10.886 3.244-8.512-12.134-6.046-17.713 3.127-7.072 9.663-13.154 17.108-15.415 16.474-5.005 6.636 29.254 5.018 34.579-6.985 22.991-26.47 60.446-56.1 58.639-17.54-1.07-18.131-19.306-10.761-31.677 4.236-7.111 25.248-22.509 29.682-6.711 5.28 18.81-13.352 29.318-27.747 35.365-7.761 3.261-16.096 5.436-24.484 3.265-10.047-2.601-11.708-11.699-12.272-20.917-.71-11.623 1.415-23.41 4.474-34.579.934-3.41 2.809-12.092 6.952-13.904 3.382-1.48 3.461 16.428 2.72 19.284-.071.275-1.747 4.83-.181 3.265 6.504-6.505 12.114-13.699 19.043-19.889 8.071-7.212 20.522-12.903 24.181 1.209 1.628 6.28 5.503 24.993-7.436 22.609-6.105-1.124-6.301-11.064-6.227-15.597.213-12.965 6.838-22.57 15.899-31.375 12.924-12.557 25.37-17.287 39.597-4.171 7.47 6.887 12.505 20.828 8.826 30.831-1.61 4.377-4.749 7.521-6.65 11.667-4.77 10.408-9.991 18.211-22.428 20.554-14.54 2.74-10.811-13.843-4.171-20.372 15.96-15.694 40.875 1.292 46.065 18.74 2.233 7.505 5.638 21.216-3.99 25.269-3.374 1.421-9.325.242-12.937.242-5.011 0-11.607 1.16-11.607-5.622 0-12.984 15.668-30.15 25.633-37.783 9.154-7.012 19.635-7.157 28.533.242 4.154 3.454 5.535 7.718 6.59 12.816.668 3.232 3.707 1.389 5.984.484 9.541-3.795 21.042-8.067 27.023-16.927 8.03-11.897-6.344-22.355-17.834-19.164-12.293 3.415-29.124 18.89-28.775 32.826.24 9.618 16.633 9.201 20.796 2.66 7.842-12.323-15.116-20.144-23.154-21.038-14.163-1.573-28.23 1.555-41.652 5.925-6.181 2.012-12.668 4.702-17.169 9.612-2.651 2.893-.363 5.131 2.781 6.408 16.985 6.9 39.939-8.705 51.99-18.68 16.909-13.996 33.054-35.013 35.788-57.491 1.358-11.17 1.075-29.123-10.761-35.002-13.037-6.477-29.297-3.449-30.045 12.695-.496 10.712 2.866 21.201 13.118 26.116 11.225 5.38 20.111 2.822 25.451-8.343 7.745-16.193 8.371-35.755 8.826-53.319.554-21.396-.627-41.408-13.602-59.123-10.378-14.17-28.639-21.31-46.065-21.038-4.223.066-5.97 2.843-4.413 6.65 1.975 4.827 6.1 7.724 10.821 9.672 15.81 6.527 34.132 7.572 50.962 8.403 18.196.899 34.414.487 48.302-12.816 15.125-14.487 25.074-36.032 26.962-56.886 4.268-47.136-56.805-6.532-70.126 9.552-13.011 15.711-22.104 36.137-28.05 55.496-3.466 11.286-5.466 24.761 7.557 30.226 23.447 9.84 61.644 10.565 72.302-17.41 6.4-16.802 18.908-73.599-15.779-68.554-10.621 1.545-18.257 13.54-19.586 23.395-2.053 15.218 4.612 31.905 14.387 43.345 21.124 24.721 53.951 45.917 84.332 56.705 13.767 4.888 23.179-.835 27.506-14.993 2.44-7.982 2.963-18.63 2.902-26.72-.099-13.086.632-32.452-7.073-44.009-13.246-19.869-45.046-4.494-59.244 4.594-21.077 13.492-41.149 34.582-48.785 59.002-11.905 38.07 24.408 60.555 58.155 57.551 16.142-1.436 33.352-5.704 43.768-19.103 12.168-15.653 15.835-36.559 17.229-55.737 1.12-15.39 3.054-33.656-17.35-33.491-22.282.179-42.166 10.837-57.369 26.418-12.998 13.319-33.07 39.699-16.504 57.369 4.509 4.81 12.362 12.044 19.708 10.942 8.013-1.202 10.39-16.92 11.728-22.911.886-3.971 2.959-12.132.967-16.323-3.072-6.46-18.299 3.616-20.977 5.683-17.588 13.573-32.008 40.879-13.481 59.062 3.681 3.614 7.852 6.472 12.392 8.887.676.359 7.126 2.831 3.084 2.902-7.501.131-20.904-1.726-25.149 6.529-2.451 4.766 5.206 2.879 7.496 2.116 4.115-1.372 9.417-10.528 9.008-14.751-1.277-13.199-27.367-6.789-33.914-4.534-11.935 4.111-20.829 24.063-12.333 35.184 5.597 7.325 25.328 15.107 26.116.725.768-14.019-19.724-32.086-32.342-19.889-11.976 11.576-18.921 38.891-6.711 52.413 7.749 8.58 19.296 16.117 30.831 18.136 5.89 1.03 15.814 1.906 17.29-5.925 4.594-24.367-18.494-51.943-38.569-63.415-11.784-6.734 2.476-29.903-14.025-33.309-15.491-3.199-28.643 21.947-22.61 34.639 10.631 22.361 39.805-13.261 43.406-24.665 2.602-8.241 4.839-18.26 3.687-26.962-1.662-12.559-19.994 9.251-21.702 11.547-11.598 15.588-17.816 37.832-17.653 57.128.195 22.907 7.256 50.563 23.093 67.888 3.681 4.027 35.432 30.645 40.443 19.466 3.725-8.309 1.341-11.123-6.77-11.123-5.547 0-8.502-9.31-16.02-9.31-7.052 0-12.189 13.831-13.481 19.647-2.243 10.093 9.532 14.905 17.35 15.779 13.026 1.456 30.814 3.491 43.163-1.935 9.499-4.174 16.051-16.814 20.433-25.511 6.645-13.188 10.485-31.004 8.766-45.763-2.084-17.885-30.5-22.317-43.587-15.295-17.751 9.526-23.081 33.102-19.768 51.325 3.374 18.557 21.031 24.203 38.025 25.813 18.694 1.771 33.823-17.665 40.02-33.732 1.286-3.335 4.234-9.676 2.781-13.421-2.544-6.556-16.951-4.659-21.703-3.506-16.776 4.072-40.167 24.698-36.816 43.889 2.041 11.69 18.22 13.907 28.05 13.783 2.339-.03 8.052-1.365 7.497-4.836-.677-4.232-9.282-3.307-11.97-2.781-16.099 3.15-30.077 20.467-12.212 31.556 11.152 6.922 26.056-5.812 32.403-13.602 7.922-9.722 12.348-19.864 14.993-32.221 2.95-13.784 4.94-29.302 2.115-43.284-2.442-12.088-13.823-19.258-24.846-22.972-10.784-3.635-20.89-2.355-30.468 3.748-7.702 4.907-20.003 14.296-19.526 24.785 1.158 25.484 40.345 22.953 56.946 20.554 11.038-1.595 21.492-4.426 29.441-12.634 11.918-12.307 21.792-28.622 28.292-44.433 2.091-5.088 8.948-22.367 2.599-27.023-5.637-4.133-16.734 15.069-18.438 17.834-4.005 6.497-16.391 33.425-5.32 38.811 4.669 2.271 15.109 4.197 18.983-.968.257-.342-1.051-.873-.665-1.027 1.392-.557 3.577.428 4.413 1.511 3.026 3.924 4.594 10.973 4.594 15.839 0 6.712-2.527 11.538-7.859 15.415-5.266 3.83-11.042 6.329-17.531 7.194-9.711 1.295-3.239-22.441-.846-26.599 6.984-12.14 15.833-18.986 30.347-18.559 14.179.417 13.998 12.883 12.635 23.939-2.124 17.227-19.85 33.496-36.937 36.453-3.662.634-9.035.961-12.635.061-13.957-3.489-15.304-19.272-16.262-31.375-1.589-20.075.828-40.89 4.716-60.574 3.548-17.965 10.193-32.132 23.879-44.493 10.852-9.803 21.641-15.236 36.453-12.696 14.933 2.562 30.009 9.121 39.899 20.917 31.293 37.327-10.528 85.977-39.899 109.299-10.34 8.21-23.918 16.882-37.783 15.839-12.322-.928-11.052-11.06-7.194-20.192 5.857-13.866 14.764-26.982 27.324-35.546 7.353-5.013 21.733-14.385 31.496-12.393 14.49 2.957 8.115 18.878.182 24.786-5.261 3.918-19.88 10.714-14.509-1.995 6.015-14.233 20.978-30.99 38.448-28.413 2.899.428 8.376 4.924 3.627 6.771-16.232 6.312-9.551-13.553-5.622-21.038 3.921-7.468 13.107-24.227 24.725-18.74 2.834 1.338 12.356 10.886 9.673 14.75-2.909 4.189-12.406 5.793-16.383 2.479-4.815-4.013-1.643-18.607-1.149-23.516 1.169-11.596 3.921-22.971 4.958-34.579.454-5.095 1.643-12.776-3.628-15.96-7.418-4.482-17.582-3.638-25.027.121-20.139 10.169-33.021 33.407-31.073 56.1 1.647 19.181 15.338 24.833 32.584 27.204 21.754 2.991 31.543-12.83 37.662-31.677 3.083-9.494 6.302-22.307 1.693-31.919-4.125-8.604-9.894-10.182-18.619-11.849-23.257-4.442-41.372 13.138-47.154 34.337-3.075 11.275-2.911 22.371-2.78 33.975.095 8.524 1.683 17.572 8.342 23.576 9.444 8.516 21.186 7.134 33.007 7.134 21.641 0 41.439-22.153 46.186-41.955 5.461-22.78 8.401-49.145.484-71.818-3.066-8.78-7.65-23.02-18.378-25.269-11.313-2.372-20.494 8.139-26.478 16.02-7.223 9.513-9.633 19.875-9.431 31.617.135 7.788 5.579 7.79 12.212 5.199 6.252-2.442 9.386-6.93 11.002-13.542 5.213-21.326-22.423-19.363-36.272-18.015-25.812 2.513-40.923 26.946-45.339 50.176-1.694 8.91-1.777 21.921 5.138 28.957 4.457 4.536 15.508 9.055 21.945 6.832 7.836-2.708 11.998-14.297 14.387-21.159 4.932-14.166 4.292-27.034-5.259-39.173-14.982-19.043-41.262-19.443-63.415-16.202-22.302 3.263-50.005 14.381-59.607 36.695-5.581 12.972-7.131 32.685-2.66 46.186 4.077 12.309 18.916 25.287 32.524 24.967 17.093-.401 30.824-20.85 37.42-34.156 16.652-33.588 25.585-72.803 32.826-109.359.382-1.925 13.989-72.543 8.403-72.785-2.575-.112-4.889 1.63-7.314 2.176-3.311.745-7.162.242-10.519.242-11.972 0-26.761 2.808-32.403 14.75-7.847 16.61-.07 37.408 15.597 45.944 8.102 4.415 19.445 6.489 28.534 4.837 18.347-3.336 24.583-24.388 27.385-40.202 2.294-12.951.282-25.379-15.658-25.813-6.877-.187-13.212 2.595-18.982 6.045-13.656 8.166-26.007 19.496-36.936 30.952-12.394 12.991-21.591 27.747-28.837 44.131-5.062 11.449-12.055 26.254-3.627 37.964 3.749 5.209 10.716 6.701 16.685 7.497 3.054.407 1.792-1.762-.242-2.419-6.459-2.087-24.759 3.163-16.685 12.272 5.571 6.285 15.64 7.722 23.456 8.766 16.563 2.213 24.228-1.562 32.403-16.564 9.117-16.731 13.538-35.217 17.35-53.743 5.268-25.598 8.451-52.85 2.116-78.649-6.48-26.386-28.464-30.681-53.017-30.529-35.816.223-65.03 15.974-88.443 42.861-13.017 14.949-27.664 39.117-21.763 60.212 5.015 17.925 35.817 22.645 51.022 20.553 16.713-2.299 35.403-15.367 42.922-30.589 5.702-11.544 10.256-32.032 6.105-44.614-5.354-16.231-38.347-9.834-31.495 2.539 5.72 10.331 21.838 11.236 31.919 11.063 18.587-.319 40.025-3.313 56.1-13.36 6.725-4.203 12.427-10.331 17.531-16.322 3.184-3.738-3.434 8.506-3.869 10.156-3.259 12.387-3.142 25.116 4.595 35.788 6.213 8.57 16.11 21.016 26.357 25.148 4.746 1.914 10.678 1.685 14.086-2.599 1.674-2.105 4.685-9.399 2.478-12.03-2.794-3.332-15.618-3.785-18.982-2.177-3.602 1.723-3.962 8.013-3.99 11.365-.071 8.699 8.459 13.229 16.202 13.905 27.248 2.378 52.527-8.633 69.52-29.501 6.556-8.051 4.827-12.982-5.017-14.388-12.595-1.799-21.126 4.497-25.149 16.564-4.388 13.164 11.445 8.726 18.439 4.111 12.098-7.985 4.022-11.596-5.199-18.015-5.679-3.953-7.461-12.518-13.784-14.993-15.894-6.219-32.786 13.066-35.485 26.902-.808 4.139-2.666 10.835 1.874 13.541 9.854 5.875 22.959 4.08 32.16-1.874 30.614-19.809 47.506-60.3 17.048-88.261-7.688-7.058-16.633-9.886-26.72-11.244-6.31-.85-15.151-2.746-20.01 2.599-5.168 5.686-6.289 15.138-5.501 22.428.502 4.649 5.562 5.461 9.431 6.106 12.131 2.022 25.523.959 34.7-8.161 3.841-3.818 12.544-16.371 8.282-22.307-3.752-5.225-15.16-5.542-20.615-4.05-7.042 1.925-22.354 15.573-8.463 19.405 20.246 5.585 32.631-7.421 35.546-26.237 1.967-12.694-9.663-25.397-22.73-21.702-17.969 5.08-15.97 32.133-2.297 40.987 12.502 8.096 28.495 8.852 34.276-6.469.928-2.459 3.067-10.501-2.236-9.491-7.978 1.52-11.596 9.23-12.877 16.443-3.499 19.706 6.988 36.674 25.934 42.317 12.245 3.648 20.323-1.662 23.819-13.178 2.571-8.468 1.293-14.993-2.902-22.428-6.87-12.179-6.843-30.767-22.428-35.305-19.858-5.781-37.189 9.839-48.664 24.121-7.303 9.089-20.296 23.815-14.267 36.755 4.625 9.928 23.177 11.308 32.342 12.272 18.71 1.97 38.761.374 51.385-15.234 11.467-14.178 20.79-30.663 10.7-48.06-9.328-16.083-17.139-38.685-32.524-49.874-13.199-9.599-30.657-10.794-46.609-7.98-12.573 2.22-24.204 11.747-30.287 22.67-9.138 16.411-16.614 36.678-17.894 55.496-2.239 32.91 37.937 41.573 61.662 26.66 13.926-8.753 23.891-23.433 29.38-38.75 6.519-18.191-2.452-30.86-18.256-40.02-6.408-3.714-13.368-9.62-20.917-10.459-12.211-1.356-24.529-3.508-36.876-1.45-12.675 2.112-25.155 10.698-30.711 22.428-4.091 8.637-9.962 21.557 1.935 25.632 10.189 3.489 20.091-3.221 26.66-10.398 11.219-12.258 21.224-28.583 27.627-43.95 3.65-8.761 5.565-18.054-2.177-24.604-5.271-4.46-12.918-9.488-19.828-10.64-14.937-2.489-31.892 4.458-45.461 9.975-29.576 12.025-39.233 41.651-39.355 72.302-.081 20.502 8.071 68.723 37.542 67.526 24.034-.976 40.503-24.324 40.503-46.912 0-19.626-12.389-38.325-24.967-52.533-6.741-7.615-18.435-14.236-27.264-4.897-3.566 3.772-21.519 28.814-15.96 34.579 5.987 6.209 20.747 3.67 27.869 3.023 10.626-.966 21.568-2.678 29.924-9.915 10.76-9.317 2.029-27.366-5.017-35.848-7.604-9.153-22.641-19.323-35.003-20.312-9.287-.743-20.959 7.726-28.654 12.15-10.817 6.22-17.183 16.338-21.582 27.87-5.339 13.997-12.079 33.528-1.935 46.911 6.941 9.156 22.423 19.291 34.64 14.811 11.239-4.121 5.613-24.103.484-30.106-9.427-11.03-31.384-15.449-45.219-16.141-2.096-.104-6.595 1.019-4.595 4.293 2.141 3.503 9.92 3.264 13.3 3.264 10.316 0 14.33-14.441 16.201-22.609 3.412-14.887-7.269-20.917-20.433-20.917-12.072 0-23.839 4.151-34.7 9.249-13.219 6.205-13.897 28.77-9.007 40.564 2.922 7.048 14.26 19.158 23.516 14.993 3.734-1.681 3.131-8.381 3.204-11.426.192-7.954.061-15.923.061-23.879 0-10.086-1.51-18.17-5.018-27.627-3.969-10.698-6.327-20.977-18.015-25.209-11.118-4.025-26.301-7.901-38.146-7.133-16.482 1.068-27.272 26.229-27.808 40.503-.483 12.847 8.119 15.631 18.922 16.564 7.935.686 16.037.492 23.516-2.66 7.836-3.302 11.905-12.094 16.02-18.982 9.69-16.22 21.245-32.23 5.743-48.241-5.813-6.004-10.91-11.445-18.076-15.9-4.857-3.019-10.898-5.539-15.355-8.946-13.678-10.46-30.669-17.85-46.246-25.21-23.06-10.894-42.735 7.816-54.408 26.419-10.603 16.899-37.861 45.369-25.269 67.405 6.237 10.914 18.642 17.496 29.864 22.004 11.191 4.496 25.872 9.129 37.904 5.079 24.013-8.084 52.654-34.43 48.181-62.388-3.794-23.709-30.676-39.91-52.957-42.196-10.718-1.1-21.071-.456-31.254 2.6-4.931 1.479-11.553 4.236-14.569 8.523-4.16 5.911-8.206 14.497.483 19.103 15.636 8.29 38.064 7.84 55.073 8.162 22.17.418 44.297-1.246 65.712-7.194 11.909-3.308 25.942 12.27 25.942-7.135 0-16.383-12.819-13.298-21.101-13.963-13.675-.342-.309 6.14-11.309-2.66-7.858-6.286-16.096-6.452-17.229 5.138-.602 6.148 1.053 10.463-.182 16.02-2.804 12.617 29.554 31.562 32.826 17.592 6.218-26.546-18.462-45.977-44.07-43.526-29.467 2.82-57.281 28.203-75.022 50.055-10.617 13.077-21.763 32.599-21.763 50.115 0 10.579 10.598 13.976 19.466 14.69 15.489 1.248 28.29-6.763 38.085-18.256 7.965-9.345-4.25-11.381-11.426-13.481-11.228-3.287-21.99-5.206-33.793-4.292-26.89 2.081-50.557 13.984-65.168 36.997-7.039 11.087-12.231 23.668-10.519 37.118.767 6.021 6.101 16.194 13.784 11.728 6.117-3.557 4.67-14.742 3.687-20.131-3.113-17.069-11.958-34.693-23.758-47.456-7.757-8.391-16.956-15.566-27.566-19.889-4.627-1.885-12.29-5.625-17.29-2.72-9.954 5.784-17.015 21.365-22.79 30.77-7.592 12.364-14.838 25.662-14.51 40.625.174 7.886 1.64 17.46 6.892 23.697 7.617 9.046 21.919 11.597 32.947 13.119 5.646.778 6.748-.219 6.106 5.561-.531 4.778-1.19 10.026.665 14.63 8.748 21.703 44.368 21.33 62.025 14.146 12.123-4.933 22.171-13.055 31.314-22.247 7.603-7.643 15.999-16.037 18.196-27.022 6.562-32.808-47.565-15.468-60.755-8.04-25.275 14.233-49.295 33.234-66.075 57.067-9.56 13.58-22.033 32.64-20.856 50.297 1.449 21.732 28.672 28.302 46.79 27.687 30.356-1.029 50.928-32.213 59.365-58.518 3.78-11.783 7.769-33.121-8.221-37.118-15.351-3.838-31.095 9.014-42.68 17.289-9.77 6.979-21.033 12.705-29.017 21.159-2.8 2.963-3.594 6.557-4.293 10.398-1.76 9.678-5.706 19.779-5.5 29.743.407 19.8 12.287 38.011 26.296 51.203 8.767 8.256 35.424 28.648 39.718 6.227 2.568-13.411-3.296-38.239-21.521-35.426-19.608 3.027-35.114 25.814-43.285 41.955-6.119 12.089-7.575 27.231 3.809 36.513 7.075 5.769 16.094 7.734 24.967 8.826 11.41 1.406 17.791-.599 25.39-9.612 9.129-10.827 11.642-23.23 14.086-36.876 1.904-10.635 5.528-23.979 2.478-34.881-3.083-11.023-12.9-20.398-24.06-22.368-12.484-2.203-27.264-4.168-39.657-.483-14.66 4.358-24.875 14.021-31.073 28.171-4.017 9.171-5.215 17.75-5.501 27.627-.567 19.554-2.489 35.845 10.398 52.654 10.216 13.325 34.593 16.426 50.236 16.081 24.089-.533 35.666-23.621 38.448-44.736 1.999-15.167 2.39-30.564 3.265-45.823.553-9.65 2.034-19.826-.182-29.38-2.289-9.872-9.117-15.585-15.959-22.428-7.171-7.17-12.404-12.706-22.55-15.174-6.898-1.678-13.755-2.042-20.614-3.566-3.416-.759-6.753-2.116-10.337-2.116" stroke="#F0F0F0" stroke-width="3" stroke-linecap="round"/></svg>