<svg width="35" height="35" fill="none" xmlns="http://www.w3.org/2000/svg"><path d="M9.478 29.167c-2.217 0-4.108-.763-5.673-2.29-1.565-1.536-2.348-3.407-2.348-5.614 0-1.896.569-3.588 1.706-5.075 1.148-1.488 2.645-2.436 4.492-2.844.612-2.236 1.828-4.045 3.646-5.425 1.828-1.39 3.893-2.085 6.198-2.085 2.848 0 5.26.991 7.233 2.975 1.983 1.973 2.975 4.384 2.975 7.233 1.682.194 3.072.923 4.17 2.187 1.11 1.245 1.663 2.703 1.663 4.375 0 1.828-.636 3.379-1.91 4.652-1.274 1.274-2.824 1.91-4.652 1.91m-17.5-2.916h17.5c1.02 0 1.881-.355 2.581-1.064.71-.7 1.065-1.56 1.065-2.582 0-1.02-.355-1.88-1.065-2.58-.7-.71-1.56-1.066-2.581-1.066H24.79v-2.916c0-2.013-.71-3.734-2.129-5.163-1.42-1.42-3.14-2.129-5.162-2.129-2.013 0-3.734.71-5.163 2.13-1.42 1.428-2.129 3.15-2.129 5.162h-.73c-1.409 0-2.61.5-3.601 1.502-1.002.992-1.502 2.192-1.502 3.602 0 1.41.5 2.625 1.502 3.646.991.972 2.192 1.458 3.602 1.458Z" fill="#C00"/></svg>