<svg width="35" height="35" fill="none" xmlns="http://www.w3.org/2000/svg"><path d="M22.86 16.042h4.848v-5.834H22.86v5.834Zm-7.803 0h4.85v-5.834h-4.85v5.834Zm-7.765 0h4.849v-5.834H7.29v5.834Zm0 8.75h4.849v-5.834H7.29v5.834Zm7.765 0h4.85v-5.834h-4.85v5.834Zm7.802 0h4.85v-5.834h-4.85v5.834Zm-18.484 0V10.208c0-.802.286-1.488.857-2.059a2.816 2.816 0 0 1 2.06-.857h20.416a2.81 2.81 0 0 1 2.061.857c.572.572.857 1.258.856 2.06v14.583c0 .802-.285 1.489-.856 2.06a2.802 2.802 0 0 1-2.06.856H7.291a2.807 2.807 0 0 1-2.06-.856 2.814 2.814 0 0 1-.857-2.06Z" fill="#002D9A"/></svg>