<svg width="35" height="35" fill="none" xmlns="http://www.w3.org/2000/svg"><path d="M14.06 11.142c.335-.73.525-1.532.525-2.392A5.832 5.832 0 0 0 8.75 2.917 5.832 5.832 0 0 0 2.918 8.75a5.832 5.832 0 0 0 5.833 5.833c.86 0 1.663-.19 2.392-.525l3.442 3.442-3.442 3.442a5.683 5.683 0 0 0-2.392-.526 5.832 5.832 0 0 0-5.833 5.834 5.832 5.832 0 0 0 5.833 5.833 5.832 5.832 0 0 0 5.834-5.833c0-.86-.19-1.663-.525-2.392l3.441-3.442L27.71 30.625h4.375v-1.459L14.06 11.142Zm-5.309.524a2.916 2.916 0 1 1 0-5.833 2.916 2.916 0 1 1 0 5.833Zm0 17.5a2.916 2.916 0 1 1 0-5.833 2.916 2.916 0 1 1 0 5.834Zm8.75-10.937a.722.722 0 0 1-.729-.73c0-.407.321-.728.73-.728.408 0 .729.32.729.729 0 .408-.321.729-.73.729ZM27.71 4.375l-8.75 8.75 2.916 2.916L32.085 5.833V4.375H27.71Z" fill="#F7D900"/></svg>