<svg width="35" height="35" fill="none" xmlns="http://www.w3.org/2000/svg"><path d="M9.8 13.292 4.75 17.5l5.05 4.208a1.642 1.642 0 0 1-.28 2.723 1.64 1.64 0 0 1-1.82-.202l-6.563-5.468a1.64 1.64 0 0 1 0-2.522L7.7 10.771a1.64 1.64 0 0 1 2.1 2.52Zm24.063 2.947L27.3 10.771a1.64 1.64 0 1 0-2.1 2.52l5.05 4.209-5.05 4.208a1.64 1.64 0 1 0 2.1 2.521l6.562-5.468a1.641 1.641 0 0 0 0-2.522ZM22.435 3.927a1.64 1.64 0 0 0-2.103.981l-8.75 24.063a1.641 1.641 0 0 0 3.084 1.12l8.75-24.062a1.643 1.643 0 0 0-.982-2.102Z" fill="#002D9A"/></svg>