<svg width="35" height="35" fill="none" xmlns="http://www.w3.org/2000/svg"><path d="M28.438 2.188H6.563c-.605 0-1.094.488-1.094 1.093V31.72c0 .605.489 1.093 1.093 1.093h21.875c.605 0 1.094-.488 1.094-1.093V3.28c0-.605-.488-1.094-1.093-1.094ZM7.93 4.647h19.14v7.11H7.93v-7.11Zm19.14 16.407H7.93v-7.11h19.14v7.11Zm0 9.297H7.93v-7.11h19.14v7.11ZM10.39 8.203a1.367 1.367 0 1 0 2.735 0 1.367 1.367 0 0 0-2.734 0Zm0 9.297a1.367 1.367 0 1 0 2.735 0 1.367 1.367 0 0 0-2.734 0Zm0 9.297a1.367 1.367 0 1 0 2.735 0 1.367 1.367 0 0 0-2.734 0Z" fill="#F7D900"/></svg>