<svg width="136" height="130" xmlns="http://www.w3.org/2000/svg"><g fill-rule="nonzero" fill="none"><path d="M26.91 0H13.453v6.7H6.727v6.7H0v20.1h6.727v6.7h6.727v6.7h6.728v6.7h6.727v6.7h6.727V67h6.728v-6.7h6.727v-6.7h6.727v-6.7h6.727v-6.7h6.728v-6.7H74V13.4h-6.727V6.7h-6.727V0H47.09v6.7h-6.727v6.7h-6.728V6.7H26.91V0Zm0 6.7v6.7h6.726v6.7h6.728v-6.7h6.727V6.7h13.454v6.7h6.728v20.1h-6.727v6.7h-6.728v6.7h-6.727v6.7h-6.727v6.7h-6.728v-6.7H26.91v-6.7h-6.727v-6.7h-6.727v-6.7H6.726V13.4h6.727V6.7H26.91Z" fill="#C00"/><path fill="#F7D900" d="m126.656 70.809-4.025 2.323 2.36 4.09 4.026-2.323z"/><path fill="#F7D900" d="m124.295 66.718-4.025 2.324 2.36 4.09 4.026-2.323z"/><path fill="#F7D900" d="m121.933 62.628-4.025 2.324 2.362 4.09 4.025-2.324z"/><path fill="#F7D900" d="m119.572 58.537-4.025 2.324 2.36 4.09 4.027-2.323zM117.21 54.447l-4.024 2.324 2.36 4.09 4.026-2.324z"/><path fill="#F7D900" d="m114.849 50.357-4.025 2.323 2.362 4.09 4.025-2.323zM112.488 46.266l-4.025 2.324 2.36 4.09 4.027-2.324zM129.716 85.404l-4.025 2.324 2.362 4.089 4.025-2.323z"/><path fill="#F7D900" d="m127.355 81.313-4.025 2.324 2.36 4.09 4.026-2.323zM124.994 77.223l-4.025 2.324 2.36 4.09 4.026-2.324z"/><path fill="#FFF" d="m122.632 73.132-4.025 2.324 2.362 4.09 4.025-2.323zM120.269 69.042l-4.025 2.324 2.362 4.09 4.025-2.324zM117.908 64.952l-4.025 2.323 2.36 4.09 4.026-2.323z"/><path fill="#FFF" d="m115.547 60.86-4.025 2.325 2.362 4.09 4.025-2.323z"/><path fill="#FFF" d="m113.185 56.77-4.025 2.325 2.362 4.09 4.025-2.324z"/><path fill="#FFF" d="m110.823 52.68-4.025 2.324 2.362 4.09 4.025-2.323z"/><path fill="#FFF" d="m108.463 48.59-4.025 2.324 2.36 4.09 4.026-2.324z"/><path fill="#F7D900" d="m106.1 44.5-4.024 2.323 2.362 4.09 4.025-2.323zM132.777 99.998l-4.025 2.324 2.362 4.09 4.025-2.323zM130.414 95.908l-4.025 2.324 2.36 4.09 4.026-2.324zM128.052 91.818l-4.025 2.323 2.362 4.09 4.025-2.323z"/><path fill="#FFF" d="m125.69 87.728-4.024 2.323 2.362 4.09 4.025-2.324z"/><path fill="#FFF" d="m123.33 83.637-4.025 2.324 2.36 4.09 4.026-2.323z"/><path fill="#FFF" d="m120.968 79.547-4.025 2.324 2.362 4.09 4.025-2.324z"/><path fill="#FFF" d="m118.607 75.456-4.025 2.324 2.362 4.09 4.025-2.323zM116.246 71.366l-4.025 2.324 2.36 4.09 4.026-2.324zM113.882 67.275l-4.025 2.324 2.362 4.09 4.025-2.323z"/><path fill="#FFF" d="m111.52 63.185-4.024 2.324 2.362 4.09 4.025-2.324z"/><path fill="#FFF" d="m109.16 59.095-4.025 2.324 2.36 4.09 4.026-2.324zM106.798 55.004l-4.025 2.324 2.362 4.09 4.025-2.323z"/><path fill="#FFF" d="m104.437 50.914-4.025 2.324 2.362 4.09 4.025-2.324zM102.076 46.823l-4.025 2.324 2.36 4.09 4.026-2.323z"/><path fill="#F7D900" d="m99.715 42.733-4.025 2.324 2.36 4.09 4.026-2.324zM128.752 102.322l-4.025 2.324 2.36 4.09 4.026-2.323z"/><path fill="#FFF" d="m126.39 98.232-4.025 2.324 2.362 4.09 4.025-2.324zM124.027 94.14l-4.025 2.325 2.362 4.09 4.025-2.323z"/><path fill="#FFF" d="m121.666 90.05-4.025 2.325 2.36 4.09 4.026-2.324z"/><path fill="#FFF" d="m119.304 85.96-4.025 2.325 2.362 4.09 4.025-2.324z"/><path fill="#FFF" d="m116.943 81.87-4.025 2.324 2.362 4.09 4.025-2.323z"/><path fill="#FFF" d="m114.582 77.78-4.025 2.324 2.36 4.09 4.026-2.323z"/><path fill="#FFF" d="m112.22 73.69-4.025 2.324 2.362 4.09 4.025-2.324z"/><path fill="#FFF" d="m109.859 69.599-4.025 2.324 2.362 4.09 4.025-2.323zM107.498 65.509l-4.025 2.324 2.36 4.09 4.026-2.324zM105.134 61.419l-4.025 2.323 2.362 4.09 4.025-2.323z"/><path fill="#F7D900" d="m102.773 57.328-4.025 2.324 2.362 4.09 4.025-2.324zM100.412 53.238l-4.025 2.324 2.36 4.09 4.026-2.324zM98.05 49.147l-4.024 2.324 2.36 4.09 4.026-2.323z"/><path fill="#F7D900" d="m95.689 45.057-4.025 2.324 2.362 4.09 4.025-2.324zM124.726 104.646l-4.025 2.324 2.362 4.09 4.025-2.324z"/><path fill="#FFF" d="m122.365 100.556-4.025 2.323 2.36 4.09 4.026-2.323z"/><path fill="#FFF" d="m120.004 96.465-4.025 2.324 2.36 4.09 4.026-2.323zM117.642 92.375l-4.025 2.324 2.362 4.09 4.025-2.324zM115.279 88.285l-4.025 2.323 2.362 4.09 4.025-2.323z"/><path fill="#FFF" d="m112.918 84.194-4.025 2.324 2.36 4.09 4.026-2.323zM110.557 80.104l-4.025 2.324 2.36 4.09 4.026-2.324zM108.195 76.014l-4.025 2.323 2.362 4.09 4.025-2.323z"/><path fill="#FFF" d="m105.834 71.923-4.025 2.324 2.36 4.09 4.026-2.323zM103.472 67.833l-4.025 2.324 2.362 4.09 4.025-2.324z"/><path fill="#FFF" d="m101.11 63.742-4.024 2.324 2.362 4.09 4.025-2.323zM98.748 59.652l-4.025 2.324 2.36 4.09 4.026-2.324z"/><path fill="#FFF" d="m96.387 55.56-4.026 2.325 2.362 4.09 4.025-2.323z"/><path fill="#FFF" d="M94.025 51.47 90 53.796l2.362 4.09 4.025-2.323z"/><path fill="#FFF" d="m91.664 47.38-4.025 2.325 2.36 4.09 4.026-2.324z"/><path fill="#F7D900" d="m89.303 43.29-4.026 2.324 2.362 4.09 4.025-2.323zM120.7 106.97l-4.024 2.324 2.36 4.09 4.026-2.324z"/><path fill="#FFF" d="m118.339 102.879-4.025 2.324 2.362 4.09 4.025-2.323zM115.978 98.789l-4.025 2.324 2.36 4.09 4.026-2.324zM113.617 94.699l-4.025 2.323 2.36 4.09 4.026-2.323z"/><path fill="#FFF" d="m111.255 90.608-4.025 2.324 2.362 4.09 4.025-2.323zM108.892 86.518l-4.025 2.324 2.362 4.09 4.025-2.324zM106.53 82.428l-4.024 2.324 2.36 4.09 4.026-2.324z"/><path fill="#FFF" d="m104.17 78.337-4.025 2.324 2.36 4.09 4.026-2.323z"/><path fill="#FFF" d="m101.808 74.247-4.025 2.324 2.362 4.09 4.025-2.324z"/><path fill="#FFF" d="m99.447 70.157-4.025 2.323 2.362 4.09 4.025-2.323zM97.086 66.066 93.06 68.39l2.36 4.09 4.026-2.323z"/><path fill="#FFF" d="M94.724 61.976 90.699 64.3l2.362 4.09 4.025-2.324zM92.36 57.885l-4.024 2.324 2.362 4.09 4.025-2.323z"/><path fill="#FFF" d="m90 53.795-4.025 2.324 2.36 4.09 4.026-2.324z"/><path fill="#FFF" d="m87.638 49.705-4.025 2.323 2.362 4.09L90 53.796z"/><path fill="#F7D900" d="m85.277 45.614-4.025 2.324 2.362 4.09 4.025-2.323zM116.675 109.294l-4.025 2.324 2.362 4.09 4.025-2.324z"/><path fill="#FFF" d="m114.314 105.203-4.025 2.324 2.362 4.09 4.025-2.323zM111.953 101.113l-4.025 2.324 2.36 4.09 4.026-2.324z"/><path fill="#FFF" d="m109.59 97.022-4.024 2.324 2.362 4.09 4.025-2.323z"/><path fill="#FFF" d="m107.23 92.932-4.025 2.324 2.362 4.09 4.025-2.324zM104.869 88.842l-4.025 2.324 2.36 4.09 4.026-2.324zM102.507 84.752l-4.024 2.324 2.36 4.089 4.026-2.323zM100.144 80.66l-4.025 2.325 2.362 4.09 4.025-2.323z"/><path fill="#FFF" d="m97.783 76.57-4.025 2.325 2.362 4.09 4.024-2.324z"/><path fill="#FFF" d="m95.422 72.48-4.025 2.324 2.36 4.09 4.026-2.323z"/><path fill="#FFF" d="m93.06 68.39-4.025 2.324 2.362 4.09 4.025-2.324z"/><path fill="#F7D900" d="m90.699 64.3-4.025 2.323 2.362 4.09 4.025-2.323z"/><path fill="#F7D900" d="m88.338 60.209-4.025 2.324 2.36 4.09L90.7 64.3z"/><path fill="#F7D900" d="m85.976 56.119-4.025 2.324 2.362 4.09 4.025-2.324zM83.613 52.028l-4.025 2.324 2.362 4.09 4.025-2.323zM81.252 47.938l-4.025 2.324 2.36 4.09 4.026-2.324zM112.652 111.618l-4.025 2.323 2.362 4.09 4.025-2.323z"/><path fill="#FFF" d="m110.289 107.527-4.025 2.324 2.36 4.09 4.026-2.323z"/><path fill="#FFF" d="m107.927 103.437-4.025 2.324 2.362 4.09 4.025-2.324z"/><path fill="#FFF" d="m105.566 99.346-4.025 2.324 2.362 4.09 4.025-2.323zM103.205 95.256 99.18 97.58l2.36 4.09 4.026-2.324zM100.843 91.166l-4.024 2.323 2.36 4.09 4.026-2.323zM98.482 87.076l-4.025 2.323 2.362 4.09 4.025-2.324zM96.12 82.985l-4.024 2.324 2.36 4.09 4.026-2.324zM93.758 78.895l-4.025 2.324 2.36 4.09 4.026-2.324z"/><path fill="#FFF" d="m91.396 74.804-4.025 2.324 2.362 4.09 4.025-2.323z"/><path fill="#FFF" d="m89.035 70.714-4.025 2.324 2.362 4.09 4.025-2.324z"/><path fill="#FFF" d="m86.674 66.623-4.025 2.324 2.36 4.09 4.026-2.323zM84.312 62.533l-4.025 2.324 2.362 4.09 4.025-2.324z"/><path fill="#FFF" d="m81.95 58.443-4.024 2.324 2.362 4.09 4.025-2.324z"/><path fill="#FFF" d="m79.59 54.352-4.025 2.324 2.36 4.09 4.026-2.323zM77.226 50.262 73.2 52.586l2.362 4.09 4.025-2.324z"/><path fill="#F7D900" d="m74.865 46.17-4.025 2.325 2.362 4.09 4.025-2.323zM108.627 113.94l-4.025 2.325 2.36 4.09 4.026-2.323z"/><path fill="#FFF" d="m106.265 109.85-4.025 2.325 2.362 4.09 4.025-2.324z"/><path fill="#FFF" d="m103.902 105.76-4.025 2.324 2.362 4.09 4.025-2.323z"/><path fill="#FFF" d="m101.54 101.67-4.024 2.324 2.36 4.09 4.026-2.323z"/><path fill="#FFF" d="m99.18 97.58-4.025 2.324 2.362 4.09 4.024-2.324z"/><path fill="#FFF" d="m96.818 93.489-4.025 2.324 2.362 4.09 4.025-2.323z"/><path fill="#FFF" d="m94.456 89.399-4.025 2.324 2.362 4.09 4.025-2.324z"/><path fill="#FFF" d="m92.095 85.309-4.025 2.324 2.362 4.09 4.025-2.324z"/><path fill="#FFF" d="m89.734 81.219-4.025 2.323 2.362 4.09 4.025-2.323zM87.37 77.128l-4.024 2.324 2.36 4.09 4.026-2.323z"/><path fill="#FFF" d="m85.01 73.038-4.025 2.324 2.36 4.09 4.026-2.324z"/><path fill="#FFF" d="m82.648 68.947-4.025 2.324 2.362 4.09 4.025-2.323zM80.287 64.857l-4.025 2.324 2.36 4.09 4.026-2.324zM77.926 60.767 73.9 63.09l2.36 4.09 4.026-2.323z"/><path fill="#FFF" d="M75.564 56.676 71.539 59l2.362 4.09 4.025-2.323z"/><path fill="#FFF" d="m73.203 52.586-4.025 2.324 2.36 4.09 4.027-2.324z"/><path fill="#F7D900" d="m70.84 48.495-4.025 2.324 2.36 4.09 4.026-2.323zM104.6 116.265l-4.024 2.324 2.362 4.09 4.025-2.323z"/><path fill="#FFF" d="m102.24 112.175-4.025 2.324 2.36 4.09 4.026-2.324z"/><path fill="#FFF" d="m99.879 108.084-4.025 2.324 2.36 4.09 4.026-2.323zM97.515 103.994l-4.025 2.324 2.362 4.09 4.025-2.324z"/><path fill="#FFF" d="m95.154 99.904-4.025 2.323 2.362 4.09 4.025-2.323z"/><path fill="#FFF" d="m92.793 95.813-4.025 2.324 2.36 4.09 4.026-2.323z"/><path fill="#FFF" d="m90.43 91.723-4.024 2.324 2.362 4.09 4.025-2.324z"/><path fill="#FFF" d="m88.07 87.633-4.025 2.323 2.362 4.09 4.025-2.323z"/><path fill="#FFF" d="m85.709 83.542-4.025 2.324 2.36 4.09 4.026-2.323zM83.347 79.452l-4.025 2.324 2.362 4.09 4.025-2.324z"/><path fill="#FFF" d="m80.986 75.362-4.025 2.323 2.362 4.09 4.025-2.323z"/><path fill="#F7D900" d="m78.623 71.27-4.025 2.325 2.36 4.09 4.026-2.323z"/><path fill="#F7D900" d="m76.262 67.18-4.026 2.325 2.362 4.09 4.025-2.324z"/><path fill="#F7D900" d="m73.9 63.09-4.025 2.324 2.362 4.09 4.025-2.323zM71.539 59l-4.025 2.324 2.36 4.09L73.9 63.09zM69.178 54.91l-4.026 2.323 2.362 4.09L71.539 59z"/><path fill="#F7D900" d="m66.816 50.819-4.025 2.324 2.362 4.09 4.025-2.323zM64.455 46.729l-4.025 2.324 2.36 4.09 4.026-2.324zM62.092 42.638l-4.025 2.324 2.36 4.09 4.026-2.323z"/><path fill="#F7D900" d="m59.73 38.548-4.025 2.324 2.362 4.09 4.025-2.324z"/><path fill="#F7D900" d="m57.369 34.457-4.025 2.324 2.36 4.09 4.027-2.323z"/><path fill="#F7D900" d="m55.008 30.367-4.025 2.324 2.36 4.09 4.026-2.323zM52.646 26.277 48.62 28.6l2.362 4.09 4.025-2.323zM100.576 118.589l-4.025 2.324 2.362 4.09 4.024-2.323z"/><path fill="#FFF" d="m98.215 114.499-4.025 2.324 2.36 4.09 4.026-2.324z"/><path fill="#FFF" d="m95.853 110.408-4.025 2.324 2.362 4.09 4.025-2.323z"/><path fill="#FFF" d="m93.492 106.318-4.025 2.324 2.362 4.09 4.025-2.324z"/><path fill="#FFF" d="m91.13 102.227-4.024 2.324 2.36 4.09 4.026-2.323zM88.767 98.137l-4.025 2.324 2.362 4.09 4.025-2.324z"/><path fill="#FFF" d="M86.406 94.047 82.38 96.37l2.362 4.09 4.025-2.323z"/><path fill="#FFF" d="M84.045 89.956 80.02 92.28l2.36 4.09 4.026-2.323z"/><path fill="#FFF" d="m81.683 85.866-4.025 2.324 2.362 4.09 4.025-2.324z"/><path fill="#FFF" d="M79.322 81.776 75.297 84.1l2.362 4.09 4.025-2.324z"/><path fill="#FFF" d="m76.96 77.685-4.024 2.324 2.36 4.09 4.026-2.323z"/><path fill="#FFF" d="m74.599 73.595-4.025 2.324 2.362 4.09 4.025-2.324zM72.236 69.505l-4.025 2.323 2.362 4.09 4.025-2.323z"/><path fill="#FFF" d="m69.875 65.414-4.025 2.324 2.36 4.09 4.026-2.323z"/><path fill="#FFF" d="m67.514 61.324-4.025 2.324 2.362 4.09 4.025-2.324z"/><path fill="#FFF" d="m65.152 57.233-4.025 2.324 2.362 4.09 4.025-2.323z"/><path fill="#FFF" d="m62.79 53.143-4.025 2.324 2.362 4.09 4.025-2.324z"/><path fill="#FFF" d="m60.429 49.053-4.025 2.323 2.362 4.09 4.025-2.323z"/><path fill="#FFF" d="m58.068 44.962-4.025 2.324 2.362 4.09 4.025-2.323zM55.705 40.872l-4.025 2.324 2.36 4.09 4.026-2.324z"/><path fill="#FFF" d="m53.344 36.78-4.025 2.325 2.36 4.09 4.026-2.323z"/><path fill="#FFF" d="m50.982 32.69-4.025 2.325 2.362 4.09 4.025-2.324z"/><path fill="#FFF" d="m48.62 28.6-4.024 2.324 2.36 4.09 4.026-2.323z"/><path fill="#F7D900" d="m46.26 24.51-4.025 2.324 2.36 4.09 4.026-2.324zM96.55 120.913l-4.024 2.324 2.36 4.09 4.026-2.324z"/><path fill="#FFF" d="m94.19 116.823-4.025 2.323 2.36 4.09 4.026-2.323z"/><path fill="#FFF" d="m91.828 112.732-4.025 2.324 2.36 4.09 4.027-2.323zM89.467 108.642l-4.025 2.324 2.36 4.09 4.026-2.324z"/><path fill="#FFF" d="m87.105 104.55-4.025 2.325 2.362 4.09 4.025-2.323z"/><path fill="#FFF" d="m84.744 100.46-4.025 2.325 2.36 4.09 4.027-2.324zM82.38 96.37l-4.024 2.324 2.36 4.09 4.026-2.323z"/><path fill="#FFF" d="m80.019 92.28-4.025 2.324 2.362 4.09 4.025-2.324z"/><path fill="#FFF" d="m77.658 88.19-4.025 2.324 2.362 4.09 4.025-2.324zM75.297 84.1l-4.025 2.324 2.36 4.09 4.026-2.324z"/><path fill="#FFF" d="m72.935 80.009-4.025 2.324 2.362 4.09 4.025-2.323z"/><path fill="#FFF" d="m70.574 75.919-4.025 2.324 2.36 4.09 4.027-2.324z"/><path fill="#FFF" d="m68.213 71.828-4.025 2.324 2.36 4.09 4.026-2.323zM65.849 67.738l-4.025 2.324 2.362 4.09 4.025-2.324z"/><path fill="#FFF" d="m63.488 63.648-4.025 2.324 2.362 4.09 4.025-2.324zM61.127 59.557l-4.025 2.324 2.36 4.09 4.026-2.323zM58.765 55.467 54.74 57.79l2.362 4.09 4.025-2.324z"/><path fill="#FFF" d="M56.404 51.376 52.379 53.7l2.362 4.09 4.025-2.323z"/><path fill="#FFF" d="m54.043 47.286-4.025 2.324 2.36 4.09 4.026-2.324zM51.68 43.196l-4.024 2.323 2.362 4.09 4.025-2.323zM49.318 39.105l-4.025 2.324 2.362 4.09 4.025-2.323z"/><path fill="#FFF" d="m46.957 35.015-4.025 2.324 2.36 4.09 4.026-2.324zM44.595 30.924l-4.025 2.324 2.362 4.09 4.025-2.323z"/><path fill="#F7D900" d="m42.234 26.834-4.025 2.324 2.362 4.09 4.025-2.324zM92.525 123.237 88.5 125.56l2.362 4.09 4.025-2.324z"/><path fill="#F7D900" d="m90.164 119.146-4.025 2.324 2.36 4.09 4.026-2.323z"/><path fill="#F7D900" d="m87.803 115.056-4.026 2.324 2.362 4.09 4.025-2.324z"/><path fill="#FFF" d="m85.44 110.966-4.024 2.323 2.362 4.09 4.025-2.323z"/><path fill="#FFF" d="m83.08 106.875-4.025 2.324 2.36 4.09 4.026-2.323zM80.719 102.785l-4.025 2.324 2.36 4.09 4.026-2.324z"/><path fill="#FFF" d="m78.357 98.694-4.025 2.324 2.362 4.09 4.025-2.323zM75.994 94.604l-4.025 2.324 2.36 4.09 4.027-2.324zM73.633 90.514l-4.025 2.323 2.36 4.09 4.026-2.323z"/><path fill="#F7D900" d="m71.27 86.424-4.024 2.323 2.362 4.09 4.025-2.323z"/><path fill="#F7D900" d="m68.91 82.333-4.025 2.324 2.362 4.09 4.025-2.323z"/><path fill="#F7D900" d="m66.549 78.243-4.025 2.324 2.36 4.09 4.026-2.324z"/><path fill="#F7D900" d="m64.187 74.152-4.025 2.324 2.362 4.09 4.025-2.323z"/><path fill="#F7D900" d="M61.826 70.062 57.8 72.386l2.362 4.09 4.025-2.324z"/><path fill="#F7D900" d="m59.465 65.972-4.025 2.323 2.36 4.09 4.026-2.323zM57.1 61.88l-4.024 2.325 2.362 4.09 4.025-2.324z"/><path fill="#F7D900" d="m54.74 57.79-4.025 2.325 2.362 4.09 4.025-2.324z"/><path fill="#F7D900" d="m52.379 53.7-4.025 2.324 2.36 4.09 4.026-2.323z"/><path fill="#F7D900" d="m50.017 49.61-4.025 2.324 2.362 4.09 4.025-2.324z"/><path fill="#F7D900" d="m47.656 45.519-4.025 2.324 2.362 4.09 4.025-2.323z"/><path fill="#F7D900" d="m45.295 41.429-4.025 2.324 2.36 4.09 4.026-2.324zM42.933 37.339l-4.025 2.323 2.362 4.09 4.025-2.323zM40.57 33.248l-4.025 2.324 2.362 4.09 4.025-2.323zM81.416 113.289l-4.025 2.324 2.36 4.09 4.026-2.323z"/><path fill="#F7D900" d="m79.054 109.199-4.025 2.324 2.362 4.09 4.025-2.324z"/><path fill="#FFF" d="m76.693 105.109-4.025 2.323 2.362 4.09 4.025-2.323z"/><path fill="#FFF" d="m74.332 101.018-4.025 2.324 2.36 4.09 4.026-2.323z"/><path fill="#FFF" d="m71.97 96.928-4.025 2.324 2.362 4.09 4.025-2.324z"/><path fill="#FFF" d="m69.609 92.837-4.025 2.324 2.362 4.09 4.025-2.323zM67.246 88.747 63.22 91.07l2.36 4.09 4.026-2.324z"/><path fill="#F7D900" d="M64.885 84.657 60.86 86.98l2.36 4.09 4.026-2.324zM72.668 107.432l-4.025 2.324 2.36 4.09 4.026-2.323zM70.306 103.342l-4.025 2.324 2.362 4.09 4.025-2.324z"/><path fill="#FFF" d="m67.945 99.252-4.025 2.323 2.362 4.09 4.025-2.323z"/><path fill="#FFF" d="m65.584 95.16-4.025 2.325 2.36 4.09 4.026-2.323z"/><path fill="#FFF" d="m63.222 91.07-4.025 2.325 2.362 4.09 4.025-2.324z"/><path fill="#FFF" d="m60.859 86.98-4.025 2.324 2.362 4.09 4.025-2.323z"/><path fill="#F7D900" d="m58.498 82.89-4.025 2.324 2.36 4.09 4.026-2.323zM63.92 101.576l-4.025 2.323 2.36 4.09 4.026-2.323z"/><path fill="#F7D900" d="m61.558 97.485-4.025 2.324 2.362 4.09 4.025-2.324z"/><path fill="#FFF" d="m59.197 93.395-4.025 2.324 2.362 4.09 4.025-2.324z"/><path fill="#FFF" d="m56.836 89.304-4.025 2.324 2.36 4.09 4.026-2.323z"/><path fill="#F7D900" d="m54.472 85.214-4.025 2.324 2.362 4.09 4.025-2.324zM55.172 95.719l-4.025 2.323 2.36 4.09 4.026-2.323z"/><path fill="#F7D900" d="m52.81 91.628-4.025 2.324 2.362 4.09 4.025-2.324z"/><path fill="#F7D900" d="m50.449 87.538-4.025 2.324 2.362 4.09 4.025-2.324z"/></g></svg>