<svg width="29" height="34" viewBox="0 0 29 34" fill="none" xmlns="http://www.w3.org/2000/svg">
<path d="M15.0287 8.23428C14.9714 6.10769 13.6971 4.07447 11.8856 2.9799C10.4471 2.11068 8.50734 1.48014 6.81626 1.53267C2.16501 1.67715 1.27479 6.9467 1.42676 10.6653C1.74511 18.455 7.33826 22.9575 10.5113 29.4992C10.9607 30.4258 11.988 33.312 11.824 32.2959C11.7291 31.7084 11.7658 31.5718 12.0615 30.9028C13.3044 28.0911 15.0074 25.4181 16.7066 22.8692C19.8101 18.2135 24.582 14.1273 27.0813 9.12202C28.6224 6.03557 27.0493 3.5497 23.6151 3.26826C19.5548 2.93553 16.9587 5.24301 14.7317 8.17263" stroke="#CC0000" stroke-width="2" stroke-linecap="round"/>
</svg>
