<?xml version="1.0" encoding="UTF-8"?>
<svg width="45px" height="41px" viewBox="0 0 45 41" version="1.1" xmlns="http://www.w3.org/2000/svg" xmlns:xlink="http://www.w3.org/1999/xlink">
    <title>Slice 1</title>
    <g id="Page-1" stroke="none" stroke-width="1" fill="none" fill-rule="evenodd">
        <g id="sealworks_logo" transform="translate(1.741000, 1.749817)">
            <g id="Group" transform="translate(8.760000, 25.890183)" fill-rule="nonzero">
                <path d="M33.996,6.187 C33.996,9.604 26.386,12.373 17.003,12.373 C7.62,12.373 0.009,9.603 0.009,6.187 C0.01,2.77 7.62,0 17.003,0 C26.386,0 33.996,2.77 33.996,6.187 L33.996,6.187 Z" id="Path" fill="#F8F8FC"></path>
                <path d="M33.411,6.187 C33.411,9.547 25.933,12.269 16.711,12.269 C7.487,12.269 0.008,9.547 0.008,6.187 C0.008,2.827 7.488,0.105 16.71,0.105 C25.933,0.105 33.411,2.827 33.411,6.187 Z" id="Path" fill="#EFF1F9"></path>
                <path d="M32.817,6.187 C32.817,9.49 25.471,12.164 16.408,12.164 C7.346,12.164 0,9.49 0,6.187 C0,2.884 7.346,0.209 16.408,0.209 C25.471,0.209 32.817,2.884 32.817,6.187 Z" id="Path" fill="#E4E8F2"></path>
                <path d="M32.232,6.187 C32.232,9.423 25.018,12.05 16.116,12.05 C7.214,12.05 0.01,9.423 0.01,6.187 C0.01,2.95 7.224,0.324 16.116,0.324 C25.009,0.324 32.232,2.951 32.232,6.187 Z" id="Path" fill="#D9DFEF"></path>
                <path d="M31.638,6.187 C31.638,9.366 24.556,11.945 15.824,11.945 C7.09,11.945 0.009,9.365 0.009,6.187 C0.01,3.007 7.091,0.428 15.824,0.428 C24.556,0.428 31.638,3.008 31.638,6.187 Z" id="Path" fill="#CED6EB"></path>
                <path d="M31.054,6.187 C31.054,9.309 24.104,11.84 15.531,11.84 C6.96,11.84 0.01,9.31 0.01,6.187 C0.01,3.065 6.96,0.533 15.531,0.533 C24.104,0.533 31.054,3.065 31.054,6.187 Z" id="Path" fill="#C4CDE8"></path>
                <path d="M30.46,6.187 C30.46,9.252 23.641,11.736 15.23,11.736 C6.818,11.736 0,9.252 0,6.186 C0,3.123 6.818,0.639 15.23,0.639 C23.641,0.639 30.46,3.123 30.46,6.188 L30.46,6.187 Z" id="Path" fill="#B8C4E1"></path>
                <path d="M29.875,6.187 C29.875,9.185 23.189,11.622 14.947,11.622 C6.705,11.622 0.019,9.185 0.019,6.187 C0.019,3.189 6.705,0.752 14.947,0.752 C23.189,0.752 29.875,3.189 29.875,6.187 Z" id="Path" fill="#ADBBDD"></path>
                <path d="M29.28,6.187 C29.28,9.127 22.727,11.517 14.645,11.517 C6.563,11.517 0.009,9.127 0.009,6.187 C0.009,3.246 6.563,0.857 14.645,0.857 C22.727,0.857 29.281,3.246 29.281,6.187 L29.28,6.187 Z" id="Path" fill="#A4B3DA"></path>
                <path d="M28.696,6.187 C28.696,9.071 22.274,11.412 14.353,11.412 C6.43,11.412 0.009,9.071 0.009,6.187 C0.01,3.303 6.431,0.96 14.353,0.96 C22.274,0.96 28.696,3.302 28.696,6.186 L28.696,6.187 Z" id="Path" fill="#99AAD7"></path>
                <path d="M28.102,6.187 C28.102,9.014 21.812,11.298 14.051,11.298 C6.29,11.298 0,9.004 0,6.187 C0,3.369 6.29,1.066 14.05,1.066 C21.812,1.066 28.102,3.36 28.102,6.186 L28.102,6.187 Z" id="Path" fill="#8DA1D0"></path>
                <ellipse id="Oval" fill="#8298CE" cx="13.759" cy="6.187" rx="13.749" ry="5.007"></ellipse>
                <path d="M26.923,6.187 C26.923,8.89 20.897,11.089 13.466,11.089 C6.036,11.089 0.009,8.889 0.009,6.187 C0.009,3.484 6.035,1.285 13.466,1.285 C20.897,1.285 26.923,3.484 26.923,6.187 Z" id="Path" fill="#788FC8"></path>
                <path d="M26.338,6.187 C26.338,8.833 20.445,10.984 13.174,10.984 C5.904,10.984 0.009,8.842 0.009,6.187 C0.01,3.53 5.903,1.39 13.174,1.39 C20.444,1.39 26.338,3.531 26.338,6.187 Z" id="Path" fill="#6D87C4"></path>
                <path d="M25.754,6.187 C25.754,8.776 19.992,10.87 12.882,10.87 C5.772,10.87 0.009,8.776 0.009,6.187 C0.009,3.597 5.771,1.504 12.882,1.504 C19.992,1.504 25.754,3.598 25.754,6.187 Z" id="Path" fill="#647EBE"></path>
                <path d="M25.16,6.187 C25.16,8.719 19.53,10.765 12.58,10.765 C5.63,10.765 0.01,8.719 0.01,6.187 C0.01,3.655 5.64,1.609 12.58,1.609 C19.52,1.609 25.16,3.655 25.16,6.187 Z" id="Path" fill="#5975B9"></path>
                <path d="M24.566,6.187 C24.566,8.652 19.068,10.66 12.288,10.66 C5.508,10.66 0.009,8.661 0.009,6.187 C0.009,3.712 5.507,1.713 12.288,1.713 C19.068,1.713 24.566,3.712 24.566,6.187 Z" id="Path" fill="#4F6CB3"></path>
                <path d="M23.98,6.187 C23.98,8.595 18.615,10.556 11.995,10.556 C5.375,10.556 0.01,8.604 0.01,6.186 C0.01,3.769 5.376,1.818 11.996,1.818 C18.616,1.818 23.982,3.769 23.982,6.187 L23.98,6.187 Z" id="Path" fill="#4463AE"></path>
                <ellipse id="Oval" fill="#3A5BA9" cx="11.703" cy="6.187" rx="11.693" ry="4.255"></ellipse>
                <path d="M22.802,6.187 C22.802,8.481 17.7,10.337 11.402,10.337 C5.102,10.337 0.009,8.481 0.009,6.187 C0.009,3.893 5.111,2.037 11.401,2.037 C17.691,2.037 22.802,3.893 22.802,6.187 Z" id="Path" fill="#3254A5"></path>
                <path d="M22.217,6.187 C22.217,8.423 17.247,10.232 11.118,10.232 C4.988,10.232 0.018,8.423 0.018,6.187 C0.018,3.95 4.988,2.142 11.118,2.142 C17.248,2.142 22.218,3.95 22.218,6.187 L22.217,6.187 Z" id="Path" fill="#294CA0"></path>
                <path d="M21.623,6.187 C21.623,8.357 16.786,10.1170004 10.816,10.1170004 C4.847,10.118 0.01,8.358 0.01,6.188 C0.01,4.018 4.848,2.248 10.817,2.248 C16.787,2.248 21.624,4.008 21.624,6.188 L21.623,6.187 Z" id="Path" fill="#1D459D"></path>
                <path d="M21.039,6.187 C21.039,8.3 16.333,10.013 10.524,10.013 C4.715,10.013 0.01,8.3 0.01,6.187 C0.01,4.074 4.715,2.36 10.524,2.36 C16.333,2.36 21.04,4.074 21.04,6.187 L21.039,6.187 Z" id="Path" fill="#223F96"></path>
                <path d="M20.445,6.187 C20.445,8.243 15.871,9.908 10.222,9.908 C4.574,9.908 0,8.243 0,6.187 C0,4.131 4.574,2.465 10.222,2.465 C15.871,2.465 20.445,4.131 20.445,6.187 Z" id="Path" fill="#002D9A"></path>
            </g>
            <path d="M25.433,1.32518276 C23.783,0.725182761 23.65,0.677182761 22.433,0.401182761 C20.859,0.116182761 20.613,0.0781827613 19.247,0.00118276133 C17.681,0.00118276133 17.549,0.00118276133 16.446,0.106182761 C14.994,0.316182761 14.899,0.335182761 14.013,0.554182761 C12.645,0.944182761 12.617,0.954182761 11.873,1.23918276 L11.533,1.37218276 C10.599,1.75218276 9.948,2.80918276 9.656,4.53218276 C9.68899838,4.51534776 9.72392131,4.50258746 9.76,4.49418276 C10.731,4.11418276 11.608,4.08418276 12.25,4.34218276 C16.465,0.753182761 21.397,-0.321817239 25.433,1.31518276 L25.433,1.32518276 L25.433,1.32518276 Z M4.102,6.96918276 C3.819,7.34018276 3.442,7.84418276 3.178,8.23518276 C2.47,9.35818276 2.442,9.40518276 2.093,10.0811828 C1.48,11.3571828 1.433,11.4611828 1.122,12.3181828 C0.66,13.7551828 0.594,13.9461828 0.367,15.0781828 C0.122,16.6401828 0.066,16.9631828 0.019,18.4671828 C0.067,14.8591828 2.217,11.3671828 6.102,8.90118276 C6.112,8.11118276 6.498,7.24518276 7.111,6.47418276 C5.602,6.16918276 4.602,6.36018276 4.112,6.96918276 L4.102,6.96918276 Z M11.287,35.8941828 C12.843,36.4941828 13.127,36.5991828 14.635,36.9601828 C16.21,37.2461828 16.455,37.2841828 17.823,37.3601828 C19.388,37.3601828 19.52,37.3601828 20.623,37.2551828 C22.076,37.0451828 22.16,37.0271828 23.056,36.8081828 C24.424,36.4181828 24.452,36.4081828 25.197,36.1231828 L25.338,36.0661828 C23.688,36.7221828 21.265,35.3801828 18.548,31.9441828 C14.248,26.4901828 10.637,17.5241828 9.703,10.4621828 C9.684,10.4621828 9.675,10.4721828 9.656,10.4811828 C8.666,10.8711828 7.77,10.8911828 7.129,10.6141828 C2.961,17.9721828 2.753,27.1471828 7.063,32.6101828 C8.26,34.1331828 9.693,35.2181828 11.278,35.9041828 L11.288,35.8941828 L11.287,35.8941828 Z M32.845,30.5551828 C33.165,30.1351828 33.59,29.5751828 33.892,29.1361828 C34.589,28.0321828 34.627,27.9661828 34.985,27.2901828 C35.598,26.0141828 35.645,25.9101828 35.957,25.0531828 C36.419,23.6161828 36.485,23.4261828 36.721,22.2931828 C36.966,20.7321828 37.022,20.4081828 37.07,18.9041828 L37.07,18.4191828 C37.041,16.2771828 36.277,14.1071828 34.703,12.1181828 C30.403,6.66418276 21.443,4.27518276 13.343,6.02618276 L13.343,6.08418276 C13.333,6.89318276 12.938,7.77818276 12.297,8.56818276 C18.322,11.8521828 25.725,18.0001828 30.025,23.4641828 C32.817,27.0041828 33.712,29.5081828 32.845,30.5641828 L32.845,30.5541828 L32.845,30.5551828 Z" id="Shape" fill="#F7D900" fill-rule="nonzero"></path>
            <path d="M37.0601793,18.8951828 C37.098,9.64318276 31.09,3.76118276 25.942,1.54318276 C18.954,-1.47381724 10.967,0.0111827613 5.592,5.31318276 C3.215,7.66318276 2.018,10.1191828 1.622,11.0711828 C0.386,13.9741828 0.094,16.0491828 0.018,18.4671828" id="Path"></path>
            <path d="M0.009,18.4671828 C0.066,13.9171828 3.469,9.53918276 9.486,7.19718276 C3.47,9.54018276 0.066,13.9171828 0.009,18.4671828 M0.009,18.4671828 C0.047,20.0181828 0.084,21.4841828 0.613,23.4641828 C1.339,26.1571828 2.376,27.8891828 2.668,28.3561828 C3.225,29.2221828 4.385,31.0301828 6.035,32.4961828 C7.251,33.5721828 9.119,35.0191828 11.118,35.8181828 C12.098,36.2181828 13.938,36.9511828 15.908,37.1881828 C18.181,37.4651828 20.142,37.4271828 21.746,37.0841828 C23.481,36.7221828 28.101,35.7421828 32.1,31.3921828 C36.541,26.5571828 37.041,21.0361828 37.05,18.8951828" id="Shape"></path>
            <path d="M11.523,1.38218276 C11.061,1.59118276 10.448,1.86718276 9.996,2.09618276 C9.266,2.50218276 8.726,2.82218276 8.374,3.05618276 C7.72,3.51418276 7.236,3.86918276 6.921,4.12318276 C6.025,4.89318276 6.007,4.90318276 5.591,5.31318276 C4.761,6.16918276 4.743,6.18818276 4.347,6.66418276 L4.111,6.95918276 C4.488,6.48318276 4.988,7.28318276 5.988,7.34918276 C6.28,7.36918276 6.77,6.39818276 7.11,6.46418276 C7.78623505,5.61995373 8.66090743,4.95621962 9.656,4.53218276 C9.75,3.97118276 11.118,3.42818276 11.278,3.00918276 C11.627,2.14318276 10.901,1.62918276 11.523,1.37218276 L11.523,1.38218276 Z M37.06,18.4101828 C36.975,16.6961828 36.956,16.3921828 36.683,14.8971828 C36.268,13.2031828 36.183,12.8511828 35.533,11.2141828 C34.844,9.76718276 34.335,8.72018276 33.043,7.04418276 C31.996,5.81718276 31.233,4.93218276 29.544,3.63718276 C28.158,2.68618276 27.79,2.42918276 25.942,1.53418276 L25.423,1.31518276 C22.481,0.125182761 17.115,0.135182761 13.843,1.74318276 C12.627,2.34318276 13.381,3.36118276 12.24,4.34218276 C12.91,4.60818276 13.324,5.18918276 13.334,6.00718276 C17.493,5.11318276 21.378,8.87218276 25.244,10.0151828 C28.903,11.0901828 32.6,9.45318276 34.694,12.1091828 C36.268,14.0981828 37.022,16.2681828 37.06,18.4091828 L37.06,18.4101828 Z M25.348,36.0661828 C25.9277126,35.8125244 26.503127,35.5491539 27.074,35.2761828 C27.6262669,34.9754908 28.1672985,34.6546077 28.696,34.3141828 C29.666,33.6381828 29.705,33.6101828 30.148,33.2481828 C30.6013193,32.8628203 31.0447951,32.4660261 31.478,32.0581828 C32.308,31.2021828 32.326,31.1831828 32.722,30.7071828 L32.845,30.5641828 C33.703,29.5081828 32.817,27.0041828 30.025,23.4641828 C26.81,19.3801828 22.735,13.6121828 17.917,10.2431828 C16.295,9.11018276 13.815,9.40518276 12.287,8.57718276 C11.6055339,9.41725844 10.723379,10.0720822 9.722,10.4811828 C10.656,17.5431828 14.267,26.5091828 18.568,31.9631828 C21.274,35.3991828 23.698,36.7411828 25.358,36.0851828 L25.348,36.0651828 L25.348,36.0661828 Z" id="Shape" fill="#F7D900" fill-rule="nonzero"></path>
            <path d="M11.287,35.8941828 C12.843,36.4941828 13.127,36.5991828 14.635,36.9601828 C16.21,37.2461828 16.455,37.2841828 17.823,37.3601828 C19.388,37.3601828 19.52,37.3601828 20.623,37.2551828 C22.076,37.0451828 22.16,37.0271828 23.056,36.8081828 C24.424,36.4181828 24.452,36.4081828 25.197,36.1231828 L25.338,36.0661828 C23.688,36.7221828 21.265,35.3801828 18.548,31.9441828 C14.248,26.4901828 10.637,17.5241828 9.703,10.4621828 C9.684,10.4621828 9.675,10.4721828 9.656,10.4811828 C8.666,10.8711828 7.77,10.8911828 7.129,10.6141828 C2.961,17.9721828 2.753,27.1471828 7.063,32.6101828 C8.26,34.1331828 9.693,35.2181828 11.278,35.9041828 L11.288,35.8941828 L11.287,35.8941828 Z" id="Path" fill="#CC0000" fill-rule="nonzero"></path>
            <path d="M0.009,18.5621828 C0.056,20.3131828 0.084,21.2741828 0.622,23.4641828 C1.132,25.1391828 1.235,25.4811828 1.97,27.0611828 C2.847,28.6511828 2.998,28.9461828 4.036,30.3171828 C5.082,31.5441828 5.846,32.4301828 7.525,33.7241828 C8.911,34.6761828 9.279,34.9331828 11.127,35.8281828 L11.287,35.8941828 C9.703,35.2181828 8.27,34.1241828 7.072,32.6011828 C2.772,27.1471828 2.97,17.9621828 7.138,10.6051828 C6.478,10.3191828 6.082,9.73918276 6.082,8.91018276 C2.178,11.3951828 0.028,14.9261828 0,18.5521828 L0.009,18.5621828 Z" id="Path" fill="#F7D900" fill-rule="nonzero"></path>
            <path d="M37.0601793,18.8951828 C37.098,9.64318276 31.09,3.76118276 25.942,1.54318276 C18.954,-1.47381724 10.967,0.0111827613 5.592,5.31318276 C3.215,7.66318276 2.018,10.1191828 1.622,11.0711828 C0.386,13.9741828 0.094,16.0491828 0.018,18.4671828 C0.075,13.9171828 3.479,9.53918276 9.496,7.19718276 C3.479,9.54018276 0.075,13.9171828 0.018,18.4671828 C0.056,20.0181828 0.094,21.4841828 0.622,23.4641828 C1.348,26.1571828 2.385,27.8891828 2.678,28.3561828 C3.234,29.2221828 4.394,31.0301828 6.044,32.4961828 C7.261,33.5721828 9.128,35.0191828 11.127,35.8181828 C12.107,36.2181828 13.947,36.9511828 15.917,37.1881828 C18.19,37.4651828 20.152,37.4271828 21.755,37.0841828 C23.49,36.7221828 28.111,35.7421828 32.109,31.3921828 C36.551,26.5571828 37.051,21.0361828 37.0601793,18.8951828 Z" id="Path"></path>
            <path d="M0.009,18.4671828 C0.066,13.9171828 3.469,9.53918276 9.486,7.19718276 C3.47,9.54018276 0.066,13.9171828 0.009,18.4671828" id="Path"></path>
            <path d="M32.845,30.5551828 C33.165,30.1351828 33.59,29.5751828 33.892,29.1361828 C34.589,28.0321828 34.627,27.9661828 34.985,27.2901828 C35.598,26.0141828 35.645,25.9101828 35.957,25.0531828 C36.419,23.6161828 36.485,23.4261828 36.721,22.2931828 C36.966,20.7321828 37.022,20.4081828 37.07,18.9041828 L37.07,18.4191828 C37.041,16.2771828 36.277,14.1071828 34.703,12.1181828 C30.403,6.66418276 21.443,4.27518276 13.343,6.02618276 L13.343,6.08418276 C13.333,6.89318276 12.938,7.77818276 12.297,8.56818276 C18.322,11.8521828 25.725,18.0001828 30.025,23.4641828 C32.817,27.0041828 33.712,29.5081828 32.845,30.5641828 L32.845,30.5541828 L32.845,30.5551828 Z M4.102,6.96918276 C3.819,7.34018276 3.442,7.84418276 3.178,8.23518276 C2.47,9.35818276 2.442,9.40518276 2.093,10.0811828 C1.48,11.3571828 1.433,11.4611828 1.122,12.3181828 C0.66,13.7551828 0.594,13.9461828 0.367,15.0781828 C0.122,16.6401828 0.066,16.9631828 0.019,18.4671828 C0.067,14.8591828 2.217,11.3671828 6.102,8.90118276 C6.112,8.11118276 6.498,7.24518276 7.111,6.47418276 C5.602,6.16918276 4.602,6.36018276 4.112,6.96918276 L4.102,6.96918276 Z M25.433,1.32518276 C23.783,0.725182761 23.65,0.677182761 22.433,0.401182761 C20.859,0.116182761 20.613,0.0781827613 19.247,0.00118276133 C17.681,0.00118276133 17.549,0.00118276133 16.446,0.106182761 C14.994,0.316182761 14.899,0.335182761 14.013,0.554182761 C12.645,0.944182761 12.617,0.954182761 11.873,1.23918276 L11.533,1.37218276 C10.599,1.75218276 9.948,2.80918276 9.656,4.53218276 C9.68899838,4.51534776 9.72392131,4.50258746 9.76,4.49418276 C10.731,4.11418276 11.608,4.08418276 12.25,4.34218276 C16.465,0.753182761 21.397,-0.321817239 25.433,1.31518276 L25.433,1.32518276 L25.433,1.32518276 Z" id="Shape" fill="#CC0000" fill-rule="nonzero"></path>
            <path d="M37.0601793,18.8951828 C37.098,9.64318276 31.09,3.76118276 25.942,1.54318276 C18.954,-1.47381724 10.967,0.0111827613 5.592,5.31318276 C3.215,7.66318276 2.018,10.1191828 1.622,11.0711828 C0.386,13.9741828 0.094,16.0491828 0.018,18.4671828 M0.009,18.4671828 C0.047,20.0181828 0.084,21.4841828 0.613,23.4641828 C1.339,26.1571828 2.376,27.8891828 2.668,28.3561828 C3.225,29.2221828 4.385,31.0301828 6.035,32.4961828 C7.251,33.5721828 9.119,35.0191828 11.118,35.8181828 C12.098,36.2181828 13.938,36.9511828 15.908,37.1881828 C18.181,37.4651828 20.142,37.4271828 21.746,37.0841828 C23.481,36.7221828 28.101,35.7421828 32.1,31.3921828 C36.541,26.5571828 37.041,21.0361828 37.05,18.8951828" id="Shape" stroke="#002D9A" stroke-width="1.5" stroke-linecap="round" stroke-linejoin="round"></path>
        </g>
    </g>
</svg>