<?xml version="1.0" encoding="UTF-8"?>
<svg width="351.740574px" height="52.7500392px" viewBox="0 0 351.740574 52.7500392" version="1.1" xmlns="http://www.w3.org/2000/svg" xmlns:xlink="http://www.w3.org/1999/xlink">
    <title>sealworks_logo</title>
    <g id="Page-1" stroke="none" stroke-width="1" fill="none" fill-rule="evenodd">
        <g id="sealworks_logo" transform="translate(0.740574, 0.750039)">
            <g id="Group" transform="translate(-0.000000, 0.000000)">
                <g transform="translate(8.760624, 25.890652)">
                    <path d="M33.9957495,6.18674922 C33.9957495,9.60373841 26.3856053,12.3734984 17.0025898,12.3734984 C7.61957436,12.3734984 0.00943016629,9.60373841 0.00943016629,6.18674922 C0.00943016629,2.76976004 7.61957436,0 17.0025898,0 C26.3856053,0 33.9957495,2.76976004 33.9957495,6.18674922 Z" id="Path" fill="#F8F8FC"></path>
                    <path d="M33.4110791,6.18674922 C33.4110791,9.54662996 25.9329573,12.2687996 16.7102547,12.2687996 C7.48755203,12.2687996 0.00943016629,9.54662996 0.00943016629,6.18674922 C0.00943016629,2.82686849 7.48755203,0.104698833 16.7102547,0.104698833 C25.9329573,0.104698833 33.4110791,2.82686849 33.4110791,6.18674922 Z" id="Path" fill="#EFF1F9"></path>
                    <path d="M32.8169787,6.18674922 C32.8169787,9.4895215 25.4708791,12.1641008 16.4084893,12.1641008 C7.34609954,12.1641008 1.413034e-14,9.4895215 1.413034e-14,6.18674922 C1.413034e-14,2.88397695 7.34609954,0.209397666 16.4084893,0.209397666 C25.4708791,0.209397666 32.8169787,2.88397695 32.8169787,6.18674922 Z" id="Path" fill="#E4E8F2"></path>
                    <path d="M32.2323084,6.18674922 C32.2323084,9.42289497 25.0182312,12.0498839 16.1161542,12.0498839 C7.21407721,12.0498839 0.00943016629,9.42289497 0.00943016629,6.18674922 C0.00943016629,2.95060348 7.22350737,0.323614575 16.1161542,0.323614575 C25.008801,0.323614575 32.2323084,2.95060348 32.2323084,6.18674922 Z" id="Path" fill="#D9DFEF"></path>
                    <path d="M31.6382079,6.18674922 C31.6382079,9.36578652 24.556153,11.945185 15.823819,11.945185 C7.09148505,11.945185 0.00943016629,9.36578652 0.00943016629,6.18674922 C0.00943016629,3.00771193 7.09148505,0.428313408 15.823819,0.428313408 C24.556153,0.428313408 31.6382079,3.00771193 31.6382079,6.18674922 Z" id="Path" fill="#CED6EB"></path>
                    <path d="M31.0535376,6.18674922 C31.0535376,9.30867806 24.103505,11.8404862 15.5314839,11.8404862 C6.95946272,11.8404862 0.00943016629,9.30867806 0.00943016629,6.18674922 C0.00943016629,3.06482038 6.95946272,0.533012241 15.5314839,0.533012241 C24.103505,0.533012241 31.0535376,3.06482038 31.0535376,6.18674922 Z" id="Path" fill="#C4CDE8"></path>
                    <path d="M30.4594371,6.18674922 C30.4594371,9.25156961 23.6414269,11.7357874 15.2297186,11.7357874 C6.81801022,11.7357874 1.413034e-14,9.25156961 1.413034e-14,6.18674922 C1.413034e-14,3.12192884 6.81801022,0.637711074 15.2297186,0.637711074 C23.6414269,0.637711074 30.4594371,3.12192884 30.4594371,6.18674922 Z" id="Path" fill="#B8C4E1"></path>
                    <path d="M29.8747668,6.18674922 C29.8747668,9.18494308 23.1887789,11.6215705 14.9468136,11.6215705 C6.70484823,11.6215705 0.0188603326,9.18494308 0.0188603326,6.18674922 C0.0188603326,3.18855537 6.70484823,0.751927983 14.9468136,0.751927983 C23.1887789,0.751927983 29.8747668,3.18855537 29.8747668,6.18674922 L29.8747668,6.18674922 Z" id="Path" fill="#ADBBDD"></path>
                    <path d="M29.2806663,6.18674922 C29.2806663,9.12783462 22.7267007,11.5168716 14.6450482,11.5168716 C6.56339573,11.5168716 0.00943016629,9.12783462 0.00943016629,6.18674922 C0.00943016629,3.24566382 6.56339573,0.856626816 14.6450482,0.856626816 C22.7267007,0.856626816 29.2806663,3.24566382 29.2806663,6.18674922 L29.2806663,6.18674922 Z" id="Path" fill="#A4B3DA"></path>
                    <path d="M28.695996,6.18674922 C28.695996,9.07072617 22.2740528,11.4121728 14.3527131,11.4121728 C6.43137341,11.4121728 0.00943016629,9.07072617 0.00943016629,6.18674922 C0.00943016629,3.30277228 6.43137341,0.961325649 14.3527131,0.961325649 C22.2740528,0.961325649 28.695996,3.30277228 28.695996,6.18674922 L28.695996,6.18674922 Z" id="Path" fill="#99AAD7"></path>
                    <path d="M28.1018955,6.18674922 C28.1018955,9.01361772 21.8119746,11.2979559 14.0509478,11.2979559 C6.28992091,11.2979559 1.413034e-14,9.00409964 1.413034e-14,6.18674922 C1.413034e-14,3.36939881 6.28992091,1.06602448 14.0509478,1.06602448 C21.8119746,1.06602448 28.1018955,3.35988073 28.1018955,6.18674922 L28.1018955,6.18674922 Z" id="Path" fill="#8DA1D0"></path>
                    <ellipse id="Oval" fill="#8298CE" fill-rule="nonzero" cx="13.7586126" cy="6.18674922" rx="13.7491824" ry="5.00650783"></ellipse>
                    <path d="M26.9231247,6.18674922 C26.9231247,8.88988273 20.8972485,11.0885582 13.4662775,11.0885582 C6.03530642,11.0885582 0.00943016629,8.88988273 0.00943016629,6.18674922 C0.00943016629,3.48361572 6.03530642,1.28494022 13.4662775,1.28494022 C20.8972485,1.28494022 26.9231247,3.48361572 26.9231247,6.18674922 L26.9231247,6.18674922 Z" id="Path" fill="#788FC8"></path>
                    <path d="M26.3384544,6.18674922 C26.3384544,8.83277428 20.4446005,10.9838594 13.1739423,10.9838594 C5.90328409,10.9838594 0.00943016629,8.84229235 0.00943016629,6.18674922 C0.00943016629,3.5312061 5.90328409,1.38963906 13.1739423,1.38963906 C20.4446005,1.38963906 26.3384544,3.5312061 26.3384544,6.18674922 L26.3384544,6.18674922 Z" id="Path" fill="#6D87C4"></path>
                    <path d="M25.7537841,6.18674922 C25.7537841,8.77566582 19.9919525,10.8696425 12.8816071,10.8696425 C5.77126177,10.8696425 0.00943016629,8.77566582 0.00943016629,6.18674922 C0.00943016629,3.59783263 5.77126177,1.50385597 12.8816071,1.50385597 C19.9919525,1.50385597 25.7537841,3.59783263 25.7537841,6.18674922 Z" id="Path" fill="#647EBE"></path>
                    <path d="M25.1596836,6.18674922 C25.1596836,8.71855737 19.5298744,10.7649437 12.5798418,10.7649437 C5.62980927,10.7649437 0.00943016629,8.71855737 0.00943016629,6.18674922 C0.00943016629,3.65494108 5.63923944,1.6085548 12.5798418,1.6085548 C19.5204442,1.6085548 25.1596836,3.65494108 25.1596836,6.18674922 Z" id="Path" fill="#5975B9"></path>
                    <path d="M24.5655832,6.18674922 C24.5655832,8.65193084 19.0677962,10.6602448 12.2875067,10.6602448 C5.50721711,10.6602448 0.00943016629,8.66144891 0.00943016629,6.18674922 C0.00943016629,3.71204953 5.50721711,1.71325363 12.2875067,1.71325363 C19.0677962,1.71325363 24.5655832,3.71204953 24.5655832,6.18674922 Z" id="Path" fill="#4F6CB3"></path>
                    <path d="M23.9809129,6.18674922 C23.9809129,8.59482238 18.6151482,10.555546 11.9951715,10.555546 C5.37519478,10.555546 0.00943016629,8.60434046 0.00943016629,6.18674922 C0.00943016629,3.76915799 5.37519478,1.81795246 11.9951715,1.81795246 C18.6151482,1.81795246 23.9809129,3.76915799 23.9809129,6.18674922 Z" id="Path" fill="#4463AE"></path>
                    <ellipse id="Oval" fill="#3A5BA9" fill-rule="nonzero" cx="11.7028364" cy="6.18674922" rx="11.6934062" ry="4.25457985"></ellipse>
                    <path d="M22.8021421,6.18674922 C22.8021421,8.48060548 17.7004221,10.3366302 11.401071,10.3366302 C5.10171996,10.3366302 0.00943016629,8.48060548 0.00943016629,6.18674922 C0.00943016629,3.89289297 5.11115013,2.03686821 11.401071,2.03686821 C17.690992,2.03686821 22.8021421,3.89289297 22.8021421,6.18674922 Z" id="Path" fill="#3254A5"></path>
                    <path d="M22.2174718,6.18674922 C22.2174718,8.42349702 17.2477741,10.2319314 11.1181661,10.2319314 C4.98855796,10.2319314 0.0188603326,8.42349702 0.0188603326,6.18674922 C0.0188603326,3.95000143 4.98855796,2.14156704 11.1181661,2.14156704 C17.2477741,2.14156704 22.2174718,3.95000143 22.2174718,6.18674922 Z" id="Path" fill="#294CA0"></path>
                    <path d="M21.6233713,6.18674922 C21.6233713,8.35687049 16.785696,10.1177145 10.8164007,10.1177145 C4.84710547,10.1177145 0.00943016629,8.35687049 0.00943016629,6.18674922 C0.00943016629,4.01662796 4.84710547,2.24626587 10.8164007,2.24626587 C16.785696,2.24626587 21.6233713,4.00710988 21.6233713,6.18674922 L21.6233713,6.18674922 Z" id="Path" fill="#1D459D"></path>
                    <path d="M21.038701,6.18674922 C21.038701,8.29976204 16.333048,10.0130157 10.5240656,10.0130157 C4.71508314,10.0130157 0.00943016629,8.29976204 0.00943016629,6.18674922 C0.00943016629,4.07373641 4.71508314,2.36048278 10.5240656,2.36048278 C16.333048,2.36048278 21.038701,4.07373641 21.038701,6.18674922 Z" id="Path" fill="#223F96"></path>
                    <path d="M20.4446005,6.18674922 C20.4446005,8.24265358 15.8709699,9.90831683 10.2223003,9.90831683 C4.57363065,9.90831683 0,8.24265358 0,6.18674922 C0,4.13084487 4.57363065,2.46518161 10.2223003,2.46518161 C15.8709699,2.46518161 20.4446005,4.13084487 20.4446005,6.18674922 Z" id="Path" fill="#002D9A"></path>
                </g>
                <g id="Path">
                    <path d="M25.4331585,1.32449904 C23.7828794,0.724860265 23.650857,0.677269886 22.4343656,0.40124569 C20.8595278,0.115703418 20.6143435,0.0776311154 19.2469694,0.00148650956 C17.6815618,0.00148650956 17.5495395,0.00148650956 16.44621,0.106185343 C14.9939644,0.315583009 14.8996627,0.33461916 14.0132271,0.553534902 C12.645853,0.943776007 12.6175625,0.953294083 11.8725794,1.23883635 L11.5330934,1.37208941 C10.5995069,1.75281244 9.94882543,2.80931885 9.65649028,4.53209056 C9.69421094,4.51305441 9.72250144,4.50353633 9.76022211,4.49401825 C10.7315292,4.11329522 11.6085347,4.084741 12.249786,4.34172904 C16.4650703,0.753414492 21.3970473,-0.322128065 25.4331585,1.31498096 L25.4331585,1.31498096 L25.4331585,1.32449904 Z" fill="#F7D900"></path>
                    <path d="M4.10212233,6.96871794 C3.81921735,7.3399229 3.44201069,7.84438091 3.17796604,8.23462202 C2.47070357,9.35775495 2.44241307,9.40534533 2.09349692,10.0811287 C1.48053611,11.3565509 1.43338528,11.4612497 1.12218979,12.3178765 C0.66011164,13.7551059 0.594100476,13.9454675 0.367776485,15.0781185 C0.122592162,16.6390829 0.066011164,16.9626975 0.0188603326,18.4665534 C0.066011164,14.8592027 2.21608908,11.3660689 6.10131759,8.90088732 C6.11074775,8.11088703 6.49738457,7.24474214 7.11034538,6.47377801 C5.60151877,6.16919958 4.60192115,6.3595611 4.1115525,6.96871794 L4.1115525,6.96871794 L4.10212233,6.96871794 Z" fill="#F7D900"></path>
                    <path d="M11.287909,35.8941501 C12.8438865,36.4937889 13.1267915,36.5984877 14.6356181,36.9601746 C16.2104558,37.2457168 16.4556402,37.2837891 17.8230143,37.3599337 C19.3884219,37.3599337 19.5204442,37.3599337 20.6237737,37.2552349 C22.0760193,37.0458372 22.1608908,37.0268011 23.0567566,36.8078854 C24.4241307,36.4176443 24.4524212,36.4081262 25.1974043,36.1225839 L25.3388568,36.0654754 C23.6885777,36.7222227 21.265025,35.380174 18.5491371,31.9441487 C14.2489813,26.4902913 10.6372276,17.5242639 9.70364111,10.4618517 C9.68478078,10.4618517 9.67535061,10.4713698 9.65649028,10.4808879 C8.66632282,10.871129 7.77045702,10.8901651 7.12920571,10.6141409 C2.96107221,17.9716135 2.75360856,27.1470385 7.06319455,32.610414 C8.26082567,34.1333061 9.69421094,35.2183667 11.2784789,35.9036682 L11.2784789,35.9036682 L11.287909,35.8941501 Z" fill="#F7D900"></path>
                    <path d="M32.8452692,30.5545096 C33.1658948,30.1357143 33.5902523,29.5741478 33.8920176,29.1363163 C34.5898499,28.0322195 34.6275706,27.965593 34.9859169,27.2898096 C35.5988777,26.0143875 35.6460286,25.9096886 35.957224,25.0530618 C36.4193022,23.6158324 36.4853134,23.4254709 36.7210675,22.2928199 C36.9662518,20.7318554 37.0228328,20.4082409 37.0699837,18.9043849 L37.0699837,18.418963 C37.0416932,16.277396 36.2778497,14.1072747 34.7030119,12.1179969 C30.4028561,6.66413952 21.4441981,4.27510251 13.3436853,6.02642845 L13.3436853,6.0835369 C13.3342551,6.89257334 12.9381881,7.77775438 12.2969368,8.56775467 C18.3228131,11.8514908 25.7254936,18.0001677 30.0256495,23.4635432 C32.8169787,27.0042674 33.7128445,29.5075213 32.8452692,30.5640277 L32.8452692,30.5640277 L32.8452692,30.5545096 Z" fill="#F7D900"></path>
                    <g transform="translate(0.009430, 0.000000)">
                        <path d="M37.0513001,18.8948668 C37.088844,9.64329722 31.0818281,3.76112642 25.9329573,1.54341478 C18.9452041,-1.47381523 10.9578532,0.0110045853 5.58265844,5.31257277 C3.20625654,7.66353747 2.00862542,10.119201 1.61255843,11.0710086 C0.377206651,13.9740217 0.0848714966,16.0489622 0.00943016629,18.4665534"></path>
                        <path d="M0,18.4665534 C0.0565809977,13.9169132 3.46087103,9.53859839 9.47731712,7.19715176 C3.46087103,9.53859839 0.0565809977,13.9169132 0,18.4665534"></path>
                        <path d="M0,18.4665534 C0.0377206651,20.0179998 0.0754413303,21.4837834 0.603530642,23.4635432 C1.32965345,26.1571586 2.36697174,27.8894484 2.65930689,28.3558341 C3.2156867,29.221979 4.37559716,31.0304134 6.02587626,32.4961971 C7.24236771,33.5717396 9.10954063,35.0184871 11.1087359,35.8180055 C12.0894732,36.2177647 13.9283556,36.9506565 15.8992604,37.1886084 C18.1719304,37.4646326 20.133405,37.4265603 21.7365333,37.0839096 C23.4716839,36.7222227 28.0924654,35.7418609 32.0908559,31.3921003 C36.5324642,26.5569178 37.032263,21.0364339 37.0416932,18.8948668"></path>
                    </g>
                    <path d="M11.5236632,1.38160749 C11.0615851,1.59100516 10.4486242,1.86702935 9.99597626,2.09546317 C9.26671007,2.50156773 8.7260472,2.82200962 8.37398766,3.05678882 C7.7201628,3.51365645 7.23608093,3.86899795 6.92174205,4.1228133 C6.02587626,4.89377743 6.00701592,4.90329551 5.59208861,5.31257277 C4.76223397,6.16919958 4.74337364,6.18823573 4.34730666,6.66413952 L4.1115525,6.95919987 C4.48875915,6.48329608 4.98855796,7.28281444 5.98815559,7.34944097 C6.28049075,7.36847712 6.77085939,6.3976334 7.11034538,6.46425993 C7.75159669,5.65522349 8.65689265,4.95088589 9.65649028,4.53209056 C9.75079194,3.97052409 11.1181661,3.42799377 11.2784789,3.00919844 C11.627395,2.14305355 10.9012722,1.62907746 11.5236632,1.37208941 L11.5236632,1.37208941 L11.5236632,1.38160749 Z" fill="#F7D900"></path>
                    <path d="M37.0605535,18.409445 C36.975682,16.6961913 36.9568217,16.3916129 36.6833468,14.897275 C36.2684195,13.2030575 36.183548,12.8508887 35.5328666,11.2137797 C34.8444644,9.76703221 34.3352354,8.72004388 33.0433027,7.04486255 C31.9965542,5.81703078 31.2327107,4.93184974 29.544711,3.63739144 C28.1584765,2.68558387 27.7907,2.42859582 25.9423875,1.5338967 L25.4237283,1.31498096 C22.4815164,0.125221494 17.1157518,0.13473957 13.8434841,1.74329437 C12.6269927,2.34293314 13.381406,3.36136724 12.2403558,4.34172904 C12.9098976,4.60823516 13.324825,5.18883778 13.3342551,6.0073923 C17.4929585,5.11269318 21.378187,8.87233309 25.2445551,10.0145022 C28.9034597,11.0900447 32.6000848,9.45293571 34.6935818,12.1084788 C36.2684195,14.0977567 37.0228328,16.2678779 37.0605535,18.409445 L37.0605535,18.409445 Z" fill="#F7D900"></path>
                    <path d="M25.348287,36.0654754 C25.8669461,35.8370416 26.5647784,35.5229451 27.0740074,35.2754752 C27.8032736,34.8693706 28.3439365,34.5489287 28.695996,34.3141495 C29.6673031,33.6383661 29.7050238,33.6098119 30.1482416,33.248125 C30.7517723,32.7278036 31.1949901,32.3312171 31.4778951,32.0583656 C32.3077497,31.2017388 32.32661,31.1827026 32.722677,30.7067988 L32.8452692,30.5640277 C33.7034143,29.5075213 32.8169787,27.0042674 30.0256495,23.4635432 C26.8099627,19.3802887 22.7361309,13.6123348 17.9173159,10.242936 C16.2953273,9.11028498 13.8151936,9.40534533 12.2875067,8.57727274 C11.6368252,9.38630918 10.7220991,10.0811287 9.72250144,10.4808879 C10.6560879,17.5433001 14.2678416,26.5093274 18.5679974,31.9631848 C21.2744551,35.3992101 23.6980079,36.7412588 25.3577171,36.0845116 L25.3577171,36.0845116 L25.348287,36.0654754 Z" fill="#F7D900"></path>
                    <path d="M11.287909,35.8941501 C12.8438865,36.4937889 13.1267915,36.5984877 14.6356181,36.9601746 C16.2104558,37.2457168 16.4556402,37.2837891 17.8230143,37.3599337 C19.3884219,37.3599337 19.5204442,37.3599337 20.6237737,37.2552349 C22.0760193,37.0458372 22.1608908,37.0268011 23.0567566,36.8078854 C24.4241307,36.4176443 24.4524212,36.4081262 25.1974043,36.1225839 L25.3388568,36.0654754 C23.6885777,36.7222227 21.265025,35.380174 18.5491371,31.9441487 C14.2489813,26.4902913 10.6372276,17.5242639 9.70364111,10.4618517 C9.68478078,10.4618517 9.67535061,10.4713698 9.65649028,10.4808879 C8.66632282,10.871129 7.77045702,10.8901651 7.12920571,10.6141409 C2.96107221,17.9716135 2.75360856,27.1470385 7.06319455,32.610414 C8.26082567,34.1333061 9.69421094,35.2183667 11.2784789,35.9036682 L11.2784789,35.9036682 L11.287909,35.8941501 Z" fill="#CC0000"></path>
                    <path d="M0.00943016629,18.5617342 C0.0565809977,20.3130601 0.0848714966,21.2743858 0.622390975,23.4635432 C1.13161995,25.1387245 1.23535178,25.4813752 1.97090475,27.0613758 C2.84791022,28.6508945 2.99879288,28.9459548 4.03611117,30.3165577 C5.08285963,31.5443895 5.8467031,32.4295705 7.5252727,33.7240288 C8.91150714,34.6758364 9.27928362,34.9328244 11.1275962,35.8275236 L11.287909,35.8941501 C9.70364111,35.2183667 8.27025583,34.123788 7.07262471,32.6008959 C2.77246889,27.1470385 2.97050238,17.9620954 7.13863588,10.6046229 C6.47852424,10.3190806 6.08245725,9.73847798 6.08245725,8.91040539 C2.17836841,11.3946232 0.0282904989,14.9258293 0,18.5522161 L0,18.5522161 L0.00943016629,18.5617342 Z" fill="#F7D900"></path>
                    <path d="M37.0607303,18.8948668 C37.0982742,9.64329722 31.0912582,3.76112642 25.9423875,1.54341478 C18.9546342,-1.47381523 10.9672834,0.0110045853 5.59208861,5.31257277 C3.2156867,7.66353747 2.01805559,10.119201 1.6219886,11.0710086 C0.386636818,13.9740217 0.0943016629,16.0489622 0.0188603326,18.4665534 C0.0754413303,13.9169132 3.47973136,9.53859839 9.49617745,7.19715176 C3.47973136,9.53859839 0.0754413303,13.9169132 0.0188603326,18.4665534 C0.0565809977,20.0179998 0.0943016629,21.4837834 0.622390975,23.4635432 C1.34851378,26.1571586 2.38583207,27.8894484 2.67816723,28.3558341 C3.23454704,29.221979 4.39445749,31.0304134 6.04473659,32.4961971 C7.26122804,33.5717396 9.12840096,35.0184871 11.1275962,35.8180055 C12.1083335,36.2177647 13.9472159,36.9506565 15.9181207,37.1886084 C18.1907908,37.4646326 20.1522654,37.4265603 21.7553936,37.0839096 C23.4905442,36.7222227 28.1113257,35.7418609 32.1097162,31.3921003 C36.5513245,26.5569178 37.0511233,21.0364339 37.0607303,18.8948668 L37.0607303,18.8948668 L37.0607303,18.8948668 Z"></path>
                    <path d="M0.00943016629,18.4665534 C0.066011164,13.9169132 3.47030119,9.53859839 9.48674728,7.19715176 C3.47030119,9.53859839 0.066011164,13.9169132 0.00943016629,18.4665534"></path>
                    <path d="M32.8452692,30.5545096 C33.1658948,30.1357143 33.5902523,29.5741478 33.8920176,29.1363163 C34.5898499,28.0322195 34.6275706,27.965593 34.9859169,27.2898096 C35.5988777,26.0143875 35.6460286,25.9096886 35.957224,25.0530618 C36.4193022,23.6158324 36.4853134,23.4254709 36.7210675,22.2928199 C36.9662518,20.7318554 37.0228328,20.4082409 37.0699837,18.9043849 L37.0699837,18.418963 C37.0416932,16.277396 36.2778497,14.1072747 34.7030119,12.1179969 C30.4028561,6.66413952 21.4441981,4.27510251 13.3436853,6.02642845 L13.3436853,6.0835369 C13.3342551,6.89257334 12.9381881,7.77775438 12.2969368,8.56775467 C18.3228131,11.8514908 25.7254936,18.0001677 30.0256495,23.4635432 C32.8169787,27.0042674 33.7128445,29.5075213 32.8452692,30.5640277 L32.8452692,30.5640277 L32.8452692,30.5545096 Z" fill="#CC0000"></path>
                    <path d="M4.10212233,6.96871794 C3.81921735,7.3399229 3.44201069,7.84438091 3.17796604,8.23462202 C2.47070357,9.35775495 2.44241307,9.40534533 2.09349692,10.0811287 C1.48053611,11.3565509 1.43338528,11.4612497 1.12218979,12.3178765 C0.66011164,13.7551059 0.594100476,13.9454675 0.367776485,15.0781185 C0.122592162,16.6390829 0.066011164,16.9626975 0.0188603326,18.4665534 C0.066011164,14.8592027 2.21608908,11.3660689 6.10131759,8.90088732 C6.11074775,8.11088703 6.49738457,7.24474214 7.11034538,6.47377801 C5.60151877,6.16919958 4.60192115,6.3595611 4.1115525,6.96871794 L4.1115525,6.96871794 L4.10212233,6.96871794 Z" fill="#CC0000"></path>
                    <path d="M25.4331585,1.32449904 C23.7828794,0.724860265 23.650857,0.677269886 22.4343656,0.40124569 C20.8595278,0.115703418 20.6143435,0.0776311154 19.2469694,0.00148650956 C17.6815618,0.00148650956 17.5495395,0.00148650956 16.44621,0.106185343 C14.9939644,0.315583009 14.8996627,0.33461916 14.0132271,0.553534902 C12.645853,0.943776007 12.6175625,0.953294083 11.8725794,1.23883635 L11.5330934,1.37208941 C10.5995069,1.75281244 9.94882543,2.80931885 9.65649028,4.53209056 C9.69421094,4.51305441 9.72250144,4.50353633 9.76022211,4.49401825 C10.7315292,4.11329522 11.6085347,4.084741 12.249786,4.34172904 C16.4650703,0.753414492 21.3970473,-0.322128065 25.4331585,1.31498096 L25.4331585,1.31498096 L25.4331585,1.32449904 Z" fill="#CC0000"></path>
                    <path d="M37.0607303,18.8948668 C37.0982742,9.64329722 31.0912582,3.76112642 25.9423875,1.54341478 C18.9546342,-1.47381523 10.9672834,0.0110045853 5.59208861,5.31257277 C3.2156867,7.66353747 2.01805559,10.119201 1.6219886,11.0710086 C0.386636818,13.9740217 0.0943016629,16.0489622 0.0188603326,18.4665534" stroke="#002D9A" stroke-width="1.5" stroke-linecap="round" stroke-linejoin="round"></path>
                    <path d="M0.00943016629,18.4665534 C0.0471508314,20.0179998 0.0848714966,21.4837834 0.612960809,23.4635432 C1.33908361,26.1571586 2.3764019,27.8894484 2.66873706,28.3558341 C3.22511687,29.221979 4.38502732,31.0304134 6.03530642,32.4961971 C7.25179787,33.5717396 9.1189708,35.0184871 11.1181661,35.8180055 C12.0989033,36.2177647 13.9377858,36.9506565 15.9086905,37.1886084 C18.1813606,37.4646326 20.1428352,37.4265603 21.7459635,37.0839096 C23.4811141,36.7222227 28.1018955,35.7418609 32.100286,31.3921003 C36.5418944,26.5569178 37.0416932,21.0364339 37.0511233,18.8948668" stroke="#002D9A" stroke-width="1.5" stroke-linecap="round" stroke-linejoin="round"></path>
                </g>
            </g>
            <g id="Group" transform="translate(55.682720, 1.962264)" fill="#002D9A" fill-rule="nonzero">
                <path d="M0.219233666,28.0435441 L2.37344274,24.263886 C2.73565488,23.675095 3.61258955,23.7605646 3.9271422,23.9884837 C4.10824827,24.08345 7.40628516,26.4955937 10.427897,26.4955937 C12.2580215,26.4955937 13.5829554,25.3559982 13.5829554,23.7605646 C13.5829554,21.8422457 11.9815965,20.3892615 8.87419754,19.1546998 C4.93752344,17.6067493 0,14.5488349 0,9.0787769 C0,4.56787833 3.52680246,0.00949662855 10.5708755,0.00949662855 C15.3272928,0.00949662855 18.9875419,2.42164028 20.3601353,3.42828291 C20.9129854,3.75116828 20.8176664,4.56787833 20.6365603,4.89076371 L18.3012452,8.40451627 C17.9771606,8.90783758 17.1574174,9.31619261 16.7475457,8.99330724 C16.3376741,8.76538815 12.9919777,6.25827822 10.2086633,6.25827822 C8.55964489,6.25827822 7.33002997,7.3503905 7.33002997,8.58495221 C7.33002997,10.2753521 8.70262336,11.5479003 12.3152129,13.0103811 C15.880143,14.4253788 21.5611545,17.2078909 21.5611545,23.3996928 C21.5611545,28.0910273 17.4910338,32.8393415 10.7615134,32.8393415 C4.81360876,32.8393415 1.51557187,30.3797147 0.467063028,29.325589 C0.00953189854,28.8697508 -0.123914681,28.6893149 0.238297463,28.0530407 L0.219233666,28.0435441 Z" id="Path"></path>
                <path d="M26.212721,1.329528 C26.212721,0.873689827 26.5749331,0.465334799 27.0801237,0.465334799 L46.0200061,0.465334799 C46.5251968,0.465334799 46.8874089,0.873689827 46.8874089,1.329528 L46.8874089,6.29626473 C46.8874089,6.7521029 46.5251968,7.16045793 46.0200061,7.16045793 L33.3425811,7.16045793 L33.3425811,12.8109519 L43.7704781,12.8109519 C44.2280092,12.8109519 44.6378808,13.2193069 44.6378808,13.6751451 L44.6378808,18.6418819 C44.6378808,19.1452032 44.2280092,19.506075 43.7704781,19.506075 L33.3425811,19.506075 L33.3425811,25.6598904 L46.0200061,25.6598904 C46.5251968,25.6598904 46.8874089,26.0682454 46.8874089,26.5240836 L46.8874089,31.4908203 C46.8874089,31.9466585 46.5251968,32.3550135 46.0200061,32.3550135 L27.0801237,32.3550135 C26.5749331,32.3550135 26.212721,31.9466585 26.212721,31.4908203 L26.212721,1.31053474 L26.212721,1.329528 Z" id="Path"></path>
                <path d="M48.8986395,31.1869282 L63.225083,0.503321313 C63.3585296,0.227919085 63.6826141,0 64.0066987,0 L64.4642298,0 C64.7883144,0 65.102867,0.227919085 65.2458455,0.503321313 L79.572289,31.1869282 C79.848714,31.7757191 79.47697,32.3740067 78.7906733,32.3740067 L73.7101714,32.3740067 C72.8904281,32.3740067 72.5186841,32.0986045 72.1088124,31.2344113 L70.459794,27.6351891 L58.0111345,27.6351891 L56.362116,31.2818945 C56.1333505,31.8326989 55.6281599,32.3740067 54.7130976,32.3740067 L49.6802552,32.3740067 C48.9939585,32.3740067 48.6317463,31.7852158 48.8986395,31.1869282 Z M67.7050753,21.4338906 L64.2259323,13.9125608 L64.1782728,13.9125608 L60.7467894,21.4338906 L67.7050753,21.4338906 Z" id="Shape"></path>
                <path d="M83.2134742,1.329528 C83.2134742,0.873689827 83.5756864,0.465334799 84.080877,0.465334799 L89.5235911,0.465334799 C89.9811222,0.465334799 90.3909938,0.873689827 90.3909938,1.329528 L90.3909938,25.669387 L101.276422,25.669387 C101.781613,25.669387 102.143825,26.077742 102.143825,26.5335802 L102.143825,31.5003169 C102.143825,31.9561551 101.781613,32.3645101 101.276422,32.3645101 L84.0713451,32.3645101 C83.5661545,32.3645101 83.2039423,31.9561551 83.2039423,31.5003169 L83.2039423,1.32003137 L83.2134742,1.329528 Z" id="Path"></path>
                <path d="M101.009529,1.55744708 C100.828423,0.92117297 101.190635,0.465334799 101.829272,0.465334799 L107.186199,0.465334799 C107.548411,0.465334799 107.920155,0.78822017 108.005942,1.10160891 L111.942616,16.5526236 L112.123722,16.5526236 L119.215455,0.503321313 C119.348902,0.227919085 119.625327,6.97136269e-15 119.997071,6.97136269e-15 L120.816814,6.97136269e-15 C121.226686,6.97136269e-15 121.503111,0.227919085 121.59843,0.503321313 L128.690162,16.5526236 L128.871268,16.5526236 L132.807942,1.10160891 C132.903261,0.778723541 133.265473,0.465334799 133.627686,0.465334799 L138.984613,0.465334799 C139.62325,0.465334799 139.994994,0.92117297 139.804356,1.55744708 L131.158924,32.1935708 C131.063605,32.5544427 130.701393,32.8298449 130.339181,32.8298449 L129.605224,32.8298449 C129.28114,32.8298449 128.966587,32.6019258 128.823609,32.3265236 L120.454602,13.6846417 L120.321155,13.6846417 L111.990276,32.3265236 C111.856829,32.6019258 111.532745,32.8298449 111.20866,32.8298449 L110.474704,32.8298449 C110.112492,32.8298449 109.740748,32.5544427 109.654961,32.1935708 L101.009529,1.55744708 L101.009529,1.55744708 Z" id="Path"></path>
                <path d="M157.705261,6.97136269e-15 C166.855884,6.97136269e-15 174.176382,7.34089387 174.176382,16.4576573 C174.176382,25.5744207 166.855884,32.8203483 157.705261,32.8203483 C148.554639,32.8203483 141.2818,25.5744207 141.2818,16.4576573 C141.2818,7.34089387 148.554639,6.97136269e-15 157.705261,6.97136269e-15 L157.705261,6.97136269e-15 Z M157.705261,25.5364342 C162.738104,25.5364342 166.855884,21.4338906 166.855884,16.4671539 C166.855884,11.5004172 162.738104,7.30290736 157.705261,7.30290736 C152.672419,7.30290736 148.602298,11.452934 148.602298,16.4671539 C148.602298,21.4813738 152.720078,25.5364342 157.705261,25.5364342 Z" id="Shape"></path>
                <path d="M178.88514,1.329528 C178.88514,0.873689827 179.247352,0.465334799 179.752543,0.465334799 L193.430817,0.465334799 C198.921191,0.465334799 203.401183,4.89076371 203.401183,10.3133386 C203.401183,14.5108484 200.608337,17.8821516 196.633535,19.4775852 L202.905524,31.0539754 C203.229609,31.6427663 202.905524,32.3740067 202.123908,32.3740067 L196.042557,32.3740067 C195.680345,32.3740067 195.40392,32.1460877 195.308601,31.9656517 L189.22725,19.8859402 L186.072191,19.8859402 L186.072191,31.5098135 C186.072191,31.9656517 185.66232,32.3740067 185.204789,32.3740067 L179.762074,32.3740067 C179.256884,32.3740067 178.894672,31.9656517 178.894672,31.5098135 L178.894672,1.329528 L178.88514,1.329528 Z M192.839839,14.0929968 C194.717623,14.0929968 196.318982,12.3646104 196.318982,10.4462914 C196.318982,8.52797244 194.717623,6.98002199 192.839839,6.98002199 L186.072191,6.98002199 L186.072191,14.0929968 L192.839839,14.0929968 L192.839839,14.0929968 Z" id="Shape"></path>
                <path d="M208.624663,1.55744708 C208.624663,0.968656112 209.082194,0.465334799 209.720832,0.465334799 L215.077759,0.465334799 C215.668736,0.465334799 216.173927,0.968656112 216.173927,1.55744708 L216.173927,13.5421923 L226.334931,0.911676341 C226.516037,0.683757256 226.925908,0.455838171 227.202334,0.455838171 L232.969132,0.455838171 C233.836535,0.455838171 234.294066,1.4624808 233.788875,2.14623805 L223.084553,15.5079944 L234.751597,30.6456203 C235.256788,31.3293776 234.751597,32.3360202 233.884194,32.3360202 L227.574078,32.3360202 C227.249993,32.3360202 226.840121,32.1555843 226.754334,32.0131349 L216.183459,17.7017156 L216.183459,31.2818945 C216.183459,31.8706854 215.678268,32.3740067 215.08729,32.3740067 L209.730363,32.3740067 C209.091726,32.3740067 208.634195,31.8706854 208.634195,31.2818945 L208.634195,1.55744708 L208.624663,1.55744708 Z" id="Path"></path>
                <path d="M236.667509,28.0435441 L238.821718,24.263886 C239.18393,23.675095 240.060865,23.7605646 240.375417,23.9884837 C240.556523,24.08345 243.85456,26.4955937 246.876172,26.4955937 C248.706297,26.4955937 250.031231,25.3559982 250.031231,23.7605646 C250.031231,21.8422457 248.429872,20.3892615 245.322473,19.1546998 C241.385799,17.6067493 236.448275,14.5488349 236.448275,9.0787769 C236.448275,4.56787833 239.975078,0.00949662855 247.019151,0.00949662855 C251.775568,0.00949662855 255.435817,2.42164028 256.80841,3.42828291 C257.36126,3.75116828 257.265941,4.56787833 257.084835,4.89076371 L254.74952,8.40451627 C254.425436,8.90783758 253.605692,9.31619261 253.195821,8.99330724 C252.785949,8.76538815 249.440253,6.25827822 246.647407,6.25827822 C244.998388,6.25827822 243.768773,7.3503905 243.768773,8.58495221 C243.768773,10.2753521 245.141367,11.5479003 248.753956,13.0103811 C252.328418,14.4253788 257.999898,17.2078909 257.999898,23.3996928 C257.999898,28.0910273 253.929777,32.8393415 247.200257,32.8393415 C241.252352,32.8393415 237.954315,30.3797147 236.905806,29.325589 C236.448275,28.8697508 236.314829,28.6893149 236.677041,28.0530407 L236.667509,28.0435441 Z" id="Path"></path>
                <path d="M165.054355,37.7680918 C165.054355,37.2552738 165.454695,36.8469188 165.950354,36.8469188 C166.446012,36.8469188 166.874948,37.2457772 166.874948,37.7680918 C166.874948,38.2904063 166.474608,38.6607748 165.950354,38.6607748 C165.426099,38.6607748 165.054355,38.2619164 165.054355,37.7680918 Z M165.321248,42.5638892 C165.321248,42.3739566 165.492822,42.2030173 165.68346,42.2030173 L166.274438,42.2030173 C166.465076,42.2030173 166.63665,42.3739566 166.63665,42.5638892 L166.63665,49.4774348 C166.63665,49.6673673 166.465076,49.8383066 166.274438,49.8383066 L165.68346,49.8383066 C165.492822,49.8383066 165.321248,49.6673673 165.321248,49.4774348 L165.321248,42.5638892 Z" id="Shape"></path>
                <path d="M169.162603,42.5638892 C169.162603,42.3739566 169.334177,42.2030173 169.524815,42.2030173 L169.887028,42.2030173 C170.058602,42.2030173 170.153921,42.2789903 170.192048,42.4309364 L170.363623,43.0197273 C170.363623,43.0197273 171.459791,42.0035881 173.042086,42.0035881 C175.263018,42.0035881 176.016038,43.4565723 176.016038,45.4413676 L176.016038,49.4679381 C176.016038,49.6578707 175.844464,49.82881 175.653826,49.82881 L175.043785,49.82881 C174.853147,49.82881 174.681573,49.6578707 174.681573,49.4679381 L174.681573,45.4413676 C174.681573,43.9883835 174.033403,43.2856329 172.956299,43.2856329 C171.516982,43.2856329 170.487537,44.3777452 170.487537,44.3777452 L170.487537,49.4774348 C170.487537,49.6673673 170.315963,49.8383066 170.125325,49.8383066 L169.534347,49.8383066 C169.343709,49.8383066 169.172135,49.6673673 169.172135,49.4774348 L169.172135,42.5638892 L169.162603,42.5638892 Z" id="Path"></path>
                <path d="M178.780289,43.3426127 L177.798503,43.3426127 C177.588802,43.3426127 177.436291,43.1716734 177.436291,42.9817408 L177.436291,42.5638892 C177.436291,42.3549633 177.588802,42.2030173 177.798503,42.2030173 L178.780289,42.2030173 L178.780289,40.0852691 C178.780289,39.8953366 178.951863,39.7243972 179.142501,39.7243972 L179.752543,39.6864107 C179.943181,39.6864107 180.095691,39.85735 180.095691,40.0472826 L180.095691,42.2030173 L182.316623,42.2030173 C182.526325,42.2030173 182.678835,42.3549633 182.678835,42.5638892 L182.678835,42.9817408 C182.678835,43.1716734 182.526325,43.3426127 182.316623,43.3426127 L180.095691,43.3426127 L180.095691,47.8155248 C180.095691,48.5752551 180.286329,48.7366977 180.724796,48.7366977 C181.201391,48.7366977 181.878156,48.4517989 182.125985,48.3188461 C182.411942,48.1669 182.488197,48.2808596 182.583516,48.4328056 L182.869473,48.9076371 C183.00292,49.1355561 182.945729,49.2495157 182.736027,49.3824685 C182.469134,49.5534078 181.430157,50.0282392 180.534158,50.0282392 C178.999523,50.0282392 178.770757,49.1165629 178.770757,47.9294843 L178.770757,43.3426127 L178.780289,43.3426127 Z" id="Path"></path>
                <path d="M187.664018,42.0130847 C189.675249,42.0130847 191.133629,43.5040554 191.133629,45.507844 C191.133629,45.6407968 191.114566,45.8877092 191.095502,46.020662 C191.076438,46.2105945 190.923928,46.3435473 190.752354,46.3435473 L185.233384,46.3435473 C185.309639,47.6255922 186.443935,48.8221674 187.797465,48.8221674 C188.598144,48.8221674 189.255845,48.5182753 189.694313,48.2523697 C189.961206,48.1004236 190.075589,48.0054573 190.228099,48.2143832 C190.342482,48.3663292 190.437801,48.499282 190.552184,48.6512281 C190.68563,48.8221674 190.761885,48.9361269 190.475928,49.1450528 C190.018397,49.5059247 188.97942,50.0187426 187.654486,50.0187426 C185.338235,50.0187426 183.898918,48.2048865 183.898918,46.0111653 C183.898918,43.8174441 185.338235,42.0035881 187.654486,42.0035881 L187.664018,42.0130847 Z M189.808696,45.2704283 C189.751504,44.1593228 188.82691,43.1716734 187.664018,43.1716734 C186.377212,43.1716734 185.385895,44.0928464 185.252448,45.2704283 L189.818227,45.2704283 L189.808696,45.2704283 Z" id="Shape"></path>
                <path d="M193.125796,42.5638892 C193.125796,42.3739566 193.29737,42.2030173 193.488008,42.2030173 L193.850221,42.2030173 C194.002731,42.2030173 194.136177,42.2979836 194.174305,42.4689229 L194.326815,43.0197273 C194.326815,43.0197273 195.032176,42.0035881 196.624003,42.0035881 C197.195917,42.0035881 198.158639,42.0985544 197.968001,42.6303656 L197.739235,43.2761363 C197.643916,43.5230487 197.472342,43.5230487 197.281704,43.4470756 C197.11013,43.3711026 196.824173,43.2951296 196.538216,43.2951296 C195.079835,43.2951296 194.45073,44.3682486 194.45073,44.3682486 L194.45073,49.4679381 C194.45073,49.6578707 194.279156,49.82881 194.088518,49.82881 L193.49754,49.82881 C193.306902,49.82881 193.135328,49.6578707 193.135328,49.4679381 L193.135328,42.5543925 L193.125796,42.5638892 Z" id="Path"></path>
                <path d="M201.942802,44.9855295 C202.762546,44.9855295 203.572757,45.2324418 203.572757,45.2324418 C203.591821,43.8174441 203.420247,43.1716734 202.324078,43.1716734 C201.22791,43.1716734 200.370039,43.4565723 200.026891,43.5895251 C199.836253,43.6654981 199.72187,43.5705318 199.664679,43.3995925 L199.512168,42.9247611 C199.435913,42.696842 199.550296,42.5828824 199.72187,42.5069094 C199.836253,42.4499296 200.951485,42.0130847 202.38127,42.0130847 C204.335309,42.0130847 204.811904,43.0102307 204.811904,45.2419384 L204.811904,49.4774348 C204.811904,49.6673673 204.64033,49.8383066 204.449692,49.8383066 L204.08748,49.8383066 C203.877778,49.8383066 203.820586,49.7243471 203.763395,49.5534078 L203.610885,49.0405899 C203.210545,49.4394483 202.419397,50.0377358 201.237442,50.0377358 C199.893444,50.0377358 198.883063,49.0690797 198.883063,47.5401225 C198.883063,46.0111653 199.979231,45.0045227 201.952334,45.0045227 L201.942802,44.9855295 Z M201.447144,48.8791472 C202.409865,48.8791472 203.229609,48.2903562 203.553693,47.8060281 L203.553693,46.2960642 C203.324928,46.1631114 202.791141,45.9921721 201.942802,45.9921721 C200.865698,45.9921721 200.103146,46.5239833 200.103146,47.5211293 C200.103146,48.2808596 200.617868,48.8791472 201.447144,48.8791472 L201.447144,48.8791472 Z" id="Shape"></path>
                <path d="M210.731213,42.0130847 C211.884573,42.0130847 212.780571,42.4689229 213.4764,43.3521093 C213.609846,43.5230487 213.571719,43.7509677 213.400144,43.8839205 L213.037932,44.1878127 C212.751975,44.4537183 212.656656,44.2637857 212.485082,44.1118396 C212.103806,43.6749947 211.465169,43.3141228 210.721681,43.3141228 C209.282364,43.3141228 208.176664,44.5012014 208.176664,46.0301586 C208.176664,47.5591158 209.272832,48.7841809 210.702617,48.7841809 C211.855977,48.7841809 212.294444,48.2143832 212.732912,47.7870349 C212.961677,47.5591158 213.095124,47.5971023 213.304825,47.7490484 L213.514527,47.9009944 C213.705165,48.0339472 213.762357,48.2428731 213.647974,48.4328056 C213.07606,49.344482 212.018019,50.0377358 210.712149,50.0377358 C208.586536,50.0377358 206.785007,48.3378393 206.785007,46.0491519 C206.785007,43.7604644 208.643727,42.0225813 210.731213,42.0225813 L210.731213,42.0130847 Z" id="Path"></path>
                <path d="M216.28831,43.3426127 L215.306524,43.3426127 C215.096822,43.3426127 214.944312,43.1716734 214.944312,42.9817408 L214.944312,42.5638892 C214.944312,42.3549633 215.096822,42.2030173 215.306524,42.2030173 L216.28831,42.2030173 L216.28831,40.0852691 C216.28831,39.8953366 216.459884,39.7243972 216.650522,39.7243972 L217.260563,39.6864107 C217.451201,39.6864107 217.603712,39.85735 217.603712,40.0472826 L217.603712,42.2030173 L219.824644,42.2030173 C220.034346,42.2030173 220.186856,42.3549633 220.186856,42.5638892 L220.186856,42.9817408 C220.186856,43.1716734 220.034346,43.3426127 219.824644,43.3426127 L217.603712,43.3426127 L217.603712,47.8155248 C217.603712,48.5752551 217.79435,48.7366977 218.232817,48.7366977 C218.709412,48.7366977 219.386177,48.4517989 219.634006,48.3188461 C219.919963,48.1669 219.996218,48.2808596 220.091537,48.4328056 L220.377494,48.9076371 C220.510941,49.1355561 220.453749,49.2495157 220.244048,49.3824685 C219.977154,49.5534078 218.938177,50.0282392 218.042179,50.0282392 C216.507543,50.0282392 216.278778,49.1165629 216.278778,47.9294843 L216.278778,43.3426127 L216.28831,43.3426127 Z" id="Path"></path>
                <path d="M221.826343,37.7680918 C221.826343,37.2552738 222.226682,36.8469188 222.722341,36.8469188 C223.218,36.8469188 223.646935,37.2457772 223.646935,37.7680918 C223.646935,38.2904063 223.246596,38.6607748 222.722341,38.6607748 C222.198087,38.6607748 221.826343,38.2619164 221.826343,37.7680918 Z M222.093236,42.5638892 C222.093236,42.3739566 222.26481,42.2030173 222.455448,42.2030173 L223.046426,42.2030173 C223.237064,42.2030173 223.408638,42.3739566 223.408638,42.5638892 L223.408638,49.4774348 C223.408638,49.6673673 223.237064,49.8383066 223.046426,49.8383066 L222.455448,49.8383066 C222.26481,49.8383066 222.093236,49.6673673 222.093236,49.4774348 L222.093236,42.5638892 Z" id="Shape"></path>
                <path d="M224.962337,42.6398622 C224.847955,42.3929499 224.962337,42.2030173 225.248294,42.2030173 L225.839272,42.2030173 C226.010846,42.2030173 226.125229,42.2979836 226.18242,42.4119431 L228.555863,47.8725045 L228.574927,47.8725045 L231.10088,42.4119431 C231.158071,42.2979836 231.272454,42.2030173 231.424965,42.2030173 L231.920623,42.2030173 C232.20658,42.2030173 232.320963,42.3929499 232.20658,42.6398622 L228.927607,49.8383066 C228.88948,49.9332729 228.775097,50.0282392 228.603523,50.0282392 L228.508204,50.0282392 C228.336629,50.0282392 228.222247,49.9332729 228.184119,49.8383066 L224.943274,42.6398622 L224.962337,42.6398622 Z" id="Path"></path>
                <path d="M236.791423,42.0130847 C238.802654,42.0130847 240.261035,43.5040554 240.261035,45.507844 C240.261035,45.6407968 240.241971,45.8877092 240.222907,46.020662 C240.203843,46.2105945 240.051333,46.3435473 239.879759,46.3435473 L234.360789,46.3435473 C234.437045,47.6255922 235.57134,48.8221674 236.92487,48.8221674 C237.725549,48.8221674 238.38325,48.5182753 238.821718,48.2523697 C239.088611,48.1004236 239.202994,48.0054573 239.355504,48.2143832 C239.469887,48.3663292 239.565206,48.499282 239.679589,48.6512281 C239.813035,48.8221674 239.88929,48.9361269 239.603334,49.1450528 C239.145802,49.5059247 238.106825,50.0187426 236.781892,50.0187426 C234.46564,50.0187426 233.026324,48.2048865 233.026324,46.0111653 C233.026324,43.8174441 234.46564,42.0035881 236.781892,42.0035881 L236.791423,42.0130847 Z M238.936101,45.2704283 C238.878909,44.1593228 237.954315,43.1716734 236.791423,43.1716734 C235.504617,43.1716734 234.5133,44.0928464 234.379853,45.2704283 L238.945633,45.2704283 L238.936101,45.2704283 Z" id="Shape"></path>
                <path d="M246.142216,48.7651876 C246.218471,48.6512281 246.351918,48.3853225 246.409109,48.2903562 C246.504428,48.1384101 246.71413,48.1004236 246.923832,48.2333764 C246.923832,48.2333764 247.743575,48.8981404 248.72536,48.8981404 C249.506976,48.8981404 249.974039,48.499282 249.974039,47.9769675 C249.974039,47.3122035 249.402125,46.9988147 248.286893,46.4480103 C247.26698,45.9541856 246.104088,45.2799249 246.104088,43.9883835 C246.104088,43.1906667 246.752257,42.0035881 248.534722,42.0035881 C249.535572,42.0035881 250.298124,42.3454667 250.660336,42.5923791 C250.83191,42.7063386 250.889101,42.9722442 250.774719,43.18117 L250.622208,43.4850621 C250.507825,43.693988 250.240932,43.7509677 250.069358,43.6560015 C250.069358,43.6560015 249.249615,43.2001633 248.534722,43.2001633 C247.676852,43.2001633 247.438554,43.6370082 247.438554,43.9598936 C247.438554,44.5866711 248.067659,44.8810665 248.858807,45.2609317 C250.183741,45.8877092 251.365696,46.4859968 251.365696,47.8535113 C251.365696,48.9646168 250.288592,50.009246 248.72536,50.009246 C247.438554,50.009246 246.656938,49.4774348 246.237535,49.1545494 C246.142216,49.0785764 246.085025,48.8886438 246.142216,48.755691 L246.142216,48.7651876 Z" id="Path"></path>
                <path d="M253.758203,43.3426127 L252.776417,43.3426127 C252.566716,43.3426127 252.414205,43.1716734 252.414205,42.9817408 L252.414205,42.5638892 C252.414205,42.3549633 252.566716,42.2030173 252.776417,42.2030173 L253.758203,42.2030173 L253.758203,40.0852691 C253.758203,39.8953366 253.929777,39.7243972 254.120415,39.7243972 L254.730456,39.6864107 C254.921094,39.6864107 255.073605,39.85735 255.073605,40.0472826 L255.073605,42.2030173 L257.294537,42.2030173 C257.504239,42.2030173 257.656749,42.3549633 257.656749,42.5638892 L257.656749,42.9817408 C257.656749,43.1716734 257.504239,43.3426127 257.294537,43.3426127 L255.073605,43.3426127 L255.073605,47.8155248 C255.073605,48.5752551 255.264243,48.7366977 255.70271,48.7366977 C256.179305,48.7366977 256.85607,48.4517989 257.103899,48.3188461 C257.389856,48.1669 257.466111,48.2808596 257.56143,48.4328056 L257.847387,48.9076371 C257.980834,49.1355561 257.923642,49.2495157 257.713941,49.3824685 C257.447048,49.5534078 256.408071,50.0282392 255.512072,50.0282392 C253.977437,50.0282392 253.748671,49.1165629 253.748671,47.9294843 L253.748671,43.3426127 L253.758203,43.3426127 Z" id="Path"></path>
                <path d="M259.391555,42.5638892 C259.391555,42.3739566 259.563129,42.2030173 259.753767,42.2030173 L260.363809,42.2030173 C260.554446,42.2030173 260.726021,42.3739566 260.726021,42.5638892 L260.726021,46.5904597 C260.726021,48.0434439 261.37419,48.7461944 262.451294,48.7461944 C263.909675,48.7461944 264.729418,47.6540821 264.729418,47.6540821 L264.729418,42.5543925 C264.729418,42.36446 264.900992,42.1935207 265.09163,42.1935207 L265.682608,42.1935207 C265.873246,42.1935207 266.04482,42.36446 266.04482,42.5543925 L266.04482,49.4679381 C266.04482,49.6578707 265.873246,49.82881 265.682608,49.82881 L265.320396,49.82881 C265.110694,49.82881 265.034439,49.6958572 264.977247,49.5059247 L264.843801,49.0121 C264.843801,49.0121 263.947802,50.0282392 262.355975,50.0282392 C260.135043,50.0282392 259.382023,48.5942483 259.382023,46.5714664 L259.382023,42.5638892 L259.391555,42.5638892 Z" id="Path"></path>
                <path d="M271.802087,42.0130847 C273.069829,42.0130847 273.851445,42.5069094 273.851445,42.5069094 L273.851445,36.8374222 C273.851445,36.6474896 274.023019,36.4765503 274.213657,36.4765503 L274.804635,36.4765503 C274.995273,36.4765503 275.166847,36.6474896 275.166847,36.8374222 L275.166847,49.4774348 C275.166847,49.6673673 274.995273,49.8383066 274.804635,49.8383066 L274.404295,49.8383066 C274.232721,49.8383066 274.118338,49.7053538 274.080211,49.5344145 L273.965828,49.0215966 C273.965828,49.0215966 273.050765,50.0377358 271.611449,50.0377358 C269.65741,50.0377358 268.122774,48.2048865 268.122774,46.0111653 C268.122774,43.8174441 269.504899,42.0225813 271.802087,42.0225813 L271.802087,42.0130847 Z M271.744895,48.8221674 C273.127021,48.8221674 273.832381,47.5591158 273.832381,47.5591158 L273.832381,43.7414711 C273.832381,43.7414711 273.031702,43.2856329 271.973661,43.2856329 C270.305579,43.2856329 269.466772,44.4917048 269.466772,46.020662 C269.466772,47.5496192 270.343706,48.831664 271.744895,48.831664 L271.744895,48.8221674 Z" id="Shape"></path>
                <path d="M277.444971,37.7680918 C277.444971,37.2552738 277.84531,36.8469188 278.340969,36.8469188 C278.836628,36.8469188 279.256031,37.2457772 279.256031,37.7680918 C279.256031,38.2904063 278.855692,38.6607748 278.340969,38.6607748 C277.826247,38.6607748 277.444971,38.2619164 277.444971,37.7680918 Z M277.711864,42.5638892 C277.711864,42.3739566 277.883438,42.2030173 278.074076,42.2030173 L278.665054,42.2030173 C278.855692,42.2030173 279.027266,42.3739566 279.027266,42.5638892 L279.027266,49.4774348 C279.027266,49.6673673 278.855692,49.8383066 278.665054,49.8383066 L278.074076,49.8383066 C277.883438,49.8383066 277.711864,49.6673673 277.711864,49.4774348 L277.711864,42.5638892 Z" id="Shape"></path>
                <path d="M284.813128,42.0130847 C286.938742,42.0130847 288.625888,43.845934 288.625888,46.0016687 C288.625888,48.1574034 286.938742,50.0282392 284.813128,50.0282392 C282.687515,50.0282392 281.000369,48.1953899 281.000369,46.0016687 C281.000369,43.8079475 282.687515,42.0130847 284.813128,42.0130847 Z M284.813128,48.7841809 C286.214317,48.7841809 287.300954,47.5401225 287.300954,45.9921721 C287.300954,44.4442216 286.204785,43.2666397 284.813128,43.2666397 C283.421471,43.2666397 282.325303,44.4917048 282.325303,45.9921721 C282.325303,47.4926394 283.421471,48.7841809 284.813128,48.7841809 Z" id="Shape"></path>
                <path d="M290.0938,48.7651876 C290.170055,48.6512281 290.303502,48.3853225 290.360693,48.2903562 C290.456012,48.1384101 290.665714,48.1004236 290.875416,48.2333764 C290.875416,48.2333764 291.695159,48.8981404 292.676945,48.8981404 C293.45856,48.8981404 293.925623,48.499282 293.925623,47.9769675 C293.925623,47.3122035 293.353709,46.9988147 292.238477,46.4480103 C291.218564,45.9541856 290.055672,45.2799249 290.055672,43.9883835 C290.055672,43.1906667 290.703842,42.0035881 292.486307,42.0035881 C293.487156,42.0035881 294.249708,42.3454667 294.61192,42.5923791 C294.783494,42.7063386 294.840686,42.9722442 294.726303,43.18117 L294.573792,43.4850621 C294.45941,43.693988 294.192516,43.7509677 294.020942,43.6560015 C294.020942,43.6560015 293.201199,43.2001633 292.486307,43.2001633 C291.628436,43.2001633 291.390138,43.6370082 291.390138,43.9598936 C291.390138,44.5866711 292.019244,44.8810665 292.810391,45.2609317 C294.135325,45.8877092 295.31728,46.4859968 295.31728,47.8535113 C295.31728,48.9646168 294.240176,50.009246 292.676945,50.009246 C291.390138,50.009246 290.608523,49.4774348 290.189119,49.1545494 C290.0938,49.0785764 290.036609,48.8886438 290.0938,48.755691 L290.0938,48.7651876 Z" id="Path"></path>
            </g>
        </g>
    </g>
</svg>