<svg width="308" height="132" viewBox="0 0 308 132" fill="none" xmlns="http://www.w3.org/2000/svg">
<path d="M304.841 24.3219C300.995 25.8597 297.148 27.3962 293.3 28.9353C292.026 29.4439 293.037 31.3209 294.299 30.8169C298.145 29.2791 301.993 27.7426 305.84 26.2036C307.115 25.6949 306.103 23.818 304.841 24.3219Z" fill="#CC0000"/>
<path d="M281.105 36.5895C278.105 38.6268 274.719 39.8659 271.116 40.2485C269.752 40.3942 270.25 42.4667 271.597 42.3243C275.355 41.9246 278.977 40.5967 282.104 38.4712C283.227 37.7072 282.238 35.8183 281.105 36.5895Z" fill="#CC0000"/>
<path d="M251.775 47.7487C247.821 50.316 243.282 51.8422 238.571 52.095C237.21 52.1678 237.139 54.2987 238.51 54.2261C243.583 53.9545 248.507 52.4013 252.774 49.6303C253.918 48.8883 252.926 47.0005 251.775 47.7487Z" fill="#CC0000"/>
<path d="M221.926 54.2264C217.448 55.7731 212.971 57.3185 208.494 58.8665C207.208 59.3108 207.68 61.3901 208.975 60.9424C213.453 59.3957 217.93 57.8502 222.407 56.3022C223.694 55.858 223.222 53.7786 221.926 54.2264Z" fill="#CC0000"/>
<path d="M189.807 59.9289C185.954 60.326 182.1 60.723 178.246 61.1201C177.669 61.1795 177.336 61.8875 177.448 62.3993C177.585 63.0199 178.159 63.2543 178.727 63.1959C182.581 62.7989 186.434 62.4018 190.288 62.0048C190.865 61.9454 191.198 61.2373 191.086 60.7255C190.949 60.105 190.376 59.8705 189.807 59.9289Z" fill="#CC0000"/>
<path d="M155.466 60.8213C151.798 59.6458 148.009 58.9066 144.168 58.5956C142.798 58.4835 142.742 60.6149 144.107 60.7268C147.772 61.0241 151.367 61.7479 154.867 62.8684C156.172 63.2877 156.773 61.2418 155.465 60.8225L155.466 60.8213Z" fill="#CC0000"/>
<path d="M128.948 52.8013C126.658 49.5851 124.709 46.151 123.123 42.5335C122.572 41.276 120.693 42.2854 121.24 43.534C122.828 47.1503 124.775 50.5856 127.065 53.8018C127.401 54.2734 127.947 54.5309 128.506 54.2424C128.965 54.0039 129.28 53.269 128.948 52.8013Z" fill="#CC0000"/>
<path d="M120.26 31.0401C120.448 27.0271 121.712 23.1819 123.914 19.8225C124.666 18.6751 122.844 17.5708 122.092 18.7195C119.695 22.3775 118.336 26.6156 118.13 30.9824C118.065 32.3548 120.195 32.4125 120.261 31.0414L120.26 31.0401Z" fill="#CC0000"/>
<path d="M133.571 9.83245C135.924 7.45694 139.701 6.63696 142.782 8.03235C144.014 8.59022 145.138 6.77487 143.887 6.20891C139.948 4.42428 135.184 5.18175 132.108 8.28463C131.144 9.25657 132.603 10.8093 133.571 9.83245Z" fill="#CC0000"/>
<path d="M153.626 14.7807C155.339 18.462 157.052 22.1408 158.764 25.8221C159.343 27.0678 161.223 26.0597 160.647 24.8216C158.934 21.1403 157.222 17.4615 155.509 13.7802C154.93 12.5344 153.05 13.5426 153.626 14.7807Z" fill="#CC0000"/>
<path d="M155.601 42.4418C153.242 45.6511 150.504 48.5448 147.456 51.1083C146.406 51.9912 147.872 53.5366 148.919 52.6562C152.114 49.9686 154.951 46.9081 157.423 43.5448C158.235 42.4405 156.408 41.3411 155.601 42.4418Z" fill="#CC0000"/>
<path d="M138.705 57.1873C133.007 60.2604 126.668 62.3573 120.159 62.5238C118.791 62.5588 118.724 64.6886 120.098 64.655C126.977 64.4786 133.676 62.3201 139.704 59.069C140.913 58.4166 139.913 56.5362 138.705 57.1873Z" fill="#CC0000"/>
<path d="M96.9249 65.26C91.8185 64.4303 86.6685 64.382 81.5471 65.1346C80.1872 65.3357 80.6808 67.4093 82.028 67.2105C86.7597 66.5136 91.6026 66.5396 96.3252 67.3046C97.6605 67.5225 98.279 65.4796 96.9236 65.2587L96.9249 65.26Z" fill="#CC0000"/>
<path d="M60.6538 69.1298C57.3959 70.5219 54.4772 72.6167 52.1157 75.257C51.2075 76.2719 52.6629 77.8295 53.579 76.8048C55.8328 74.2833 58.5437 72.3385 61.6528 71.0115C62.9155 70.4724 61.9063 68.5955 60.6538 69.1298Z" fill="#CC0000"/>
<path d="M33.1232 86.0401C30.3883 90.0618 27.6532 94.0861 24.9182 98.1078C24.1473 99.2421 25.9699 100.345 26.7408 99.2109C29.4758 95.1891 32.2109 91.1649 34.9458 87.1432C35.7168 86.0089 33.8942 84.9058 33.1232 86.0401Z" fill="#CC0000"/>
<path d="M17.7147 108.671C16.2911 112.604 15.4379 116.713 15.1519 120.884C15.0575 122.256 17.1876 122.311 17.2831 120.943C17.5579 116.946 18.3979 113.035 19.7615 109.269C20.2291 107.98 18.1822 107.384 17.7159 108.673L17.7147 108.671Z" fill="#CC0000"/>
<path d="M24.881 115.792C21.8728 120.497 18.3208 124.803 14.278 128.654L15.9522 128.928C13.1947 123.298 10.0688 117.858 6.59367 112.641C5.83959 111.509 3.95099 112.501 4.71109 113.641C8.18497 118.86 11.3096 124.298 14.0696 129.928C14.3759 130.552 15.2544 130.667 15.7438 130.202C19.9195 126.225 23.6006 121.753 26.7074 116.896C27.4463 115.741 25.625 114.634 24.8848 115.793L24.881 115.792Z" fill="#CC0000"/>
</svg>
