<svg width="125" height="157" viewBox="0 0 125 157" fill="none" xmlns="http://www.w3.org/2000/svg">
<path d="M1.20635 29.5706C5.01097 30.7433 8.81407 31.917 12.6187 33.0897C13.9319 33.494 14.4194 31.4197 13.1126 31.0157C9.30796 29.8429 5.50486 28.6692 1.70024 27.4965C0.387028 27.0923 -0.100466 29.1665 1.20635 29.5706Z" fill="#CC0000"/>
<path d="M17.042 35.2932C20.3583 36.8308 23.9611 37.577 27.6163 37.4424C28.9875 37.3919 28.9399 35.2607 27.5687 35.3112C24.2807 35.4329 21.0344 34.799 18.0447 33.4131C16.8057 32.8381 15.7923 34.7144 17.042 35.2932Z" fill="#CC0000"/>
<path d="M38.3974 41.571C43.2002 45.5333 47.2668 50.2672 50.4521 55.6181C51.1537 56.7966 52.9691 55.6826 52.2666 54.5026C48.9931 49.0016 44.7878 44.086 39.85 40.0127C38.7981 39.1454 37.3359 40.695 38.3974 41.571Z" fill="#CC0000"/>
<path d="M54.4357 70.8284C56.3336 74.973 57.2313 79.5072 57.1517 84.0583C57.1262 85.4336 59.2583 85.3803 59.282 84.0124C59.3702 79.0618 58.3082 74.2095 56.2502 69.7129C55.6806 68.4678 53.8711 69.5948 54.4357 70.8284Z" fill="#CC0000"/>
<path d="M61.8454 97.2629C65.9905 99.9384 70.137 102.613 74.2811 105.287C75.4337 106.03 76.4331 104.148 75.2839 103.407C71.1388 100.731 66.9923 98.0567 62.8481 95.3828C61.6956 94.6399 60.6962 96.5222 61.8454 97.2629Z" fill="#CC0000"/>
<path d="M84.7088 113.006C88.031 114.855 91.0971 117.08 93.8891 119.66C94.894 120.589 96.3534 119.035 95.3418 118.101C92.4212 115.401 89.1863 113.061 85.7115 111.126C84.5138 110.459 83.5077 112.337 84.7088 113.006Z" fill="#CC0000"/>
<path d="M103.568 124.003C105.962 127.476 108.354 130.95 110.748 134.424C111.523 135.549 113.342 134.441 112.562 133.309C110.169 129.836 107.777 126.362 105.383 122.887C104.608 121.762 102.789 122.87 103.568 124.003Z" fill="#CC0000"/>
<path d="M115.016 115.989C114.387 121.53 113.394 127.225 111.588 132.516C111.379 133.129 111.113 133.734 110.5 134.028C109.887 134.321 109.142 134.324 108.483 134.394C107.107 134.537 105.737 134.764 104.391 135.085C101.624 135.743 98.9676 136.807 96.4809 138.181C95.2801 138.844 96.3995 140.659 97.5973 139.997C100.253 138.529 103.112 137.481 106.091 136.891C108.754 136.363 112.112 136.799 113.366 133.813C114.472 131.179 115.044 128.191 115.64 125.406C116.272 122.457 116.75 119.48 117.09 116.484C117.243 115.137 115.173 114.627 115.016 115.989Z" fill="#CC0000"/>
</svg>
