<svg width="120" height="241" viewBox="0 0 120 241" fill="none" xmlns="http://www.w3.org/2000/svg">
<g id="a" clip-path="url(#clip0_2_1728)">
<path id="Vector" fill-rule="evenodd" clip-rule="evenodd" d="M8.19316 236.821C8.35763 235.828 7.51106 235.071 6.85798 234.31C4.05218 231.032 1.20767 225.696 0.631996 219.83C0.153074 214.976 0.544919 209.963 0.631996 204.763C0.907739 188.365 1.13994 176.04 1.22702 160.442C1.28507 150.363 1.36731 139.826 1.67208 130.451C2.13649 116.213 1.82204 99.7037 1.82204 84.9494C1.82204 80.1293 2.14616 75.2513 2.11714 70.4698C2.08811 65.5871 2.00587 60.8682 2.11714 56.2891C2.37353 45.7331 2.37837 37.3075 2.5622 27.0359C2.66379 21.0735 2.38321 16.1521 4.0425 12.2623C6.28231 7.02288 10.5878 3.2391 16.4993 1.62437C16.7509 1.20502 15.4786 0.428989 16.4993 0C31.9264 0.568771 46.1489 0.443449 61.7211 0.443449C68.9437 0.443449 77.1627 0.800136 84.7046 0.592872C92.2464 0.385608 100.427 0.0915819 105.908 2.36667C111.713 4.7719 116.749 9.60645 118.065 16.2534C119.042 21.1747 118.626 27.677 118.66 33.3888C118.693 39.3079 118.413 45.2318 118.81 50.3796C119.08 53.9176 119.419 57.3832 119.405 61.0176C119.284 87.3353 119.042 111.32 118.365 138.877C118.04 151.997 117.75 167.894 117.329 183.197C117.121 190.746 117.518 198.188 117.329 205.355C117.16 211.853 117.958 219.565 116.439 225.595C115.936 227.595 114.572 230.193 113.324 231.948C109.729 237.004 104.906 240.557 96.2712 240.961C92.0625 241.159 87.9989 240.547 83.8144 240.667C80.0895 240.773 76.0453 240.913 72.3977 240.817C65.0349 240.619 56.0563 240.031 48.8241 239.781C40.5663 239.496 32.236 239.245 23.9153 238.744C23.6106 238.725 23.1558 238.788 22.8801 238.744C21.8303 238.585 20.7516 237.597 19.7647 237.563C18.8262 237.53 17.7281 238.277 16.5041 238.301C14.7916 238.335 12.0971 238.161 10.5733 237.713C9.49447 237.395 9.41223 236.074 8.20283 236.826L8.19316 236.821ZM35.7723 2.36185C30.8766 2.28955 26.397 1.47013 21.2402 1.9184C14.9271 2.46789 10.7958 5.67325 7.89806 9.45221C6.48065 11.3031 5.49862 13.3035 4.93262 15.6557C3.77643 20.4613 4.62785 26.5394 4.48756 32.9405C4.415 36.17 3.3991 39.9441 3.74741 43.7279C3.83448 44.6919 4.26987 45.2896 4.34243 46.3886C4.58431 50.2736 4.04734 54.2984 4.04734 58.3569C4.04734 104.726 2.71216 146.69 2.71216 192.057C2.71216 200.174 2.05909 209.081 2.41707 216.875C2.76054 224.457 5.45508 230.531 9.53317 235.047C10.5491 235.216 11.1925 235.756 11.9036 236.228C13.8193 236.194 14.9319 236.782 16.3542 236.672C17.5297 236.58 18.3424 235.756 19.4696 235.785C20.9354 235.823 21.5933 236.753 22.8801 236.966C24.0314 237.158 26.1697 236.898 27.7757 236.966C40.7405 237.525 55.5339 238.604 68.6969 239.183C75.5131 239.482 82.0826 238.542 89.01 239.183C96.1938 239.848 103.291 239.004 107.248 236.079C108.022 235.51 108.636 234.435 109.473 233.567C110.349 232.652 111.311 231.958 111.843 231.206C113.488 228.892 114.654 226.087 115.254 222.635C115.796 219.522 115.549 215.911 115.549 212.147C115.549 204.3 115.699 196.26 115.699 188.659C115.699 173.769 116.734 159.164 116.734 143.894C116.734 128.624 117.392 113.157 117.474 97.9492C117.513 90.3431 117.184 82.3128 117.474 75.4923C117.803 67.7031 118.186 60.2705 117.624 52.8909C117.155 46.7308 116.884 39.8767 116.884 33.2394C116.884 26.2502 117.479 18.9237 115.549 13.7373C112.506 5.56239 103.174 1.2484 92.1206 1.76898C86.8766 2.0148 80.4668 1.7979 75.813 2.063C76.5339 2.2317 77.5159 2.14012 77.5933 2.9499C64.4157 3.24874 50.3625 2.57875 35.782 2.35703L35.7723 2.36185Z" fill="#CC0000"/>
<path id="Vector_2" fill-rule="evenodd" clip-rule="evenodd" d="M77.5862 2.95481C77.5088 2.14503 76.5268 2.23661 75.806 2.06791C80.4598 1.79798 86.8696 2.01971 92.1135 1.77388C103.167 1.25331 112.494 5.5673 115.542 13.7422C117.472 18.9286 116.877 26.2552 116.877 33.2443C116.877 40.2334 117.148 46.7357 117.617 52.8958C118.183 60.2754 117.796 67.708 117.467 75.4973C117.177 82.3177 117.506 90.348 117.467 97.9541C117.385 113.166 116.727 128.321 116.727 143.899C116.727 159.478 115.692 173.774 115.692 188.663C115.692 196.265 115.542 204.305 115.542 212.152C115.542 215.916 115.789 219.527 115.247 222.64C114.647 226.092 113.481 228.892 111.836 231.21C111.299 231.962 110.342 232.661 109.466 233.572C108.634 234.44 108.015 235.515 107.241 236.084C103.284 239.009 96.1868 239.853 89.003 239.188C82.0755 238.547 75.5061 239.487 68.6899 239.188C55.5268 238.609 40.7286 237.534 27.7687 236.97C26.1674 236.903 24.0244 237.163 22.873 236.97C21.5862 236.758 20.9283 235.828 19.4625 235.79C18.3402 235.761 17.5275 236.585 16.3471 236.676C14.9297 236.787 13.8122 236.204 11.8965 236.233C11.1854 235.761 10.542 235.221 9.5261 235.052C5.448 230.536 2.75346 224.462 2.41 216.88C2.05685 209.086 2.70509 200.179 2.70509 192.062C2.70509 146.69 4.04026 104.731 4.04026 58.3618C4.04026 54.3033 4.58208 50.2785 4.33536 46.3935C4.26763 45.2945 3.83225 44.6968 3.74033 43.7328C3.39203 39.9539 4.40792 36.1749 4.48049 32.9454C4.62078 26.5444 3.76936 20.4662 4.92554 15.6606C5.49154 13.3036 6.47357 11.3032 7.89099 9.45712C10.7887 5.67816 14.9249 2.4728 21.2331 1.92331C26.3851 1.47504 30.8696 2.29445 35.7652 2.36675C50.3457 2.58848 64.4038 3.25847 77.5765 2.95963L77.5862 2.95481ZM50.1522 17.7284C52.2904 17.6224 54.3948 15.4196 52.8226 13.4433C49.6007 12.2094 47.4383 16.4366 50.1522 17.7284ZM57.2732 14.0362C57.041 14.5134 57.3699 14.9183 57.5683 15.3666C61.835 15.5401 67.2434 15.0773 71.2103 15.516C67.2773 16.586 62.193 16.5716 57.7182 15.81C57.3312 15.3569 57.1764 14.6725 56.0879 14.9231C55.3913 15.6509 56.2621 16.7547 56.683 17.285C60.0499 17.7718 64.1764 17.9983 67.5047 17.579C69.3526 17.3476 71.7859 17.9067 72.9905 16.5427C72.9325 15.2702 72.2649 14.605 71.6553 13.882C66.9919 13.9012 61.9608 13.4482 57.2732 14.0314V14.0362ZM89.1481 24.3753C81.8191 24.2114 74.4708 23.8114 67.3547 24.0813C48.0721 24.8091 27.8848 23.7873 7.00571 24.0813C7.69265 69.6216 9.60834 113.793 10.1211 155.863C10.2082 163.035 10.6774 170.275 10.7113 177.433C10.75 184.528 10.8081 191.609 11.7514 198.559C10.2904 200.55 11.1951 205.047 11.4563 207.129C19.2255 207.028 29.3748 207.288 36.665 207.129C60.0354 206.618 85.6166 206.657 105.91 206.98C106.709 206.994 108.281 207.409 108.726 206.242C100.841 205.423 93.173 206.16 85.5973 205.948C77.7701 205.731 70.2573 205.659 62.7638 205.799C48.1301 206.074 30.2697 205.977 12.7963 206.242C12.6947 204.223 12.1239 202.169 12.3513 200.183C12.4577 199.229 12.9414 197.137 12.6463 195.754C12.5254 195.185 12.0126 194.664 11.9062 194.129C11.6063 192.65 12.2932 191.604 12.3513 190.437C12.4819 187.728 12.0949 184.75 12.0562 181.867C11.9739 176.252 11.6353 170.882 11.6111 165.614C11.6014 162.963 11.5337 160.283 11.4611 157.637C11.1612 146.618 11.1999 135.291 10.721 123.954C9.76798 101.381 9.55996 79.0111 9.09071 58.357C12.032 59.1234 15.6892 57.9521 18.4321 58.651C25.6885 57.5135 33.2835 57.4701 41.2656 57.3207C48.4155 57.1905 56.3637 56.723 63.0638 56.8772C79.6083 57.258 94.7742 57.017 109.031 57.6147C108.726 83.6529 108.837 108.264 108.586 133.7C108.46 146.126 108.271 157.381 108.436 169.6C108.576 180.069 108.17 190.452 108.436 202.251C108.46 203.403 108.058 205.404 109.476 205.944C110.076 202.497 109.795 198.945 109.771 195.306C109.64 176.228 109.819 155.265 109.771 136.062C109.742 123.163 109.984 108.096 110.066 93.3653C110.167 76.307 110.361 59.5958 110.361 38.262C110.361 33.5769 109.911 28.3326 110.656 24.8188C103.472 24.2741 96.2884 24.5344 89.1577 24.3753H89.1481ZM79.3616 63.0855C63.7168 62.6903 52.8468 62.6613 36.2151 63.3795C28.8184 63.7025 20.372 64.4833 13.2317 63.823C14.1315 67.8767 13.2123 74.2681 13.3817 77.4156C13.522 80.0185 14.0928 82.6888 14.1218 84.506C14.1363 85.2628 13.6235 86.7136 14.7168 87.1667C14.4653 79.845 14.0492 72.1232 14.2718 65.7462C21.1121 66.8596 28.3637 68.8021 35.7701 69.8818C43.2877 70.976 50.8343 72.1617 57.8633 73.8729C44.6374 76.9577 31.5517 80.6114 19.7576 85.0989C18.1467 85.711 16.1778 85.8508 15.1619 87.3161C15.6118 87.7547 16.3132 87.4559 16.7922 87.4655C19.3803 87.5186 21.6443 87.615 24.2082 87.4655C37.56 86.6943 52.184 85.2001 65.1294 85.2483C76.7638 85.2965 89.5496 86.1786 101.755 86.2846C102.316 85.8074 103.042 85.4941 103.83 85.2483C103.656 84.5301 103.404 83.9806 103.385 83.1805C103.245 77.4735 104.556 70.5711 103.83 64.4158C104.004 63.8519 104.914 64.0206 104.72 63.0855C96.4577 62.8686 88.0403 63.3072 79.3665 63.0855H79.3616ZM72.5406 89.2345C71.5489 88.2609 70.4653 89.5912 69.4252 89.2345C69.1591 90.0202 69.2511 90.989 69.7203 91.4518C71.4231 91.471 72.7244 91.0951 72.5358 89.2345H72.5406ZM53.1177 89.5285C52.1743 88.1548 51.2068 90.8734 52.2275 91.5964C54.0271 92.1218 55.5219 89.8901 53.8578 89.2297C53.6692 88.8152 53.5531 89.6973 53.1177 89.5237V89.5285ZM58.7535 91.4469C59.9435 91.8133 61.0562 90.3383 60.0886 89.2297C58.5648 88.338 57.4425 90.83 58.7535 91.4469ZM66.1647 89.678C65.2455 88.0006 62.1301 90.6131 64.5344 91.7458C65.4777 91.3602 66.8468 90.9264 66.1647 89.678ZM101.605 97.2118C96.9995 97.6215 92.6989 97.3612 88.258 97.3612C75.8592 97.3612 64.0168 98.0601 52.2275 97.9541C40.3416 97.848 28.4459 99.135 15.6021 98.841C15.6602 99.4917 15.6408 100.06 14.862 99.8773C14.8329 103.695 14.4411 107.773 14.2669 111.696C13.9138 119.736 14.5524 126.798 15.0071 134.004C15.6747 144.574 14.5233 154.619 16.6374 164.288C23.1004 165.749 29.8779 164.881 36.6553 164.881C43.4328 164.881 50.1377 164.732 56.9684 164.732C63.7991 164.732 70.8475 164.447 77.8765 164.582C86.4777 164.751 95.166 164.79 103.085 164.288C103.869 159.155 103.342 153.38 103.53 147.741C103.709 142.391 104.27 136.79 104.27 130.75C104.27 124.71 104.377 118.685 104.12 113.022C103.879 107.638 103.375 102.692 103.38 98.6916C103.38 98.2433 103.888 97.3949 103.235 97.0672C102.553 96.9515 101.924 97.1877 101.605 97.2166V97.2118ZM80.1066 168.419C79.2455 168.429 77.6781 167.744 77.5862 168.863C84.5378 168.896 94.0437 168.274 101.31 169.012C101.266 169.749 101.687 170.795 101.46 171.229C93.5842 170.66 88.3741 170.901 80.7016 171.967C80.0292 171.109 79.7825 169.831 78.7763 169.306C78.815 170.94 79.9276 171.504 80.5565 172.555C85.0651 171.61 90.0769 171.851 94.9387 171.668C97.3236 171.581 100.395 171.933 102.205 171.817C102.171 170.569 102.108 169.354 101.76 168.419C95.6885 167.739 86.5503 168.356 80.1115 168.419H80.1066ZM20.2027 168.863C20.1978 169.065 20.2704 169.185 20.3526 169.306C29.7182 170.063 37.2891 168.477 44.9663 169.6C44.8163 170.386 44.9131 171.417 44.6712 172.111C36.8633 171.812 28.6781 172.251 21.6878 172.405C21.0831 171.673 21.7604 170.125 21.5378 170.043C20.343 170.41 21.1025 172.193 21.3927 173.148C29.278 172.603 38.6194 172.69 45.4114 172.704C45.4017 171.745 45.6484 169.841 45.5613 168.863C36.5537 168.352 28.0396 169.364 20.2075 168.863H20.2027ZM101.31 177.433C89.2352 176.912 77.0783 177.828 64.3893 177.727C57.1764 177.669 49.7168 177.505 42.4459 177.577C34.5945 177.659 25.4176 178.647 18.2773 178.021C16.6906 187.217 18.4902 195.73 18.4273 204.613C19.3271 204.632 19.6657 203.678 20.3526 203.577C21.8281 203.365 23.6277 203.702 25.2483 203.577C29.7182 203.23 34.8654 202.425 39.9255 202.102C48.2317 201.562 57.1087 202.054 66.0195 202.102C75.3658 202.15 84.7507 201.731 93.3036 201.952C96.6947 202.039 100.778 202.733 103.385 200.772C102.94 199.889 103.492 199.109 103.535 198.26C103.835 192.597 101.392 186.099 101.755 180.238C101.832 179.004 102.301 178.025 102.05 176.546C101.861 176.536 101.847 176.358 101.605 176.396C101.358 176.594 101.557 177.235 101.305 177.428L101.31 177.433ZM46.5966 220.129C47.2013 225.147 51.2407 229.996 56.383 231.061C58.589 231.519 60.732 231.08 63.4991 230.618C67.9497 229.875 70.562 228.111 70.3202 222.934C70.1992 220.317 68.6463 217.454 67.5047 214.957C66.5759 212.933 65.2649 208.831 63.354 208.31C61.7044 207.862 55.2994 208.219 53.8627 208.46C49.0202 209.269 45.9048 214.355 46.5966 220.129Z" fill="white"/>
<path id="Vector_3" fill-rule="evenodd" clip-rule="evenodd" d="M52.8218 13.4434C54.394 15.4196 52.2945 17.6176 50.1514 17.7284C47.4375 16.4366 49.5951 12.2094 52.8218 13.4434ZM50.1514 16.104C50.9883 15.9546 51.6704 15.6461 51.7817 14.7737C50.9109 14.8894 50.1611 15.1304 50.1514 16.104Z" fill="#CC0000"/>
<path id="Vector_4" fill-rule="evenodd" clip-rule="evenodd" d="M71.6567 13.8866C72.2662 14.6096 72.9338 15.2748 72.9919 16.5473C71.7873 17.9114 69.354 17.3474 67.506 17.5836C64.1778 18.003 60.0465 17.7716 56.6843 17.2896C56.2635 16.7594 55.3927 15.6507 56.0893 14.9277C57.1778 14.6771 57.3326 15.3615 57.7196 15.8146C62.1944 16.5714 67.2787 16.5907 71.2116 15.5206C67.2448 15.082 61.8364 15.5447 57.5696 15.3712C57.3713 14.9229 57.0423 14.518 57.2745 14.0408C61.9621 13.4576 66.9932 13.9155 71.6567 13.8914V13.8866Z" fill="#CC0000"/>
<path id="Vector_5" fill-rule="evenodd" clip-rule="evenodd" d="M51.7826 14.7737C51.6714 15.6461 50.9892 15.9546 50.1523 16.104C50.162 15.1304 50.9118 14.8894 51.7826 14.7737Z" fill="white"/>
<path id="Vector_6" fill-rule="evenodd" clip-rule="evenodd" d="M110.65 24.8187C109.905 28.3325 110.355 33.5768 110.355 38.2619C110.355 59.5957 110.162 76.3069 110.06 93.3653C109.973 108.091 109.731 123.163 109.765 136.062C109.813 155.265 109.634 176.228 109.765 195.305C109.789 198.945 110.07 202.497 109.47 205.943C108.053 205.404 108.459 203.403 108.43 202.251C108.164 190.452 108.57 180.074 108.43 169.6C108.265 157.381 108.454 146.126 108.58 133.7C108.831 108.264 108.72 83.6528 109.025 57.6146C94.7685 57.0121 79.6026 57.2579 63.058 56.8771C56.358 56.7229 48.4146 57.1904 41.2598 57.3206C33.2778 57.47 25.6828 57.5134 18.4264 58.6509C15.6835 57.952 12.0263 59.1233 9.085 58.3569C9.55425 79.011 9.76227 101.381 10.7153 123.954C11.1942 135.29 11.1603 146.618 11.4554 157.636C11.528 160.287 11.5909 162.963 11.6054 165.614C11.6296 170.877 11.9682 176.247 12.0504 181.867C12.094 184.749 12.4762 187.728 12.3455 190.437C12.2875 191.604 11.6006 192.65 11.9005 194.129C12.0069 194.664 12.5245 195.185 12.6406 195.754C12.9357 197.137 12.452 199.229 12.3455 200.183C12.1182 202.169 12.689 204.223 12.7906 206.242C30.264 205.982 48.1244 206.074 62.7581 205.799C70.2516 205.659 77.7692 205.727 85.5916 205.948C93.1672 206.16 100.835 205.423 108.72 206.242C108.275 207.414 106.703 206.994 105.905 206.98C85.6109 206.657 60.0345 206.618 36.6593 207.129C29.3739 207.288 19.2246 207.028 11.4506 207.129C11.1894 205.047 10.2896 200.55 11.7457 198.559C10.8023 191.608 10.7443 184.528 10.7056 177.433C10.6669 170.275 10.2025 163.035 10.1154 155.863C9.60263 113.793 7.68694 69.6215 7 24.0812C27.8791 23.7872 48.0615 24.809 67.349 24.0812C74.4699 23.8113 81.8134 24.2162 89.1424 24.3752C96.273 24.5343 103.457 24.274 110.641 24.8187H110.65ZM69.1341 24.9681C61.1956 24.9199 52.0235 25.4887 43.4851 25.1175C31.0041 24.5728 19.9599 24.9922 8.34485 25.1175C8.42225 27.6336 8.43193 29.5424 8.49482 32.5067C13.0809 32.4248 17.5605 32.6754 21.8369 32.3573C26.0359 32.044 29.935 32.1404 33.8486 32.0633C42.6966 31.8849 50.2578 32.1018 59.0574 31.9138C63.2564 31.8271 67.6731 31.6921 71.9544 31.6198C81.7602 31.4511 94.6959 33.0321 105.614 32.6561C106.374 32.632 107.38 32.0392 107.99 32.6561C107.661 33.4756 106.616 33.061 106.059 33.0996C97.2357 33.7455 89.7422 32.5838 82.1859 32.5067C79.2592 32.4778 76.2695 32.0488 73.2896 32.0633C62.4872 32.1211 51.7187 32.9502 40.9648 32.6561C30.0802 32.3573 19.4036 33.2587 8.49482 32.9502C8.72218 40.6768 8.74637 50.076 8.93988 57.7688C11.6538 58.0147 14.8417 57.9472 17.2412 57.7688C18.1555 57.6869 16.9509 56.2312 17.9813 56.1445C23.5494 56.1445 30.0753 55.9806 35.0339 55.2576C35.7788 55.5757 35.0048 56.6168 35.6289 56.8819C60.02 55.6143 84.5612 56.424 109.025 56.8819C109.054 45.521 109.01 34.3528 108.875 25.2669C97.0857 25.6043 82.3891 25.0549 69.1389 24.9729L69.1341 24.9681Z" fill="#CC0000"/>
<path id="Vector_7" fill-rule="evenodd" clip-rule="evenodd" d="M108.87 25.2622C109.005 34.348 109.049 45.5162 109.02 56.8772C84.5562 56.4193 60.015 55.6095 35.6239 56.8772C34.9998 56.6121 35.7738 55.5709 35.0289 55.2528C30.0703 55.9758 23.5492 56.1397 17.9763 56.1397C16.9459 56.2265 18.1505 57.6821 17.2362 57.7641C14.8367 57.9424 11.6439 58.0099 8.93487 57.7641C8.74136 50.0712 8.71718 40.672 8.48981 32.9454C19.4034 33.2539 30.08 32.3477 40.9597 32.6514C51.7089 32.9454 62.4822 32.1163 73.2846 32.0585C76.2645 32.044 79.2542 32.473 82.1809 32.5019C89.7324 32.5791 97.2258 33.7407 106.054 33.0948C106.606 33.0563 107.651 33.4708 107.985 32.6514C107.38 32.0344 106.374 32.6273 105.609 32.6514C94.6909 33.0273 81.7552 31.4463 71.9494 31.615C67.6681 31.6873 63.2465 31.8223 59.0524 31.9091C50.2528 32.0922 42.6964 31.8753 33.8436 32.0585C29.93 32.1404 26.0309 32.0392 21.8319 32.3525C17.5555 32.6707 13.0758 32.42 8.48981 32.5019C8.43176 29.5424 8.42208 27.6336 8.33984 25.1127C19.9549 24.9874 30.9991 24.5681 43.4801 25.1127C52.0233 25.4887 61.1906 24.9151 69.1291 24.9633C82.3792 25.0453 97.0759 25.5996 108.865 25.2573L108.87 25.2622ZM88.702 27.6288C89.0164 25.8454 86.5105 26.337 85.5866 26.8914C85.4801 27.6867 85.7027 28.1542 85.8817 28.6651C87.0572 29.0218 88.5617 28.4241 88.6971 27.6288H88.702ZM92.2624 29.2532C92.4076 28.2699 91.769 28.0723 91.2224 27.7734C91.382 27.2625 91.6336 26.6696 92.2624 27.036C91.0917 24.4476 89.0986 30.5932 92.2624 29.2532ZM59.7925 27.036C59.9473 27.3734 59.8844 27.9277 60.0876 28.2169C60.4262 28.4964 61.1664 27.9277 61.5727 28.3663C61.1519 28.7326 60.4553 28.829 59.7925 28.9592C61.2631 30.6269 63.6239 27.0793 60.3827 27.4842C60.5472 26.9444 61.505 26.9685 62.013 27.1902C62.3709 26.2117 60.2037 26.3997 59.7877 27.0408L59.7925 27.036ZM63.3481 29.9907C64.0931 30.4679 64.9445 29.9859 65.7234 29.6966C66.0862 28.4723 65.0606 27.5517 64.8333 26.4479C62.9515 26.525 63.1837 28.8869 63.3481 29.9955V29.9907ZM93.0026 28.0723C93.138 28.3326 93.5492 28.3181 93.5976 28.6651C93.2203 28.6844 93.0219 28.8821 93.0026 29.258C93.7427 29.4653 94.957 28.964 94.928 27.9277C94.6425 27.2962 93.7524 28.0867 93.5928 27.4842C93.7282 27.2239 94.1104 27.2143 94.3329 27.0408C94.5845 27.1468 95.015 27.8216 95.373 27.3348C94.807 26.1635 92.8333 26.2551 93.0026 28.0723ZM23.1671 29.3978C23.9701 30.1979 24.7296 29.0604 25.8374 29.2484C25.8568 29.6725 25.7552 30.2172 25.9874 30.4293C26.8678 30.3377 26.3502 28.7326 25.9874 28.5109C25.1698 28.294 24.6377 29.1279 24.2072 28.8049C24.5458 28.1108 25.1989 27.7252 25.2472 26.7371C24.062 26.5588 23.8927 28.6218 23.1719 29.3978H23.1671ZM28.948 30.1401C29.5817 30.0533 29.6108 29.4315 30.1332 28.9592C30.4622 29.0749 30.1042 29.875 30.7282 29.6966C31.0475 29.2677 30.8492 28.3711 30.5783 28.0723C29.5624 27.9952 29.0206 28.3904 28.2078 28.5157C28.3481 27.8698 28.6771 27.4071 28.948 26.8914C28.7351 26.8576 28.6964 26.6455 28.5029 26.5973C27.3709 27.4457 27.071 30.4052 28.948 30.1449V30.1401ZM99.8236 26.8865C99.1415 31.4126 104.574 28.294 107.235 29.5472C107.211 28.5061 107.796 27.3878 107.535 26.5925C105.13 26.7275 102.421 26.6166 99.8236 26.8865ZM95.8229 29.8413C95.8229 28.588 97.0033 27.7927 96.713 26.7371H96.268C96.3405 27.8409 94.599 29.0122 95.8229 29.8413ZM37.2542 28.8098C37.5541 26.8865 33.4421 26.1153 34.4387 29.4026C35.4304 29.9762 37.109 29.7641 37.2542 28.8098ZM54.1567 27.4794C54.476 28.2024 55.9466 26.9058 56.382 27.7734C56.1159 28.241 55.1678 29.1231 55.9369 29.6966C56.5707 29.0941 56.9286 28.2217 56.9722 27.036C56.2127 26.8094 54.4034 26.713 54.1567 27.4794ZM58.3074 27.4794C58.5057 27.6288 58.5976 27.8795 58.9024 27.9229C59.3958 27.5421 58.4912 26.7612 58.3074 27.4794ZM10.7103 29.5472C11.581 30.492 12.9936 29.5135 13.0807 28.3663C12.2535 27.6288 10.4394 27.2432 10.7103 29.5472ZM17.9763 28.2169C17.8554 28.9785 18.0973 29.3785 18.4214 29.6966C19.7421 29.8316 20.2597 29.1664 20.2016 27.9229C19.655 27.3203 18.3633 27.7638 17.9763 28.2169ZM15.751 27.9229C15.5479 28.5687 16.3267 28.2362 16.1961 28.8098C15.8284 28.9592 15.185 29.822 14.8609 29.1038C14.8706 28.67 15.4269 28.7808 15.306 28.2169C14.411 27.5276 14.1159 29.4653 14.7158 29.8413C16.4525 30.3666 17.6522 27.5903 15.751 27.918V27.9229ZM97.7483 28.3663C97.7676 28.7423 97.966 28.9399 98.3433 28.9592C98.353 28.8676 98.3626 28.7857 98.4933 28.8098C98.4739 28.4338 98.2756 28.2362 97.8982 28.2169C97.8886 28.3085 97.8741 28.3904 97.7483 28.3663ZM58.6025 29.2532C58.7137 28.6989 58.4331 28.535 58.0074 28.5157C57.9687 28.9977 58.1816 29.2243 58.6025 29.2532ZM96.268 33.9817C94.3087 34.6421 92.1705 35.1193 90.3371 35.9001C90.4048 37.6498 90.1968 39.7755 90.7821 41.6601C92.4995 42.0602 96.8485 42.2482 98.7884 41.5107C98.2998 39.414 99.9252 37.8956 99.0835 36.0447C98.6819 35.8278 97.7967 36.1797 97.0081 36.0447C96.7856 35.3313 96.4808 34.6999 96.268 33.9769V33.9817ZM82.0309 35.0132C81.0247 35.6543 80.8989 37.0328 81.1408 38.5608C80.8506 39.2067 80.0669 39.3609 79.6605 39.8912C80.2313 40.8022 81.165 39.8671 82.1809 40.3346C82.2776 40.9275 82.5486 41.3468 82.7711 41.8144C84.3143 42.118 84.2949 40.8696 84.8464 40.19H86.0316C86.8927 38.5608 85.7462 36.7244 84.9915 35.7555C83.6273 35.876 83.2984 35.2446 82.0261 35.018L82.0309 35.0132ZM43.185 35.6061C42.7738 35.7459 42.4207 35.8567 41.9998 35.9001C37.9846 36.3098 31.957 35.9001 27.7676 35.9001C26.1761 35.9001 24.1781 35.5434 23.317 36.3436C23.4428 36.975 24.3329 36.0833 24.5023 36.787C24.0185 38.0065 24.2265 40.0695 24.5023 41.959C30.5154 41.5493 37.2106 41.7614 43.335 41.959C43.6833 40.2093 43.9736 37.4377 43.485 35.6061H43.1899H43.185ZM11.6004 36.787C11.7455 37.6691 12.9114 37.3992 13.5257 37.3799C14.8174 37.3317 16.4718 36.9461 17.3813 36.787C16.6121 35.5723 12.9404 37.1774 11.6004 36.787ZM104.719 38.262C104.41 38.8452 103.331 39.4381 102.494 38.9994C102.228 37.9053 103.669 37.8619 103.234 37.081C102.088 36.5701 101.42 39.0284 102.344 39.7417C104.947 40.3201 106.345 37.5245 103.974 36.787H103.679C103.553 37.751 104.69 37.4522 104.719 38.2668V38.262ZM11.7503 39.1489C13.1968 39.1681 16.825 39.5971 17.6812 38.262C16.3412 38.6283 12.7034 37.9053 11.7503 39.1489ZM11.7503 41.0721C12.5437 42.1807 15.2479 41.3131 17.0862 41.2215C17.9328 41.1781 18.9487 41.5444 19.1615 40.7781C17.2507 40.4117 14.2514 40.8552 11.7455 41.0721H11.7503ZM18.4214 49.4928C22.7172 50.5628 28.6916 48.2106 32.8036 49.6422C32.6149 50.317 32.8374 50.9485 32.6536 51.5654C28.4981 50.4279 23.317 51.9559 19.0116 51.5654C18.5859 51.1027 19.0019 49.8013 17.9763 49.9411C17.9763 50.8713 18.3005 51.4883 18.4214 52.3029C23.9991 52.5102 28.6868 50.9581 33.3986 52.4523C33.0019 51.0593 33.655 49.5313 32.8084 48.6107C28.145 48.8855 23.2541 48.8565 18.4262 49.4976L18.4214 49.4928ZM85.2915 49.6374C85.1028 50.317 86.0413 49.8736 86.1816 50.2303C86.1187 51.2762 86.3219 52.0619 86.7718 52.5921C89.2776 51.792 93.496 52.7897 96.2631 52.5921C95.9922 51.4353 96.0503 49.9507 95.523 49.0445C92.1367 49.2662 88.2376 48.9722 85.2915 49.6374ZM51.0413 49.7868C52.7393 50.7749 54.9501 50.023 56.9722 49.9362C60.3972 49.7868 63.7206 49.8013 66.7586 49.9362C66.7586 50.2688 66.8747 51.4931 66.7586 51.8546C61.3212 52.1149 56.3723 52.0956 51.3412 52.0041C50.9252 51.3871 51.259 50.0182 50.3011 49.9362C50.3108 51.0593 50.572 51.9318 50.8962 52.7415C56.1691 52.5584 62.042 52.8813 67.3537 52.4475C67.4069 51.8161 67.4262 50.0423 67.2037 49.1988C63.6529 49.4349 55.4096 49.2325 51.0413 49.7916V49.7868Z" fill="white"/>
<path id="Vector_8" fill-rule="evenodd" clip-rule="evenodd" d="M85.8892 28.6604C85.7102 28.1495 85.4876 27.6819 85.5941 26.8866C86.5132 26.3323 89.0239 25.8406 88.7095 27.6241C88.5692 28.4146 87.0695 29.0123 85.894 28.6604H85.8892ZM86.0391 27.3301C85.9666 27.7928 86.252 27.9085 86.3342 28.217C87.1082 28.0049 88.2064 28.1109 88.1145 27.036C87.2969 26.7131 86.7212 27.4313 86.0391 27.3301Z" fill="#CC0000"/>
<path id="Vector_9" fill-rule="evenodd" clip-rule="evenodd" d="M62.0134 27.1853C61.5055 26.9636 60.5476 26.9395 60.3832 27.4793C63.6195 27.0793 61.2588 30.6269 59.793 28.9543C60.4557 28.829 61.1475 28.7326 61.5732 28.3614C61.1668 27.9276 60.4315 28.4916 60.0881 28.212C59.8849 27.9228 59.9478 27.3685 59.793 27.0311C60.209 26.3852 62.3714 26.202 62.0183 27.1805L62.0134 27.1853Z" fill="#CC0000"/>
<path id="Vector_10" fill-rule="evenodd" clip-rule="evenodd" d="M64.8348 26.4431C65.0622 27.5469 66.0878 28.4723 65.7249 29.6918C64.9461 29.981 64.0947 30.463 63.3497 29.9858C63.1852 28.882 62.953 26.5202 64.8348 26.4382V26.4431ZM63.9447 27.9228C64.472 27.9566 64.7187 27.7107 64.6849 27.1853C64.1576 27.1516 63.9109 27.3974 63.9447 27.9228ZM63.7948 29.5472C64.1866 29.6677 65.3283 29.4508 65.2799 28.6603C64.7623 28.4097 63.7706 28.7856 63.7948 29.5472Z" fill="#CC0000"/>
<path id="Vector_11" fill-rule="evenodd" clip-rule="evenodd" d="M95.3801 27.3301C95.0221 27.8169 94.5916 27.1421 94.34 27.036C94.1175 27.2095 93.7353 27.2192 93.5999 27.4795C93.7547 28.082 94.6496 27.2915 94.9351 27.9229C94.9592 28.9592 93.7499 29.4605 93.0097 29.2533C93.0291 28.8773 93.2274 28.6797 93.6047 28.6604C93.5563 28.3133 93.1452 28.3278 93.0097 28.0675C92.8452 26.2503 94.819 26.1588 95.3801 27.3301Z" fill="#CC0000"/>
<path id="Vector_12" fill-rule="evenodd" clip-rule="evenodd" d="M25.2444 26.7419C25.2008 27.73 24.5477 28.1156 24.2043 28.8097C24.6348 29.1327 25.1669 28.294 25.9845 28.5157C26.3473 28.7374 26.8649 30.3473 25.9845 30.4341C25.7571 30.2172 25.8539 29.6773 25.8345 29.2532C24.7267 29.0604 23.9672 30.1979 23.1642 29.4026C23.885 28.6266 24.0543 26.5684 25.2395 26.7419H25.2444Z" fill="#CC0000"/>
<path id="Vector_13" fill-rule="evenodd" clip-rule="evenodd" d="M28.5042 26.5925C28.6977 26.6455 28.7364 26.8528 28.9492 26.8865C28.6783 27.4071 28.3494 27.865 28.2091 28.5109C29.0218 28.3855 29.5636 27.9903 30.5795 28.0674C30.8504 28.3663 31.0487 29.2628 30.7294 29.6918C30.1054 29.8701 30.4634 29.07 30.1344 28.9543C29.612 29.4267 29.5829 30.0485 28.9492 30.1352C27.0722 30.3955 27.3722 27.436 28.5042 26.5876V26.5925ZM28.0591 29.1037C27.8849 29.7496 29.4185 29.7496 29.2443 29.1037C28.6783 29.2339 28.301 28.8627 28.0591 29.1037Z" fill="#CC0000"/>
<path id="Vector_14" fill-rule="evenodd" clip-rule="evenodd" d="M96.2691 26.7419H96.7141C97.0044 27.7975 95.824 28.5929 95.824 29.8461C94.6001 29.017 96.3416 27.8457 96.2691 26.7419Z" fill="#CC0000"/>
<path id="Vector_15" fill-rule="evenodd" clip-rule="evenodd" d="M34.4372 29.3978C33.4407 26.1153 37.5575 26.8817 37.2527 28.8049C37.1027 29.7593 35.4289 29.9666 34.4372 29.3978ZM35.0322 29.2532C35.5208 29.0025 36.4738 29.2098 36.5174 28.5157C36.2175 27.2095 34.2679 27.9951 35.0322 29.2532Z" fill="#CC0000"/>
<path id="Vector_16" fill-rule="evenodd" clip-rule="evenodd" d="M56.9756 27.0358C56.9273 28.2216 56.5693 29.094 55.9404 29.6965C55.1712 29.1229 56.1194 28.2409 56.3855 27.7733C55.9549 26.9057 54.4843 28.2023 54.1602 27.4793C54.4117 26.7129 56.2161 26.8093 56.9756 27.0358Z" fill="#CC0000"/>
<path id="Vector_17" fill-rule="evenodd" clip-rule="evenodd" d="M88.1145 27.036C88.2065 28.1157 87.1083 28.0049 86.3343 28.2169C86.2472 27.9085 85.9666 27.7928 86.0392 27.33C86.7213 27.4313 87.297 26.7131 88.1145 27.036Z" fill="white"/>
<path id="Vector_18" fill-rule="evenodd" clip-rule="evenodd" d="M58.9036 27.9229C58.6037 27.8795 58.5069 27.6289 58.3086 27.4794C58.4876 26.7564 59.3971 27.5421 58.9036 27.9229Z" fill="#CC0000"/>
<path id="Vector_19" fill-rule="evenodd" clip-rule="evenodd" d="M64.6846 27.1854C64.7185 27.7108 64.4718 27.9566 63.9445 27.9229C63.9106 27.3975 64.1573 27.1517 64.6846 27.1854Z" fill="white"/>
<path id="Vector_20" fill-rule="evenodd" clip-rule="evenodd" d="M104.721 27.4794C104.789 27.9421 104.407 27.9517 103.981 27.9228C104 27.6577 103.802 27.6095 103.831 27.33C104.213 27.2191 104.513 27.113 104.721 27.4794Z" fill="white"/>
<path id="Vector_21" fill-rule="evenodd" clip-rule="evenodd" d="M103.091 27.3298C102.99 27.9227 103.232 28.1734 103.241 28.6602C102.632 28.7084 101.916 28.8433 100.871 28.8096C100.687 28.4529 100.503 28.0914 100.426 27.6287C101.258 27.1611 102.138 27.648 103.096 27.3347L103.091 27.3298Z" fill="white"/>
<path id="Vector_22" fill-rule="evenodd" clip-rule="evenodd" d="M13.0883 28.3662C13.0012 29.5134 11.5838 30.4919 10.7179 29.5471C10.4518 27.2431 12.2611 27.6287 13.0883 28.3662ZM11.458 28.3662C11.579 28.8771 11.2403 28.935 11.308 29.4025C11.8208 29.5182 11.9321 29.2386 12.1982 29.1085C11.9563 28.6506 12.0675 28.5349 11.9031 28.2216C11.8789 28.3951 11.6709 28.3807 11.458 28.371V28.3662Z" fill="#CC0000"/>
<path id="Vector_23" fill-rule="evenodd" clip-rule="evenodd" d="M20.2023 27.9229C20.2603 29.1665 19.7427 29.8317 18.422 29.6967C18.0979 29.3786 17.8561 28.9785 17.977 28.2169C18.3592 27.759 19.6508 27.3156 20.2023 27.9229ZM18.722 29.2533C19.2106 29.1038 19.5976 28.8436 19.6121 28.2169H18.722C18.6494 28.5544 18.4269 28.9737 18.722 29.2533Z" fill="#CC0000"/>
<path id="Vector_24" fill-rule="evenodd" clip-rule="evenodd" d="M14.716 29.8412C14.1162 29.4652 14.4113 27.5227 15.3062 28.2168C15.4272 28.7808 14.8708 28.6699 14.8612 29.1037C15.1853 29.8219 15.8287 28.9543 16.1963 28.8097C16.327 28.2361 15.5481 28.5687 15.7513 27.9228C17.6476 27.595 16.4527 30.3666 14.716 29.846V29.8412Z" fill="#CC0000"/>
<path id="Vector_25" fill-rule="evenodd" clip-rule="evenodd" d="M36.5108 28.5158C36.4673 29.2147 35.5191 29.0026 35.0257 29.2533C34.2565 27.9952 36.2109 27.2095 36.5108 28.5158Z" fill="white"/>
<path id="Vector_26" fill-rule="evenodd" clip-rule="evenodd" d="M11.9023 28.2169C12.0716 28.5302 11.9603 28.6458 12.1974 29.1038C11.9361 29.2339 11.82 29.5183 11.3072 29.3978C11.2347 28.9302 11.5733 28.8772 11.4572 28.3615C11.6701 28.3759 11.8781 28.3856 11.9023 28.212V28.2169Z" fill="white"/>
<path id="Vector_27" fill-rule="evenodd" clip-rule="evenodd" d="M18.7233 28.2168H19.6134C19.5989 28.8434 19.2167 29.0989 18.7233 29.2531C18.4282 28.9736 18.6507 28.5542 18.7233 28.2168Z" fill="white"/>
<path id="Vector_28" fill-rule="evenodd" clip-rule="evenodd" d="M97.9002 28.2168C98.2775 28.2361 98.4759 28.4337 98.4952 28.8097C98.3695 28.7807 98.3549 28.8675 98.3453 28.9591C97.9679 28.9398 97.7696 28.7422 97.7502 28.3662C97.876 28.3951 97.8905 28.3084 97.9002 28.2168Z" fill="#CC0000"/>
<path id="Vector_29" fill-rule="evenodd" clip-rule="evenodd" d="M58.0161 28.5156C58.4418 28.5349 58.7224 28.6988 58.6112 29.2531C58.1951 29.2242 57.9774 28.9976 58.0161 28.5156Z" fill="#CC0000"/>
<path id="Vector_30" fill-rule="evenodd" clip-rule="evenodd" d="M65.2785 28.6602C65.3269 29.4459 64.1852 29.6677 63.7934 29.5471C63.7692 28.7856 64.7609 28.4096 65.2785 28.6602Z" fill="white"/>
<path id="Vector_31" fill-rule="evenodd" clip-rule="evenodd" d="M29.2499 29.1037C29.424 29.7496 27.8905 29.7496 28.0647 29.1037C28.3065 28.8627 28.6839 29.2338 29.2499 29.1037Z" fill="white"/>
<path id="Vector_32" fill-rule="evenodd" clip-rule="evenodd" d="M84.999 35.7506C85.7537 36.7194 86.8953 38.5559 86.0391 40.1851H84.8539C84.3024 40.8695 84.3217 42.1179 82.7785 41.8095C82.556 41.3467 82.2851 40.9226 82.1884 40.3297C81.1725 39.8621 80.2388 40.7972 79.668 39.8862C80.0792 39.3608 80.8629 39.2066 81.1483 38.5559C80.9064 37.0279 81.0322 35.6494 82.0384 35.0083C83.3107 35.2397 83.6396 35.8711 85.0038 35.7458L84.999 35.7506ZM81.2934 39.5922C82.6866 39.5055 84.4427 39.7754 85.594 39.4428C86.0294 38.2426 85.2554 37.0424 84.7039 36.3386C84.0895 36.1699 84.1282 36.6471 83.6687 36.6327C81.6127 34.2564 81.8884 38.3149 81.2982 39.5874L81.2934 39.5922ZM83.0736 41.2166C83.4655 41.0672 83.9154 40.9756 83.9638 40.4791C83.6348 40.3634 83.3832 40.1706 82.9237 40.1851C82.7495 40.6044 82.8946 40.8117 83.0736 41.2166Z" fill="#CC0000"/>
<path id="Vector_33" fill-rule="evenodd" clip-rule="evenodd" d="M95.0811 35.0132C95.0569 35.6784 94.162 35.4759 94.191 36.1941C93.388 36.0977 92.7155 36.358 92.2656 36.1941C92.8171 35.3747 94.0168 35.5579 95.0811 35.0132Z" fill="white"/>
<path id="Vector_34" fill-rule="evenodd" clip-rule="evenodd" d="M43.4804 35.606C43.969 37.4376 43.6788 40.2091 43.3305 41.9588C37.2109 41.7612 30.5157 41.5491 24.4977 41.9588C24.222 40.0694 24.014 38.0064 24.4977 36.7869C24.3284 36.0831 23.4383 36.9749 23.3125 36.3434C24.1736 35.5433 26.1667 35.9 27.7631 35.9C31.9524 35.9 37.9801 36.3097 41.9953 35.9C42.4162 35.8566 42.7693 35.7457 43.1805 35.606H43.4756H43.4804ZM26.1328 36.6375C29.79 38.7728 34.7147 37.8328 38.5896 36.488C34.3325 36.3482 30.7721 36.3049 26.1328 36.6375ZM35.9193 37.9678C35.1598 38.1365 33.8923 37.9437 33.5489 38.8547C36.6256 39.5295 39.441 40.4694 42.7403 40.9225C43.0402 39.6934 42.8709 37.9967 43.1853 36.7869C40.4521 36.0928 37.922 37.5244 35.9193 37.9678ZM24.9476 40.9225C26.8585 40.4116 28.1646 39.303 30.1383 38.8547C28.9193 37.8521 26.6504 37.8955 25.0976 37.2303C24.7686 38.1847 25.0347 39.7271 24.9476 40.9225ZM34.289 39.891C33.2876 39.6404 32.4362 38.9704 31.4735 39.0041C29.8868 39.062 28.7596 40.267 27.3229 40.7779C27.7195 41.5106 28.8999 41.2117 29.8433 41.2214C33.0748 41.2551 37.0996 41.1491 39.3346 40.9273C37.8398 40.3827 36.0257 40.3248 34.2938 39.891H34.289Z" fill="#CC0000"/>
<path id="Vector_35" fill-rule="evenodd" clip-rule="evenodd" d="M83.6643 36.6376C84.1239 36.652 84.0852 36.1748 84.6996 36.3435C85.251 37.0424 86.0251 38.2475 85.5897 39.4477C84.4383 39.7803 82.6823 39.5055 81.2891 39.5971C81.8792 38.3246 81.6083 34.2661 83.6595 36.6424L83.6643 36.6376Z" fill="white"/>
<path id="Vector_36" fill-rule="evenodd" clip-rule="evenodd" d="M17.3864 36.7869C16.4769 36.9411 14.8225 37.3316 13.5308 37.3798C12.9165 37.4039 11.7506 37.6738 11.6055 36.7869C12.9455 37.1773 16.6172 35.5722 17.3864 36.7869Z" fill="#CC0000"/>
<path id="Vector_37" fill-rule="evenodd" clip-rule="evenodd" d="M38.5896 36.4929C34.7195 37.8377 29.79 38.7728 26.1328 36.6423C30.7672 36.3097 34.3325 36.3531 38.5896 36.4929Z" fill="white"/>
<path id="Vector_38" fill-rule="evenodd" clip-rule="evenodd" d="M43.1873 36.7869C42.8728 37.9967 43.0421 39.6934 42.7422 40.9225C39.443 40.4694 36.6275 39.5295 33.5508 38.8547C33.8943 37.9485 35.1665 38.1365 35.9212 37.9678C37.924 37.5244 40.454 36.0928 43.1873 36.7869Z" fill="white"/>
<path id="Vector_39" fill-rule="evenodd" clip-rule="evenodd" d="M98.7898 36.7869C98.6254 38.151 95.9502 36.9894 94.9343 37.8233C94.9004 38.7439 94.8762 39.6549 95.3793 40.0405C96.4242 39.9489 97.0144 39.4091 98.1948 39.4476C98.1222 40.1562 98.0981 40.6864 98.0448 41.072C96.1146 41.689 93.6184 41.1684 91.3738 41.2214C90.8707 40.1032 90.7788 38.0209 91.2238 36.7918C93.5894 37.0858 96.5065 36.2616 98.785 36.7918L98.7898 36.7869Z" fill="white"/>
<path id="Vector_40" fill-rule="evenodd" clip-rule="evenodd" d="M103.68 36.787H103.975C106.346 37.5245 104.948 40.3202 102.345 39.7418C101.421 39.0332 102.089 36.575 103.235 37.0811C103.666 37.8619 102.229 37.9101 102.495 38.9995C103.332 39.4333 104.411 38.8452 104.72 38.262C104.696 37.4522 103.554 37.7462 103.68 36.7822V36.787Z" fill="#CC0000"/>
<path id="Vector_41" fill-rule="evenodd" clip-rule="evenodd" d="M25.0996 37.2305C26.6525 37.9005 28.9213 37.8523 30.1404 38.8548C28.1715 39.3031 26.8605 40.4117 24.9496 40.9227C25.0367 39.7273 24.7706 38.18 25.0996 37.2305Z" fill="white"/>
<path id="Vector_42" fill-rule="evenodd" clip-rule="evenodd" d="M17.6848 38.262C16.8285 39.5923 13.2003 39.1681 11.7539 39.1489C12.7021 37.9101 16.3448 38.6283 17.6848 38.262Z" fill="#CC0000"/>
<path id="Vector_43" fill-rule="evenodd" clip-rule="evenodd" d="M98.344 38.1174C98.3488 39.4043 96.4622 38.8018 95.6736 39.2983C95.4705 39.1103 95.5285 38.6572 95.5237 38.2668C96.4767 38.2331 97.2604 38.0306 98.3392 38.1174H98.344Z" fill="white"/>
<path id="Vector_44" fill-rule="evenodd" clip-rule="evenodd" d="M39.3321 40.9227C37.0971 41.1445 33.0771 41.2505 29.8407 41.2168C28.8974 41.2071 27.717 41.5108 27.3203 40.7733C28.7619 40.2624 29.8891 39.0574 31.471 38.9995C32.4337 38.9658 33.2851 39.6358 34.2864 39.8864C36.0183 40.3202 37.8324 40.3732 39.3272 40.9227H39.3321Z" fill="white"/>
<path id="Vector_45" fill-rule="evenodd" clip-rule="evenodd" d="M82.924 40.1851C83.3835 40.1706 83.6303 40.3634 83.9641 40.4791C83.9157 40.9756 83.4658 41.0672 83.0739 41.2166C82.8949 40.8117 82.7547 40.5996 82.924 40.1851Z" fill="white"/>
<path id="Vector_46" fill-rule="evenodd" clip-rule="evenodd" d="M19.169 40.7731C18.9562 41.5395 17.9354 41.1732 17.0937 41.2166C15.2554 41.313 12.5512 42.1758 11.7578 41.0671C14.2637 40.8502 17.263 40.4068 19.1738 40.7731H19.169Z" fill="#CC0000"/>
<path id="Vector_47" fill-rule="evenodd" clip-rule="evenodd" d="M32.8047 48.6059C33.6561 49.5265 32.9982 51.0545 33.3949 52.4475C28.6831 50.9533 24.0003 52.5102 18.4177 52.2981C18.2968 51.4835 17.9775 50.8665 17.9727 49.9362C19.0031 49.7965 18.5822 51.1027 19.0079 51.5606C23.3134 51.951 28.4944 50.4231 32.6499 51.5606C32.8337 50.9436 32.6064 50.3122 32.7999 49.6374C28.6879 48.2106 22.7135 50.558 18.4177 49.488C23.2456 48.8517 28.1364 48.8758 32.7999 48.6011L32.8047 48.6059Z" fill="#CC0000"/>
<path id="Vector_48" fill-rule="evenodd" clip-rule="evenodd" d="M95.526 49.0493C96.0533 49.9507 95.9952 51.4401 96.2661 52.5969C93.499 52.7945 89.2807 51.7968 86.7748 52.5969C86.3201 52.0667 86.1217 51.281 86.1846 50.2351C86.0443 49.8784 85.1058 50.3266 85.2945 49.6422C88.2357 48.977 92.1397 49.271 95.526 49.0493ZM86.9248 49.9362C86.6925 50.3122 86.6925 51.4786 86.9248 51.8546C89.4258 51.1702 92.4057 51.9269 95.526 51.8546C95.526 51.1123 95.4099 50.4905 95.2309 49.9362C92.4057 49.3915 89.8321 50.0808 86.9248 49.9362Z" fill="#CC0000"/>
<path id="Vector_49" fill-rule="evenodd" clip-rule="evenodd" d="M67.2072 49.1987C67.4249 50.0422 67.4056 51.8208 67.3572 52.4474C62.0455 52.8812 56.1727 52.5583 50.8997 52.7414C50.5756 51.9317 50.3144 51.0592 50.3047 49.9361C51.2625 50.0181 50.9287 51.387 51.3448 52.004C56.3807 52.0955 61.3296 52.1196 66.7622 51.8545C66.8783 51.4882 66.7622 50.2687 66.7622 49.9361C63.7242 49.8012 60.4007 49.7867 56.9757 49.9361C54.9536 50.0229 52.7477 50.7797 51.0448 49.7867C55.4132 49.2276 63.6564 49.4349 67.2072 49.1938V49.1987Z" fill="#CC0000"/>
<path id="Vector_50" fill-rule="evenodd" clip-rule="evenodd" d="M95.2303 49.9361C95.4093 50.4953 95.5302 51.1171 95.5254 51.8545C92.4051 51.9268 89.4252 51.1701 86.9242 51.8545C86.6919 51.4786 86.6919 50.3121 86.9242 49.9361C89.8267 50.0807 92.4051 49.3915 95.2303 49.9361Z" fill="white"/>
<path id="Vector_51" fill-rule="evenodd" clip-rule="evenodd" d="M101.309 63.6736C98.4207 64.2134 95.8326 65.9776 92.8575 66.7777C90.3613 67.4477 87.391 67.602 84.5561 68.1081C79.2686 69.048 74.0392 70.5181 68.5437 71.6557C65.7959 72.2244 62.8208 73.0149 60.2424 73.1354C56.5174 73.3089 52.3039 71.9159 48.3806 71.217C40.4518 69.7951 32.5859 69.0914 24.9521 67.226C22.1076 66.5319 19.4373 66.2909 16.3509 65.6016C15.6156 65.4377 14.4304 65.3943 13.9805 64.5653C30.9943 64.6231 47.2147 63.0807 63.5029 63.3844C75.6308 63.6109 88.5472 64.0592 101.314 63.6784L101.309 63.6736Z" fill="white"/>
<path id="Vector_52" fill-rule="evenodd" clip-rule="evenodd" d="M103.093 64.2664C103.896 64.6664 103.538 65.857 103.538 66.4836C103.528 68.6189 103.538 71.3423 103.388 74.0174C103.194 77.4975 103.049 81.5078 102.498 85.0988C90.5102 79.7726 77.5696 75.9985 62.7617 73.7234C64.1743 72.7112 66.0319 72.6822 67.6525 72.393C72.7417 71.4869 77.6857 70.0698 82.7748 68.9949C86.2047 68.2719 89.8474 68.2188 93.1563 67.3705C94.7189 66.9704 96.3201 66.3342 97.752 65.7461C99.6387 64.9701 101.037 64.5652 103.093 64.2664Z" fill="white"/>
<path id="Vector_53" fill-rule="evenodd" clip-rule="evenodd" d="M101.456 85.3928C88.4523 85.5856 73.838 84.4385 58.9043 84.8C44.9575 85.1422 30.5415 86.7135 17.2381 87.0172C18.5781 85.8266 20.4212 85.523 22.1337 84.9494C33.6424 81.0789 46.6797 76.8564 59.2042 74.0174C59.4316 73.9644 59.5477 73.8487 59.7993 73.868C69.5131 74.6681 79.4786 78.1 88.4136 80.3703C93.0287 81.5416 97.0004 83.7636 101.461 85.3928H101.456Z" fill="white"/>
<path id="Vector_54" fill-rule="evenodd" clip-rule="evenodd" d="M69.7276 91.4468C69.2583 90.9841 69.1664 90.0152 69.4325 89.2296C70.4726 89.5862 71.5514 88.2559 72.5479 89.2296C72.7317 91.0901 71.4304 91.4661 69.7324 91.4468H69.7276ZM69.8776 89.9719V90.7093C70.7725 91.1142 71.7013 90.3912 71.9529 89.673C70.7628 89.5959 70.608 89.6344 69.8776 89.967V89.9719Z" fill="#CC0000"/>
<path id="Vector_55" fill-rule="evenodd" clip-rule="evenodd" d="M53.8636 89.2345C55.5277 89.89 54.0329 92.1265 52.2333 91.6011C51.2126 90.8781 52.1801 88.1596 53.1234 89.5333C53.5588 89.702 53.6749 88.8248 53.8636 89.2393V89.2345ZM52.3785 90.266V91.0035C53.2395 91.0276 53.7814 90.7287 54.0087 90.1166C53.5298 89.7454 52.9106 90.2226 52.3785 90.266Z" fill="#CC0000"/>
<path id="Vector_56" fill-rule="evenodd" clip-rule="evenodd" d="M60.0892 89.2346C61.0615 90.3432 59.9441 91.8181 58.754 91.4518C57.443 90.8348 58.5653 88.3429 60.0892 89.2346ZM58.754 90.8589C59.4119 90.8782 59.9102 90.7336 59.7941 89.972C59.2765 89.6009 58.6379 90.1311 58.754 90.8589Z" fill="#CC0000"/>
<path id="Vector_57" fill-rule="evenodd" clip-rule="evenodd" d="M64.5368 91.7457C62.1325 90.613 65.2479 88.0005 66.167 89.6779C66.8491 90.9263 65.4753 91.3601 64.5368 91.7457ZM64.3916 91.0083C65.0495 90.9745 65.4511 90.6853 65.5768 90.1214C65.156 89.8852 64.2272 90.1937 64.3916 91.0083Z" fill="#CC0000"/>
<path id="Vector_58" fill-rule="evenodd" clip-rule="evenodd" d="M71.9503 89.6779C71.6988 90.3912 70.77 91.1142 69.875 90.7142V89.9767C70.6055 89.6393 70.7603 89.6055 71.9503 89.6827V89.6779Z" fill="white"/>
<path id="Vector_59" fill-rule="evenodd" clip-rule="evenodd" d="M59.7962 89.972C59.9171 90.7336 59.4188 90.8733 58.7561 90.8589C58.64 90.1311 59.2737 89.6008 59.7962 89.972Z" fill="white"/>
<path id="Vector_60" fill-rule="evenodd" clip-rule="evenodd" d="M54.0092 90.1214C53.7818 90.7336 53.24 91.0324 52.3789 91.0083V90.2708C52.911 90.2323 53.5303 89.7551 54.0092 90.1214Z" fill="white"/>
<path id="Vector_61" fill-rule="evenodd" clip-rule="evenodd" d="M65.5756 90.1214C65.4498 90.6854 65.0435 90.9746 64.3904 91.0083C64.2259 90.1937 65.1547 89.8852 65.5756 90.1214Z" fill="white"/>
<path id="Vector_62" fill-rule="evenodd" clip-rule="evenodd" d="M103.235 97.0624C103.892 97.3901 103.385 98.2385 103.38 98.6868C103.38 102.687 103.878 107.633 104.12 113.017C104.376 118.681 104.27 124.667 104.27 130.745C104.27 136.823 103.704 142.386 103.53 147.736C103.341 153.376 103.873 159.15 103.085 164.283C95.1655 164.79 86.4771 164.746 77.8759 164.577C70.8469 164.438 63.8807 164.727 56.9678 164.727C50.0549 164.727 43.3355 164.876 36.6548 164.876C29.974 164.876 23.0998 165.749 16.6368 164.283C14.5228 154.614 15.6741 144.569 15.0065 133.999C14.5518 126.793 13.9132 119.726 14.2664 111.691C14.4357 107.768 14.8275 103.69 14.8614 99.8725C15.6402 100.06 15.6644 99.4917 15.6015 98.8362C28.4454 99.135 40.341 97.8432 52.227 97.9493C64.0162 98.0553 75.8586 97.3564 88.2574 97.3564C92.6983 97.3564 96.9989 97.6215 101.604 97.207C101.924 97.1781 102.552 96.9419 103.235 97.0576V97.0624ZM101.754 97.9493C94.9575 98.3011 87.9526 97.9782 80.5511 98.0987C73.5075 98.2096 66.227 98.8024 59.0528 98.6916C51.9609 98.5807 44.4626 98.3831 37.1095 98.6916C33.3458 98.8506 29.6402 99.2652 25.9879 99.429C22.4709 99.5881 18.9927 99.3857 15.7563 100.022C15.3064 106.881 14.7743 114.381 15.1613 122.479C15.795 135.71 16.0176 150.546 16.9416 163.845C22.6354 164.91 28.6437 164.288 35.3293 164.288C48.2021 164.288 61.0556 163.7 73.5849 163.695C83.3037 163.695 92.7418 164.577 102.199 163.401C103.152 158.586 102.485 153.583 102.644 148.628C102.722 146.16 103.162 143.731 103.239 141.243C103.704 126.282 104.071 112.361 102.499 98.841C103.177 97.5685 102.48 97.9155 101.759 97.9541L101.754 97.9493Z" fill="#CC0000"/>
<path id="Vector_63" fill-rule="evenodd" clip-rule="evenodd" d="M95.9699 101.641C96.623 102.152 96.8214 101.584 97.7502 101.641C97.9243 102.109 98.2098 102.461 98.4903 102.822H99.3805C100.092 103.444 100.193 104.668 100.271 105.926C99.9851 106.505 99.0999 106.5 99.5304 107.401C98.6403 107.45 97.9389 107.686 97.7502 108.433C96.8262 108.153 96.5988 108.173 95.8248 108.582C95.2443 108.028 94.6057 107.532 93.7495 107.252V106.365C93.6237 105.931 93.377 106.558 93.0093 106.365C92.4772 105.979 92.8207 105.102 92.8594 104.447C93.8414 104.49 93.4834 103.193 94.6396 103.415C94.9202 103.184 94.4268 102.842 94.7896 102.528C95.3556 102.408 95.9022 102.258 95.9748 101.641H95.9699ZM96.8601 103.565C95.52 102.832 93.6624 105.02 94.6348 106.669C95.9796 106.645 96.8552 107.382 98.1952 106.519C98.1759 105.907 98.4371 105.647 99.0854 105.632C99.1095 104.919 98.9693 104.37 98.7903 103.859C98.4468 103.757 97.8179 103.955 97.7502 103.266C97.2858 103.193 97.1697 103.478 96.8601 103.56V103.565Z" fill="#CC0000"/>
<path id="Vector_64" fill-rule="evenodd" clip-rule="evenodd" d="M38.5909 102.678C38.9392 103.695 38.5474 105.17 38.4409 106.225C33.1873 106.992 26.2067 107.204 20.6483 107.556C20.508 106.91 20.3919 106.235 20.3532 105.488C20.3048 104.905 19.5163 105.652 19.168 105.194C19.6953 104.934 20.1016 104.548 20.6483 104.307C20.9869 104.953 20.9482 105.975 21.0933 106.818C27.2758 106.437 31.7893 106.341 37.9959 105.637C37.8846 104.63 37.933 104.307 38.141 103.42C33.4969 103.42 28.0691 103.902 24.0539 104.013C22.651 104.051 20.2032 104.856 19.4582 103.42C26.3905 103.965 32.1666 102.885 38.5861 102.683L38.5909 102.678Z" fill="#CC0000"/>
<path id="Vector_65" fill-rule="evenodd" clip-rule="evenodd" d="M97.75 103.271C97.8177 103.96 98.4466 103.762 98.79 103.864C98.969 104.374 99.1142 104.919 99.0851 105.637C98.4369 105.652 98.1757 105.912 98.195 106.524C96.855 107.387 95.9842 106.645 94.6345 106.674C93.6622 105.025 95.515 102.842 96.8598 103.57C97.1694 103.483 97.2856 103.203 97.75 103.275V103.271ZM96.4148 106.225C96.9179 106.423 97.808 105.748 97.6 104.746C96.7582 103.362 95.1764 105.57 96.4148 106.225Z" fill="white"/>
<path id="Vector_66" fill-rule="evenodd" clip-rule="evenodd" d="M97.5989 104.746C97.8069 105.743 96.912 106.423 96.4137 106.225C95.1753 105.57 96.7572 103.362 97.5989 104.746Z" fill="#CC0000"/>
<path id="Vector_67" fill-rule="evenodd" clip-rule="evenodd" d="M43.3304 108.293C43.5046 108.269 43.5917 108.327 43.6255 108.442C44.0125 108.905 43.1708 109.083 43.1805 109.623C43.3159 110.023 43.6449 109.416 44.0706 109.623C44.2738 110.072 44.0948 110.626 43.9206 111.098C43.5336 110.746 43.3643 110.178 42.5854 110.211C42.2903 109.479 43.0063 108.862 43.3256 108.288L43.3304 108.293Z" fill="#CC0000"/>
<path id="Vector_68" fill-rule="evenodd" clip-rule="evenodd" d="M23.169 109.474C22.8594 110.366 22.9416 110.886 23.0238 111.985C22.5788 111.884 22.5256 111.397 22.5788 110.804C22.2208 110.491 21.9451 111.156 21.2436 110.954C20.0439 109.744 22.5401 107.989 23.169 109.474ZM21.3887 110.361C22.0467 110.424 22.3272 110.115 22.424 109.623C21.7661 109.561 21.4855 109.869 21.3887 110.361Z" fill="#CC0000"/>
<path id="Vector_69" fill-rule="evenodd" clip-rule="evenodd" d="M36.6623 109.031C36.7058 109.421 36.3527 109.411 36.0672 109.474C36.2075 110.221 37.3057 110.014 37.2524 110.954C36.9574 111.195 36.1253 111.479 35.9173 110.954C36.014 110.756 36.2366 110.679 36.5123 110.66C36.3381 110.144 35.4529 110.337 35.477 109.624C35.6028 109.248 36.2317 108.611 36.6623 109.031Z" fill="#CC0000"/>
<path id="Vector_70" fill-rule="evenodd" clip-rule="evenodd" d="M39.6281 110.361C39.9764 110.843 40.4698 110.226 40.8133 110.212C40.7407 111.388 39.0718 111.638 38.2929 111.248C38.1575 110.178 39.2411 110.322 39.4781 109.623C39.1201 109.262 38.6896 109.537 38.438 109.329C38.9799 107.999 40.9246 109.754 39.6233 110.366L39.6281 110.361Z" fill="#CC0000"/>
<path id="Vector_71" fill-rule="evenodd" clip-rule="evenodd" d="M33.4001 109.18C33.5065 109.585 33.105 109.479 33.105 109.768C33.2404 110.173 33.5694 109.561 33.9951 109.768C34.1209 110.134 34.1886 110.559 34.145 111.098C33.5984 111.204 33.7726 110.583 33.55 110.361C33.0904 110.346 33.1291 110.824 32.5099 110.655C32.3842 110.534 32.4229 110.25 32.2148 110.212C32.4083 109.71 32.8002 108.804 33.4001 109.18Z" fill="#CC0000"/>
<path id="Vector_72" fill-rule="evenodd" clip-rule="evenodd" d="M29.543 111.392C27.6612 109.956 30.9363 108.602 31.0282 110.356C31.062 111.012 30.5299 111.441 29.543 111.392ZM29.3931 110.804C29.7656 111.098 30.5589 110.872 30.4283 110.211C30.0558 109.917 29.2624 110.144 29.3931 110.804Z" fill="#CC0000"/>
<path id="Vector_73" fill-rule="evenodd" clip-rule="evenodd" d="M22.4298 109.619C22.3282 110.11 22.0476 110.419 21.3945 110.356C21.4913 109.864 21.7767 109.556 22.4298 109.619Z" fill="white"/>
<path id="Vector_74" fill-rule="evenodd" clip-rule="evenodd" d="M25.6878 109.619C25.7894 110.115 25.4411 110.159 25.0977 110.212C25.117 109.836 25.3153 109.638 25.6878 109.619Z" fill="white"/>
<path id="Vector_75" fill-rule="evenodd" clip-rule="evenodd" d="M27.4691 109.768C28.1802 109.889 27.9286 111.619 27.9141 111.985C27.1885 111.821 27.561 110.568 27.4691 109.768Z" fill="#CC0000"/>
<path id="Vector_76" fill-rule="evenodd" clip-rule="evenodd" d="M30.4363 110.212C30.5669 110.872 29.7687 111.098 29.401 110.804C29.2704 110.144 30.0686 109.918 30.4363 110.212Z" fill="white"/>
<path id="Vector_77" fill-rule="evenodd" clip-rule="evenodd" d="M49.1183 110.211C49.486 110.192 49.8343 110.187 50.0084 110.361C49.96 110.708 49.5489 110.693 49.4182 110.954C49.0941 110.93 49.099 110.583 49.1231 110.216L49.1183 110.211Z" fill="white"/>
<path id="Vector_78" fill-rule="evenodd" clip-rule="evenodd" d="M100.269 115.234C98.4017 116.015 96.2925 115.909 94.3381 115.971C92.2579 116.044 90.2165 116.266 88.1121 116.266C77.7016 116.266 67.5136 115.528 57.2724 116.116C52.3139 116.4 47.2441 116.56 42.1501 116.56C36.0789 116.56 29.1999 116.921 23.6173 116.709C22.3305 116.661 20.3471 117.326 19.7617 115.971C28.1695 116.261 37.5834 116.405 47.6359 115.971C55.6518 115.624 63.4259 114.873 72.2496 115.379C74.8668 115.528 77.629 115.668 80.2558 115.673C85.9787 115.687 91.9096 115.769 97.3084 115.229C98.0534 115.157 99.345 114.511 100.274 115.229L100.269 115.234Z" fill="#CC0000"/>
<path id="Vector_79" fill-rule="evenodd" clip-rule="evenodd" d="M86.4781 118.632C86.6281 119.736 87.228 121.105 86.7732 122.324C80.8278 122.011 75.0469 122.305 69.7207 122.768C69.0531 122.334 67.7857 120.98 68.6855 119.962C69.3676 120.44 68.8886 121.519 69.7207 122.03C75.2936 121.818 80.9923 121.572 86.3282 121.587C86.4588 121.105 86.2653 119.818 86.0331 119.225C80.6924 118.888 73.2957 119.818 67.9453 119.374C69.7594 118.454 73.3634 119.182 76.8416 118.931C79.5846 118.733 83.5175 118.565 86.4781 118.637V118.632Z" fill="#CC0000"/>
<path id="Vector_80" fill-rule="evenodd" clip-rule="evenodd" d="M42.1462 119.076C42.7703 119.731 42.6929 121.09 42.8864 122.18C36.4427 123.071 28.867 122.488 23.1635 124.098C22.7281 123.341 21.9347 121.731 22.4233 120.994C23.2167 121.283 22.8829 122.705 23.3135 123.361C28.8186 121.9 36.4282 122.541 42.2913 121.437C42.1752 120.767 42.0833 120.069 41.8463 119.519C35.243 119.75 28.9106 121.331 22.4233 120.112C23.6085 119.341 24.8034 120.054 26.1289 120.112C31.0246 120.314 37.7101 118.878 42.1414 119.076H42.1462Z" fill="#CC0000"/>
<path id="Vector_81" fill-rule="evenodd" clip-rule="evenodd" d="M80.6976 123.804C80.0542 124.903 77.9644 124.59 75.952 124.691C74.5974 124.759 73.0736 124.691 71.8013 124.691C71.3466 124.691 70.4661 125.236 70.3162 124.397C73.0881 123.751 77.5435 124.33 80.2526 123.66C80.4896 123.616 80.509 123.799 80.6976 123.809V123.804Z" fill="#CC0000"/>
<path id="Vector_82" fill-rule="evenodd" clip-rule="evenodd" d="M35.9194 125.429C35.8179 126.161 35.0487 126.287 34.7342 125.723C32.3735 126.224 28.5953 126.503 25.9879 126.61C25.3541 126.634 24.077 127.251 24.0625 126.017C28.0051 126.388 32.6637 125.192 35.9243 125.424L35.9194 125.429Z" fill="#CC0000"/>
<path id="Vector_83" fill-rule="evenodd" clip-rule="evenodd" d="M81.8829 126.315C81.4958 127.159 80.6057 126.619 79.9527 126.609C76.8759 126.566 73.0591 127.024 70.3162 126.609C70.471 125.872 71.1918 126.354 71.8013 126.315C75.0377 126.113 78.9851 125.747 81.8829 126.315Z" fill="#CC0000"/>
<path id="Vector_84" fill-rule="evenodd" clip-rule="evenodd" d="M38.2922 127.202C37.973 127.651 37.6343 127.198 37.107 127.202C34.664 127.226 30.5859 128.205 27.6157 128.533C26.7884 128.624 25.3178 129.111 24.9453 128.089C28.0946 127.906 32.3613 127.424 35.917 126.908C36.7539 126.788 37.8327 126.171 38.2874 127.202H38.2922Z" fill="#CC0000"/>
<path id="Vector_85" fill-rule="evenodd" clip-rule="evenodd" d="M103.235 132.668C102.543 133.493 101.28 133.401 100.419 133.406C96.646 133.435 92.6792 133.102 88.7075 132.962C84.5907 132.818 80.4256 133.093 76.2507 133.112C68.0849 133.15 59.7932 133.165 51.637 133.112C41.0669 133.04 30.6806 134.563 21.6875 133.406C22.6357 132.62 23.9563 133.223 24.948 133.256C28.9197 133.391 32.1706 133.093 35.7746 132.962C58.4629 132.124 81.1948 132.447 103.24 132.668H103.235Z" fill="#CC0000"/>
<path id="Vector_86" fill-rule="evenodd" clip-rule="evenodd" d="M48.0772 135.474C48.1062 136.457 47.6273 138.163 47.3371 139.315C40.3951 140.111 33.0517 139.277 26.874 140.053C26.071 140.154 25.2873 140.636 24.5036 140.202C24.0731 139.918 24.4069 139.031 24.5036 138.428C24.0441 137.508 23.7103 137.228 24.0586 136.361C31.9438 136.317 40.2887 136.057 48.0772 135.474ZM24.5036 137.098C24.4117 137.638 25.4905 138.279 25.0986 139.609C31.8906 138.93 40.0662 139.335 46.892 138.573C47.0323 137.792 47.4338 136.602 47.3371 136.062C40.3419 136.592 30.8457 136.63 24.5036 137.098Z" fill="#CC0000"/>
<path id="Vector_87" fill-rule="evenodd" clip-rule="evenodd" d="M47.339 136.066C47.4358 136.606 47.0343 137.797 46.894 138.578C40.0633 139.339 31.8926 138.93 25.1006 139.614C25.4925 138.284 24.4137 137.643 24.5056 137.103C30.8477 136.64 40.3439 136.597 47.339 136.066Z" fill="white"/>
<path id="Vector_88" fill-rule="evenodd" clip-rule="evenodd" d="M94.1913 144.193C96.6923 146.743 98.4145 153.293 94.9314 155.419C91.6225 157.444 85.7303 155.496 84.5499 152.908C83.476 150.541 84.9756 148.444 86.0351 146.849C86.4753 146.179 87.2735 144.868 88.1104 144.632C88.8651 144.42 89.1118 144.96 89.7407 144.926C91.0081 144.858 92.3385 143.615 94.1913 144.188V144.193ZM84.8499 149.953V152.021C86.335 155.361 92.5223 156.836 95.0814 154.383C97.0309 152.517 96.1166 146.338 94.0461 145.075C92.6868 144.246 91.758 145.056 90.0406 144.926C89.6391 145.34 90.3018 145.533 90.1906 146.107C87.7282 143.706 86.0738 148.314 84.8499 149.948V149.953Z" fill="#CC0000"/>
<path id="Vector_89" fill-rule="evenodd" clip-rule="evenodd" d="M90.1884 146.111C90.3045 145.538 89.6417 145.345 90.0384 144.931C91.7509 145.061 92.6846 144.251 94.0439 145.08C96.1192 146.343 97.0287 152.522 95.0792 154.388C92.5201 156.841 86.3328 155.361 84.8477 152.026V149.958C86.0667 148.324 87.7212 143.716 90.1884 146.116V146.111ZM88.8532 151.727C89.3369 151.471 89.4821 150.874 89.8884 150.546C90.2319 150.994 90.5705 151.443 91.3736 151.433C91.9202 151.288 92.1089 150.787 92.5588 150.546C92.8781 150.869 93.2796 151.11 94.0391 150.989V150.397C93.357 150.459 93.1441 150.136 92.7039 149.659C92.0363 150.078 91.7364 150.864 90.6286 150.84C90.4689 150.459 90.2706 150.117 90.3335 149.51C89.4095 149.524 89.4095 150.459 88.8532 150.84C88.4807 150.286 89.3079 149.881 89.1483 149.066H88.7032C88.4371 149.698 87.7551 151.481 88.8532 151.727Z" fill="white"/>
<path id="Vector_90" fill-rule="evenodd" clip-rule="evenodd" d="M70.0253 145.817C76.6044 142.742 77.4897 152.758 73.2858 154.682C69.2803 154.817 66.1407 156.041 63.7945 153.944C60.413 150.922 63.2623 145.504 67.205 144.931C68.5111 144.743 69.3238 145.046 70.0205 145.817H70.0253ZM64.2395 146.998C62.5077 148.763 62.7737 152.744 64.6846 153.944C66.1504 154.865 71.1186 154.73 72.8408 154.094C75.1386 153.24 76.7495 147.933 73.8809 146.266C72.5554 145.495 70.8235 146.362 69.1352 146.709C69.0239 146.169 69.498 145.89 69.1352 145.528C66.6293 145.629 65.0668 146.169 64.2395 147.003V146.998Z" fill="#CC0000"/>
<path id="Vector_91" fill-rule="evenodd" clip-rule="evenodd" d="M47.6315 145.225C50.2341 144.81 55.0475 150.107 54.3025 153.496C53.8381 155.626 49.7503 156.658 47.7766 156.894C44.9998 157.227 42.8132 156.417 41.7006 154.976C39.306 151.872 41.2217 146.844 44.5161 145.962C45.024 145.827 45.5658 146.054 46.0012 145.962C46.5237 145.856 46.8575 145.35 47.6315 145.225ZM44.816 146.704C42.731 147.562 41.3813 148.753 41.2555 150.989C41.0523 154.624 43.8823 156.764 47.6315 156.306C49.6391 156.06 53.1947 155.014 53.5624 153.202C53.6785 152.628 53.5285 151.332 53.2673 150.541C52.5271 148.324 49.0247 145.003 46.7413 146.111C46.306 146.348 46.9784 146.873 46.5914 146.998C46.1125 146.271 45.2756 147.365 44.8111 146.704H44.816Z" fill="#CC0000"/>
<path id="Vector_92" fill-rule="evenodd" clip-rule="evenodd" d="M23.3176 155.569C20.923 152.416 21.8421 146.56 25.9879 145.668C26.8829 145.475 28.2277 145.673 29.2485 145.374C31.5221 144.704 34.6472 150.961 34.1441 152.763C33.3217 155.689 26.5055 158.682 23.3224 155.569H23.3176ZM33.5491 152.171C33.7619 150.141 31.1061 146.083 29.5436 145.967C28.489 145.885 27.7827 146.955 26.5781 146.261C22.5145 146.936 21.3293 153.482 24.6527 155.863C28.0149 157.314 33.2782 154.725 33.5491 152.171Z" fill="#CC0000"/>
<path id="Vector_93" fill-rule="evenodd" clip-rule="evenodd" d="M69.1341 145.519C69.497 145.88 69.0229 146.16 69.1341 146.7C70.8176 146.353 72.5543 145.485 73.8798 146.256C76.7485 147.924 75.1376 153.236 72.8397 154.084C71.1176 154.725 66.1493 154.855 64.6836 153.935C62.7727 152.734 62.5066 148.758 64.2385 146.989C65.0609 146.15 66.6234 145.615 69.1341 145.514V145.519ZM66.9088 152.315C67.499 152.363 67.3104 151.631 67.799 151.578C69.3131 152.219 70.4161 151.134 72.2495 151.428C71.8529 151.086 71.8722 150.329 71.3594 150.098C70.9676 150.546 70.7015 151.115 69.8791 151.134C69.9662 150.599 70.0775 150.194 69.4341 150.098C69.2889 150.792 69.0809 151.419 68.0989 151.279C67.7022 151.134 68.2972 150.001 67.6538 150.098C67.1652 150.247 67.5861 151.308 66.9137 151.279V150.098H66.4686C66.4589 150.994 66.3525 151.987 66.9137 152.315H66.9088Z" fill="white"/>
<path id="Vector_94" fill-rule="evenodd" clip-rule="evenodd" d="M46.5962 146.998C46.9783 146.873 46.3107 146.353 46.7461 146.112C49.0246 145.003 52.5319 148.329 53.272 150.541C53.5333 151.332 53.6832 152.628 53.5671 153.202C53.1995 155.009 49.6487 156.06 47.6362 156.306C43.8871 156.764 41.0571 154.624 41.2603 150.99C41.3861 148.753 42.7309 147.562 44.8208 146.704C45.2852 147.37 46.1221 146.271 46.601 146.998H46.5962ZM46.5962 152.315C46.1414 152.031 46.4559 150.975 45.706 150.985C45.4351 151.351 45.5996 152.161 45.111 152.315C44.7724 151.963 45.4351 151.77 45.261 151.134C44.6127 151.274 44.5015 151.954 44.5208 152.758C44.7821 152.889 44.8982 153.173 45.4109 153.053C45.6867 152.889 45.7254 152.479 46.006 152.315C46.3494 153.091 47.4863 152.667 47.9313 152.315C48.3474 152.344 48.1152 153.019 48.6715 152.908C49.4455 152.609 49.5132 151.901 50.4517 152.464C49.9825 152.093 50.442 150.797 49.7116 150.691C49.2326 151.197 49.3487 152.301 48.3764 152.315V150.985C48.0813 150.985 48.1877 150.58 47.7814 150.691C47.8539 151.698 47.3557 152.137 46.5962 152.315Z" fill="white"/>
<path id="Vector_95" fill-rule="evenodd" clip-rule="evenodd" d="M24.6536 155.863C21.3302 153.481 22.5202 146.936 26.5789 146.261C27.7835 146.955 28.4898 145.885 29.5444 145.967C31.1069 146.087 33.7628 150.146 33.5499 152.17C33.279 154.73 28.0157 157.313 24.6536 155.863ZM26.429 152.614C26.7241 151.92 27.8658 152.074 28.3543 151.578C28.7365 152.546 29.8685 152.016 30.5796 152.464C30.3619 151.891 30.5119 150.956 29.8395 150.84C29.5589 151.153 29.825 152.007 28.9494 151.727C28.872 151.264 28.6881 150.903 28.5043 150.546C27.7835 150.517 28.0399 151.462 27.3191 151.433C27.3578 150.951 27.1449 150.72 26.7289 150.695C26.5548 151.163 26.6128 151.857 26.1339 152.026C25.8872 151.78 26.0178 151.158 25.9839 150.695C25.6888 150.695 25.7953 150.291 25.3889 150.401C25.4083 151.467 25.4373 152.522 26.429 152.619V152.614Z" fill="white"/>
<path id="Vector_96" fill-rule="evenodd" clip-rule="evenodd" d="M88.7044 149.066H89.1494C89.3091 149.876 88.4819 150.286 88.8544 150.84C89.4107 150.459 89.4107 149.524 90.3347 149.51C90.2718 150.117 90.4701 150.455 90.6297 150.84C91.7376 150.859 92.0375 150.079 92.7051 149.659C93.1453 150.141 93.3582 150.459 94.0403 150.397V150.99C93.2759 151.11 92.8744 150.869 92.5599 150.546C92.1052 150.787 91.9214 151.288 91.3747 151.433C90.5717 151.443 90.2331 150.994 89.8896 150.546C89.4784 150.874 89.3381 151.472 88.8544 151.727C87.7562 151.481 88.4383 149.698 88.7044 149.066Z" fill="#CC0000"/>
<path id="Vector_97" fill-rule="evenodd" clip-rule="evenodd" d="M66.4644 150.103H66.9094V151.284C67.5818 151.313 67.161 150.252 67.6496 150.103C68.293 150.006 67.6979 151.139 68.0946 151.284C69.0767 151.423 69.2847 150.797 69.4298 150.103C70.0732 150.194 69.9619 150.604 69.8749 151.139C70.7021 151.125 70.9633 150.551 71.3552 150.103C71.8631 150.334 71.8438 151.091 72.2453 151.433C70.4118 151.134 69.3137 152.219 67.7947 151.583C67.3061 151.64 67.4948 152.368 66.9046 152.32C66.3434 151.997 66.4498 150.999 66.4595 150.103H66.4644Z" fill="#CC0000"/>
<path id="Vector_98" fill-rule="evenodd" clip-rule="evenodd" d="M25.3943 150.397C25.8006 150.291 25.6942 150.691 25.9893 150.691C26.0183 151.153 25.8877 151.775 26.1393 152.021C26.6134 151.857 26.5601 151.158 26.7343 150.691C27.1503 150.72 27.3632 150.946 27.3245 151.428C28.0453 151.457 27.7889 150.512 28.5097 150.541C28.6935 150.898 28.8774 151.259 28.9548 151.722C29.8304 152.002 29.5643 151.149 29.8449 150.835C30.5221 150.951 30.3673 151.891 30.585 152.46C29.8739 152.011 28.7419 152.542 28.3597 151.573C27.8711 152.069 26.7246 151.915 26.4344 152.609C25.4427 152.513 25.4136 151.457 25.3943 150.392V150.397Z" fill="#CC0000"/>
<path id="Vector_99" fill-rule="evenodd" clip-rule="evenodd" d="M47.7821 150.691C48.1884 150.585 48.082 150.985 48.3771 150.985V152.315C49.3495 152.301 49.2334 151.197 49.7123 150.691C50.4476 150.797 49.9832 152.093 50.4524 152.465C49.5139 151.901 49.4462 152.609 48.6722 152.908C48.1159 153.019 48.3481 152.344 47.932 152.315C47.487 152.667 46.3453 153.091 46.0067 152.315C45.7261 152.479 45.6922 152.889 45.4117 153.053C44.8989 153.168 44.7876 152.889 44.5215 152.759C44.5022 151.954 44.6135 151.274 45.2617 151.134C45.4407 151.77 44.7779 151.963 45.1117 152.315C45.6003 152.161 45.431 151.356 45.7068 150.985C46.4566 150.975 46.1421 152.026 46.5969 152.315C47.3564 152.137 47.8546 151.698 47.7821 150.691Z" fill="#CC0000"/>
<path id="Vector_100" fill-rule="evenodd" clip-rule="evenodd" d="M72.2464 157.931C72.4834 162.871 67.7329 159.54 64.5353 160.148C64.4143 159.15 64.5256 158.128 64.6852 157.487C66.151 157.906 69.4744 157.964 72.2464 157.931ZM65.2802 158.523V159.555C66.925 159.454 69.1455 159.892 71.0612 159.998C71.2063 159.555 71.5836 159.338 71.5062 158.668C69.7695 158.731 67.1863 158.099 65.2802 158.519V158.523Z" fill="#CC0000"/>
<path id="Vector_101" fill-rule="evenodd" clip-rule="evenodd" d="M95.3795 158.225C95.4763 159.945 94.7893 160.885 94.4894 162.216C92.2254 160.982 89.3422 161.256 86.1881 160.885C86.072 159.883 86.8025 159.724 87.0782 159.111C86.6525 158.846 86.5316 158.278 86.043 158.075C88.336 157.988 92.8204 158.051 95.3844 158.225H95.3795ZM87.6684 158.817C87.9683 159.603 87.3201 159.796 87.6684 160.442C90.0582 160.476 92.3705 160.582 94.1943 161.179C94.1459 160.196 94.8232 159.936 94.6394 158.817C92.1045 158.692 89.7341 158.769 87.6684 158.817Z" fill="#CC0000"/>
<path id="Vector_102" fill-rule="evenodd" clip-rule="evenodd" d="M71.5072 158.668C71.5846 159.338 71.2073 159.555 71.0622 159.998C69.1465 159.892 66.926 159.454 65.2812 159.555V158.523C67.1873 158.099 69.7705 158.73 71.5072 158.673V158.668Z" fill="white"/>
<path id="Vector_103" fill-rule="evenodd" clip-rule="evenodd" d="M52.9752 158.668C52.9752 159.897 52.2786 160.437 52.0851 161.473C49.6276 161.555 46.5364 161.743 43.9289 161.03C43.6242 160.326 43.6629 158.832 44.6691 158.962C44.6981 159.699 44.2772 160.21 44.5191 160.736C46.5509 161.073 49.2116 160.789 51.4901 160.885C51.911 160.514 51.969 159.786 52.2303 159.261C49.5696 159.184 47.7458 159.545 45.1142 159.111C44.9352 158.919 45.0561 158.88 45.1142 158.668C47.3491 158.779 51.0257 158.456 52.9752 158.668Z" fill="#CC0000"/>
<path id="Vector_104" fill-rule="evenodd" clip-rule="evenodd" d="M94.6355 158.817C94.8193 159.94 94.142 160.196 94.1904 161.179C92.3667 160.581 90.0543 160.475 87.6645 160.442C87.3162 159.796 87.9644 159.598 87.6645 158.817C89.7253 158.769 92.1006 158.692 94.6355 158.817Z" fill="white"/>
<path id="Vector_105" fill-rule="evenodd" clip-rule="evenodd" d="M33.5487 159.261C33.9163 159.878 33.8583 160.919 33.8438 161.921C30.9122 162.346 27.9371 162.794 25.0974 162.365C24.9039 161.791 24.483 160.548 25.2474 160.297C25.8279 160.606 25.17 161.531 25.6924 162.071C28.3773 161.989 30.8735 161.719 33.2536 161.333V160.152C30.6219 159.83 26.9744 161.063 24.6523 159.858C26.9792 159.646 30.8928 159.955 33.5487 159.266V159.261Z" fill="#CC0000"/>
<path id="Vector_106" fill-rule="evenodd" clip-rule="evenodd" d="M101.756 168.419C102.104 169.354 102.167 170.569 102.201 171.817C100.392 171.938 97.3197 171.581 94.9347 171.668C90.0729 171.846 85.0612 171.61 80.5526 172.555C79.9285 171.504 78.811 170.94 78.7723 169.306C79.7785 169.826 80.0301 171.109 80.6977 171.967C88.3701 170.901 93.5802 170.66 101.456 171.229C101.683 170.8 101.262 169.749 101.306 169.012C94.0398 168.274 84.5339 168.896 77.5823 168.862C77.679 167.744 79.2416 168.429 80.1027 168.419C86.5415 168.356 95.6749 167.739 101.751 168.419H101.756Z" fill="#CC0000"/>
<path id="Vector_107" fill-rule="evenodd" clip-rule="evenodd" d="M45.5581 168.862C45.65 169.841 45.3985 171.745 45.4081 172.704C38.6162 172.69 29.2699 172.603 21.3895 173.147C21.1041 172.193 20.3397 170.414 21.5346 170.043C21.7571 170.125 21.0799 171.677 21.6846 172.405C28.6749 172.251 36.8601 171.807 44.668 172.111C44.9147 171.417 44.8131 170.386 44.9631 169.6C37.2858 168.477 29.715 170.063 20.3494 169.306C20.272 169.185 20.1946 169.065 20.1994 168.862C28.0315 169.364 36.5505 168.351 45.5533 168.862H45.5581Z" fill="#CC0000"/>
<path id="Vector_108" fill-rule="evenodd" clip-rule="evenodd" d="M101.606 176.396C101.843 176.353 101.863 176.536 102.051 176.546C102.303 178.025 101.829 179.009 101.756 180.238C101.393 186.099 103.832 192.597 103.536 198.26C103.493 199.109 102.941 199.889 103.386 200.772C100.779 202.738 96.6961 202.044 93.3049 201.952C84.752 201.726 75.3671 202.15 66.0209 202.102C57.11 202.054 48.233 201.562 39.9269 202.102C34.8668 202.43 29.7147 203.23 25.2496 203.577C23.629 203.702 21.8343 203.365 20.354 203.577C19.667 203.673 19.3284 204.632 18.4286 204.613C18.4915 195.73 16.6967 187.217 18.2786 178.021C25.4189 178.647 34.5958 177.659 42.4473 177.577C49.7182 177.5 57.1777 177.669 64.3906 177.727C77.0796 177.828 89.2365 176.907 101.311 177.433C101.558 177.235 101.359 176.594 101.611 176.401L101.606 176.396ZM69.4314 178.32C54.3284 178.691 36.3954 177.413 21.6891 179.057C31.5578 182.879 43.2551 185.366 54.014 188.365C55.62 188.813 57.705 189.57 58.9096 189.546C60.0609 189.526 61.9137 188.755 63.3554 188.365C74.4189 185.371 84.8246 182.841 95.6802 180.537C97.233 179.428 99.7002 179.226 101.316 178.175C91.6601 177.881 80.4611 178.05 69.4362 178.324L69.4314 178.32ZM19.3139 202.844C24.9981 199.711 31.4514 197.851 37.8467 195.754C43.2116 193.994 49.0361 192.172 54.7493 190.582C55.4991 190.375 56.5779 190.418 57.1197 189.695C47.9234 187.16 38.2434 185.506 29.5406 182.455C26.28 181.313 22.1003 179.659 19.309 179.351C19.2268 179.086 19.2316 178.739 19.014 178.614C17.6111 185.94 18.8882 194.192 19.309 202.844H19.3139ZM96.1204 181.125C93.8225 181.833 91.307 181.954 88.8543 182.455C86.6048 182.913 84.3553 183.814 82.0333 184.378C74.7721 186.128 67.0658 187.965 60.2351 189.844C63.5343 191.435 67.3609 191.984 71.0568 192.948C72.8274 193.411 74.4334 194.274 76.2475 194.722C77.1957 194.958 78.1439 195.065 79.063 195.315C79.9435 195.556 80.7078 196.096 81.5834 196.347C82.5703 196.636 83.8813 196.684 84.9939 196.94C89.7493 198.029 94.4611 197.557 98.7859 199.6C99.6325 198.892 100.648 199.942 102.346 199.75C101.998 199.562 102.849 198.53 102.791 198.863C103.111 197.021 102.666 194.452 102.496 192.36C102.433 191.58 102.342 190.659 102.201 189.849C101.659 186.735 101.306 184.229 101.166 180.985C101.147 180.57 101.359 179.573 100.721 179.361C99.1245 179.876 97.7023 180.648 96.1252 181.134L96.1204 181.125ZM97.7506 200.333C94.9303 198.68 92.4341 198.848 88.8543 198.559C85.1439 198.26 81.477 196.699 78.6228 195.898C77.6843 195.633 76.6055 195.701 75.6574 195.455C74.2641 195.093 72.9048 194.404 71.5067 193.975C70.0361 193.527 68.488 193.214 67.0561 192.794C64.081 191.917 61.0865 190.751 58.3097 190.283C57.9276 190.22 57.9711 190.505 57.7196 190.577C51.4839 192.38 45.0209 193.975 38.7417 196.043C35.7182 197.041 32.6947 198.116 29.6954 199.147C26.7348 200.164 23.421 200.829 21.0941 202.989C27.8764 202.969 34.4556 202.03 41.1121 201.514C47.8896 200.988 54.5751 201.201 61.5751 201.364C71.8405 201.61 81.4915 201.07 92.1197 201.215C95.3802 201.258 98.7956 201.576 101.906 200.622C100.242 200.381 98.8923 200.077 97.7555 200.328L97.7506 200.333Z" fill="#CC0000"/>
<path id="Vector_109" fill-rule="evenodd" clip-rule="evenodd" d="M101.31 178.17C99.6946 179.221 97.2323 179.423 95.6746 180.532C84.819 182.836 74.4134 185.371 63.3498 188.36C61.9082 188.75 60.0554 189.522 58.904 189.541C57.7043 189.56 55.6193 188.808 54.0084 188.36C43.2496 185.362 31.5523 182.875 21.6836 179.052C36.3899 177.409 54.3228 178.686 69.4258 178.315C80.4507 178.045 91.6497 177.871 101.306 178.165L101.31 178.17Z" fill="white"/>
<path id="Vector_110" fill-rule="evenodd" clip-rule="evenodd" d="M19.0184 178.614C19.2409 178.739 19.2312 179.091 19.3135 179.351C22.1048 179.659 26.2844 181.308 29.545 182.455C38.2478 185.506 47.9278 187.155 57.1241 189.695C56.5775 190.418 55.4987 190.375 54.7537 190.582C49.0405 192.172 43.216 193.994 37.8511 195.754C31.451 197.851 25.0025 199.711 19.3183 202.844C18.8974 194.197 17.6203 185.94 19.0232 178.614H19.0184Z" fill="white"/>
<path id="Vector_111" fill-rule="evenodd" clip-rule="evenodd" d="M100.716 179.351C101.355 179.563 101.142 180.561 101.161 180.975C101.306 184.219 101.655 186.726 102.197 189.839C102.337 190.649 102.429 191.57 102.492 192.351C102.661 194.438 103.106 197.007 102.787 198.853C102.845 198.52 101.993 199.552 102.342 199.74C100.644 199.938 99.6278 198.882 98.7813 199.591C94.4565 197.547 89.7495 198.019 84.9893 196.93C83.8766 196.674 82.5656 196.626 81.5788 196.337C80.7032 196.081 79.9388 195.542 79.0584 195.305C78.1392 195.055 77.1911 194.949 76.2429 194.713C74.4336 194.264 72.8227 193.402 71.0522 192.939C67.3562 191.975 63.5249 191.425 60.2305 189.835C67.0612 187.955 74.7674 186.118 82.0287 184.369C84.3507 183.81 86.6002 182.908 88.8497 182.445C91.2975 181.944 93.8179 181.824 96.1157 181.115C97.6928 180.628 99.1199 179.862 100.711 179.341L100.716 179.351Z" fill="white"/>
<path id="Vector_112" fill-rule="evenodd" clip-rule="evenodd" d="M101.902 200.627C98.7913 201.581 95.3759 201.263 92.1154 201.22C81.4872 201.075 71.8362 201.61 61.5708 201.369C54.5708 201.201 47.8853 200.993 41.1078 201.519C34.4513 202.034 27.8722 202.979 21.0898 202.994C23.4167 200.834 26.7256 200.169 29.6911 199.152C32.6904 198.121 35.7091 197.046 38.7374 196.048C45.0166 193.98 51.4796 192.385 57.7153 190.582C57.9717 190.505 57.9281 190.22 58.3055 190.288C61.0822 190.755 64.0815 191.922 67.0518 192.799C68.4789 193.218 70.027 193.532 71.5024 193.98C72.9005 194.409 74.2598 195.098 75.6531 195.46C76.5964 195.706 77.68 195.638 78.6185 195.903C81.4727 196.699 85.1396 198.265 88.85 198.564C92.4299 198.853 94.926 198.684 97.7464 200.338C98.888 200.087 100.233 200.396 101.897 200.632L101.902 200.627Z" fill="white"/>
<path id="Vector_113" fill-rule="evenodd" clip-rule="evenodd" d="M53.8631 208.455C55.2998 208.214 61.7048 207.857 63.3544 208.305C65.2701 208.826 66.5811 212.928 67.5051 214.952C68.6516 217.449 70.1996 220.312 70.3206 222.93C70.5624 228.106 67.9502 229.871 63.4996 230.613C60.7325 231.076 58.5894 231.514 56.3835 231.056C51.2411 229.986 47.2017 225.142 46.597 220.124C45.9004 214.35 49.0206 209.265 53.8631 208.455ZM55.6385 210.821C53.5438 209.641 50.4671 212.161 49.7076 213.333C47.4194 216.871 47.9515 222.346 50.4477 225.446C51.6184 226.901 54.105 228.256 55.7836 228.694C59.1989 229.591 66.9246 228.482 67.9405 225.889C69.4692 221.99 67.5631 218.842 66.0103 215.545C64.7912 212.957 64.0752 208.503 59.9294 209.785C59.6924 210.33 60.389 211.058 60.3745 211.853C67.8244 211.761 67.7518 225.937 61.8548 226.921C57.3558 227.673 52.5327 225.335 50.7332 222.342C47.4484 216.876 53.1955 210.06 59.1844 211.554C59.0054 209.872 56.8092 210.441 55.624 210.817L55.6385 210.821ZM51.6378 220.573C53.418 223.137 56.5189 224.752 60.0891 224.708C60.4761 224.703 61.2791 224.713 61.7193 224.559C65.183 223.354 65.4298 214.027 60.9792 213.776C60.3696 213.661 60.6986 214.485 60.0891 214.369C56.4609 211.559 50.9363 215.801 51.6378 220.573Z" fill="#CC0000"/>
<path id="Vector_114" fill-rule="evenodd" clip-rule="evenodd" d="M59.198 211.559C53.2091 210.06 47.462 216.875 50.7467 222.346C52.5463 225.344 57.3646 227.677 61.8684 226.925C67.7606 225.937 67.8331 211.761 60.3881 211.858C60.4026 211.062 59.706 210.33 59.943 209.79C64.0888 208.508 64.8048 212.962 66.0239 215.55C67.5767 218.842 69.4779 221.99 67.9541 225.894C66.9382 228.487 59.2125 229.601 55.7972 228.699C54.1185 228.256 51.632 226.906 50.4613 225.45C47.9651 222.346 47.433 216.875 49.7212 213.338C50.4758 212.166 53.5574 209.645 55.6521 210.826C56.8373 210.45 59.0335 209.882 59.2125 211.564L59.198 211.559Z" fill="white"/>
<path id="Vector_115" fill-rule="evenodd" clip-rule="evenodd" d="M60.0895 214.364C60.699 214.48 60.37 213.656 60.9796 213.771C65.435 214.022 65.1883 223.354 61.7197 224.554C61.2795 224.708 60.4765 224.698 60.0895 224.703C56.5193 224.747 53.4184 223.127 51.6382 220.568C50.9416 215.796 56.4613 211.549 60.0895 214.364Z" fill="white"/>
<path id="Vector_116" fill-rule="evenodd" clip-rule="evenodd" d="M45.5555 110.655C45.4152 110.12 46.2231 110.53 46.1457 110.062C46.1795 109.537 45.449 109.768 45.5555 109.175C45.4636 108.529 46.9729 108.009 47.0358 108.881C46.5133 108.804 46.2714 109.006 46.1457 109.325C46.4891 109.672 47.147 109.705 47.1857 110.361C48.7773 110.438 48.9079 107.748 50.3011 108.587C50.1754 109.055 49.5368 109.006 49.411 109.474C49.8029 109.676 50.364 109.71 50.5962 110.067C50.7123 111.021 50.1609 111.31 49.561 111.542C48.8934 111.523 48.8741 110.848 48.6709 110.361C47.2196 110.26 46.6923 111.132 45.5555 110.655ZM49.411 110.949C49.5465 110.689 49.9577 110.703 50.0012 110.356C49.8271 110.187 49.4788 110.187 49.1111 110.207C49.0917 110.573 49.0821 110.925 49.4062 110.944L49.411 110.949Z" fill="#CC0000"/>
<path id="Vector_117" fill-rule="evenodd" clip-rule="evenodd" d="M26.7302 110.655C26.377 111.272 25.395 111.937 24.5049 111.542C24.413 110.959 24.7226 110.775 24.9499 110.51C23.4696 108.582 26.8076 108.896 26.7302 110.66V110.655ZM25.0999 110.211C25.4434 110.158 25.7965 110.115 25.6901 109.619C25.3128 109.638 25.1144 109.836 25.0999 110.211Z" fill="#CC0000"/>
<path id="Vector_118" fill-rule="evenodd" clip-rule="evenodd" d="M92.2625 27.0359C91.6336 26.6744 91.3869 27.2625 91.2224 27.7734C91.7691 28.0674 92.4076 28.2699 92.2625 29.2532C89.0987 30.598 91.0918 24.4476 92.2625 27.0359Z" fill="#CC0000"/>
<path id="Vector_119" fill-rule="evenodd" clip-rule="evenodd" d="M107.536 26.5925C107.797 27.3878 107.211 28.5061 107.236 29.5472C104.57 28.294 99.1423 31.4126 99.8244 26.8866C102.422 26.6166 105.131 26.7275 107.536 26.5925ZM103.83 27.33C103.796 27.6096 103.999 27.6578 103.98 27.9229C104.406 27.9518 104.788 27.9422 104.72 27.4794C104.512 27.1131 104.212 27.2191 103.83 27.33ZM100.419 27.6289C100.497 28.0916 100.681 28.4531 100.864 28.8098C101.909 28.8435 102.63 28.7134 103.235 28.6604C103.23 28.1735 102.983 27.9229 103.085 27.33C102.127 27.6433 101.251 27.1565 100.415 27.624L100.419 27.6289Z" fill="#CC0000"/>
<path id="Vector_120" fill-rule="evenodd" clip-rule="evenodd" d="M97.0109 36.0496C97.7994 36.1845 98.6847 35.8327 99.0862 36.0496C99.928 37.9005 98.2977 39.4188 98.7911 41.5156C96.8464 42.253 92.5022 42.0651 90.7849 41.665C90.1996 39.7755 90.4076 37.6547 90.3398 35.905C92.1733 35.1193 94.3115 34.6421 96.2707 33.9866C96.4836 34.7096 96.7884 35.341 97.0109 36.0544V36.0496ZM92.2652 36.1942C92.7151 36.3581 93.3924 36.0978 94.1906 36.1942C94.1615 35.476 95.0565 35.6784 95.0807 35.0133C94.0116 35.5579 92.8119 35.3796 92.2652 36.1942ZM91.2251 36.787C90.7752 38.021 90.872 40.0985 91.3751 41.2167C93.6197 41.1637 96.1159 41.6843 98.0461 41.0673C98.0994 40.6817 98.1235 40.1515 98.1961 39.4429C97.0157 39.3995 96.4255 39.9442 95.3806 40.0358C94.8775 39.6502 94.9017 38.7392 94.9356 37.8185C95.9515 36.9895 98.6266 38.1463 98.7911 36.7822C96.5126 36.252 93.5955 37.0763 91.23 36.7822L91.2251 36.787ZM95.5257 38.262C95.5257 38.6524 95.4677 39.1055 95.6757 39.2935C96.4594 38.797 98.3509 39.3995 98.3461 38.1126C97.2673 38.021 96.4836 38.2234 95.5306 38.262H95.5257Z" fill="#CC0000"/>
<path id="Vector_121" fill-rule="evenodd" clip-rule="evenodd" d="M104.723 63.0855C104.916 64.0206 104.007 63.8519 103.833 64.4159C104.558 70.5711 103.248 77.4687 103.388 83.1805C103.407 83.9806 103.659 84.5301 103.833 85.2483C103.044 85.4941 102.319 85.8074 101.758 86.2846C89.5523 86.1834 76.7665 85.2965 65.1321 85.2483C52.1867 85.1953 37.5626 86.6943 24.2109 87.4656C21.647 87.615 19.3878 87.5186 16.7948 87.4656C16.3159 87.4559 15.6145 87.7548 15.1646 87.3161C16.1805 85.8556 18.1494 85.711 19.7603 85.0989C31.5543 80.6114 44.64 76.9577 57.866 73.8729C50.837 72.1666 43.2904 70.9808 35.7727 69.8818C28.3664 68.8021 21.1148 66.8596 14.2745 65.7462C14.0519 72.1232 14.468 79.845 14.7195 87.1667C13.6262 86.7184 14.139 85.2628 14.1245 84.506C14.0955 82.6888 13.5246 80.0185 13.3843 77.4157C13.215 74.2681 14.139 67.8767 13.2344 63.823C20.3747 64.4882 28.8163 63.7025 36.2178 63.3795C52.8494 62.6565 63.7195 62.6854 79.3643 63.0855C88.0429 63.3072 96.4555 62.8686 104.718 63.0855H104.723ZM63.5018 63.3795C47.2136 63.0759 30.9932 64.6183 13.9794 64.5605C14.4293 65.3847 15.6145 65.4281 16.3498 65.5968C19.4362 66.2861 22.1065 66.5271 24.951 67.2212C32.5799 69.0865 40.4458 69.7903 48.3795 71.2122C52.3028 71.9159 56.5212 73.3041 60.2413 73.1306C62.8197 73.0101 65.7997 72.2196 68.5426 71.6508C74.0381 70.5133 79.2724 69.0431 84.555 68.1032C87.3947 67.5971 90.3601 67.4429 92.8563 66.7729C95.8315 65.9727 98.4196 64.2134 101.308 63.6687C88.5412 64.0447 75.6248 63.6013 63.497 63.3747L63.5018 63.3795ZM97.752 65.7414C96.3201 66.3294 94.7188 66.9657 93.1563 67.3658C89.8474 68.2141 86.2047 68.2671 82.7748 68.9901C77.6857 70.065 72.7416 71.4821 67.6525 72.3883C66.0271 72.6775 64.1694 72.7064 62.7617 73.7186C77.5695 75.9937 90.5101 79.7679 102.498 85.0941C103.049 81.5031 103.194 77.4928 103.388 74.0127C103.538 71.3375 103.528 68.6142 103.538 66.4789C103.538 65.8522 103.901 64.6665 103.093 64.2616C101.042 64.5556 99.6435 64.9653 97.752 65.7414ZM88.4106 80.3704C79.4707 78.1049 69.5101 74.6682 59.7962 73.8681C59.5495 73.8488 59.4286 73.9645 59.2012 74.0175C46.6767 76.8565 33.6442 81.0789 22.1307 84.9495C20.423 85.5231 18.5799 85.8267 17.2351 87.0173C30.5385 86.7184 44.9545 85.1423 58.9013 84.8C73.8349 84.4385 88.4493 85.5809 101.453 85.3929C96.9925 83.7637 93.0208 81.5417 88.4058 80.3704H88.4106Z" fill="#CC0000"/>
<path id="Vector_122" fill-rule="evenodd" clip-rule="evenodd" d="M102.496 98.8361C104.068 112.356 103.7 126.272 103.236 141.238C103.159 143.73 102.723 146.16 102.641 148.623C102.481 153.578 103.149 158.581 102.196 163.396C92.7336 164.573 83.2955 163.686 73.5816 163.69C61.0522 163.69 48.1987 164.283 35.3259 164.283C28.6452 164.283 22.632 164.905 16.9382 163.84C16.0142 150.541 15.7917 135.705 15.1579 122.474C14.7709 114.376 15.2982 106.876 15.753 100.017C18.9893 99.3807 22.4675 99.5832 25.9845 99.4241C29.6369 99.2602 33.3425 98.8457 37.1061 98.6866C44.4593 98.3782 51.9575 98.5758 59.0494 98.6866C66.2236 98.7975 73.5042 98.2094 80.5477 98.0938C87.9492 97.9733 94.9541 98.2962 101.751 97.9443C102.477 97.9058 103.173 97.5539 102.491 98.8312L102.496 98.8361ZM94.7848 102.528C94.4219 102.842 94.9154 103.184 94.6348 103.415C93.4786 103.198 93.8366 104.495 92.8546 104.447C92.8159 105.102 92.4724 105.979 93.0045 106.365C93.3722 106.558 93.6189 105.931 93.7447 106.365V107.252C94.6009 107.532 95.2395 108.028 95.82 108.582C96.5989 108.173 96.8214 108.158 97.7454 108.433C97.934 107.686 98.6355 107.445 99.5256 107.401C99.0951 106.495 99.9803 106.5 100.266 105.926C100.188 104.673 100.087 103.444 99.3756 102.822H98.4855C98.2049 102.461 97.9195 102.104 97.7454 101.641C96.8165 101.584 96.6182 102.152 95.9651 101.641C95.8926 102.258 95.3459 102.403 94.7799 102.528H94.7848ZM19.4634 103.415C20.2084 104.852 22.6562 104.042 24.0591 104.008C28.0695 103.902 33.4973 103.42 38.1462 103.415C37.9382 104.302 37.885 104.625 38.0011 105.632C31.7944 106.336 27.281 106.433 21.0985 106.813C20.9582 105.97 20.9969 104.948 20.6535 104.302C20.102 104.543 19.7004 104.929 19.1731 105.189C19.5215 105.652 20.3148 104.905 20.3584 105.483C20.3971 106.23 20.5132 106.905 20.6535 107.551C26.2118 107.199 33.1925 106.987 38.4461 106.22C38.5477 105.17 38.9396 103.69 38.5961 102.673C32.1766 102.875 26.4005 103.955 19.4682 103.41L19.4634 103.415ZM42.5919 110.211C43.3708 110.173 43.5401 110.747 43.9271 111.098C44.0964 110.621 44.2803 110.072 44.0771 109.623C43.6514 109.416 43.3224 110.023 43.187 109.623C43.1773 109.084 44.019 108.905 43.632 108.443C43.5982 108.327 43.5063 108.269 43.3369 108.293C43.0177 108.867 42.3017 109.484 42.5968 110.216L42.5919 110.211ZM48.6728 110.361C48.876 110.848 48.8953 111.523 49.5629 111.542C50.1676 111.306 50.7191 111.016 50.5982 110.067C50.366 109.71 49.8048 109.676 49.413 109.474C49.5387 109.006 50.1773 109.055 50.3031 108.587C48.9098 107.748 48.7792 110.438 47.1877 110.361C47.149 109.71 46.491 109.676 46.1476 109.325C46.2734 109.006 46.5152 108.799 47.0377 108.881C46.9748 108.009 45.4606 108.529 45.5574 109.175C45.4558 109.768 46.1814 109.537 46.1476 110.062C46.2201 110.53 45.4123 110.115 45.5574 110.655C46.6942 111.127 47.2215 110.255 48.6728 110.361ZM21.2388 110.949C21.9403 111.151 22.216 110.486 22.574 110.8C22.5208 111.392 22.574 111.879 23.019 111.98C22.9368 110.881 22.8594 110.361 23.1642 109.469C22.5353 107.985 20.0342 109.739 21.2388 110.949ZM35.4758 109.619C35.4565 110.327 36.3369 110.139 36.5111 110.655C36.2353 110.674 36.0177 110.751 35.9161 110.949C36.1241 111.474 36.9561 111.19 37.2512 110.949C37.3045 110.009 36.2015 110.221 36.066 109.469C36.3514 109.407 36.7046 109.416 36.6611 109.026C36.2305 108.606 35.6016 109.243 35.4758 109.619ZM38.4413 109.325C38.6928 109.532 39.1234 109.257 39.4814 109.619C39.2443 110.318 38.1559 110.173 38.2962 111.243C39.075 111.633 40.744 111.388 40.8165 110.207C40.4731 110.216 39.9796 110.838 39.6313 110.356C40.9278 109.749 38.9879 107.989 38.4461 109.32L38.4413 109.325ZM24.9492 110.506C24.7219 110.771 24.4123 110.959 24.5042 111.537C25.3895 111.937 26.3763 111.267 26.7295 110.65C26.8069 108.886 23.4689 108.573 24.9492 110.501V110.506ZM32.2153 110.211C32.4233 110.25 32.3846 110.534 32.5104 110.655C33.1248 110.824 33.0861 110.342 33.5505 110.361C33.773 110.583 33.594 111.204 34.1455 111.098C34.189 110.559 34.1213 110.139 33.9955 109.768C33.5698 109.561 33.2409 110.173 33.1054 109.768C33.1054 109.474 33.5118 109.58 33.4005 109.18C32.8007 108.809 32.4088 109.715 32.2153 110.211ZM31.0301 110.361C30.9382 108.606 27.6631 109.956 29.545 111.397C30.5318 111.445 31.0591 111.021 31.0301 110.361ZM27.9147 111.985C27.9292 111.619 28.1807 109.889 27.4696 109.768C27.5615 110.568 27.189 111.821 27.9147 111.985ZM97.3051 115.234C91.9064 115.774 85.9803 115.692 80.2526 115.677C77.621 115.673 74.8635 115.533 72.2464 115.383C63.4226 114.877 55.6486 115.624 47.6327 115.976C37.5802 116.41 28.1662 116.266 19.7585 115.976C20.3438 117.336 22.3273 116.666 23.6141 116.714C29.1966 116.926 36.0805 116.564 42.1469 116.564C47.2409 116.564 52.3155 116.405 57.2692 116.121C67.5104 115.528 77.6984 116.27 88.1089 116.27C90.2132 116.27 92.2547 116.044 94.3349 115.976C96.2892 115.909 98.3984 116.02 100.266 115.239C99.3369 114.521 98.0453 115.167 97.3003 115.239L97.3051 115.234ZM76.8421 118.926C73.3639 119.177 69.7599 118.454 67.9458 119.37C73.2962 119.813 80.6928 118.888 86.0336 119.22C86.2658 119.818 86.4593 121.105 86.3286 121.582C80.9928 121.568 75.2941 121.813 69.7212 122.026C68.8843 121.515 69.368 120.435 68.6859 119.958C67.791 120.98 69.0536 122.329 69.7212 122.763C75.0425 122.3 80.8283 122.006 86.7737 122.32C87.2284 121.1 86.6286 119.726 86.4786 118.627C83.518 118.555 79.585 118.724 76.8421 118.921V118.926ZM26.1344 120.112C24.8089 120.054 23.6141 119.341 22.4288 120.112C28.9209 121.336 35.2485 119.75 41.8518 119.519C42.084 120.073 42.1807 120.767 42.2969 121.437C36.4337 122.541 28.8242 121.9 23.319 123.361C22.8884 122.705 23.2222 121.288 22.4288 120.994C21.9403 121.732 22.7336 123.341 23.169 124.098C28.8677 122.488 36.4482 123.072 42.8919 122.18C42.6984 121.09 42.7758 119.736 42.1517 119.076C37.7156 118.878 31.0301 120.314 26.1393 120.112H26.1344ZM80.2526 123.655C77.5436 124.325 73.093 123.746 70.3162 124.392C70.4662 125.236 71.3418 124.686 71.8013 124.686C73.0785 124.686 74.5975 124.754 75.952 124.686C77.9596 124.585 80.0543 124.893 80.6977 123.799C80.509 123.79 80.4945 123.611 80.2526 123.65V123.655ZM24.0591 126.021C24.0785 127.255 25.3508 126.638 25.9845 126.614C28.5968 126.508 32.3701 126.229 34.7309 125.727C35.0453 126.291 35.8145 126.166 35.9161 125.433C32.6555 125.197 27.9969 126.393 24.0543 126.026L24.0591 126.021ZM71.8013 126.315C71.1918 126.354 70.4758 125.872 70.3162 126.609C73.0591 127.024 76.876 126.566 79.9527 126.609C80.6009 126.619 81.4911 127.154 81.8829 126.315C78.9852 125.747 75.0377 126.113 71.8013 126.315ZM35.9209 126.908C32.3653 127.429 28.0985 127.911 24.9492 128.089C25.3217 129.111 26.7924 128.624 27.6196 128.533C30.5899 128.205 34.668 127.226 37.111 127.202C37.6382 127.198 37.9769 127.651 38.2962 127.202C37.8366 126.171 36.7578 126.783 35.9257 126.908H35.9209ZM35.7709 132.962C32.1669 133.097 28.9209 133.396 24.9444 133.256C23.9479 133.223 22.632 132.62 21.6839 133.406C30.6769 134.563 41.0633 133.039 51.6334 133.112C59.7896 133.165 68.0764 133.15 76.2471 133.112C80.4219 133.092 84.5871 132.818 88.7039 132.962C92.6756 133.102 96.6424 133.435 100.416 133.406C101.282 133.401 102.539 133.493 103.231 132.668C81.1863 132.447 58.4593 132.124 35.7661 132.962H35.7709ZM24.0591 136.361C23.7108 137.228 24.0446 137.508 24.5042 138.428C24.4074 139.031 24.0736 139.918 24.5042 140.202C25.2879 140.636 26.0764 140.154 26.8746 140.053C33.0522 139.272 40.3957 140.111 47.3376 139.315C47.6279 138.163 48.1068 136.462 48.0778 135.474C40.2844 136.057 31.9444 136.317 24.0591 136.361ZM89.744 144.931C89.1151 144.964 88.8684 144.425 88.1137 144.637C87.2768 144.873 86.4786 146.184 86.0384 146.854C84.9838 148.449 83.4793 150.541 84.5532 152.913C85.7288 155.501 91.621 157.448 94.9347 155.424C98.4178 153.294 96.6908 146.743 94.1946 144.198C92.3466 143.624 91.0163 144.873 89.744 144.935V144.931ZM67.2056 144.931C63.263 145.499 60.4136 150.917 63.7951 153.944C66.1414 156.041 69.281 154.817 73.2865 154.682C77.4904 152.758 76.6051 142.742 70.0259 145.818C69.3293 145.046 68.5166 144.743 67.2105 144.931H67.2056ZM46.0024 145.962C45.5671 146.054 45.0301 145.827 44.5173 145.962C41.2229 146.844 39.3072 151.872 41.7018 154.976C42.8145 156.422 45.0011 157.227 47.7778 156.894C49.7467 156.658 53.8345 155.626 54.3038 153.496C55.0488 150.107 50.2353 144.81 47.6327 145.225C46.8539 145.35 46.5249 145.856 46.0024 145.962ZM34.1407 152.758C34.6438 150.956 31.5187 144.704 29.245 145.369C28.2243 145.668 26.8794 145.475 25.9845 145.663C21.8435 146.55 20.9195 152.411 23.3141 155.564C26.4973 158.678 33.3183 155.684 34.1358 152.758H34.1407ZM64.6852 157.487C64.5256 158.128 64.4143 159.15 64.5353 160.148C67.7329 159.54 72.4834 162.871 72.2464 157.93C69.4745 157.964 66.151 157.906 64.6852 157.487ZM86.0384 158.08C86.5318 158.277 86.6479 158.851 87.0736 159.116C86.7979 159.728 86.0674 159.883 86.1835 160.89C89.3376 161.256 92.2208 160.986 94.4848 162.22C94.7848 160.895 95.4717 159.95 95.3749 158.229C92.811 158.056 88.3314 157.993 86.0336 158.08H86.0384ZM45.1123 158.668C45.0543 158.88 44.9333 158.919 45.1123 159.111C47.744 159.545 49.5726 159.179 52.2284 159.261C51.9672 159.786 51.9092 160.519 51.4883 160.885C49.2098 160.789 46.5491 161.078 44.5173 160.736C44.2754 160.21 44.6963 159.699 44.6673 158.962C43.6611 158.832 43.6175 160.326 43.9271 161.03C46.5346 161.743 49.6258 161.555 52.0833 161.473C52.2768 160.437 52.9686 159.897 52.9734 158.668C51.0287 158.456 47.3521 158.779 45.1123 158.668ZM24.6541 159.849C26.9762 161.059 30.6237 159.825 33.2554 160.143V161.324C30.8753 161.709 28.3791 161.979 25.6942 162.061C25.1718 161.521 25.8297 160.596 25.2492 160.287C24.4897 160.538 24.9057 161.782 25.0992 162.355C27.9389 162.784 30.914 162.336 33.8456 161.912C33.8601 160.914 33.9181 159.873 33.5505 159.251C30.8946 159.94 26.981 159.632 24.6541 159.844V159.849Z" fill="white"/>
</g>
<defs>
<clipPath id="clip0_2_1728">
<rect width="119" height="241" fill="white" transform="translate(0.398438)"/>
</clipPath>
</defs>
</svg>
